<svg xmlns="http://www.w3.org/2000/svg">
    <symbol id="abt-03" width="56" height="56" viewBox="0 0 56 56" fill="none" >
<path d="M34.0321 12.3339C34.0321 8.93343 31.265 6.16722 27.8654 6.16722C24.4658 6.16722 21.6987 8.93343 21.6987 12.3339C21.6987 15.7344 24.4658 18.5006 27.8654 18.5006C31.265 18.5006 34.0321 15.7344 34.0321 12.3339ZM23.4606 12.3339C23.4606 9.90513 25.4366 7.92914 27.8654 7.92914C30.2942 7.92914 32.2702 9.90513 32.2702 12.3339C32.2702 14.7627 30.2942 16.7387 27.8654 16.7387C25.4366 16.7387 23.4606 14.7627 23.4606 12.3339Z" fill="white"/>
<path d="M30.5083 12.3339C30.5083 10.8768 29.3225 9.69106 27.8654 9.69106C26.4083 9.69106 25.2225 10.8768 25.2225 12.3339C25.2225 13.791 26.4083 14.9768 27.8654 14.9768C29.3225 14.9768 30.5083 13.791 30.5083 12.3339ZM26.9844 12.3339C26.9844 11.8485 27.3791 11.453 27.8654 11.453C28.3517 11.453 28.7463 11.8485 28.7463 12.3339C28.7463 12.8193 28.3517 13.2149 27.8654 13.2149C27.3791 13.2149 26.9844 12.8193 26.9844 12.3339Z" fill="white"/>
<path d="M53.4132 53.739V32.596H37.5559V53.739H33.5423C33.8453 53.2184 34.0321 52.6219 34.0321 51.9771V33.403C34.0321 32.0427 34.6452 30.7803 35.7156 29.939L45.1234 22.5478C45.9127 21.9276 46.3655 20.9955 46.3655 19.9912C46.3655 18.1976 44.9067 16.7387 43.1139 16.7387H42.7932C42.0576 16.7387 41.3361 16.9916 40.7609 17.4514L34.0488 22.8209C33.3317 23.3953 32.4429 23.7177 31.5284 23.7661L31.8227 21.7144L33.6092 22.7865L38.3189 18.076L37.1912 16.1952L39.3179 15.6648V9.00303L37.1895 8.47181L38.318 6.59185L33.6092 1.88048L31.7275 3.00899L31.1963 0.88147H24.5345L24.0033 3.00987L22.1215 1.88048L17.4119 6.59096L18.5404 8.47093L16.4129 9.00303V15.6648L18.5404 16.1969L17.4128 18.0769L22.1224 22.7874L23.909 21.7153L24.2032 23.767C23.2879 23.7186 22.3999 23.3953 21.6828 22.8218L14.9699 17.4514C14.3955 16.9916 13.674 16.7387 12.9384 16.7387H12.6178C10.8241 16.7387 9.36525 18.1976 9.36525 19.9912C9.36525 20.9955 9.81807 21.9276 10.6074 22.5478L20.0152 29.939C21.0855 30.7803 21.6987 32.0427 21.6987 33.403V51.9771C21.6987 52.6219 21.8854 53.2184 22.1885 53.739H18.1748V32.596H2.31758V53.739H0.555664V55.5009H55.1751V53.739H53.4132ZM39.3179 34.3579H51.6513V53.739H48.1274V48.4533H49.8894V46.6913H41.0798V48.4533H42.8417V53.739H39.3179V34.3579ZM46.3655 48.4533V53.739H44.6036V48.4533H46.3655ZM28.6997 31.397L27.8654 32.2313L27.0311 31.397L27.7623 25.5483H27.9693L28.6997 31.397ZM22.3955 20.5683L19.6302 17.8038L20.7719 15.9009L20.3288 14.8262L18.1748 14.2888V10.3791L19.8918 9.95006L20.3631 9.77123L20.7719 8.76517L19.6302 6.86406L22.3955 4.09961L24.2975 5.24134L25.3723 4.79821L25.9105 2.64339H29.8202L30.3585 4.79821L31.4333 5.24134L33.3353 4.09961L36.1006 6.86406L34.9589 8.76517L35.3958 9.83994L37.5559 10.3791V14.2888L35.8389 14.7178L35.3685 14.8958L34.9589 15.9018L36.1006 17.8047L33.3353 20.5691L31.4333 19.4274L30.3048 19.8926L29.7445 23.7864H25.9863L25.4269 19.8917L24.2984 19.4265L22.3955 20.5683ZM23.4606 51.9771V33.403C23.4606 31.4992 22.6017 29.7311 21.104 28.5541L11.6963 21.1629C11.3342 20.8784 11.1272 20.4511 11.1272 19.9912C11.1272 19.1693 11.7958 18.5006 12.6169 18.5006H12.9375C13.2749 18.5006 13.6053 18.6169 13.8687 18.8275L20.5807 24.1969C21.6705 25.0682 23.0386 25.5483 24.4332 25.5483H25.9863L25.1758 32.0331L27.8654 34.7226L30.555 32.0331L29.7445 25.5483H31.2976C32.693 25.5483 34.0612 25.0682 35.15 24.1969L41.8612 18.8275C42.1255 18.6169 42.4558 18.5006 42.7932 18.5006H43.1139C43.935 18.5006 44.6036 19.1693 44.6036 19.9912C44.6036 20.4511 44.3966 20.8784 44.0345 21.1629L34.6268 28.5541C33.1291 29.7311 32.2702 31.4992 32.2702 33.403V51.9771C32.2702 52.9488 31.48 53.739 30.5083 53.739C29.5366 53.739 28.7463 52.9488 28.7463 51.9771V40.5246H26.9844V51.9771C26.9844 52.9488 26.1942 53.739 25.2225 53.739C24.2508 53.739 23.4606 52.9488 23.4606 51.9771ZM4.0795 34.3579H16.4129V53.739H12.8891V48.4533H14.651V46.6913H5.84142V48.4533H7.60334V53.739H4.0795V34.3579ZM11.1272 48.4533V53.739H9.36525V48.4533H11.1272Z" fill="white"/>
<path d="M41.0798 36.1198H42.8417V37.8817H41.0798V36.1198Z" fill="white"/>
<path d="M44.6036 36.1198H46.3655V37.8817H44.6036V36.1198Z" fill="white"/>
<path d="M48.1274 36.1198H49.8894V37.8817H48.1274V36.1198Z" fill="white"/>
<path d="M41.0798 39.6437H42.8417V41.4056H41.0798V39.6437Z" fill="white"/>
<path d="M44.6036 39.6437H46.3655V41.4056H44.6036V39.6437Z" fill="white"/>
<path d="M48.1274 39.6437H49.8894V41.4056H48.1274V39.6437Z" fill="white"/>
<path d="M41.0798 43.1675H42.8417V44.9294H41.0798V43.1675Z" fill="white"/>
<path d="M44.6036 43.1675H46.3655V44.9294H44.6036V43.1675Z" fill="white"/>
<path d="M48.1274 43.1675H49.8894V44.9294H48.1274V43.1675Z" fill="white"/>
<path d="M5.84142 36.1198H7.60334V37.8817H5.84142V36.1198Z" fill="white"/>
<path d="M9.36525 36.1198H11.1272V37.8817H9.36525V36.1198Z" fill="white"/>
<path d="M12.8891 36.1198H14.651V37.8817H12.8891V36.1198Z" fill="white"/>
<path d="M5.84142 39.6437H7.60334V41.4056H5.84142V39.6437Z" fill="white"/>
<path d="M9.36525 39.6437H11.1272V41.4056H9.36525V39.6437Z" fill="white"/>
<path d="M12.8891 39.6437H14.651V41.4056H12.8891V39.6437Z" fill="white"/>
<path d="M5.84142 43.1675H7.60334V44.9294H5.84142V43.1675Z" fill="white"/>
<path d="M9.36525 43.1675H11.1272V44.9294H9.36525V43.1675Z" fill="white"/>
<path d="M12.8891 43.1675H14.651V44.9294H12.8891V43.1675Z" fill="white"/>
    </symbol>
</svg>
