<svg xmlns="http://www.w3.org/2000/svg">
    <symbol id="abt-02" width="56" height="56" viewBox="0 0 56 56" fill="none" >
<path d="M48.3953 11.4917C49.8383 10.3614 50.7703 8.60916 50.7703 6.63845C50.7703 3.23795 48.0032 0.471741 44.6036 0.471741C41.204 0.471741 38.4369 3.23795 38.4369 6.63845C38.4369 8.6118 39.3725 10.3667 40.819 11.4961C40.619 11.5586 40.4226 11.6308 40.227 11.7066C37.3181 8.08499 32.8613 5.75749 27.8654 5.75749C22.8695 5.75749 18.4127 8.08587 15.5038 11.7075C15.3082 11.6317 15.1109 11.5595 14.9118 11.4969C16.3583 10.3676 17.2939 8.6118 17.2939 6.63845C17.2939 3.23795 14.5268 0.471741 11.1272 0.471741C7.72755 0.471741 4.96046 3.23795 4.96046 6.63845C4.96046 8.60916 5.89251 10.3614 7.33552 11.4917C3.40997 12.7303 0.555664 16.4048 0.555664 20.7338V29.5434C0.555664 31.9722 2.53165 33.9482 4.96046 33.9482V51.5674C4.96046 53.5108 6.5409 55.0912 8.48429 55.0912C9.54233 55.0912 10.4805 54.6137 11.1272 53.8737C11.7738 54.6137 12.712 55.0912 13.77 55.0912C15.7134 55.0912 17.2939 53.5108 17.2939 51.5674V33.4002C19.4795 35.3621 22.2043 36.7232 25.2225 37.2333V39.2339H23.4606V50.6864C23.4606 53.1152 25.4366 55.0912 27.8654 55.0912C30.2942 55.0912 32.2702 53.1152 32.2702 50.6864V39.2339H30.5083V37.2333C33.5264 36.7232 36.2512 35.3621 38.4369 33.4002V51.5674C38.4369 53.5108 40.0173 55.0912 41.9607 55.0912C43.0188 55.0912 43.957 54.6137 44.6036 53.8737C45.2502 54.6137 46.1885 55.0912 47.2465 55.0912C49.1899 55.0912 50.7703 53.5108 50.7703 51.5674V33.9482C53.1991 33.9482 55.1751 31.9722 55.1751 29.5434V20.7338C55.1751 16.4048 52.3208 12.7303 48.3953 11.4917ZM40.1988 6.63845C40.1988 4.20965 42.1748 2.23366 44.6036 2.23366C47.0324 2.23366 49.0084 4.20965 49.0084 6.63845C49.0084 9.06726 47.0324 11.0432 44.6036 11.0432C42.1748 11.0432 40.1988 9.06726 40.1988 6.63845ZM6.72238 6.63845C6.72238 4.20965 8.69837 2.23366 11.1272 2.23366C13.556 2.23366 15.532 4.20965 15.532 6.63845C15.532 9.06726 13.556 11.0432 11.1272 11.0432C8.69837 11.0432 6.72238 9.06726 6.72238 6.63845ZM13.77 53.3293C12.7984 53.3293 12.0081 52.5391 12.0081 51.5674V29.5434H10.2462V51.5674C10.2462 52.5391 9.45599 53.3293 8.48429 53.3293C7.5126 53.3293 6.72238 52.5391 6.72238 51.5674V18.9719H4.96046V32.1863C3.50335 32.1863 2.31758 31.0005 2.31758 29.5434V20.7338C2.31758 16.3625 5.87401 12.8052 10.2462 12.8052H12.0081C12.8503 12.8052 13.6679 12.94 14.4519 13.1954C12.9129 15.6383 12.0081 18.5199 12.0081 21.6148C12.0081 25.3791 13.3322 28.8369 15.532 31.5599V51.5674C15.532 52.5391 14.7417 53.3293 13.77 53.3293ZM30.5083 50.6864C30.5083 52.1435 29.3225 53.3293 27.8654 53.3293C26.4083 53.3293 25.2225 52.1435 25.2225 50.6864V40.9958H30.5083V50.6864ZM28.7463 39.2339H26.9844V37.4271C27.2778 37.4438 27.5676 37.472 27.8654 37.472C28.1632 37.472 28.453 37.4438 28.7463 37.4271V39.2339ZM27.8654 35.7101C20.0936 35.7101 13.77 29.3866 13.77 21.6148C13.77 13.8429 20.0936 7.51941 27.8654 7.51941C35.6372 7.51941 41.9607 13.8429 41.9607 21.6148C41.9607 29.3866 35.6372 35.7101 27.8654 35.7101ZM53.4132 29.5434C53.4132 31.0005 52.2274 32.1863 50.7703 32.1863V18.9719H49.0084V51.5674C49.0084 52.5391 48.2182 53.3293 47.2465 53.3293C46.2748 53.3293 45.4846 52.5391 45.4846 51.5674V29.5434H43.7227V51.5674C43.7227 52.5391 42.9324 53.3293 41.9607 53.3293C40.989 53.3293 40.1988 52.5391 40.1988 51.5674V31.5599C42.3986 28.8377 43.7227 25.38 43.7227 21.6148C43.7227 18.5199 42.8179 15.6383 41.278 13.1954C42.0629 12.94 42.8805 12.8052 43.7227 12.8052H45.4846C49.8568 12.8052 53.4132 16.3625 53.4132 20.7338V29.5434Z" fill="white"/>
<path d="M23.9504 15.7537L22.9717 14.2896C22.4299 14.6517 21.9268 15.0754 21.4784 15.5494L22.7558 16.7607C23.1144 16.3827 23.5161 16.0436 23.9504 15.7537Z" fill="white"/>
<path d="M21.8088 18.0063L20.2962 17.1042C19.9614 17.6645 19.6901 18.2627 19.4875 18.882L21.1613 19.4291C21.3234 18.9331 21.541 18.4548 21.8088 18.0063Z" fill="white"/>
<path d="M27.8654 9.28133C21.0644 9.28133 15.532 14.8138 15.532 21.6148C15.532 28.4158 21.0644 33.9482 27.8654 33.9482C34.6664 33.9482 40.1988 28.4158 40.1988 21.6148C40.1988 14.8138 34.6664 9.28133 27.8654 9.28133ZM27.8654 32.1863C22.0361 32.1863 17.2939 27.4441 17.2939 21.6148C17.2939 15.7854 22.0361 11.0432 27.8654 11.0432C33.6947 11.0432 38.4369 15.7854 38.4369 21.6148C38.4369 27.4441 33.6947 32.1863 27.8654 32.1863Z" fill="white"/>
<path d="M34.0321 26.0195V17.21H32.2702V26.0195H30.5083V22.4957H28.7463V26.0195H26.9844V18.9719H25.2225V26.0195H23.4606V20.7338H21.6987V26.0195H19.9368V27.7815H35.794V26.0195H34.0321Z" fill="white"/>
    </symbol>
</svg>
