<svg width="110" height="95" viewBox="0 0 110 95" fill="none" xmlns="http://www.w3.org/2000/svg">
<g clip-path="url(#clip0)">
<rect x="6.30246" y="2.23094" width="76.8894" height="76.8894" rx="13.5863" fill="url(#paint0_linear)"/>
<path d="M68.3847 26.6154C68.648 26.1471 68.905 25.6773 69.1555 25.206C68.7836 25.1259 68.4117 25.0458 68.0397 24.9657C67.7157 25.4255 67.3788 25.8941 67.0295 26.3707C67.4845 26.4547 67.9365 26.5364 68.3847 26.6154Z" fill="white"/>
<path d="M70.6883 25.5354C70.6083 25.9982 70.5237 26.4739 70.4342 26.9615C71.5614 27.1428 72.6543 27.3025 73.6978 27.4344C73.7339 27.0155 73.7648 26.6034 73.7902 26.1988C72.7597 25.9795 71.7249 25.758 70.6883 25.5354Z" fill="white"/>
<path d="M55.9258 43.3164C54.9825 43.0685 54.0247 42.7862 53.0662 42.4648C52.5643 42.9665 52.0562 43.4675 51.5424 43.9672C52.3618 44.434 53.2363 44.8329 54.1361 45.1736C54.739 44.5635 55.3358 43.9442 55.9258 43.3164Z" fill="white"/>
<path fill-rule="evenodd" clip-rule="evenodd" d="M15.631 62.4774C15.631 59.0875 21.2133 56.5877 21.7329 56.3624C16.7443 58.5307 17.7199 69.4175 34.0526 58.3896C40.2206 54.2256 46.1928 49.1693 51.5424 43.9672C52.3618 44.434 53.2363 44.8329 54.1361 45.1736C46.6969 52.7018 38.3498 58.8293 30.9823 62.4774C20.3132 67.7607 15.631 66.0326 15.631 62.4774ZM55.9258 43.3164C55.3358 43.9442 54.739 44.5635 54.1361 45.1736C58.0612 46.6596 62.47 47.0389 64.9132 47.1287C65.1935 46.4052 65.4631 45.6789 65.7225 44.9519C63.3037 44.7578 59.7334 44.317 55.9258 43.3164ZM53.0662 42.4648C51.1275 41.8147 49.1861 41.0046 47.357 39.9949C48.3194 41.686 49.8078 42.979 51.5424 43.9672C52.0562 43.4675 52.5643 42.9665 53.0662 42.4648ZM67.0295 26.3707C63.481 31.2125 58.6528 36.8811 53.0662 42.4648C54.0247 42.7862 54.9825 43.0685 55.9258 43.3164C60.7179 38.2158 65.0504 32.5463 68.3847 26.6154C69.078 26.7376 69.7622 26.8534 70.4342 26.9615C70.5237 26.4739 70.6083 25.9982 70.6883 25.5354C71.7249 25.758 72.7597 25.9795 73.7902 26.1988C73.7648 26.6034 73.7339 27.0155 73.6978 27.4344C76.704 27.8142 79.3007 27.9628 81.1298 27.7318C78.7317 27.2436 76.2735 26.7274 73.7902 26.1988C74.046 22.1257 73.7477 18.824 72.6835 17.244C72.772 16.993 72.9334 19.1741 73.0175 18.9229C72.9333 19.1506 72.7628 16.9565 72.6565 17.2045C72.4417 16.8953 72.1965 16.6548 71.919 16.4906C71.0259 18.1317 69.5126 22.876 68.0397 24.9657C67.7153 24.8959 67.3909 24.826 67.0667 24.7561C52.5174 21.622 38.185 18.5345 30.9823 18.5345C21.4308 18.5345 20.7481 23.6656 20.7481 25.688C20.7481 29.3291 24.9267 32.1598 30.9823 33.8634C30.9823 33.8634 23.8184 31.7562 23.8184 25.688C23.8184 18.9432 35.8435 20.0888 44.2867 21.6003C46.559 22.007 49.7269 22.7083 53.2917 23.4976C57.5855 24.4482 62.4553 25.5263 67.0295 26.3707ZM69.1555 25.206C68.905 25.6773 68.648 26.1471 68.3847 26.6154C67.9365 26.5364 67.4845 26.4547 67.0295 26.3707C67.3788 25.8941 67.7157 25.4255 68.0397 24.9657C68.4117 25.0458 68.7836 25.1259 69.1555 25.206ZM71.919 16.4906C71.8803 16.8037 71.5305 19.9777 71.4832 20.3351C70.7898 21.9719 70.0104 23.5975 69.1555 25.206C69.6667 25.3159 70.1777 25.4258 70.6883 25.5354C71.0355 23.5254 71.2946 21.76 71.4832 20.3351C71.918 19.3086 72.3189 18.2778 72.6835 17.244C72.6745 17.2307 72.6655 17.2176 72.6565 17.2045C72.3803 17.8487 72.2363 17.0717 71.919 16.4906Z" fill="white"/>
<path d="M62.7083 52.2581C55.1176 68.1613 61.5999 62.4988 63.7317 59.4116C65.8635 56.3243 72.9424 51.2361 72.9424 51.2361C72.9424 51.2361 68.508 51.5131 66.8019 53.28C70.1041 47.0353 72.9694 35.8777 73.6978 27.4344C72.6543 27.3025 71.5614 27.1428 70.4342 26.9615C69.4903 32.1036 68.0033 38.5579 65.7225 44.9519C67.652 45.1067 68.8488 45.1046 68.8488 45.1046L66.8019 47.1484C66.8019 47.1484 66.0828 47.1718 64.9132 47.1287C64.2411 48.8639 63.5078 50.583 62.7083 52.2581Z" fill="white"/>
<path d="M66.8019 47.1484L68.8488 45.1046C68.8488 45.1046 67.652 45.1067 65.7225 44.9519C65.4631 45.6789 65.1935 46.4052 64.9132 47.1287C66.0828 47.1718 66.8019 47.1484 66.8019 47.1484Z" fill="white"/>
<path d="M71.919 16.4906C71.8803 16.8037 71.5305 19.9777 71.4832 20.3351C71.918 19.3086 72.3189 18.2778 72.6835 17.244C72.6745 17.2307 72.6655 17.2176 72.6565 17.2045C72.3803 17.8487 72.2363 17.0717 71.919 16.4906Z" fill="white"/>
<path d="M95.4577 37.9511C95.4577 50.0865 83.1767 50.2142 83.1767 50.2142V52.2581C83.1767 52.2581 97.5046 50.9807 97.5046 38.973C97.5046 26.9654 83.1767 27.8794 83.1767 27.8794V28.3841C90.7244 29.1505 95.4577 34.3743 95.4577 37.9511Z" fill="#BABABA"/>
</g>
<defs>
<linearGradient id="paint0_linear" x1="6.30246" y1="2.23094" x2="83.1918" y2="79.1203" gradientUnits="userSpaceOnUse">
<stop stop-color="#D2D2D2"/>
<stop offset="1" stop-color="#9D9D9D"/>
</linearGradient>
<clipPath id="clip0">
<rect x="0.279785" y="0.139771" width="109.506" height="94.0173" fill="white"/>
</clipPath>
</defs>
</svg>
