<svg xmlns="http://www.w3.org/2000/svg">
    <symbol id="pdf" width="35" height="36" viewBox="0 0 35 36" fill="none">
<path d="M34.7162 9.74229L25.5239 0.212203C25.3931 0.0766406 25.2125 0 25.0239 0H11.3235C9.79025 0 8.54282 1.24411 8.54282 2.77327V12.4616H2.99056C1.84342 12.4616 0.910156 13.3924 0.910156 14.5367V24.9249C0.910156 26.0691 1.84342 27 2.99056 27H8.54282V33.2316C8.54282 34.7581 9.79025 36 11.3235 36H32.1295C33.6627 36 34.9102 34.7588 34.9102 33.2331V10.2224C34.9102 10.0434 34.8406 9.87131 34.7162 9.74229ZM25.1959 1.86898L32.7419 9.6923H25.1959V1.86898ZM2.99056 25.6154C2.6086 25.6154 2.29796 25.3057 2.29796 24.9249V14.5367C2.29796 14.1559 2.60867 13.8461 2.99056 13.8461H21.7278C22.1097 13.8461 22.4204 14.1559 22.4204 14.5367V24.9249C22.4204 25.3057 22.1096 25.6154 21.7278 25.6154H2.99056ZM33.5224 33.2331C33.5224 33.9953 32.8975 34.6154 32.1294 34.6154H11.3235C10.5554 34.6154 9.93056 33.9947 9.93056 33.2317V27H21.7278C22.8749 27 23.8082 26.0691 23.8082 24.9249V14.5367C23.8082 13.3924 22.8749 12.4616 21.7278 12.4616H9.93056V2.77327C9.93056 2.00749 10.5554 1.38459 11.3235 1.38459H23.8081V10.3846C23.8081 10.767 24.1188 11.0769 24.502 11.0769H33.5224V33.2331Z" fill="black"/>
<path d="M9.20554 17.5707C8.97517 17.2718 8.68919 17.0778 8.34769 16.9886C8.12542 16.9291 7.6484 16.8993 6.91654 16.8993H4.98533V22.8461H6.18878V20.6029H6.97349C7.5183 20.6029 7.93437 20.5745 8.22168 20.5177C8.4331 20.4717 8.64113 20.3778 8.84578 20.2357C9.05043 20.0938 9.21914 19.8984 9.35198 19.6496C9.48482 19.4008 9.55121 19.0939 9.55121 18.7288C9.55114 18.2555 9.43591 17.8695 9.20554 17.5707ZM8.17489 19.2075C8.08412 19.34 7.95875 19.4373 7.79878 19.4996C7.63881 19.5618 7.32176 19.5929 6.84741 19.5929H6.18878V17.9054H6.77017C7.20386 17.9054 7.49251 17.9189 7.63613 17.9459C7.83127 17.9811 7.99258 18.069 8.11992 18.2096C8.24734 18.3502 8.31104 18.5288 8.31104 18.745C8.31111 18.9208 8.26566 19.0749 8.17489 19.2075Z" fill="black"/>
<path d="M15.3366 18.524C15.2065 18.144 15.0167 17.8229 14.7674 17.5605C14.5181 17.2982 14.2185 17.1157 13.8689 17.0129C13.6087 16.9372 13.2305 16.8993 12.7346 16.8993H10.535V22.8461H12.7996C13.2441 22.8461 13.5992 22.8042 13.8648 22.7204C14.2199 22.6068 14.5018 22.4486 14.7105 22.2458C14.9869 21.978 15.1997 21.6278 15.3488 21.1951C15.4708 20.8408 15.5317 20.419 15.5317 19.9295C15.5317 19.3724 15.4667 18.9039 15.3366 18.524ZM14.1656 20.966C14.0843 21.2324 13.9793 21.4237 13.8506 21.54C13.7218 21.6562 13.5599 21.7387 13.3647 21.7874C13.2157 21.8253 12.973 21.8442 12.637 21.8442H11.7384V17.9054H12.2792C12.7697 17.9054 13.0991 17.9243 13.2671 17.9622C13.4921 18.0108 13.6778 18.1041 13.8241 18.2421C13.9705 18.38 14.0843 18.572 14.1656 18.8181C14.247 19.0642 14.2876 19.4171 14.2876 19.8769C14.2876 20.3366 14.247 20.6996 14.1656 20.966Z" fill="black"/>
<path d="M20.6464 17.9054V16.8993H16.5603V22.8461H17.7638V20.319H20.252V19.3129H17.7638V17.9054H20.6464Z" fill="black"/>
</symbol>
</svg>
<svg xmlns="http://www.w3.org/2000/svg">
<symbol id="xls" width="34" height="37" viewBox="0 0 34 37" fill="none">
<path d="M33.8061 9.92881L24.6138 0.398727C24.4829 0.263164 24.3024 0.186523 24.1138 0.186523H10.4133C8.88009 0.186523 7.63267 1.43063 7.63267 2.95979V12.6481H2.0804C0.933259 12.6481 0 13.5789 0 14.7232V25.1115C0 26.2557 0.933259 27.1865 2.0804 27.1865H7.63267V33.4181C7.63267 34.9446 8.88009 36.1865 10.4133 36.1865H31.2193C32.7526 36.1865 34 34.9453 34 33.4197V10.4089C34 10.2299 33.9304 10.0578 33.8061 9.92881ZM24.2857 2.0555L31.8318 9.87882H24.2857V2.0555ZM2.0804 25.8019C1.69844 25.8019 1.3878 25.4922 1.3878 25.1115V14.7232C1.3878 14.3425 1.69851 14.0327 2.0804 14.0327H20.8175C21.1994 14.0327 21.5102 14.3425 21.5102 14.7232V25.1115C21.5102 25.4922 21.1994 25.8019 20.8175 25.8019H2.0804ZM32.6122 33.4197C32.6122 34.1818 31.9873 34.8019 31.2192 34.8019H10.4133C9.64527 34.8019 9.0204 34.1812 9.0204 33.4182V27.1865H20.8175C21.9647 27.1865 22.8979 26.2557 22.8979 25.1115V14.7232C22.8979 13.5789 21.9647 12.6481 20.8175 12.6481H9.0204V2.95979C9.0204 2.19402 9.64527 1.57112 10.4133 1.57112H22.8979V10.5711C22.8979 10.9535 23.2086 11.2634 23.5918 11.2634H32.6122V33.4197Z" fill="black"/>
<path d="M19.0188 20.3539C18.8602 20.0983 18.6406 19.8968 18.3601 19.7494C18.0796 19.6021 17.6467 19.4595 17.0612 19.3215C16.4757 19.1836 16.1071 19.051 15.9554 18.924C15.836 18.8239 15.7764 18.7034 15.7764 18.5629C15.7764 18.4087 15.84 18.2856 15.9675 18.1937C16.1654 18.0504 16.4392 17.9788 16.7888 17.9788C17.1275 17.9788 17.3817 18.0458 17.5511 18.1795C17.7205 18.3133 17.8309 18.5331 17.8824 18.8388L19.0858 18.786C19.0669 18.2397 18.8684 17.8029 18.4903 17.4758C18.1121 17.1485 17.5491 16.985 16.8011 16.985C16.3429 16.985 15.952 17.0538 15.6281 17.1918C15.3042 17.3298 15.0561 17.5305 14.884 17.7941C14.7119 18.0579 14.6258 18.3412 14.6258 18.6441C14.6258 19.1145 14.8088 19.5135 15.1748 19.8408C15.435 20.0733 15.8876 20.2694 16.5327 20.4289C17.0341 20.5533 17.3553 20.6399 17.4962 20.6885C17.7023 20.7615 17.8465 20.8474 17.9291 20.946C18.0119 21.0449 18.0532 21.1644 18.0532 21.3052C18.0532 21.5241 17.9549 21.7155 17.7584 21.8791C17.5619 22.0426 17.2699 22.1245 16.8823 22.1245C16.5164 22.1245 16.2257 22.0326 16.0102 21.8486C15.7948 21.6648 15.6519 21.3768 15.5813 20.9846L14.4103 21.0981C14.4889 21.7634 14.7302 22.2699 15.1341 22.6174C15.5379 22.9647 16.1166 23.1385 16.8701 23.1385C17.3878 23.1385 17.8203 23.0662 18.1672 22.9215C18.5141 22.777 18.7823 22.5558 18.972 22.2582C19.1618 21.9609 19.2567 21.6417 19.2567 21.3009C19.2566 20.9251 19.1773 20.6094 19.0188 20.3539Z" fill="black"/>
<path d="M10.865 22.0309V17.1348H9.66145V23.0329H13.8574V22.0309H10.865Z" fill="black"/>
<path d="M6.97401 19.9737L8.82806 17.0856H7.43356L6.26267 18.9962L5.06726 17.0856H3.66064L5.5063 19.9291L3.46945 23.0323H4.91271L6.23822 20.9756L7.55949 23.0323H9.01093L6.97401 19.9737Z" fill="black"/>
</symbol>
</svg>
<svg xmlns="http://www.w3.org/2000/svg">
<symbol id="doc" width="34" height="37" viewBox="0 0 34 37" fill="none">
<path d="M33.8061 10.3878L24.6138 0.857711C24.4829 0.722148 24.3024 0.645508 24.1138 0.645508H10.4133C8.88009 0.645508 7.63267 1.88962 7.63267 3.41877V13.1071H2.0804C0.933259 13.1071 0 14.0379 0 15.1822V25.5704C0 26.7146 0.933259 27.6455 2.0804 27.6455H7.63267V33.8771C7.63267 35.4036 8.88009 36.6455 10.4133 36.6455H31.2193C32.7526 36.6455 34 35.4043 34 33.8786V10.8679C34 10.6889 33.9304 10.5168 33.8061 10.3878ZM24.2857 2.51448L31.8318 10.3378H24.2857V2.51448ZM2.0804 26.2609C1.69844 26.2609 1.3878 25.9512 1.3878 25.5704V15.1822C1.3878 14.8015 1.69851 14.4917 2.0804 14.4917H20.8175C21.1994 14.4917 21.5102 14.8015 21.5102 15.1822V25.5704C21.5102 25.9512 21.1994 26.2609 20.8175 26.2609H2.0804ZM32.6122 33.8786C32.6122 34.6408 31.9873 35.2609 31.2193 35.2609H10.4133C9.64527 35.2609 9.0204 34.6402 9.0204 33.8772V27.6455H20.8175C21.9647 27.6455 22.8979 26.7146 22.8979 25.5704V15.1822C22.8979 14.0379 21.9647 13.1071 20.8175 13.1071H9.0204V3.41877C9.0204 2.653 9.64527 2.0301 10.4133 2.0301H22.8979V11.0301C22.8979 11.4125 23.2086 11.7224 23.5918 11.7224H32.6122V33.8786Z" fill="black"/>
<path d="M8.17875 19.1694C8.04866 18.7895 7.85909 18.4685 7.60962 18.2061C7.36036 17.9437 7.06079 17.7613 6.71111 17.6585C6.45093 17.5826 6.07291 17.5449 5.57679 17.5449H3.37736V23.4917H5.64184C6.08644 23.4917 6.44155 23.4498 6.70709 23.3658C7.0622 23.2522 7.34409 23.094 7.55275 22.8913C7.82928 22.6235 8.04197 22.2733 8.19116 21.8406C8.31307 21.4863 8.37396 21.0646 8.37396 20.575C8.37389 20.018 8.30885 19.5494 8.17875 19.1694ZM7.00779 21.6115C6.92661 21.8779 6.82147 22.0691 6.69278 22.1854C6.56403 22.3017 6.40202 22.3843 6.20688 22.4329C6.0579 22.4708 5.8152 22.4896 5.47919 22.4896H4.58067V18.5507H5.12133C5.6121 18.5507 5.94134 18.5696 6.10942 18.6075C6.33443 18.6563 6.52006 18.7496 6.66643 18.8874C6.81266 19.0253 6.92661 19.2174 7.00779 19.4636C7.08912 19.7095 7.12992 20.0624 7.12992 20.5223C7.12999 20.9821 7.08919 21.3452 7.00779 21.6115Z" fill="black"/>
<path d="M19.6848 21.3051C19.5843 21.7406 19.419 22.0598 19.1886 22.2625C18.9583 22.4653 18.6832 22.5668 18.3633 22.5668C17.9296 22.5668 17.5773 22.4072 17.3063 22.0882C17.0352 21.7691 16.8997 21.2335 16.8997 20.4817C16.8997 19.7733 17.0373 19.2608 17.3124 18.9445C17.5875 18.6279 17.9459 18.4697 18.3877 18.4697C18.7076 18.4697 18.9793 18.559 19.2029 18.7374C19.4265 18.916 19.5736 19.1594 19.644 19.4676L20.8353 19.1835C20.6998 18.7076 20.4965 18.3426 20.2256 18.0884C19.7702 17.6585 19.178 17.4434 18.4489 17.4434C17.614 17.4434 16.9404 17.7172 16.4282 18.2649C15.9159 18.8126 15.6597 19.5812 15.6597 20.5709C15.6597 21.5066 15.9145 22.2442 16.4242 22.7838C16.9336 23.3233 17.5841 23.593 18.3757 23.593C19.0152 23.593 19.5431 23.4355 19.9593 23.1204C20.3753 22.8054 20.6727 22.3234 20.8516 21.6744L19.6848 21.3051Z" fill="black"/>
<path d="M14.1412 18.2589C13.6139 17.7152 12.9114 17.4434 12.0331 17.4434C11.5479 17.4434 11.1198 17.5218 10.7484 17.6786C10.4692 17.7949 10.2124 17.9734 9.97797 18.2141C9.74344 18.4547 9.55852 18.7266 9.42286 19.0295C9.24126 19.4405 9.15056 19.9489 9.15056 20.5546C9.15056 21.5012 9.41215 22.2442 9.93512 22.7837C10.4583 23.3232 11.1632 23.593 12.0494 23.593C12.9249 23.593 13.6242 23.322 14.1474 22.7797C14.6703 22.2374 14.9319 21.4863 14.9319 20.5262C14.9319 19.5581 14.6684 18.8023 14.1412 18.2589ZM13.2264 22.0496C12.9188 22.3944 12.525 22.5668 12.0452 22.5668C11.5656 22.5668 11.1699 22.393 10.8582 22.0456C10.5465 21.6981 10.3905 21.1877 10.3905 20.5143C10.3905 19.8301 10.5423 19.3183 10.8458 18.9789C11.1494 18.6395 11.5493 18.4697 12.0452 18.4697C12.5413 18.4697 12.9391 18.6374 13.2385 18.9728C13.5381 19.3081 13.6878 19.8166 13.6878 20.498C13.6878 21.1877 13.5341 21.7048 13.2264 22.0496Z" fill="black"/>
</symbol>
</svg>

