<svg width="10" height="12" viewBox="0 0 10 12" fill="none" xmlns="http://www.w3.org/2000/svg">
<path fill-rule="evenodd" clip-rule="evenodd" d="M4.91853 1.75423C3.94685 1.75423 3.01497 2.14023 2.32788 2.82731C1.6408 3.5144 1.2548 4.44628 1.2548 5.41796C1.2548 6.83677 2.17794 8.2135 3.19014 9.28194C3.68688 9.80627 4.18517 10.2355 4.55979 10.5338C4.69921 10.6448 4.82099 10.7373 4.91853 10.8094C5.01606 10.7373 5.13784 10.6448 5.27726 10.5338C5.65189 10.2355 6.15018 9.80627 6.64691 9.28194C7.65912 8.2135 8.58226 6.83677 8.58226 5.41796C8.58226 4.44628 8.19626 3.5144 7.50918 2.82731C6.8221 2.14023 5.89021 1.75423 4.91853 1.75423ZM4.91853 11.3715C4.66449 11.7526 4.66425 11.7524 4.66425 11.7524L4.66294 11.7515L4.65989 11.7495L4.64939 11.7424C4.64047 11.7363 4.62776 11.7276 4.61149 11.7164C4.57896 11.6938 4.53222 11.661 4.47329 11.6185C4.35548 11.5334 4.1887 11.4092 3.98923 11.2504C3.59104 10.9333 3.05891 10.4752 2.52522 9.91187C1.47658 8.80497 0.338867 7.20492 0.338867 5.41796C0.338867 4.20336 0.821369 3.03852 1.68022 2.17966C2.53908 1.32081 3.70393 0.838303 4.91853 0.838303C6.13313 0.838303 7.29799 1.32081 8.15684 2.17966C9.01569 3.03852 9.49819 4.20336 9.49819 5.41796C9.49819 7.20492 8.36048 8.80497 7.31184 9.91187C6.77815 10.4752 6.24602 10.9333 5.84782 11.2504C5.64836 11.4092 5.48158 11.5334 5.36377 11.6185C5.30484 11.661 5.2581 11.6938 5.22557 11.7164C5.2093 11.7276 5.19659 11.7363 5.18767 11.7424L5.17718 11.7495L5.17412 11.7515L5.17315 11.7522C5.17315 11.7522 5.17256 11.7526 4.91853 11.3715ZM4.91853 11.3715L5.17256 11.7526C5.01873 11.8551 4.81808 11.855 4.66425 11.7524L4.91853 11.3715Z" fill="#342B2B"/>
<path fill-rule="evenodd" clip-rule="evenodd" d="M4.91853 4.50203C4.41267 4.50203 4.0026 4.91211 4.0026 5.41796C4.0026 5.92382 4.41267 6.3339 4.91853 6.3339C5.42438 6.3339 5.83446 5.92382 5.83446 5.41796C5.83446 4.91211 5.42438 4.50203 4.91853 4.50203ZM3.08666 5.41796C3.08666 4.40625 3.90682 3.5861 4.91853 3.5861C5.93024 3.5861 6.75039 4.40625 6.75039 5.41796C6.75039 6.42967 5.93024 7.24983 4.91853 7.24983C3.90682 7.24983 3.08666 6.42967 3.08666 5.41796Z" fill="#342B2B"/>
</svg>
