<svg width="15" height="15" viewBox="0 0 15 15" fill="none" xmlns="http://www.w3.org/2000/svg">
<path fill-rule="evenodd" clip-rule="evenodd" d="M3.06012 1.67558C2.87542 1.67558 2.69828 1.74896 2.56767 1.87957C2.43706 2.01018 2.36369 2.18731 2.36369 2.37201V11.8336L3.96054 10.2368C4.09114 10.1062 4.26828 10.0328 4.45299 10.0328H12.8102C12.9949 10.0328 13.172 9.95938 13.3026 9.82878C13.4332 9.69817 13.5066 9.52104 13.5066 9.33634V2.37201C13.5066 2.18731 13.4332 2.01018 13.3026 1.87957C13.172 1.74896 12.9949 1.67558 12.8102 1.67558H3.06012ZM1.58277 0.894644C1.97459 0.502824 2.50601 0.282715 3.06012 0.282715H12.8102C13.3643 0.282715 13.8957 0.502824 14.2875 0.894644C14.6794 1.28646 14.8995 1.8179 14.8995 2.37201V9.33634C14.8995 9.89045 14.6794 10.4219 14.2875 10.8137C13.8957 11.2055 13.3643 11.4256 12.8102 11.4256H4.74146L2.15971 14.0074C1.96053 14.2066 1.66098 14.2662 1.40074 14.1584C1.14051 14.0506 0.970825 13.7966 0.970825 13.5149V2.37201C0.970825 1.8179 1.19095 1.28646 1.58277 0.894644Z" fill="#342B2B"/>
</svg>
