<svg width="15" height="12" viewBox="0 0 15 12" fill="none" xmlns="http://www.w3.org/2000/svg">
<path fill-rule="evenodd" clip-rule="evenodd" d="M2.8701 1.86047C2.52333 1.86047 2.23699 2.14682 2.23699 2.49359V10.091C2.23699 10.4377 2.52333 10.7241 2.8701 10.7241H13C13.3467 10.7241 13.6331 10.4377 13.6331 10.091V2.49359C13.6331 2.14682 13.3467 1.86047 13 1.86047H2.8701ZM0.970755 2.49359C0.970755 1.4475 1.82401 0.594238 2.8701 0.594238H13C14.046 0.594238 14.8993 1.4475 14.8993 2.49359V10.091C14.8993 11.1371 14.046 11.9903 13 11.9903H2.8701C1.82401 11.9903 0.970755 11.1371 0.970755 10.091V2.49359Z" fill="white"/>
<path fill-rule="evenodd" clip-rule="evenodd" d="M1.0852 2.1305C1.28572 1.84405 1.68049 1.77441 1.96694 1.97493L7.93503 6.15259L13.9031 1.97493C14.1896 1.77441 14.5843 1.84405 14.7848 2.1305C14.9854 2.41695 14.9157 2.81173 14.6293 3.01224L8.2981 7.44405C8.08011 7.59665 7.78996 7.59665 7.57196 7.44405L1.24081 3.01224C0.954354 2.81173 0.884687 2.41695 1.0852 2.1305Z" fill="white"/>
</svg>
