<svg width="15" height="14" viewBox="0 0 15 14" fill="none" xmlns="http://www.w3.org/2000/svg">
<path fill-rule="evenodd" clip-rule="evenodd" d="M7.48026 1.44561C4.42146 1.44561 1.94182 3.92525 1.94182 6.98404C1.94182 10.0428 4.42146 12.5225 7.48026 12.5225C10.5391 12.5225 13.0187 10.0428 13.0187 6.98404C13.0187 3.92525 10.5391 1.44561 7.48026 1.44561ZM0.71106 6.98404C0.71106 3.24552 3.74173 0.214844 7.48026 0.214844C11.2188 0.214844 14.2495 3.24552 14.2495 6.98404C14.2495 10.7226 11.2188 13.7532 7.48026 13.7532C3.74173 13.7532 0.71106 10.7226 0.71106 6.98404Z" fill="white"/>
<path fill-rule="evenodd" clip-rule="evenodd" d="M7.48026 2.67637C7.82012 2.67637 8.09564 2.95189 8.09564 3.29175V6.60371L10.217 7.66439C10.521 7.81639 10.6442 8.18603 10.4922 8.49002C10.3402 8.794 9.97056 8.91721 9.66658 8.76522L7.20505 7.53445C6.99657 7.43021 6.86488 7.21713 6.86488 6.98404V3.29175C6.86488 2.95189 7.14039 2.67637 7.48026 2.67637Z" fill="white"/>
</svg>
