<svg width="15" height="15" viewBox="0 0 15 15" fill="none" xmlns="http://www.w3.org/2000/svg">
<path d="M12.5092 14.9149C12.4481 14.9149 12.3871 14.9149 12.326 14.9149C10.3725 14.6707 8.41887 13.9992 6.77053 12.9613C5.24429 11.9845 3.9012 10.6415 2.92441 9.11523C1.82552 7.46689 1.15397 5.51328 0.970825 3.55969C0.970825 3.0713 1.09292 2.58289 1.39817 2.2166C1.70342 1.8503 2.13077 1.60612 2.61916 1.54507C2.68021 1.54507 2.74126 1.54507 2.80231 1.54507H4.6338C5.54954 1.54507 6.34319 2.2166 6.46529 3.13234C6.52634 3.68179 6.64843 4.23125 6.83158 4.71965C7.07578 5.3912 6.89263 6.1238 6.40423 6.67324L5.97689 7.10056C6.70948 8.19945 7.62523 9.17627 8.78517 9.90886L9.21252 9.48151C9.70091 8.99311 10.4946 8.80996 11.1661 9.05415C11.6545 9.2373 12.2039 9.35942 12.7534 9.42047C13.6691 9.54257 14.3407 10.3362 14.3407 11.252V13.0834C14.3407 13.5718 14.1575 14.0602 13.7912 14.3655C13.4249 14.6707 12.9976 14.9149 12.5092 14.9149ZM4.6338 2.76606H2.80231C2.61916 2.76606 2.43601 2.88817 2.31391 3.01027C2.25286 3.13237 2.19182 3.25444 2.19182 3.43759C2.37497 5.20802 2.98546 6.91742 3.96225 8.44366C4.87799 9.8478 6.03793 11.0688 7.44207 11.9235C8.96831 12.9003 10.6777 13.5108 12.4481 13.6939C12.6923 13.6939 12.8144 13.6329 12.9365 13.5108C13.0586 13.3887 13.1197 13.2666 13.1197 13.0834V11.252C13.1197 10.9467 12.8755 10.7025 12.5702 10.6415C11.9597 10.5804 11.3493 10.3972 10.7388 10.153C10.4946 10.092 10.2504 10.092 10.0672 10.2751L9.27356 11.0688C9.09041 11.2519 8.78517 11.313 8.54097 11.1909C6.89263 10.2751 5.54954 8.93208 4.6338 7.28374C4.57275 7.03954 4.6338 6.73429 4.81695 6.55114L5.61059 5.7575C5.73269 5.6354 5.79374 5.33015 5.73269 5.147C5.48849 4.53651 5.36639 3.92601 5.24429 3.31552C5.24429 3.01027 4.93905 2.76606 4.6338 2.76606ZM11.8987 7.03953C11.5934 7.03953 11.3492 6.85638 11.2882 6.55114C11.105 5.57434 10.3114 4.84174 9.33461 4.59754C9.02937 4.53649 8.78517 4.23124 8.84622 3.86494C8.90726 3.55969 9.21251 3.3155 9.57881 3.37655C11.044 3.6818 12.2039 4.7807 12.4481 6.24589C12.5092 6.55114 12.326 6.91744 11.9597 6.97849C11.9597 6.97849 11.9597 7.03953 11.8987 7.03953ZM14.3407 6.97849C14.0354 6.97849 13.7912 6.73428 13.7302 6.42903C13.486 4.1702 11.7155 2.39977 9.39567 2.09453C9.09042 2.03348 8.84622 1.72821 8.84622 1.42296C8.84622 1.11771 9.21252 0.873535 9.51776 0.873535C12.3871 1.17878 14.5849 3.37656 14.8901 6.24589C14.9512 6.55114 14.707 6.85637 14.3407 6.91742C14.4017 6.97847 14.3407 6.97849 14.3407 6.97849Z" fill="#342B2B"/>
</svg>
