<svg width="686" height="834" viewBox="0 0 686 834" fill="none" xmlns="http://www.w3.org/2000/svg">
<path opacity="0.1" d="M104.277 333.814C98.1336 333.053 31.7738 323.933 16.6644 283.55C0.817439 241.196 39.4282 203.282 168.511 226.735C257.647 242.927 367.524 285.032 474.665 347.181C506.866 314.952 548.786 294.116 572.552 284.004C558.17 265.82 543.254 248.055 527.879 231.059C381.91 69.6991 471.269 113.165 506.117 142.053C540.964 170.941 633.665 205.357 633.665 205.357C633.665 205.357 588.567 218.469 563.816 203.734C624.314 265.906 702.389 388.22 747.228 486.108C775.271 470.458 800.293 459.077 819.416 455.059C797.871 469.751 775.857 484.997 753.649 500.485C774.334 548.061 786.1 588.498 782.616 611.259C782.587 611.45 782.557 611.64 782.525 611.829C781.779 616.308 780.425 620.08 778.413 623.063C762.264 606.819 726.148 555.901 702.265 536.457C699.367 538.49 696.47 540.523 693.574 542.555C563.63 633.739 435.623 723.564 364.377 750.221C269.898 785.571 240.275 726.971 231.261 702.879C215.031 659.502 243.747 610.315 296.052 567.61C296.052 567.61 234.583 619.226 261.63 691.516C291.693 771.865 405.534 713.713 482.313 664.459C502.976 651.204 531.185 631.125 562.928 608.53C601.164 581.314 644.528 550.447 686.01 523.459C629.328 478.912 556.304 429.252 476.156 383.41C459.877 398.329 444.284 415.166 430.692 433.963C432.674 410.256 441.633 389.344 454.386 371.152C378.284 328.978 296.673 290.847 217.101 264.069C6.39244 193.142 45.2678 326.446 104.277 333.814ZM104.277 333.814C104.429 333.833 104.581 333.851 104.733 333.869C104.733 333.869 104.577 333.851 104.277 333.814ZM698.324 515.529C704.637 511.507 710.889 507.595 717.054 503.82C684.798 446.056 641.32 374.67 590.26 306.942C567.199 318.206 533.848 336.67 500.646 362.682C570.782 405.708 638.907 457.215 698.324 515.529ZM712.231 529.466C716.796 526.264 721.361 523.064 725.923 519.869C738.317 542.528 748.749 562.6 756.966 578.877C742.812 561.944 727.856 545.463 712.231 529.466Z" stroke="white" stroke-width="2"/>
</svg>
