<svg width="400" height="400" viewBox="0 0 400 838" fill="none" xmlns="http://www.w3.org/2000/svg">
<path opacity="0.1" d="M-368.448 338.858C-374.599 338.156 -441.043 329.676 -456.541 289.441C-472.796 247.242 -434.552 208.957 -305.249 231.165C-215.962 246.498 -105.683 287.541 2.05108 348.656C33.9401 316.118 75.657 294.879 99.3249 284.538C84.7678 266.494 69.6816 248.874 54.1435 232.026C-93.3731 72.0803 -3.59917 114.683 31.5248 143.234C66.6487 171.785 159.677 205.306 159.677 205.306C159.677 205.306 114.708 218.852 89.816 204.357C150.91 265.942 230.16 387.498 275.94 484.95C303.831 469.03 328.743 457.409 347.825 453.207C326.424 468.105 304.557 483.563 282.499 499.264C303.642 546.639 315.797 586.96 312.533 609.754C312.505 609.946 312.477 610.136 312.447 610.325C311.744 614.81 310.427 618.596 308.443 621.598C292.138 605.51 255.534 554.943 231.464 535.73C228.586 537.791 225.709 539.851 222.832 541.912C93.7733 634.343 -33.3623 725.397 -104.348 752.739C-198.482 788.998 -228.668 730.687 -237.914 706.682C-254.561 663.464 -226.321 614.003 -174.43 570.795C-174.43 570.795 -235.399 623.001 -207.656 695.027C-176.82 775.082 -63.5448 715.836 12.756 665.845C33.2902 652.391 61.3043 632.042 92.8286 609.142C130.8 581.558 173.865 550.275 215.085 522.889C157.977 478.89 84.4769 429.936 3.89091 384.869C-12.2436 399.944 -27.673 416.93 -41.0836 435.857C-39.3305 412.132 -30.5727 391.135 -17.9957 372.821C-94.5012 331.382 -176.476 294.039 -256.302 268.029C-467.684 199.136 -427.526 332.059 -368.448 338.858ZM-368.448 338.858C-368.296 338.876 -368.144 338.892 -367.992 338.908C-367.992 338.908 -368.148 338.893 -368.448 338.858ZM227.322 514.84C233.596 510.758 239.81 506.786 245.938 502.952C213.127 445.502 168.963 374.538 117.253 307.304C94.3018 318.79 61.1301 337.574 28.1798 363.906C98.7272 406.254 167.346 457.102 227.322 514.84ZM241.362 528.643C245.897 525.397 250.431 522.153 254.962 518.914C267.573 541.453 278.198 561.424 286.571 577.621C272.255 560.825 257.141 544.489 241.362 528.643Z" stroke="white" stroke-width="2"/>
</svg>
