<svg xmlns="http://www.w3.org/2000/svg">
    <symbol id="s-012" width="88" height="88" viewBox="0 0 88 88" fill="none" >
<path fill-rule="evenodd" clip-rule="evenodd" d="M86.6908 16.6088L76.5563 10.7918C76.3891 10.6959 76.2046 10.6344 76.0135 10.6109C75.8223 10.5875 75.6285 10.6026 75.4432 10.6553C75.258 10.7081 75.0851 10.7974 74.9346 10.9181C74.7842 11.0387 74.6592 11.1883 74.567 11.3581L48.5067 59.3483L48.5083 59.3492C48.3917 59.5623 48.3304 59.8015 48.3299 60.0447V71.6786L49.7777 74.5871C50.0794 74.5871 50.3737 74.4924 50.6192 74.3162L60.7538 67.045C60.9311 66.9168 61.0771 66.7499 61.1809 66.5568L61.1832 66.5581L87.2435 18.5679C87.425 18.2337 87.4688 17.8413 87.3654 17.475C87.2621 17.1087 87.0199 16.7977 86.6908 16.6088ZM56.9372 62.479L59.3484 63.863L76.2811 32.6813L73.7458 31.2262L56.9372 62.479ZM68.6611 28.3077L51.7284 59.4893L54.4224 61.0356L71.231 29.7827L68.6611 28.3077ZM71.7574 22.6059L70.048 25.7537L77.668 30.1274L79.3774 26.9796L71.7574 22.6059ZM51.2255 62.5505V70.3069L57.2315 65.9978L51.2255 62.5505ZM73.1442 20.0519L80.7643 24.4256L84.0218 18.4268L76.4018 14.0531L73.1442 20.0519Z" fill="#342B2B"/>
<path d="M67.1512 80.4041C67.1499 81.5608 66.6919 82.6697 65.8776 83.4876C65.0633 84.3055 63.9594 84.7655 62.8078 84.7669H7.7917C6.64017 84.7655 5.53618 84.3055 4.72192 83.4876C3.90767 82.6697 3.44964 81.5608 3.44832 80.4041V7.69179C3.44964 6.53513 3.90767 5.42622 4.72192 4.60833C5.53618 3.79045 6.64017 3.33038 7.7917 3.32905H44.4833C44.8032 3.32926 45.1221 3.36467 45.4343 3.43463V17.8715C45.4365 19.7993 46.1999 21.6475 47.557 23.0106C48.9141 24.3738 50.7541 25.1406 52.6733 25.1428H57.0167V22.2343H52.6733C51.5217 22.233 50.4177 21.7729 49.6035 20.955C48.7892 20.1371 48.3312 19.0282 48.3299 17.8715V5.3858L63.2631 20.3854L65.3105 18.3286L49.6021 2.55045C48.9315 1.87306 48.1338 1.33602 47.2551 0.970417C46.3765 0.604818 45.4344 0.417925 44.4833 0.42056H7.7917C5.87248 0.42275 4.03248 1.18953 2.67539 2.55267C1.31829 3.91582 0.554915 5.76401 0.552734 7.69179V80.4041C0.554915 82.3319 1.31829 84.1801 2.67539 85.5432C4.03248 86.9064 5.87248 87.6732 7.7917 87.6754H62.8078C64.7271 87.6732 66.567 86.9064 67.9241 85.5432C69.2812 84.1801 70.0446 82.3319 70.0468 80.4041V62.9532H67.1512V80.4041Z" fill="#342B2B"/>
<path d="M25.1644 13.5088H39.6424V16.4173H25.1644V13.5088Z" fill="#5E6398"/>
<path d="M17.9255 13.5088H20.8211V16.4173H17.9255V13.5088Z" fill="#5E6398"/>
<path d="M23.7167 22.2343H39.6424V25.1428H23.7167V22.2343Z" fill="#5E6398"/>
<path d="M10.6865 22.2343H19.3733V25.1428H10.6865V22.2343Z" fill="#5E6398"/>
<path d="M35.299 30.9598H57.0159V33.8683H35.299V30.9598Z" fill="#5E6398"/>
<path d="M19.3733 30.9598H30.9556V33.8683H19.3733V30.9598Z" fill="#5E6398"/>
<path d="M10.6865 30.9598H16.4777V33.8683H10.6865V30.9598Z" fill="#5E6398"/>
<path d="M30.9556 41.1395H51.2247V44.048H30.9556V41.1395Z" fill="#5E6398"/>
<path d="M10.6865 41.1395H26.6122V44.048H10.6865V41.1395Z" fill="#5E6398"/>
<path d="M26.6122 51.3192H43.9857V54.2277H26.6122V51.3192Z" fill="#5E6398"/>
<path d="M10.6865 51.3192H22.2689V54.2277H10.6865V51.3192Z" fill="#5E6398"/>
<path d="M10.6865 61.499H17.9255V64.4075H10.6865V61.499Z" fill="#5E6398"/>
<path d="M22.2689 61.499H33.8512V64.4075H22.2689V61.499Z" fill="#5E6398"/>
<path d="M38.1946 61.499H43.9857V64.4075H38.1946V61.499Z" fill="#5E6398"/>
<path d="M10.6865 71.6787H48.3291L49.7769 74.5872H10.6865V71.6787Z" fill="#5E6398"/>
    </symbol>
</svg>
