<svg xmlns="http://www.w3.org/2000/svg">
    <symbol id="s-017" width="88" height="91" viewBox="0 0 88 91" fill="none">
<path fill-rule="evenodd" clip-rule="evenodd" d="M0.552734 12.4634V65.1171C0.55499 67.1113 1.34469 69.0233 2.74858 70.4334C4.15247 71.8436 6.05591 72.6368 8.04131 72.639H59.841L58.7932 70.4334L56.8455 69.6303H8.04131C6.85007 69.6289 5.708 69.153 4.86567 68.3069C4.02333 67.4608 3.54951 66.3136 3.54817 65.1171V29.0117H20.0976L22.4617 27.692V26.0029H11.0367V18.4809C11.0372 18.0821 11.1951 17.6997 11.4759 17.4177C11.7567 17.1356 12.1374 16.977 12.5345 16.9765H59.1253C60.0025 16.9765 60.4614 17.7333 60.4614 18.4809V32.0205H54.4697L53.8416 33.7887L55.444 35.0292H63.4568C64.648 35.0306 65.7901 35.5065 66.6324 36.3526C67.4748 37.1987 67.9486 38.3459 67.9499 39.5424V61.4851L69.5483 64.4939H70.9454V7.95018C70.9431 5.95593 70.1534 4.04401 68.7495 2.63386C67.3456 1.22371 65.4422 0.430488 63.4568 0.428223H50.3007C48.9435 0.428311 47.6117 0.798814 46.4479 1.50014L41.8049 4.29829C41.1066 4.71908 40.3076 4.94137 39.4933 4.9414H8.04131C6.05591 4.94366 4.15247 5.73688 2.74858 7.14703C1.34469 8.55718 0.55499 10.4691 0.552734 12.4634ZM39.4933 7.95018H8.04131C6.85007 7.95154 5.708 8.42746 4.86567 9.27356C4.02333 10.1196 3.54951 11.2668 3.54817 12.4634V26.0029H8.04131V18.4809C8.04266 17.2844 8.51648 16.1372 9.35881 15.2911C10.2011 14.445 11.3432 13.9691 12.5345 13.9678H59.1253C61.5542 13.9678 63.4568 15.9502 63.4568 18.4809V32.0205C65.078 32.0188 66.6556 32.5484 67.9499 33.529V7.95018C67.9486 6.75363 67.4748 5.60647 66.6324 4.76038C65.7901 3.91429 64.648 3.43836 63.4568 3.43701H50.3007C49.4864 3.43703 48.6874 3.65933 47.9891 4.08012L43.3461 6.87827C42.1823 7.57959 40.8506 7.95009 39.4933 7.95018Z" fill="#342B2B"/>
<path fill-rule="evenodd" clip-rule="evenodd" d="M59.8411 72.639L75.824 88.6932C77.098 89.9728 78.8258 90.6916 80.6274 90.6917C82.429 90.6917 84.1568 89.9728 85.4307 88.6932C86.7047 87.4136 87.4203 85.6781 87.4203 83.8685C87.4204 82.0588 86.7047 80.3233 85.4308 79.0437L70.9455 64.4939L67.9501 61.4851L60.0228 53.5225C59.7419 53.2405 59.361 53.082 58.9638 53.082C58.5666 53.082 58.1857 53.2405 57.9047 53.5225L57.4661 53.9632L53.165 49.6429C55.8011 45.2596 56.6195 40.0123 55.4441 35.0293L54.4698 32.0205C53.2282 29.0236 51.263 26.3845 48.7517 24.3416C46.2404 22.2986 43.262 20.9161 40.0856 20.3189C36.9091 19.7218 33.6346 19.9287 30.5577 20.921C27.4808 21.9134 24.6984 23.6599 22.4618 26.0029L20.0977 29.0117C17.7293 32.7288 16.6827 37.1415 17.1281 41.532C17.5736 45.9225 19.4849 50.0324 22.5511 53.1932C25.6174 56.354 29.6581 58.3797 34.0161 58.9408C38.3741 59.502 42.7929 58.5654 46.5537 56.2836L50.8548 60.6039L50.4162 61.0445C50.2771 61.1842 50.1667 61.35 50.0915 61.5326C50.0162 61.7151 49.9774 61.9107 49.9774 62.1083C49.9774 62.3059 50.0162 62.5015 50.0915 62.684C50.1667 62.8666 50.2771 63.0324 50.4162 63.1721L56.8457 69.6303L59.8411 72.639ZM45.651 25.783C42.9417 23.9647 39.7564 22.9941 36.498 22.9941C32.1301 22.9991 27.9425 24.7442 24.854 27.8465C21.7654 30.9488 20.0281 35.1551 20.0231 39.5424C20.0231 42.8154 20.9894 46.0148 22.7997 48.7362C24.6099 51.4575 27.183 53.5786 30.1934 54.8311C33.2038 56.0836 36.5163 56.4113 39.7121 55.7728C42.9079 55.1342 45.8435 53.5582 48.1475 51.2439C50.4516 48.9295 52.0207 45.9809 52.6563 42.7708C53.292 39.5608 52.9658 36.2335 51.7188 33.2097C50.4719 30.1859 48.3603 27.6014 45.651 25.783ZM52.9729 58.4763L49.0198 54.5056C49.8779 53.78 50.6725 52.9819 51.3949 52.12L55.3479 56.0907L52.9729 58.4763ZM83.7849 85.9877C84.2022 85.3604 84.4249 84.6229 84.4249 83.8685C84.4263 83.3674 84.3287 82.8709 84.1377 82.408C83.9468 81.945 83.6664 81.5246 83.3126 81.1712L58.9638 56.7138L53.5933 62.1083L77.9422 86.5657C78.4733 87.0991 79.1499 87.4624 79.8866 87.6096C80.6232 87.7568 81.3868 87.6813 82.0807 87.3926C82.7746 87.1039 83.3677 86.615 83.7849 85.9877Z" fill="#5E6398"/>
    </symbol>
</svg>
