<svg width="88" height="87" viewBox="0 0 88 87" fill="none" xmlns="http://www.w3.org/2000/svg">
<path d="M20.9734 28.9492C21.7673 28.9492 22.4109 28.3056 22.4109 27.5117C22.4109 26.7178 21.7673 26.0742 20.9734 26.0742C20.1795 26.0742 19.5359 26.7178 19.5359 27.5117C19.5359 28.3056 20.1795 28.9492 20.9734 28.9492Z" fill="#342B2B"/>
<path d="M18.0984 20.3242H23.8484V23.1992H18.0984V20.3242Z" fill="#342B2B"/>
<path d="M35.3484 28.9492C36.1423 28.9492 36.7859 28.3056 36.7859 27.5117C36.7859 26.7178 36.1423 26.0742 35.3484 26.0742C34.5545 26.0742 33.9109 26.7178 33.9109 27.5117C33.9109 28.3056 34.5545 28.9492 35.3484 28.9492Z" fill="#342B2B"/>
<path d="M32.4734 20.3242H38.2234V23.1992H32.4734V20.3242Z" fill="#342B2B"/>
<path d="M26.7234 28.9492H29.5984V34.6992H26.7234V28.9492Z" fill="#342B2B"/>
<path d="M34.0885 38.8053L32.6047 36.343C31.2572 37.1338 29.7232 37.5507 28.1609 37.5507C26.5986 37.5507 25.0646 37.1338 23.7171 36.343L22.2333 38.8053C24.0234 39.8809 26.0725 40.4492 28.1609 40.4492C30.2493 40.4492 32.2984 39.8809 34.0885 38.8053Z" fill="#342B2B"/>
<path d="M9.47339 69.1992H12.3484V86.4492H9.47339V69.1992Z" fill="#342B2B"/>
<path d="M3.72339 65.3949C3.72364 64.6258 3.92947 63.8708 4.31957 63.2079C4.70967 62.5451 5.26985 61.9986 5.94211 61.625L15.0599 56.5595L21.7665 62.1479C21.963 62.3068 22.1796 62.4388 22.4109 62.5405V64.8867C22.4113 65.3523 22.5249 65.8107 22.7418 66.2226C22.9588 66.6345 23.2726 66.9875 23.6563 67.2511L20.9965 81.8798L20.9734 86.4492H23.8484V82.2666L26.4856 67.7617H29.8362L32.4734 82.2666V86.4492H35.3484V82.1367L32.664 67.2523C33.0481 66.9887 33.3624 66.6356 33.5796 66.2235C33.7968 65.8114 33.9105 65.3526 33.9109 64.8867V62.5405C34.1424 62.4386 34.3593 62.3064 34.5559 62.1472L41.2619 56.5594L44.7125 58.4762L46.1093 55.9635L41.9721 53.6653L39.4686 51.1618C38.9379 50.6337 38.2791 50.2527 37.5569 50.0559C36.8346 49.8592 36.0735 49.8534 35.3484 50.0393V46.0476C38.347 44.6719 40.8886 42.4656 42.6719 39.69C44.4553 36.9144 45.4058 33.6859 45.4109 30.3867V4.51172C45.4096 3.36836 44.9549 2.27218 44.1464 1.4637C43.3379 0.655219 42.2418 0.200467 41.0984 0.199219H22.4109C21.1365 0.200932 19.8986 0.625164 18.8911 1.40551C17.8835 2.18585 17.1631 3.27825 16.8427 4.51172H16.6609C15.1364 4.51346 13.6749 5.11982 12.5969 6.19778C11.519 7.27574 10.9126 8.73726 10.9109 10.2617V30.3867C10.9159 33.6859 11.8664 36.9144 13.6498 39.69C15.4332 42.4656 17.9747 44.6719 20.9734 46.0476V50.0395C20.2483 49.8535 19.4872 49.8591 18.7649 50.0558C18.0426 50.2526 17.3838 50.6337 16.8532 51.1617L14.3497 53.6652L4.54532 59.1122C3.42514 59.7349 2.49175 60.6458 1.84176 61.7504C1.19178 62.855 0.84882 64.1132 0.848389 65.3949V86.4492H3.72339V65.3949ZM31.0359 64.8867H25.2859V62.2525C25.521 62.0885 25.7299 61.89 25.9057 61.6636L28.1609 58.6575L30.4154 61.6629C30.5913 61.8896 30.8005 62.0883 31.0359 62.2525V64.8867ZM23.8484 51.6592V47.0689C26.6736 47.8259 29.6482 47.8259 32.4734 47.0689V51.6592L28.1609 54.534L23.8484 51.6592ZM35.6221 53.0154C35.899 52.8324 36.2305 52.7504 36.5608 52.783C36.8911 52.8156 37.2001 52.9608 37.4359 53.1944L38.9688 54.7274L32.7156 59.9383L30.2231 56.6148L35.6221 53.0154ZM13.7859 10.2617C13.7866 9.49945 14.0898 8.76863 14.6288 8.22963C15.1678 7.69063 15.8986 7.38748 16.6609 7.38672V8.82422H19.5359V5.94922C19.5366 5.18695 19.8398 4.45613 20.3788 3.91713C20.9178 3.37813 21.6486 3.07498 22.4109 3.07422H41.0984C41.4795 3.07471 41.8448 3.22632 42.1143 3.4958C42.3838 3.76528 42.5354 4.13062 42.5359 4.51172V13.3255L41.516 12.6454C41.0157 12.3129 40.4516 12.0883 39.8597 11.9858C39.2678 11.8833 38.6611 11.9052 38.0781 12.0502L28.509 14.443C28.2805 14.5005 28.0413 14.5005 27.8127 14.443L18.2423 12.0502C17.6594 11.9052 17.0527 11.8833 16.4609 11.9859C15.8691 12.0885 15.3051 12.3134 14.805 12.6461L13.7859 13.3255V10.2617ZM13.7859 30.3867V16.7811L16.3991 15.0388C16.5656 14.9272 16.7538 14.8518 16.9514 14.8174C17.1489 14.7831 17.3515 14.7906 17.546 14.8395L27.1151 17.2323C27.8018 17.4036 28.52 17.4036 29.2067 17.2323L38.7744 14.8395C38.969 14.7916 39.1715 14.7845 39.369 14.8187C39.5665 14.8529 39.7548 14.9276 39.922 15.0381L42.5359 16.781V30.3867C42.5359 34.1992 41.0214 37.8555 38.3256 40.5514C35.6297 43.2472 31.9734 44.7617 28.1609 44.7617C24.3484 44.7617 20.6921 43.2472 17.9962 40.5514C15.3004 37.8555 13.7859 34.1992 13.7859 30.3867ZM18.8859 53.1944C19.1215 52.9604 19.4305 52.8148 19.7609 52.7822C20.0914 52.7496 20.4229 52.832 20.6996 53.0154L26.0994 56.6148L23.6062 59.939L17.353 54.7274L18.8859 53.1944Z" fill="#342B2B"/>
<path d="M82.7859 0.199219H54.0359C52.8925 0.200467 51.7963 0.655219 50.9879 1.4637C50.1794 2.27218 49.7246 3.36836 49.7234 4.51172V62.0117H42.5359C41.3925 62.013 40.2963 62.4677 39.4879 63.2762C38.6794 64.0847 38.2246 65.1809 38.2234 66.3242V79.2617C38.2256 81.1673 38.9836 82.9941 40.331 84.3416C41.6785 85.689 43.5053 86.447 45.4109 86.4492H79.9109C81.8164 86.447 83.6433 85.689 84.9907 84.3416C86.3382 82.9941 87.0962 81.1673 87.0984 79.2617V4.51172C87.0971 3.36836 86.6424 2.27218 85.8339 1.4637C85.0254 0.655219 83.9293 0.200467 82.7859 0.199219ZM49.7234 79.2617C49.7234 80.4055 49.269 81.5024 48.4603 82.3111C47.6515 83.1199 46.5546 83.5742 45.4109 83.5742C44.2671 83.5742 43.1702 83.1199 42.3615 82.3111C41.5527 81.5024 41.0984 80.4055 41.0984 79.2617V66.3242C41.0989 65.9431 41.2505 65.5778 41.52 65.3083C41.7894 65.0388 42.1548 64.8872 42.5359 64.8867H49.7234V79.2617ZM84.2234 79.2617C84.2221 80.4051 83.7674 81.5013 82.9589 82.3097C82.1504 83.1182 81.0543 83.573 79.9109 83.5742H51.1241C52.0749 82.3372 52.5929 80.822 52.5984 79.2617V4.51172C52.5989 4.13062 52.7505 3.76528 53.02 3.4958C53.2894 3.22632 53.6548 3.07471 54.0359 3.07422H82.7859C83.167 3.07471 83.5323 3.22632 83.8018 3.4958C84.0713 3.76528 84.2229 4.13062 84.2234 4.51172V79.2617Z" fill="#5E6398"/>
<path d="M56.9109 24.091V34.6992C56.9121 35.8426 57.3669 36.9388 58.1754 37.7472C58.9838 38.5557 60.08 39.0105 61.2234 39.0117H75.5984C76.7417 39.0105 77.8379 38.5557 78.6464 37.7472C79.4549 36.9388 79.9096 35.8426 79.9109 34.6992V24.091C80.2789 23.8253 80.5786 23.4761 80.7853 23.072C80.9919 22.6678 81.0997 22.2204 81.0997 21.7666C81.0997 21.3127 80.9919 20.8652 80.7853 20.4611C80.5786 20.057 80.2789 19.7078 79.9109 19.4421V8.82422C79.9101 8.06195 79.607 7.33113 79.068 6.79213C78.529 6.25313 77.7981 5.94998 77.0359 5.94922H74.1609C73.3986 5.94998 72.6678 6.25313 72.1288 6.79213C71.5898 7.33113 71.2866 8.06195 71.2859 8.82422V13.3949L70.0597 12.5366C69.5763 12.1989 69.001 12.0178 68.4114 12.0177C67.8218 12.0176 67.2464 12.1985 66.7629 12.5359L56.9481 19.4061C56.5724 19.6689 56.2649 20.0178 56.0514 20.4236C55.838 20.8294 55.7247 21.2804 55.721 21.739C55.7174 22.1975 55.8235 22.6502 56.0305 23.0594C56.2375 23.4686 56.5393 23.8223 56.9109 24.091ZM69.8484 36.1367H66.9734V30.3867H69.8484V36.1367ZM77.0359 34.6992C77.0354 35.0803 76.8838 35.4457 76.6143 35.7151C76.3448 35.9846 75.9795 36.1362 75.5984 36.1367H72.7234V30.3867C72.7226 29.6245 72.4195 28.8936 71.8805 28.3546C71.3415 27.8156 70.6106 27.5125 69.8484 27.5117H66.9734C66.2111 27.5125 65.4803 27.8156 64.9413 28.3546C64.4023 28.8936 64.0991 29.6245 64.0984 30.3867V36.1367H61.2234C60.8423 36.1362 60.4769 35.9846 60.2075 35.7151C59.938 35.4457 59.7864 35.0803 59.7859 34.6992V24.6367H77.0359V34.6992ZM74.1609 8.82422H77.0359V17.4197L74.1609 15.4072V8.82422ZM68.4109 14.8915L78.2256 21.7617H58.5962L68.4109 14.8915Z" fill="#5E6398"/>
<path d="M61.2234 44.7617H58.3484C57.5861 44.7625 56.8553 45.0656 56.3163 45.6046C55.7773 46.1436 55.4741 46.8745 55.4734 47.6367V50.5117C55.4741 51.274 55.7773 52.0048 56.3163 52.5438C56.8553 53.0828 57.5861 53.386 58.3484 53.3867H61.2234C61.9857 53.386 62.7165 53.0828 63.2555 52.5438C63.7945 52.0048 64.0976 51.274 64.0984 50.5117V47.6367C64.0976 46.8745 63.7945 46.1436 63.2555 45.6046C62.7165 45.0656 61.9857 44.7625 61.2234 44.7617ZM58.3484 50.5117V47.6367H61.2234L61.2255 50.5117H58.3484Z" fill="#5E6398"/>
<path d="M66.9734 44.7617H69.8484V47.6367H66.9734V44.7617Z" fill="#5E6398"/>
<path d="M72.7234 44.7617H81.3484V47.6367H72.7234V44.7617Z" fill="#5E6398"/>
<path d="M66.9734 50.5117H69.8484V53.3867H66.9734V50.5117Z" fill="#5E6398"/>
<path d="M72.7234 50.5117H81.3484V53.3867H72.7234V50.5117Z" fill="#5E6398"/>
<path d="M78.4734 67.7617H75.5984C74.8361 67.7625 74.1053 68.0656 73.5663 68.6046C73.0273 69.1436 72.7242 69.8745 72.7234 70.6367V73.5117C72.7242 74.274 73.0273 75.0048 73.5663 75.5438C74.1053 76.0828 74.8361 76.386 75.5984 76.3867H78.4734C79.2357 76.386 79.9665 76.0828 80.5055 75.5438C81.0445 75.0048 81.3476 74.274 81.3484 73.5117V70.6367C81.3476 69.8745 81.0445 69.1436 80.5055 68.6046C79.9665 68.0656 79.2357 67.7625 78.4734 67.7617ZM78.4734 73.5117H75.5984V70.6367H78.4734V73.5117Z" fill="#5E6398"/>
<path d="M66.9734 67.7617H69.8484V70.6367H66.9734V67.7617Z" fill="#5E6398"/>
<path d="M56.9109 67.7617H64.0984V70.6367H56.9109V67.7617Z" fill="#5E6398"/>
<path d="M66.9734 73.5117H69.8484V76.3867H66.9734V73.5117Z" fill="#5E6398"/>
<path d="M56.9109 73.5117H64.0984V76.3867H56.9109V73.5117Z" fill="#5E6398"/>
<path d="M66.9734 56.2617H69.8484V59.1367H66.9734V56.2617Z" fill="#5E6398"/>
<path d="M72.7234 56.2617H81.3484V59.1367H72.7234V56.2617Z" fill="#5E6398"/>
<path d="M66.9734 62.0117H69.8484V64.8867H66.9734V62.0117Z" fill="#5E6398"/>
<path d="M72.7234 62.0117H81.3484V64.8867H72.7234V62.0117Z" fill="#5E6398"/>
</svg>
