<svg xmlns="http://www.w3.org/2000/svg">
    <symbol id="s-020" width="74" height="95" viewBox="0 0 74 95" fill="none">
<path fill-rule="evenodd" clip-rule="evenodd" d="M2.93033 89.1189C1.50951 87.698 0.710291 85.7716 0.708008 83.7623V7.97344C0.710291 5.9641 1.50951 4.03771 2.93033 2.61688C4.35115 1.19606 6.27755 0.396843 8.28689 0.39456H46.7014C47.6971 0.391814 48.6835 0.586615 49.6034 0.967684C50.5233 1.34875 51.3585 1.90852 52.0606 2.61457L71.2455 21.7992C71.9514 22.5014 72.5111 23.3366 72.8921 24.2565C73.2732 25.1764 73.468 26.1627 73.4653 27.1584V83.7623C73.463 85.7716 72.6638 87.698 71.243 89.1189C69.8222 90.5397 67.8958 91.3389 65.8864 91.3412H8.28689C6.27755 91.3389 4.35115 90.5397 2.93033 89.1189ZM65.8864 88.3096C67.092 88.3082 68.2478 87.8287 69.1003 86.9762C69.9528 86.1237 70.4324 84.9679 70.4337 83.7623V27.1584C70.4353 26.561 70.3185 25.9692 70.0898 25.4172C69.8612 24.8652 69.5254 24.3641 69.1018 23.9428L50.7286 5.56989V18.5839C50.73 19.7895 51.2095 20.9453 52.062 21.7978C52.9145 22.6503 54.0704 23.1299 55.276 23.1312H64.3706V26.1628H55.276C53.2666 26.1605 51.3402 25.3613 49.9194 23.9404C48.4986 22.5196 47.6994 20.5932 47.6971 18.5839V3.53616C47.3702 3.46323 47.0363 3.42633 46.7014 3.42611H8.28689C7.08129 3.42749 5.92546 3.90703 5.07297 4.75952C4.22048 5.61201 3.74094 6.76784 3.73956 7.97344V83.7623C3.74094 84.9679 4.22048 86.1237 5.07297 86.9762C5.92546 87.8287 7.08129 88.3082 8.28689 88.3096H65.8864Z" fill="#342B2B"/>
<path d="M11.3184 17.0681H24.9604V20.0997H11.3184V17.0681Z" fill="#342B2B"/>
<path d="M27.992 17.0681H32.5393V20.0997H27.992V17.0681Z" fill="#342B2B"/>
<path d="M11.3184 23.1312H21.9289V26.1628H11.3184V23.1312Z" fill="#342B2B"/>
<path d="M24.9604 23.1312H32.5393V26.1628H24.9604V23.1312Z" fill="#342B2B"/>
<path d="M43.1498 33.7416H49.2129V36.7732H43.1498V33.7416Z" fill="#342B2B"/>
<path d="M52.2444 33.7416H64.3706V36.7732H52.2444V33.7416Z" fill="#342B2B"/>
<path d="M47.6971 45.8679H55.276V48.8994H47.6971V45.8679Z" fill="#342B2B"/>
<path d="M58.3075 45.8679H64.3706V48.8994H58.3075V45.8679Z" fill="#342B2B"/>
<path d="M43.1498 53.4468H49.2129V56.4783H43.1498V53.4468Z" fill="#342B2B"/>
<path d="M52.2444 53.4468H64.3706V56.4783H52.2444V53.4468Z" fill="#342B2B"/>
<path d="M43.1498 76.1834H47.6971V79.215H43.1498V76.1834Z" fill="#342B2B"/>
<path d="M61.3391 76.1834H64.3706V79.215H61.3391V76.1834Z" fill="#342B2B"/>
<path d="M50.7286 76.1834H58.3075V79.215H50.7286V76.1834Z" fill="#342B2B"/>
<path d="M43.1498 61.0256H56.7918V64.0572H43.1498V61.0256Z" fill="#342B2B"/>
<path d="M59.8233 61.0256H64.3706V64.0572H59.8233V61.0256Z" fill="#342B2B"/>
<path d="M43.1498 68.6045H49.2129V71.6361H43.1498V68.6045Z" fill="#342B2B"/>
<path d="M52.2444 68.6045H64.3706V71.6361H52.2444V68.6045Z" fill="#342B2B"/>
<path d="M14.3499 18.1274V8.99219H17.3814V18.1274H14.3499Z" fill="#5E6398"/>
<path d="M20.413 18.1274V8.99219H23.4446V18.1274H20.413Z" fill="#5E6398"/>
<path d="M26.4761 18.1274V8.99219H29.5077V18.1274H26.4761Z" fill="#5E6398"/>
<path fill-rule="evenodd" clip-rule="evenodd" d="M23.4446 94.2542V75.6793L25.0769 79.6144C25.192 79.8919 25.3863 80.1289 25.6353 80.2956C25.8843 80.4623 26.1769 80.5513 26.4761 80.5513V94.2542H29.5077V80.5513H35.5708C35.8203 80.5513 36.066 80.4894 36.286 80.3711C36.506 80.2529 36.6935 80.0819 36.832 79.8733C36.9704 79.6648 37.0554 79.4251 37.0795 79.1756C37.1036 78.9261 37.0659 78.6745 36.97 78.4432L29.9816 61.5963C31.7105 59.5762 32.6212 56.9777 32.5334 54.3152C32.4456 51.6527 31.3658 49.1203 29.5077 47.2195V36.3978H26.4761V45.0409C25.5176 44.5824 24.4955 44.2723 23.4446 44.121V36.3978H20.413V44.121C19.3621 44.2723 18.34 44.5824 17.3814 45.0409V36.3978H14.3499V47.2195C12.4918 49.1203 11.4119 51.6527 11.3241 54.3152C11.2364 56.9777 12.1471 59.5762 13.8759 61.5963L6.88757 78.4432C6.7916 78.6745 6.75399 78.9261 6.77807 79.1756C6.80215 79.4251 6.88717 79.6648 7.02559 79.8733C7.16401 80.0819 7.35154 80.2529 7.57155 80.3711C7.79156 80.4894 8.03724 80.5513 8.28678 80.5513H14.3499V94.2542H17.3814V80.5513C17.6807 80.5513 17.9732 80.4623 18.2222 80.2956C18.4712 80.1289 18.6655 79.8919 18.7806 79.6144L20.413 75.6793V94.2542H23.4446ZM21.4287 65.3133C19.6053 65.2285 17.835 64.6694 16.2914 63.6908L10.5604 77.5063H16.3709L21.4287 65.3133ZM27.4867 77.5063L23.5709 68.0665L24.8834 64.9024C25.8296 64.6262 26.7326 64.2184 27.5662 63.6908L33.2971 77.5063H27.4867ZM26.1394 48.3385C24.893 47.502 23.4277 47.0556 21.9288 47.0556C19.9194 47.0579 17.993 47.8606 16.5722 49.2878C15.1514 50.715 14.3522 52.6499 14.3499 54.6682C14.3499 56.1739 14.7944 57.6457 15.6272 58.8976C16.4599 60.1495 17.6436 61.1252 19.0285 61.7014C20.4133 62.2776 21.9372 62.4284 23.4073 62.1346C24.8775 61.8409 26.2279 61.1159 27.2879 60.0512C28.3478 58.9866 29.0696 57.6301 29.362 56.1534C29.6545 54.6767 29.5044 53.146 28.9308 51.755C28.3571 50.364 27.3857 49.175 26.1394 48.3385Z" fill="#5E6398"/>
</symbol>
</svg>
