<svg xmlns="http://www.w3.org/2000/svg">
    <symbol id="s-04" width="90" height="87" viewBox="0 0 90 87" fill="none">
<path d="M88.9222 59.7345C88.6818 58.4456 88.1857 57.2179 87.4632 56.1238C86.7407 55.0297 85.8064 54.0914 84.7154 53.3641C84.3384 53.1128 83.9872 52.8248 83.6668 52.5045L80.925 49.7628C77.2129 46.0373 72.4234 43.5736 67.234 42.7201L67.2317 42.7196L67.2287 42.7191L67.2273 42.7189C65.8589 42.489 64.4736 42.3736 63.086 42.374H44.6754C39.4661 42.3739 34.3078 43.3998 29.495 45.3932C24.6822 47.3867 20.3092 50.3086 16.6257 53.9921L13.5358 57.082C11.4952 57.1785 9.50474 57.7464 7.72043 58.7412C5.93612 59.7359 4.40648 61.1304 3.25145 62.8154C2.32707 64.1563 1.6623 65.6587 1.29159 67.2447C1.05625 68.2421 0.937623 69.2635 0.938112 70.2883V79.1033C0.938116 79.493 1.0929 79.8667 1.36843 80.1422C1.64395 80.4177 2.01764 80.5725 2.40728 80.5725H10.2565C10.8643 82.2912 11.99 83.7792 13.4785 84.8316C14.967 85.8841 16.7452 86.4492 18.5682 86.4492C20.3912 86.4492 22.1694 85.8841 23.6579 84.8316C25.1464 83.7792 26.272 82.2912 26.8799 80.5725H38.1729C38.7802 82.2911 39.9055 83.7791 41.3936 84.8316C42.8818 85.884 44.6597 86.4492 46.4825 86.4492C48.3052 86.4492 50.0831 85.884 51.5713 84.8316C53.0595 83.7791 54.1848 82.2911 54.7921 80.5725H67.5563C68.1636 82.2911 69.2889 83.7791 70.7771 84.8316C72.2653 85.884 74.0432 86.4492 75.8659 86.4492C77.6887 86.4492 79.4666 85.884 80.9548 84.8316C82.443 83.7791 83.5682 82.2911 84.1756 80.5725H87.6193C88.0089 80.5725 88.3826 80.4177 88.6582 80.1422C88.9337 79.8667 89.0885 79.493 89.0885 79.1033V61.5357C89.0885 60.9315 89.0328 60.3285 88.9222 59.7345ZM68.139 45.8979C72.1963 46.8319 75.9079 48.8917 78.8471 51.8404L79.5509 52.5442C75.7952 55.4771 71.166 57.0689 66.4008 57.0658H65.9048L68.139 45.8979ZM62.6496 45.3124H63.086C63.806 45.3124 64.5259 45.3474 65.2386 45.417L62.9082 57.0658H55.2975V54.1274C55.2975 53.7998 55.188 53.4815 54.9864 53.2233C54.7847 52.965 54.5025 52.7816 54.1847 52.7021L50.7745 51.8495L51.8132 50.5512C53.111 48.9213 54.7588 47.6041 56.6346 46.6973C58.5104 45.7904 60.5662 45.3171 62.6496 45.3124ZM52.3592 55.2745V57.0658H46.6012L48.7552 54.3735L52.3592 55.2745ZM18.7036 56.0698C22.1142 52.659 26.1632 49.9535 30.6195 48.1078C35.0758 46.262 39.852 45.3121 44.6754 45.3124H53.1791C51.7976 46.2598 50.5641 47.4067 49.5187 48.7157L42.8381 57.0658H17.7075L18.7036 56.0698ZM5.1536 65.3204C7.09899 65.8455 8.92711 66.7349 10.541 67.9413L10.9504 68.2483C9.63937 68.5013 8.29166 68.4973 6.98212 68.2365L6.34188 68.1075C5.61313 67.9609 4.93308 67.633 4.36459 67.1541C4.56623 66.5183 4.83053 65.904 5.1536 65.3204ZM18.5682 83.5109C17.5372 83.5085 16.5248 83.2359 15.6319 82.7204C14.7391 82.2048 13.9969 81.4643 13.4794 80.5725H23.6569C23.1395 81.4643 22.3973 82.2048 21.5044 82.7204C20.6116 83.2359 19.5992 83.5085 18.5682 83.5109ZM12.4723 77.6342L16.1453 74.6958H23.9294L27.6024 77.6342H12.4723ZM46.4825 83.5109C44.9345 83.5109 43.449 82.9002 42.3488 81.8114C41.2485 80.7225 40.6222 79.2436 40.6061 77.6957C40.5899 76.1478 41.1851 74.6561 42.2625 73.5445C43.3398 72.4329 44.8122 71.7914 46.3598 71.7591C46.3684 71.7589 46.3772 71.7586 46.3858 71.7583C46.4052 71.7576 46.4249 71.7574 46.445 71.7574C46.4574 71.7574 46.4699 71.7575 46.4825 71.7575C46.5153 71.7575 46.5479 71.7572 46.5791 71.7583C46.5877 71.7587 46.5965 71.7589 46.6051 71.7591C48.1528 71.7914 49.6251 72.4329 50.7025 73.5445C51.7798 74.6561 52.375 76.1478 52.3589 77.6957C52.3427 79.2435 51.7165 80.7225 50.6162 81.8114C49.5159 82.9002 48.0304 83.5109 46.4825 83.5109ZM75.8659 83.5109C74.318 83.5109 72.8325 82.9002 71.7322 81.8114C70.6319 80.7225 70.0057 79.2436 69.9895 77.6957C69.9734 76.1478 70.5686 74.6561 71.6459 73.5445C72.7232 72.4329 74.1956 71.7914 75.7432 71.7591C75.7519 71.7589 75.7606 71.7586 75.7692 71.7583C75.7886 71.7576 75.8083 71.7574 75.8284 71.7574C75.8408 71.7574 75.8534 71.7575 75.8659 71.7575C75.8989 71.7575 75.9312 71.7572 75.9626 71.7583C75.9712 71.7587 75.98 71.7589 75.9886 71.7591C77.5362 71.7914 79.0086 72.4329 80.0859 73.5445C81.1632 74.6561 81.7585 76.1478 81.7423 77.6957C81.7262 79.2435 81.0999 80.7225 79.9996 81.8114C78.8993 82.9002 77.4139 83.5109 75.8659 83.5109ZM86.1501 77.6342H84.681C84.6694 75.3333 83.7633 73.1272 82.1542 71.4825C80.5452 69.8378 78.3595 68.8835 76.0594 68.8216C75.9335 68.8174 75.7983 68.8174 75.6724 68.8216C73.3724 68.8835 71.1866 69.8378 69.5776 71.4825C67.9686 73.1272 67.0624 75.3333 67.0509 77.6342H55.2975C55.286 75.3333 54.3798 73.1272 52.7708 71.4825C51.1617 69.8378 48.976 68.8835 46.676 68.8216C46.5501 68.8174 46.4149 68.8174 46.289 68.8216C43.9889 68.8835 41.8032 69.8378 40.1941 71.4825C38.5851 73.1272 37.679 75.3333 37.6674 77.6342H32.3062L25.3628 72.0794C25.1022 71.871 24.7785 71.7575 24.4449 71.7575H15.6298C15.2962 71.7575 14.9725 71.871 14.712 72.0794L7.7685 77.6342H3.87646V70.3303C4.47256 70.635 5.10769 70.8565 5.76404 70.9885L6.40429 71.1175C8.66073 71.5672 10.9954 71.4218 13.1786 70.6957L14.6257 70.2127C14.88 70.1279 15.1063 69.9751 15.2799 69.7709C15.4536 69.5667 15.5681 69.3188 15.611 69.0542C15.6539 68.7896 15.6236 68.5182 15.5233 68.2696C15.423 68.021 15.2566 67.8045 15.0421 67.6437L12.3041 65.5907C10.7176 64.4046 8.95415 63.4756 7.07866 62.8379C8.98856 61.02 11.5239 60.0055 14.1607 60.0041H66.4008C71.9455 60.008 77.3245 58.1136 81.6431 54.636C82.0858 55.0717 82.5687 55.4644 83.0855 55.8089C84.0279 56.438 84.8009 57.2895 85.3361 58.2882C85.4062 58.4191 85.4695 58.5532 85.5309 58.688C83.1484 59.0779 80.9472 60.2021 79.2345 61.9036C79.0884 62.0497 78.9748 62.225 78.9011 62.418C78.8274 62.611 78.7952 62.8174 78.8066 63.0237C78.818 63.23 78.8729 63.4316 78.9675 63.6153C79.0621 63.799 79.1944 63.9606 79.3557 64.0897L86.1501 69.5252V77.6342ZM86.1501 65.7624L82.6027 62.9244C83.6699 62.2136 84.8815 61.7485 86.1501 61.5627V65.7624Z" fill="#342B2B"/>
<path d="M37.1412 61.8433L35.3498 62.2015C32.6032 62.7548 30.0143 63.9124 27.7706 65.5903L25.0326 67.6438C24.8181 67.8047 24.6517 68.0212 24.5515 68.2698C24.4513 68.5184 24.421 68.7898 24.4639 69.0544C24.5068 69.3191 24.6213 69.5669 24.7951 69.7711C24.9688 69.9753 25.195 70.1281 25.4494 70.2129L26.8959 70.6951C29.0791 71.4218 31.414 71.5672 33.6704 71.1169L34.3089 70.9892C35.671 70.7128 36.9274 70.0572 37.9333 69.098C38.9392 68.1389 39.6538 66.915 39.9946 65.5676L40.1395 64.988C40.2447 64.5674 40.2418 64.1269 40.1311 63.7077C40.0203 63.2885 39.8053 62.904 39.5061 62.5902C39.2069 62.2764 38.8332 62.0433 38.4197 61.9127C38.0062 61.7821 37.5664 61.7582 37.1412 61.8433ZM37.1441 64.8549C36.9396 65.6634 36.5108 66.3977 35.9072 66.9732C35.3037 67.5487 34.5498 67.942 33.7325 68.1079L33.094 68.2356C31.7841 68.497 30.4359 68.5012 29.1245 68.2478L29.5335 67.941C31.4259 66.5258 33.6095 65.5495 35.926 65.0828L37.1482 64.8384L37.1441 64.8549Z" fill="#342B2B"/>
<path d="M46.4825 79.1033C47.2939 79.1033 47.9516 78.4456 47.9516 77.6342C47.9516 76.8228 47.2939 76.165 46.4825 76.165C45.6711 76.165 45.0133 76.8228 45.0133 77.6342C45.0133 78.4456 45.6711 79.1033 46.4825 79.1033Z" fill="#342B2B"/>
<path d="M75.8659 79.1033C76.6773 79.1033 77.3351 78.4456 77.3351 77.6342C77.3351 76.8228 76.6773 76.165 75.8659 76.165C75.0545 76.165 74.3967 76.8228 74.3967 77.6342C74.3967 78.4456 75.0545 79.1033 75.8659 79.1033Z" fill="#342B2B"/>
<path d="M72.3191 62.9424H71.4584V65.8808H72.3191C73.1711 65.8831 74.0151 65.7165 74.8022 65.3904C75.5894 65.0643 76.304 64.5854 76.9048 63.9813L74.827 61.9036C74.4984 62.234 74.1076 62.4959 73.6771 62.6743C73.2466 62.8526 72.785 62.9437 72.3191 62.9424Z" fill="#342B2B"/>
<path d="M55.2975 62.9424H61.1742V65.8808H55.2975V62.9424Z" fill="#342B2B"/>
<path d="M2.40728 12.9906H11.2223C11.612 12.9906 11.9857 12.8358 12.2612 12.5603C12.5367 12.2847 12.6915 11.911 12.6915 11.5214V8.58305H9.75315V10.0522H3.87646V4.17553H5.34563V1.23719H2.40728C2.01764 1.23719 1.64395 1.39198 1.36843 1.6675C1.0929 1.94303 0.938114 2.31671 0.93811 2.70636V11.5214C0.938114 11.911 1.0929 12.2847 1.36843 12.5603C1.64395 12.8358 2.01764 12.9906 2.40728 12.9906Z" fill="#5E6398"/>
<path d="M2.40728 27.6823H11.2223C11.612 27.6823 11.9857 27.5275 12.2612 27.252C12.5367 26.9765 12.6915 26.6028 12.6915 26.2131V23.2748H9.75315V24.7439H3.87646V18.8673H5.34563V15.9289H2.40728C2.01764 15.9289 1.64395 16.0837 1.36843 16.3592C1.0929 16.6348 0.938114 17.0084 0.93811 17.3981V26.2131C0.938114 26.6028 1.0929 26.9765 1.36843 27.252C1.64395 27.5275 2.01764 27.6823 2.40728 27.6823Z" fill="#5E6398"/>
<path d="M2.40728 42.374H11.2223C11.612 42.374 11.9857 42.2192 12.2612 41.9437C12.5367 41.6682 12.6915 41.2945 12.6915 40.9048V37.9665H9.75315V39.4357H3.87646V33.559H5.34563V30.6206H2.40728C2.01764 30.6206 1.64395 30.7754 1.36843 31.051C1.0929 31.3265 0.938114 31.7002 0.93811 32.0898V40.9048C0.938114 41.2945 1.0929 41.6682 1.36843 41.9437C1.64395 42.2192 2.01764 42.374 2.40728 42.374Z" fill="#5E6398"/>
<path d="M20.0374 5.64471H46.4825V8.58305H20.0374V5.64471Z" fill="#5E6398"/>
<path d="M52.3592 5.64471H89.0885V8.58305H52.3592V5.64471Z" fill="#5E6398"/>
<path d="M20.0374 20.3364H28.8524V23.2748H20.0374V20.3364Z" fill="#5E6398"/>
<path d="M34.7291 20.3364H61.1742V23.2748H34.7291V20.3364Z" fill="#5E6398"/>
<path d="M67.0509 20.3364H89.0885V23.2748H67.0509V20.3364Z" fill="#5E6398"/>
<path d="M20.0374 35.0282H42.0749V37.9665H20.0374V35.0282Z" fill="#5E6398"/>
<path d="M49.4208 35.0282H71.4584V37.9665H49.4208V35.0282Z" fill="#5E6398"/>
<path d="M5.77439 6.07504L11.6502 0.199219L13.7276 2.27663L7.8518 8.15245L5.77439 6.07504Z" fill="#5E6398"/>
<path d="M5.77255 20.7662L11.6484 14.8904L13.7258 16.9678L7.84996 22.8436L5.77255 20.7662Z" fill="#5E6398"/>
<path d="M5.77053 35.4568L11.6464 29.581L13.7238 31.6584L7.84794 37.5343L5.77053 35.4568Z" fill="#5E6398"/>
    </symbol>
</svg>
