<svg xmlns="http://www.w3.org/2000/svg">
    <symbol id="s-06" width="90" height="90" viewBox="0 0 90 90" fill="none">
<path d="M56.7657 68.437C56.3748 68.437 55.9998 68.5923 55.7234 68.8687C55.447 69.1452 55.2917 69.5201 55.2917 69.911V78.7552C55.2917 79.1461 55.447 79.5211 55.7234 79.7975C55.9998 80.0739 56.3748 80.2292 56.7657 80.2292H71.506C71.8969 80.2292 72.2719 80.0739 72.5483 79.7975C72.8247 79.5211 72.98 79.1461 72.98 78.7552V69.911C72.98 69.5201 72.8247 69.1452 72.5483 68.8687C72.2719 68.5923 71.8969 68.437 71.506 68.437H56.7657ZM70.032 77.2812H58.2397V71.385H70.032V77.2812Z" fill="#342B2B"/>
<path d="M88.5947 56.9321L75.9281 47.5988V37.4823C75.9281 37.0914 75.7728 36.7165 75.4964 36.44C75.2199 36.1636 74.845 36.0083 74.4541 36.0083H31.7078C31.4051 36.0081 31.1097 36.1011 30.8618 36.2748L1.38122 56.9112C1.2193 57.0245 1.08182 57.1693 0.97697 57.3368C0.872117 57.5043 0.802028 57.6912 0.770872 57.8864C0.739715 58.0816 0.748127 58.281 0.795608 58.4729C0.843089 58.6647 0.928668 58.845 1.04726 59.0031L5.46935 64.8993C5.69952 65.2061 6.04023 65.4111 6.41912 65.4709C6.79802 65.5306 7.18527 65.4403 7.49866 65.2191L14.0188 60.6167V87.5994C14.0188 87.9903 14.1741 88.3652 14.4505 88.6417C14.727 88.9181 15.1019 89.0734 15.4928 89.0734H77.4021C77.7931 89.0734 78.168 88.9181 78.4444 88.6417C78.7209 88.3652 78.8762 87.9903 78.8762 87.5994V65.4889H84.7723C85.046 65.4889 85.3144 65.4127 85.5472 65.2688C85.7801 65.1249 85.9683 64.9189 86.0907 64.6741L89.0387 58.778C89.1941 58.4673 89.2347 58.1117 89.1535 57.774C89.0722 57.4363 88.8743 57.1381 88.5947 56.9321ZM64.1359 38.9564H72.98V49.2746H64.1359V38.9564ZM55.2917 38.9564H61.1878V47.9944L55.2917 44.0637V38.9564ZM61.8442 51.975C62.0863 52.1365 62.3708 52.2226 62.6618 52.2226H74.4541C74.7648 52.2225 75.0676 52.1242 75.3192 51.9417C75.5707 51.7592 75.7581 51.5019 75.8547 51.2065L83.235 56.6447H61.6524L36.3833 38.9564H52.3436V44.8525C52.3436 45.0952 52.4035 45.3341 52.518 45.548C52.6325 45.762 52.7981 45.9443 53 46.0789L61.8442 51.975ZM6.96857 61.9848L4.31974 58.4529L31.7072 39.2816L59.0946 58.4529L56.4458 61.9848L32.5572 45.1223C32.3085 44.9467 32.0116 44.8525 31.7072 44.8525C31.4028 44.8525 31.1058 44.9467 30.8572 45.1223L6.96857 61.9848ZM28.7591 86.1254H22.863V71.385H28.7591V86.1254ZM49.3955 86.1254H31.7072V69.911C31.7072 69.5201 31.5519 69.1452 31.2754 68.8687C30.999 68.5923 30.6241 68.437 30.2331 68.437H21.389C20.998 68.437 20.6231 68.5923 20.3467 68.8687C20.0702 69.1452 19.9149 69.5201 19.9149 69.911V86.1254H16.9669V58.5357L31.7072 48.1308L49.3955 60.6167V86.1254ZM75.9281 86.1254H52.3436V62.6977L55.9157 65.2191C56.1639 65.3949 56.4605 65.4892 56.7646 65.489L56.7662 65.4889H75.9281V86.1254ZM83.8613 62.5409H59.7138L61.9249 59.5928H85.3354L83.8613 62.5409Z" fill="#342B2B"/>
<path d="M36.1293 80.2292H44.9735C45.3644 80.2292 45.7393 80.0739 46.0157 79.7975C46.2922 79.5211 46.4475 79.1461 46.4475 78.7552V69.911C46.4475 69.5201 46.2922 69.1452 46.0157 68.8687C45.7393 68.5923 45.3644 68.437 44.9735 68.437H36.1293C35.7383 68.437 35.3634 68.5923 35.087 68.8687C34.8105 69.1452 34.6552 69.5201 34.6552 69.911V78.7552C34.6552 79.1461 34.8105 79.5211 35.087 79.7975C35.3634 80.0739 35.7383 80.2292 36.1293 80.2292ZM37.6033 71.385H43.4994V77.2812H37.6033V71.385Z" fill="#342B2B"/>
<path d="M22.6691 16.4007H25.2534V19.2751H22.6691V16.4007Z" fill="#5E6398"/>
<path d="M2.22647 33.0348H7.51082L15.923 41.4713C16.129 41.6779 16.3916 41.8187 16.6776 41.8759C16.9637 41.9331 17.2603 41.9042 17.5299 41.7927C17.7994 41.6813 18.0299 41.4924 18.1921 41.2499C18.3542 41.0074 18.4408 40.7223 18.4408 40.4305V33.0348H55.2916C55.6825 33.0348 56.0575 32.8795 56.3339 32.6031C56.6103 32.3267 56.7656 31.9517 56.7656 31.5608V2.10574C56.7656 1.71481 56.6103 1.33989 56.3339 1.06345C56.0575 0.787018 55.6825 0.631718 55.2916 0.631714H2.22647C1.83554 0.631718 1.46061 0.787018 1.18418 1.06345C0.907746 1.33989 0.752445 1.71481 0.752441 2.10574V31.5608C0.752445 31.9517 0.907746 32.3267 1.18418 32.6031C1.46061 32.8795 1.83554 33.0348 2.22647 33.0348ZM3.7005 3.57978H53.8176V30.0868H16.9668C16.5758 30.0868 16.2009 30.2421 15.9245 30.5185C15.6481 30.795 15.4928 31.1699 15.4928 31.5608V36.8647L9.1664 30.5201C9.02947 30.3827 8.86679 30.2738 8.68767 30.1994C8.50856 30.1251 8.31653 30.0868 8.1226 30.0868H3.7005V3.57978Z" fill="#5E6398"/>
<path d="M16.9668 27.1643C17.0568 27.1639 17.1466 27.1554 17.235 27.1387H21.3889V24.1907H18.3306C18.1068 22.6806 17.5514 21.2389 16.7042 19.969C15.857 18.6991 14.7392 17.6326 13.4309 16.8461C14.7429 16.0572 15.8632 14.9869 16.7111 13.7123C17.559 12.4377 18.1133 10.9908 18.3338 9.4759H21.3889V6.52784H8.1226C7.73166 6.52784 7.35674 6.68314 7.0803 6.95958C6.80387 7.23601 6.64857 7.61093 6.64857 8.00187V25.6902C6.64857 26.0812 6.80387 26.4561 7.0803 26.7325C7.35674 27.009 7.73166 27.1643 8.1226 27.1643H16.9668ZM9.59663 24.1907V18.4682C11.007 18.7591 12.3018 19.4557 13.3218 20.4723C14.3418 21.4889 15.0427 22.7812 15.3385 24.1907H9.59663ZM9.59663 9.4759H15.3447C15.0529 10.8908 14.353 12.1892 13.3315 13.2108C12.31 14.2323 11.0115 14.9322 9.59663 15.2239V9.4759Z" fill="#5E6398"/>
<path d="M40.5513 27.1643H49.3955C49.7864 27.1643 50.1613 27.009 50.4378 26.7325C50.7142 26.4561 50.8695 26.0812 50.8695 25.6902V8.00187C50.8695 7.61093 50.7142 7.23601 50.4378 6.95958C50.1613 6.68314 49.7864 6.52784 49.3955 6.52784H36.1292V9.4759H39.1842C39.4048 10.9908 39.959 12.4377 40.8069 13.7123C41.6548 14.9869 42.7752 16.0572 44.0871 16.8461C42.7789 17.6326 41.661 18.6992 40.8139 19.969C39.9667 21.2389 39.4113 22.6806 39.1875 24.1907H36.1292V27.1387H40.283C40.3715 27.1554 40.4613 27.1639 40.5513 27.1643ZM47.9214 9.4759V15.2239C46.5065 14.9322 45.2081 14.2323 44.1866 13.2108C43.165 12.1892 42.4651 10.8908 42.1734 9.4759H47.9214ZM47.9214 18.4682V24.1907H42.1796C42.4753 22.7812 43.1762 21.4889 44.1963 20.4723C45.2163 19.4557 46.511 18.7591 47.9214 18.4682Z" fill="#5E6398"/>
<path d="M29.7497 6.6781C31.2653 6.6781 32.4466 7.27352 33.2936 8.46435C34.1554 9.63534 34.5864 11.1437 34.5864 12.9895C34.5864 14.8353 34.1554 16.3536 33.2936 17.5445C32.4318 18.7154 31.2505 19.3009 29.7497 19.3009H26.7407V27.3334H24.4227V6.6781H29.7497ZM29.4377 16.3834C30.2549 16.3834 30.9013 16.0956 31.3768 15.52C31.8523 14.9246 32.09 14.0811 32.09 12.9895C32.09 11.8979 31.8523 11.0643 31.3768 10.4888C30.9013 9.89335 30.2549 9.59564 29.4377 9.59564H26.7407V16.3834H29.4377Z" fill="#5E6398"/>
<path d="M22.6691 20.4215H31.0097V23.2959H22.6691V20.4215Z" fill="#5E6398"/>
    </symbol>
</svg>
