<svg xmlns="http://www.w3.org/2000/svg">
    <symbol id="s-09" width="90" height="91" viewBox="0 0 90 91" fill="none">
<path d="M87.7874 78.8172H84.8374V55.2178H87.7874C88.0983 55.2177 88.4012 55.1195 88.653 54.937C88.9047 54.7545 89.0923 54.4971 89.189 54.2017C89.2858 53.9062 89.2866 53.5877 89.1916 53.2917C89.0965 52.9956 88.9102 52.7373 88.6595 52.5534L68.6128 37.8525V33.0933C68.6128 32.7021 68.4574 32.3269 68.1808 32.0503C67.9042 31.7737 67.529 31.6183 67.1378 31.6183H49.4382C49.047 31.6183 48.6719 31.7737 48.3953 32.0503C48.1186 32.3269 47.9632 32.7021 47.9632 33.0933V36.0432H24.3638C24.0501 36.0432 23.7446 36.1432 23.4916 36.3287L1.36709 52.5534C1.11637 52.7373 0.930163 52.9956 0.835067 53.2917C0.73997 53.5877 0.740847 53.9062 0.837572 54.2017C0.934297 54.4971 1.12192 54.7545 1.37365 54.937C1.62538 55.1195 1.92834 55.2177 2.23925 55.2178H5.18918V78.8172H2.23925C1.84807 78.8172 1.4729 78.9726 1.19629 79.2493C0.919685 79.5259 0.764286 79.901 0.764282 80.2922V89.142C0.764286 89.5332 0.919685 89.9084 1.19629 90.185C1.4729 90.4616 1.84807 90.617 2.23925 90.617H87.7874C88.1786 90.617 88.5537 90.4616 88.8303 90.185C89.1069 89.9084 89.2623 89.5332 89.2623 89.142V80.2922C89.2623 79.901 89.1069 79.5259 88.8303 79.2493C88.5537 78.9726 88.1786 78.8172 87.7874 78.8172ZM81.8875 78.8172H43.5383V55.2178H81.8875V78.8172ZM59.763 34.5682H65.6628V46.368H59.763V34.5682ZM50.9132 34.5682H56.813V45.087L50.9132 41.1537V34.5682ZM48.6201 43.1703L57.4699 49.0701C57.7121 49.2317 57.9968 49.3179 58.288 49.3179H67.1378C67.529 49.3179 67.9042 49.1625 68.1808 48.8859C68.4574 48.6093 68.6128 48.2341 68.6128 47.8429V41.5104L83.2818 52.2678H46.971L28.8691 38.9931H47.9632V41.9431C47.9632 42.1859 48.0232 42.4249 48.1378 42.639C48.2524 42.8531 48.418 43.0356 48.6201 43.1703ZM24.3639 39.3472L41.9829 52.2678H6.74481L24.3639 39.3472ZM15.514 87.667H3.71422V81.7672H15.514V87.667ZM28.7887 87.667H18.4639V80.2922C18.4639 79.901 18.3085 79.5259 18.0319 79.2493C17.7553 78.9726 17.3801 78.8172 16.9889 78.8172V67.0175H28.7887V87.667ZM36.1635 80.2922V87.667H31.7386V65.5425C31.7386 65.1514 31.5832 64.7762 31.3066 64.4996C31.03 64.223 30.6548 64.0676 30.2636 64.0676H15.514C15.1228 64.0676 14.7476 64.223 14.471 64.4996C14.1944 64.7762 14.039 65.1514 14.039 65.5425V78.8172H8.13912V55.2178H40.5884V78.8172H37.6385C37.2473 78.8172 36.8721 78.9726 36.5955 79.2493C36.3189 79.5259 36.1635 79.901 36.1635 80.2922ZM86.3124 87.667H39.1134V81.7672H86.3124V87.667Z" fill="#342B2B"/>
<path d="M49.4382 75.8673H75.9876C76.3788 75.8673 76.754 75.7119 77.0306 75.4353C77.3072 75.1587 77.4626 74.7835 77.4626 74.3923V65.5425C77.4626 65.1514 77.3072 64.7762 77.0306 64.4996C76.754 64.223 76.3788 64.0676 75.9876 64.0676H49.4382C49.047 64.0676 48.6719 64.223 48.3953 64.4996C48.1186 64.7762 47.9632 65.1514 47.9632 65.5425V74.3923C47.9632 74.7835 48.1186 75.1587 48.3953 75.4353C48.6719 75.7119 49.047 75.8673 49.4382 75.8673ZM74.5127 72.9174H64.1879V67.0175H74.5127V72.9174ZM50.9132 67.0175H61.2379V72.9174H50.9132V67.0175Z" fill="#342B2B"/>
<path d="M25.8387 78.8172C26.6533 78.8172 27.3137 78.1569 27.3137 77.3423C27.3137 76.5277 26.6533 75.8673 25.8387 75.8673C25.0241 75.8673 24.3638 76.5277 24.3638 77.3423C24.3638 78.1569 25.0241 78.8172 25.8387 78.8172Z" fill="#342B2B"/>
<path d="M5.48916 45.6295C4.53491 43.9762 3.94923 42.1362 3.7722 40.2355C4.43794 40.4603 5.14764 40.5234 5.84258 40.4195C6.53753 40.3156 7.19775 40.0478 7.76863 39.6381C8.33951 39.2284 8.80465 38.6887 9.12556 38.0636C9.44647 37.4385 9.61393 36.7459 9.61409 36.0433C9.61409 35.6521 9.76949 35.2769 10.0461 35.0003C10.3227 34.7237 10.6979 34.5683 11.0891 34.5683C11.4802 34.5683 11.8554 34.7237 12.132 35.0003C12.4086 35.2769 12.564 35.6521 12.564 36.0433H15.514C15.5128 35.1286 15.2287 34.2366 14.7005 33.4898C14.1723 32.743 13.4261 32.178 12.564 31.8721V30.1434C12.5645 29.7523 12.72 29.3774 12.9965 29.1009C13.273 28.8244 13.6479 28.6689 14.039 28.6684C15.2125 28.6684 16.338 28.2022 17.1679 27.3724C17.9977 26.5426 18.4639 25.4171 18.4639 24.2435C18.4639 23.07 17.9977 21.9445 17.1679 21.1146C16.338 20.2848 15.2125 19.8186 14.039 19.8186H11.0891C9.9155 19.8186 8.79001 19.3524 7.96018 18.5226C7.13035 17.6928 6.66415 16.5673 6.66415 15.3937C6.66415 14.2202 7.13035 13.0947 7.96018 12.2648C8.79001 11.435 9.9155 10.9688 11.0891 10.9688C12.2622 10.9675 13.3869 10.5008 14.2165 9.67131C15.046 8.84177 15.5126 7.71706 15.514 6.54391V6.29112C15.9876 6.4589 16.4864 6.54439 16.9889 6.54391C17.38 6.54436 17.7549 6.6999 18.0314 6.97641C18.3079 7.25293 18.4634 7.62783 18.4639 8.01888V12.4438C18.4657 14.008 19.0878 15.5076 20.1939 16.6137C21.2999 17.7197 22.7996 18.3419 24.3638 18.3437C25.1459 18.3445 25.8957 18.6556 26.4487 19.2087C27.0017 19.7617 27.3128 20.5115 27.3137 21.2936V24.2435H30.2636V21.2936C30.263 20.2725 29.9975 19.2691 29.493 18.3814C28.9886 17.4937 28.2625 16.752 27.3856 16.2289C27.5318 15.5742 27.8964 14.9888 28.4194 14.569C28.9425 14.1491 29.5929 13.9198 30.2636 13.9187H33.2136C34.2493 13.9191 35.2669 13.6467 36.1639 13.1289C37.061 12.6111 37.8059 11.8662 38.3236 10.9692C38.8414 10.0721 39.1138 9.05454 39.1134 8.01878C39.1131 6.98303 38.84 5.96564 38.3216 5.06894H39.1134C39.8955 5.06984 40.6453 5.38092 41.1984 5.93395C41.7514 6.48698 42.0625 7.23678 42.0634 8.01888V18.3477C41.1476 19.0339 40.4042 19.9239 39.8922 20.9473C39.3802 21.9706 39.1135 23.0992 39.1134 24.2435C39.1121 25.4167 38.6455 26.5414 37.8159 27.3709C36.9864 28.2005 35.8617 28.6671 34.6885 28.6684V31.6184C36.6438 31.6161 38.5183 30.8384 39.9009 29.4559C41.2834 28.0733 42.0611 26.1988 42.0634 24.2435C42.0647 23.0704 42.5313 21.9457 43.3609 21.1161C44.1904 20.2866 45.3151 19.82 46.4883 19.8186H53.8631C55.0367 19.8186 56.1622 19.3524 56.992 18.5226C57.8218 17.6928 58.288 16.5673 58.288 15.3937C58.288 14.2202 57.8218 13.0947 56.992 12.2648C56.1622 11.435 55.0367 10.9688 53.8631 10.9688C53.0807 10.9688 52.3304 10.658 51.7772 10.1048C51.224 9.55158 50.9132 8.80125 50.9132 8.01888C50.9132 7.23651 51.224 6.48618 51.7772 5.93296C52.3304 5.37974 53.0807 5.06894 53.8631 5.06894H59.0768C58.5575 5.96417 58.2845 6.98096 58.2857 8.01591V8.14851C58.2855 8.90617 58.4345 9.65644 58.7244 10.3565C59.0142 11.0565 59.4391 11.6926 59.9748 12.2284C60.5104 12.7642 61.1464 13.1892 61.8464 13.4792C62.5464 13.7691 63.2966 13.9183 64.0543 13.9183H64.0583L64.3598 13.9181H64.3642C65.1159 13.9181 65.8604 14.0662 66.5549 14.3539C67.2494 14.6417 67.8805 15.0634 68.412 15.5951C68.9435 16.1267 69.3651 16.7579 69.6526 17.4526C69.9401 18.1472 70.088 18.8916 70.0877 19.6434L70.0876 20.0385C70.0872 21.547 69.4877 22.9935 68.4209 24.0601C67.3541 25.1267 65.9074 25.7259 64.3989 25.726H64.3893L64.1763 25.7256H64.167C62.7252 25.7247 61.3335 26.2543 60.257 27.2134L62.2189 29.4165C62.7552 28.9387 63.4485 28.675 64.1668 28.6755H64.1715L64.3845 28.6759H64.3989C66.6894 28.6759 68.8861 27.7662 70.506 26.1469C72.126 24.5276 73.0365 22.3313 73.0375 20.0408L73.0377 19.6438C73.038 18.5047 72.8139 17.3767 72.3782 16.3242C71.9425 15.2717 71.3037 14.3153 70.4984 13.5097C69.6931 12.7041 68.7369 12.065 67.6846 11.6289C66.6323 11.1928 65.5043 10.9683 64.3652 10.9682H64.3587L64.0559 10.9684H64.0539C63.6837 10.9684 63.3171 10.8954 62.9751 10.7537C62.633 10.612 62.3223 10.4043 62.0606 10.1425C61.7988 9.8806 61.5913 9.56975 61.4497 9.22765C61.3082 8.88555 61.2354 8.51892 61.2356 8.1487V8.01609C61.2369 7.23431 61.5482 6.48496 62.1013 5.93245C62.6544 5.37994 63.4041 5.06939 64.1859 5.06894C64.5771 5.06894 64.9522 4.91355 65.2289 4.63694C65.5055 4.36033 65.6609 3.98516 65.6609 3.59398C65.6609 3.20279 65.5055 2.82763 65.2289 2.55102C64.9522 2.27441 64.5771 2.11901 64.1859 2.11901H53.8631C52.2984 2.11901 50.7977 2.7406 49.6913 3.84704C48.5848 4.95348 47.9632 6.45414 47.9632 8.01888C47.9632 9.58362 48.5848 11.0843 49.6913 12.1907C50.7977 13.2972 52.2984 13.9187 53.8631 13.9187C54.2543 13.9187 54.6295 14.0741 54.9061 14.3508C55.1827 14.6274 55.3381 15.0025 55.3381 15.3937C55.3381 15.7849 55.1827 16.1601 54.9061 16.4367C54.6295 16.7133 54.2543 16.8687 53.8631 16.8687H46.4883C45.9929 16.8685 45.4987 16.9182 45.0133 17.0171V8.01888C45.0115 6.45468 44.3894 4.95506 43.2833 3.849C42.1773 2.74295 40.6776 2.12078 39.1134 2.11901H31.7386C31.3474 2.11901 30.9722 2.27441 30.6956 2.55102C30.419 2.82763 30.2636 3.20279 30.2636 3.59398C30.2636 3.98516 30.419 4.36033 30.6956 4.63694C30.9722 4.91355 31.3474 5.06894 31.7386 5.06894H33.2136C33.9959 5.06894 34.7463 5.37974 35.2995 5.93296C35.8527 6.48618 36.1635 7.23651 36.1635 8.01888C36.1635 8.80125 35.8527 9.55158 35.2995 10.1048C34.7463 10.658 33.9959 10.9688 33.2136 10.9688H30.2636C28.9552 10.9705 27.6843 11.4063 26.6501 12.2079C25.616 13.0096 24.8771 14.1317 24.5493 15.3984C24.4875 15.3965 24.426 15.3937 24.3638 15.3937C23.5817 15.3928 22.8319 15.0817 22.2788 14.5287C21.7258 13.9757 21.4147 13.2259 21.4138 12.4438V8.01888C21.4125 6.84573 20.9459 5.72102 20.1163 4.89148C19.2868 4.06194 18.1621 3.59532 16.9889 3.59398C16.5979 3.59353 16.223 3.43799 15.9465 3.16148C15.6699 2.88496 15.5144 2.51006 15.514 2.11901C15.514 1.72782 15.3586 1.35266 15.0819 1.07605C14.8053 0.799441 14.4302 0.644043 14.039 0.644043C13.6478 0.644043 13.2726 0.799441 12.996 1.07605C12.7194 1.35266 12.564 1.72782 12.564 2.11901V6.54391C12.5636 6.93496 12.408 7.30986 12.1315 7.58638C11.855 7.86289 11.4801 8.01843 11.0891 8.01888C9.13313 8.01888 7.25731 8.79587 5.87426 10.1789C4.49121 11.562 3.71422 13.4378 3.71422 15.3937C3.71422 17.3496 4.49121 19.2255 5.87426 20.6085C7.25731 21.9916 9.13313 22.7686 11.0891 22.7686H14.039C14.4302 22.7686 14.8053 22.924 15.0819 23.2006C15.3586 23.4772 15.514 23.8523 15.514 24.2435C15.514 24.6347 15.3586 25.0099 15.0819 25.2865C14.8053 25.5631 14.4302 25.7185 14.039 25.7185C12.8658 25.7198 11.7411 26.1865 10.9116 27.016C10.0821 27.8455 9.61543 28.9702 9.61409 30.1434V31.8721C8.75205 32.178 8.00577 32.743 7.47761 33.4898C6.94946 34.2366 6.66531 35.1286 6.66415 36.0433C6.66415 36.4344 6.50875 36.8096 6.23214 37.0862C5.95553 37.3628 5.58037 37.5182 5.18919 37.5182C4.798 37.5182 4.42284 37.3628 4.14623 37.0862C3.86962 36.8096 3.71422 36.4344 3.71422 36.0433C3.71422 35.6521 3.55882 35.2769 3.28221 35.0003C3.0056 34.7237 2.63044 34.5683 2.23925 34.5683C1.84807 34.5683 1.4729 34.7237 1.19629 35.0003C0.919681 35.2769 0.764283 35.6521 0.764283 36.0433V38.9932C0.763201 41.8414 1.51211 44.6397 2.93568 47.1066L5.48916 45.6295Z" fill="#5E6398"/>
</symbol>
</svg>
