<svg xmlns="http://www.w3.org/2000/svg">
    <symbol id="st-01" width="98" height="97" viewBox="0 0 98 97" fill="none">
<path d="M92.2247 37.6593H66.3194C65.688 37.6575 65.0626 37.781 64.4793 38.0227C63.896 38.2643 63.3664 38.6191 62.9212 39.0668L53.5847 48.4033C53.1371 48.8485 52.7822 49.3781 52.5406 49.9614C52.299 50.5447 52.1754 51.1701 52.1772 51.8015V53.7925L43.7286 48.6744C45.069 46.2893 45.7719 43.599 45.7696 40.8631V24.844C45.7657 21.4464 44.4143 18.189 42.0118 15.7865C39.6094 13.384 36.352 12.0326 32.9543 12.0288H28.1486C27.1537 12.0289 26.1724 12.2609 25.2828 12.7064C24.3931 13.1519 23.6195 13.7986 23.0234 14.5952C22.1926 13.9683 21.1799 13.6296 20.1391 13.6307C18.4403 13.6327 16.8116 14.3084 15.6104 15.5096C14.4091 16.7108 13.7334 18.3395 13.7315 20.0383V40.8631C13.7291 43.599 14.4321 46.2893 15.7725 48.6744L5.54755 54.8686C4.13748 55.7289 2.97142 56.9363 2.16065 58.3754C1.34988 59.8146 0.92146 61.4375 0.91627 63.0893V72.9011C0.912265 76.5244 2.03157 80.0599 4.12008 83.0207V95.3278C4.1201 95.7526 4.28888 96.1601 4.58929 96.4605C4.8897 96.7609 5.29713 96.9296 5.72198 96.9297H92.2247C93.4989 96.9282 94.7204 96.4214 95.6213 95.5205C96.5222 94.6196 97.029 93.3981 97.0305 92.124V42.465C97.029 41.1909 96.5222 39.9694 95.6213 39.0684C94.7204 38.1675 93.4989 37.6607 92.2247 37.6593ZM29.7505 56.8821C30.8266 56.8825 31.8999 56.7745 32.9543 56.5597V58.2241L31.7998 61.6878H27.7012L26.5467 58.2241V56.5597C27.6011 56.7745 28.6745 56.8825 29.7505 56.8821ZM27.9963 64.8916H31.3631L32.8423 78.3747L31.1277 79.232L26.6518 78.3369L27.9963 64.8916ZM32.9543 81.9007L40.841 77.9573C41.1707 77.793 41.5339 77.7073 41.9023 77.7068C42.0335 77.7068 42.1618 77.7457 42.2709 77.8186C42.38 77.8915 42.465 77.9952 42.5153 78.1164C42.5655 78.2376 42.5786 78.371 42.553 78.4997C42.5274 78.6284 42.4642 78.7467 42.3714 78.8394L39.8311 81.3798C39.6071 81.6038 39.4545 81.8893 39.3927 82.2C39.331 82.5107 39.3627 82.8328 39.4839 83.1255C39.6052 83.4182 39.8105 83.6684 40.0739 83.8444C40.3373 84.0204 40.647 84.1144 40.9638 84.1144H51.9173C51.979 84.1145 52.0387 84.1364 52.0857 84.1764C52.1327 84.2164 52.1639 84.2718 52.1738 84.3327C52.1837 84.3937 52.1716 84.4561 52.1396 84.5089C52.1077 84.5617 52.058 84.6014 51.9994 84.6209L45.5108 86.7838C44.4492 87.1381 43.3373 87.3186 42.2181 87.3183H32.9543V81.9007ZM52.1772 57.5384V80.9106H44.8186C45.3061 80.3509 45.6222 79.6627 45.7292 78.9283C45.8362 78.1938 45.7296 77.444 45.4221 76.7685C45.1146 76.0929 44.6193 75.5201 43.9952 75.1184C43.371 74.7167 42.6445 74.5031 41.9023 74.503C41.0366 74.5041 40.1829 74.7056 39.4081 75.0918L35.8977 76.847L34.4676 63.8117C34.4695 63.8063 34.4724 63.8017 34.4741 63.7964L36.076 58.9907C36.1304 58.8273 36.1581 58.6562 36.1581 58.484V55.5406C38.3595 54.5736 40.3163 53.1258 41.8847 51.3034L52.1772 57.5384ZM42.5658 40.8631C42.5658 44.2619 41.2156 47.5215 38.8123 49.9248C36.4089 52.3281 33.1493 53.6783 29.7505 53.6783C26.3517 53.6783 23.0921 52.3281 20.6888 49.9248C18.2855 47.5215 16.9353 44.2619 16.9353 40.8631V28.0478H17.2097C18.4725 28.0475 19.7161 27.7378 20.8316 27.1459C21.9472 26.554 22.9008 25.6979 23.6092 24.6524C24.4316 25.7095 25.4845 26.5648 26.6876 27.1532C27.8906 27.7417 29.2122 28.0476 30.5515 28.0478H42.5656L42.5658 40.8631ZM28.1486 15.2326H32.9543C35.5026 15.2355 37.9456 16.249 39.7475 18.0509C41.5494 19.8528 42.5629 22.2958 42.5658 24.844H30.5515C29.065 24.8424 27.6399 24.2511 26.5888 23.2C25.5377 22.1489 24.9465 20.7238 24.9448 19.2374V18.4364C24.9458 17.587 25.2836 16.7727 25.8843 16.1721C26.4849 15.5714 27.2992 15.2336 28.1486 15.2326ZM20.1391 16.8345C20.5638 16.835 20.971 17.0039 21.2713 17.3042C21.5716 17.6045 21.7405 18.0117 21.741 18.4364V20.3127C21.7397 21.5141 21.2618 22.6658 20.4123 23.5154C19.5628 24.3649 18.411 24.8427 17.2097 24.844H16.9353V20.0383C16.9363 19.1889 17.2741 18.3746 17.8747 17.774C18.4754 17.1733 19.2897 16.8355 20.1391 16.8345ZM4.12008 63.0893C4.12353 61.9881 4.40915 60.9061 4.94969 59.9467C5.49023 58.9873 6.26765 58.1824 7.20773 57.6089L17.6164 51.3034C19.1848 53.1258 21.1416 54.5736 23.3429 55.5406V58.484C23.3429 58.6562 23.3707 58.8273 23.425 58.9907L24.9187 63.4717L23.4953 77.7054C21.647 77.33 19.9849 76.3282 18.7897 74.8692C17.5945 73.4102 16.9395 71.5834 16.9353 69.6973H13.7315C13.7373 72.3247 14.6502 74.8695 16.316 76.9013C17.9817 78.9332 20.298 80.3275 22.8732 80.8485L29.7505 82.2239V87.3183H18.5372C14.7149 87.3139 11.0503 85.7936 8.34751 83.0908C5.64471 80.388 4.12438 76.7235 4.12008 72.9011V63.0893ZM7.32388 86.4838C10.4757 89.0974 14.4427 90.526 18.5372 90.5221H42.2181C43.6816 90.5225 45.1356 90.2865 46.524 89.8234L52.1772 87.939V92.124C52.1769 92.6697 52.2701 93.2115 52.4527 93.7259H7.32388V86.4838ZM93.8267 92.124C93.8262 92.5487 93.6572 92.9558 93.3569 93.2561C93.0566 93.5565 92.6495 93.7254 92.2247 93.7259H56.9829C56.5582 93.7254 56.151 93.5565 55.8507 93.2561C55.5504 92.9558 55.3815 92.5487 55.381 92.124V51.8015C55.3804 51.591 55.4216 51.3825 55.5021 51.1881C55.5827 50.9937 55.701 50.8172 55.8503 50.6689L65.1868 41.3324C65.3351 41.1831 65.5116 41.0648 65.706 40.9842C65.9005 40.9037 66.1089 40.8625 66.3194 40.8631H92.2247C92.6495 40.8636 93.0566 41.0325 93.3569 41.3328C93.6572 41.6331 93.8262 42.0403 93.8267 42.465V92.124Z" fill="#342B2B"/>
<path d="M71.4 79.3087H85.8171V82.5125H71.4V79.3087Z" fill="#342B2B"/>
<path d="M74.6038 85.7164H79.4095V88.9202H74.6038V85.7164Z" fill="#342B2B"/>
<path d="M82.6133 85.7164H85.8171V88.9202H82.6133V85.7164Z" fill="#342B2B"/>
<path d="M63.3905 85.7164H71.4V88.9202H63.3905V85.7164Z" fill="#342B2B"/>
<path d="M20.1391 31.2516H26.5467V34.4555H20.1391V31.2516Z" fill="#342B2B"/>
<path d="M29.7505 44.0669C29.75 44.4916 29.5811 44.8987 29.2808 45.1991C28.9805 45.4994 28.5733 45.6683 28.1486 45.6688H26.5467V48.8726H28.1486C29.4227 48.8711 30.6442 48.3643 31.5452 47.4634C32.4461 46.5625 32.9529 45.341 32.9543 44.0669V40.8631H29.7505V44.0669Z" fill="#342B2B"/>
<path d="M23.3429 39.2612C24.2276 39.2612 24.9448 38.544 24.9448 37.6593C24.9448 36.7746 24.2276 36.0574 23.3429 36.0574C22.4582 36.0574 21.741 36.7746 21.741 37.6593C21.741 38.544 22.4582 39.2612 23.3429 39.2612Z" fill="#342B2B"/>
<path d="M32.9543 31.2516H39.3619V34.4555H32.9543V31.2516Z" fill="#342B2B"/>
<path d="M36.1581 39.2612C37.0428 39.2612 37.76 38.544 37.76 37.6593C37.76 36.7746 37.0428 36.0574 36.1581 36.0574C35.2734 36.0574 34.5562 36.7746 34.5562 37.6593C34.5562 38.544 35.2734 39.2612 36.1581 39.2612Z" fill="#342B2B"/>
<path d="M68.1962 8.82495H71.4V12.0288H68.1962V8.82495Z" fill="#5E6398"/>
<path d="M74.6038 8.82495H84.2152V12.0288H74.6038V8.82495Z" fill="#5E6398"/>
<path d="M58.5848 15.2326H63.3905V18.4364H58.5848V15.2326Z" fill="#5E6398"/>
<path d="M79.4095 15.2326H84.2152V18.4364H79.4095V15.2326Z" fill="#5E6398"/>
<path d="M66.5943 15.2326H76.2057V18.4364H66.5943V15.2326Z" fill="#5E6398"/>
<path d="M58.5848 21.6402H73.0019V24.844H58.5848V21.6402Z" fill="#5E6398"/>
<path d="M76.2057 21.6402H84.2152V24.844H76.2057V21.6402Z" fill="#5E6398"/>
<path fill-rule="evenodd" clip-rule="evenodd" d="M52.1768 40.863C52.3872 40.8631 52.5956 40.8217 52.79 40.7412C52.9845 40.6607 53.1611 40.5427 53.31 40.3939L60.381 33.3228C60.5294 33.1735 60.7059 33.0552 60.9003 32.9746C61.0947 32.8941 61.3032 32.8529 61.5137 32.8535H87.419C88.6931 32.852 89.9146 32.3453 90.8156 31.4443C91.7165 30.5434 92.2233 29.3219 92.2247 28.0478V5.62114C92.2233 4.34703 91.7165 3.12553 90.8156 2.2246C89.9146 1.32367 88.6931 0.816887 87.419 0.81543H55.381C54.1069 0.816887 52.8854 1.32367 51.9844 2.2246C51.0835 3.12553 50.5767 4.34703 50.5753 5.62114V39.2611C50.5753 39.6859 50.7441 40.0932 51.0444 40.3936C51.3447 40.694 51.752 40.8628 52.1768 40.863ZM54.2488 4.48896C53.9485 4.78927 53.7795 5.19644 53.7791 5.62114V35.3938L58.1155 31.0572C58.5607 30.6096 59.0903 30.2547 59.6736 30.0131C60.2569 29.7715 60.8823 29.648 61.5137 29.6497H87.419C87.8437 29.6492 88.2509 29.4803 88.5512 29.18C88.8515 28.8797 89.0204 28.4725 89.0209 28.0478V5.62114C89.0204 5.19644 88.8515 4.78927 88.5512 4.48896C88.2509 4.18865 87.8437 4.01972 87.419 4.01924H55.381C54.9563 4.01972 54.5491 4.18865 54.2488 4.48896Z" fill="#5E6398"/>
<path fill-rule="evenodd" clip-rule="evenodd" d="M80.2474 59.9134L81.9725 61.2072C83.1636 62.1049 84.1306 63.2663 84.7976 64.6004C85.4646 65.9345 85.8136 67.4049 85.8172 68.8964V72.9012C85.8171 73.326 85.6483 73.7334 85.3479 74.0338C85.0475 74.3343 84.6401 74.503 84.2152 74.5031H64.9924C64.5676 74.503 64.1601 74.3343 63.8597 74.0338C63.5593 73.7334 63.3905 73.326 63.3905 72.9012V68.8964C63.3905 67.1334 64.0702 65.2978 64.41 64.6004C65.0771 63.2663 66.044 62.1049 67.2351 61.2072L68.9602 59.9134C68.4576 58.9821 68.195 57.9403 68.1962 56.8821V49.3576C68.1962 48.3999 68.4561 47.4603 68.9482 46.6387C69.4403 45.8172 70.1462 45.1447 70.9905 44.6928C71.8349 44.241 72.786 44.0268 73.7425 44.0731C74.699 44.1194 75.625 44.4244 76.4218 44.9556L80.2981 47.5398C80.5175 47.686 80.6974 47.8842 80.8219 48.1167C80.9463 48.3493 81.0114 48.6089 81.0114 48.8726V56.8821C81.0126 57.9403 80.75 58.9821 80.2474 59.9134ZM66.5943 68.8964C66.5967 67.9021 66.8293 66.9218 67.274 66.0325C67.7186 65.1431 68.3633 64.3688 69.1573 63.7704L71.1507 62.2753C71.7207 62.6426 72.3456 62.9166 73.0019 63.087V71.2993H66.5943V68.8964ZM76.2057 71.2993H82.6133V68.8964C82.611 67.9021 82.3784 66.9218 81.9337 66.0325C81.489 65.1431 80.8444 64.3688 80.0503 63.7704L78.0569 62.2753C77.487 62.6426 76.862 62.9166 76.2057 63.087V71.2993ZM74.6038 60.0859C73.7544 60.085 72.9401 59.7471 72.3395 59.1465C71.7388 58.5459 71.401 57.7315 71.4 56.8821V53.6783H77.8076V56.8821C77.8067 57.7315 77.4688 58.5459 76.8682 59.1465C76.2676 59.7471 75.4532 60.085 74.6038 60.0859ZM71.6967 48.2852C71.5026 48.6092 71.4 48.9798 71.4 49.3576V50.4745H77.8076V49.7299L74.6445 47.6211C74.3302 47.4116 73.9649 47.2914 73.5877 47.2731C73.2104 47.2549 72.8352 47.3394 72.5022 47.5177C72.1692 47.6959 71.8908 47.9612 71.6967 48.2852Z" fill="#5E6398"/>
    </symbol>
</svg>
