<svg width="10" height="10" viewBox="0 0 10 10" fill="none" xmlns="http://www.w3.org/2000/svg">
<path fill-rule="evenodd" clip-rule="evenodd" d="M5.06305 1.09151C3.04472 1.09151 1.40855 2.72769 1.40855 4.74602C1.40855 6.76434 3.04472 8.40052 5.06305 8.40052C7.08137 8.40052 8.71755 6.76434 8.71755 4.74602C8.71755 2.72769 7.08137 1.09151 5.06305 1.09151ZM0.596436 4.74602C0.596436 2.27917 2.59621 0.279404 5.06305 0.279404C7.52989 0.279404 9.52966 2.27917 9.52966 4.74602C9.52966 7.21286 7.52989 9.21263 5.06305 9.21263C2.59621 9.21263 0.596436 7.21286 0.596436 4.74602Z" fill="#342B2B"/>
<path fill-rule="evenodd" clip-rule="evenodd" d="M5.06305 1.90363C5.28731 1.90363 5.4691 2.08542 5.4691 2.30968V4.49506L6.86887 5.19494C7.06945 5.29523 7.15075 5.53914 7.05046 5.73972C6.95017 5.94031 6.70626 6.0216 6.50568 5.92131L4.88145 5.1092C4.74389 5.04042 4.65699 4.89982 4.65699 4.74602V2.30968C4.65699 2.08542 4.83879 1.90363 5.06305 1.90363Z" fill="#342B2B"/>
</svg>
