<svg width="15" height="16" viewBox="0 0 15 16" fill="none" xmlns="http://www.w3.org/2000/svg">
<path fill-rule="evenodd" clip-rule="evenodd" d="M2.10406 10.7032C2.82965 9.97759 3.81375 9.56995 4.8399 9.56995H11.0304C12.0565 9.56995 13.0407 9.97759 13.7662 10.7032C14.4918 11.4288 14.8995 12.4129 14.8995 13.439V14.9866C14.8995 15.414 14.553 15.7605 14.1257 15.7605C13.6983 15.7605 13.3518 15.414 13.3518 14.9866V13.439C13.3518 12.8233 13.1073 12.2329 12.6719 11.7975C12.2366 11.3621 11.6461 11.1176 11.0304 11.1176H4.8399C4.22421 11.1176 3.63375 11.3621 3.1984 11.7975C2.76304 12.2329 2.51845 12.8233 2.51845 13.439V14.9866C2.51845 15.414 2.172 15.7605 1.74464 15.7605C1.31727 15.7605 0.970825 15.414 0.970825 14.9866V13.439C0.970825 12.4129 1.37847 11.4288 2.10406 10.7032Z" fill="#342B2B"/>
<path fill-rule="evenodd" clip-rule="evenodd" d="M7.93515 1.83181C6.65305 1.83181 5.61371 2.87115 5.61371 4.15325C5.61371 5.43535 6.65305 6.47469 7.93515 6.47469C9.21725 6.47469 10.2566 5.43535 10.2566 4.15325C10.2566 2.87115 9.21725 1.83181 7.93515 1.83181ZM4.06608 4.15325C4.06608 2.01642 5.79832 0.28418 7.93515 0.28418C10.072 0.28418 11.8042 2.01642 11.8042 4.15325C11.8042 6.29008 10.072 8.02232 7.93515 8.02232C5.79832 8.02232 4.06608 6.29008 4.06608 4.15325Z" fill="#342B2B"/>
</svg>
