<?xml version="1.0" standalone="no"?>
<!DOCTYPE svg PUBLIC "-//W3C//DTD SVG 1.1//EN" "http://www.w3.org/Graphics/SVG/1.1/DTD/svg11.dtd" >
<svg xmlns="http://www.w3.org/2000/svg" xmlns:xlink="http://www.w3.org/1999/xlink" version="1.1">
<metadata></metadata>
<defs>
<font id="gt_eesti_pro_displaybold" horiz-adv-x="1148" >
<font-face units-per-em="2048" ascent="1536" descent="-512" />
<missing-glyph horiz-adv-x="538" />
<glyph horiz-adv-x="0" />
<glyph horiz-adv-x="682" />
<glyph unicode=" "  horiz-adv-x="538" />
<glyph unicode="&#x09;" horiz-adv-x="538" />
<glyph unicode="&#xa0;" horiz-adv-x="538" />
<glyph unicode="!" horiz-adv-x="669" d="M158 1434h354l-66 -965h-221zM172 0v330h328v-330h-328z" />
<glyph unicode="&#x22;" horiz-adv-x="724" d="M102 1464h228l-47 -518h-133zM395 1464h228l-48 -518h-133z" />
<glyph unicode="#" horiz-adv-x="1318" d="M102 428v139h244l62 336h-222v139h246l72 392h149l-71 -392h268l72 392h149l-72 -392h218v-139h-242l-62 -336h220v-139h-244l-78 -428h-149l77 428h-268l-78 -428h-149l78 428h-220zM496 567h268l61 336h-268z" />
<glyph unicode="$" d="M61 438h318q12 -176 182 -192v325l-74 29l-73 33q-92 43 -142 84q-145 117 -145 315q0 178 123 279q115 96 311 102v148h57v-148q201 -8 324 -119q125 -117 125 -329h-315q-4 152 -134 165v-260l37 -14l39 -14q61 -25 78 -33q100 -43 154 -84q162 -119 161 -326 q0 -193 -126 -307q-126 -113 -343 -123v-127h-57v127q-236 6 -368 137q-131 125 -132 332zM432 1026q0 -78 129 -133v240q-129 -6 -129 -107zM618 246q162 12 162 131q0 100 -162 170v-301z" />
<glyph unicode="%" horiz-adv-x="1624" d="M102 1075q0 154 97 246q96 92 241 92q147 0 240 -92q96 -92 96 -246q0 -152 -96 -244q-92 -92 -240 -92q-145 0 -241 92t-97 244zM256 1075q0 -86 53 -139t131 -53t131 53q51 51 52 139q0 90 -52 142q-51 51 -131 51q-82 0 -131 -51q-53 -54 -53 -142zM322 0l811 1382 h159l-811 -1382h-159zM848 328q0 150 96 245q96 90 242 91q145 0 239 -91q97 -95 97 -245q0 -154 -97 -246q-92 -92 -239 -92q-145 0 -242 92q-96 92 -96 246zM1004 328q0 -90 51 -142q51 -51 131 -51t131 51t51 142q0 88 -51 139q-53 53 -131 53t-131 -53q-51 -51 -51 -139 z" />
<glyph unicode="&#x26;" horiz-adv-x="1492" d="M74 467q0 160 82 274q84 121 233 166q-55 102 -55 205q0 143 92 219q96 82 283 82q152 0 342 -59l-80 -269q-154 47 -219 48q-88 0 -88 -70q0 -39 43 -98l317 -426q82 111 156 247l260 -153q-129 -221 -230 -346l213 -287h-364l-62 84q-170 -115 -381 -115 q-242 0 -387 123q-156 131 -155 375zM389 477q0 -94 62 -149q59 -53 159 -54q106 0 201 58l-256 342q-166 -39 -166 -197z" />
<glyph unicode="'" horiz-adv-x="452" d="M102 1464h248l-47 -518h-153z" />
<glyph unicode="(" horiz-adv-x="684" d="M100 625q0 309 97 569q63 174 219 418l217 -131q-123 -190 -187 -357q-86 -236 -86 -499q0 -283 89 -541q66 -193 184 -393l-219 -131q-145 248 -217 454q-96 289 -97 611z" />
<glyph unicode=")" horiz-adv-x="684" d="M49 -309q117 193 187 393q86 262 86 541q0 266 -86 499q-63 170 -187 357l219 131q156 -244 219 -418q94 -258 95 -569q0 -530 -314 -1065z" />
<glyph unicode="*" horiz-adv-x="890" d="M61 1110l66 199l238 -103l-25 258h211l-25 -258l238 103l65 -199l-251 -57l170 -193l-170 -125l-132 223l-133 -225l-170 127l172 193z" />
<glyph unicode="+" horiz-adv-x="1228" d="M113 545v129h432v434h139v-434h432v-129h-432v-434h-139v434h-432z" />
<glyph unicode="," horiz-adv-x="497" d="M84 0v330h328v-330l-187 -336h-131l117 336h-127z" />
<glyph unicode="-" horiz-adv-x="862" d="M102 406v276h660v-276h-660z" />
<glyph unicode="." horiz-adv-x="497" d="M84 0v330h328v-330h-328z" />
<glyph unicode="/" horiz-adv-x="1306" d="M61 -137l967 1757l217 -117l-966 -1759z" />
<glyph unicode="0" horiz-adv-x="1271" d="M63 692q0 346 150 533q147 188 422 188q272 0 424 -188q147 -187 147 -533q0 -348 -149 -534q-152 -188 -422 -189q-270 0 -422 189q-150 186 -150 534zM385 692q0 -203 66 -317q63 -113 184 -113q119 0 186 113q66 115 66 317q0 203 -66 316q-63 113 -186 112 q-121 0 -184 -112q-66 -113 -66 -316z" />
<glyph unicode="1" horiz-adv-x="694" d="M98 1085v297h391v-1382h-313v1085h-78z" />
<glyph unicode="2" horiz-adv-x="1093" d="M61 946q0 221 134 344q133 123 368 123q219 0 346 -108q125 -106 125 -299q0 -119 -55 -222q-61 -109 -193 -229l-299 -285l551 4v-274h-962v244l465 461q172 170 172 278q0 145 -158 145q-180 0 -180 -182h-314z" />
<glyph unicode="3" horiz-adv-x="1114" d="M25 422h323q12 -168 203 -168q188 0 188 174q0 92 -61 129q-63 37 -215 37h-47v233h47q219 0 219 162q0 139 -154 139q-162 0 -163 -137h-318q4 201 131 312t363 110q229 0 354 -94q123 -94 123 -270q0 -123 -64 -201q-61 -80 -182 -109v-4q289 -45 289 -340 q0 -199 -135 -313q-133 -113 -377 -113q-254 0 -389 117t-135 336z" />
<glyph unicode="4" horiz-adv-x="1189" d="M31 231v236l651 915h322v-882h124v-269h-124v-231h-291v231h-682zM346 500h367v506h-8z" />
<glyph unicode="5" horiz-adv-x="1120" d="M33 143l182 248q137 -137 303 -137q106 0 166 59q61 59 61 160q0 94 -53 148q-51 55 -145 55q-119 0 -185 -103h-243l71 809h742v-274h-522l-27 -260h6q86 68 229 67q205 0 328 -122q123 -125 123 -330q0 -229 -147 -363q-143 -131 -402 -131q-287 0 -487 174z" />
<glyph unicode="6" horiz-adv-x="1171" d="M43 502q0 279 242 563l270 326h373l-484 -549l7 -4q109 96 235 96q199 0 322 -127q123 -129 122 -336q0 -223 -149 -360q-147 -141 -383 -142q-256 0 -405 144q-150 143 -150 389zM365 467q0 -96 63 -154q63 -59 160 -59q96 0 162 59q61 60 61 154q0 96 -61 154 q-63 59 -162 59q-98 0 -162 -59q-61 -57 -61 -154z" />
<glyph unicode="7" horiz-adv-x="1001" d="M49 1094v288h920v-276l-539 -1106h-328l543 1094h-596z" />
<glyph unicode="8" horiz-adv-x="1200" d="M72 377q0 133 71 229q70 94 193 123v6q-106 29 -164 111q-59 84 -59 194q0 174 131 273q131 100 356 100q227 0 358 -100q131 -98 132 -273q0 -111 -60 -194q-61 -82 -166 -111v-6q125 -29 195 -123t69 -229q0 -190 -139 -299t-389 -109t-389 109t-139 299zM403 434 q0 -82 56 -135q53 -53 141 -53q86 0 143 53q54 53 54 135q0 86 -56 137q-57 53 -141 54q-84 0 -141 -54q-55 -51 -56 -137zM440 1001q0 -66 45 -104q45 -41 115 -41t115 41q45 38 45 104q0 68 -43 107q-47 41 -117 41t-117 -41q-43 -39 -43 -107z" />
<glyph unicode="9" horiz-adv-x="1138" d="M23 920q0 217 151 356q150 137 389 137q252 0 398 -143q145 -141 145 -383q0 -305 -293 -629l-233 -258h-375l481 514l-4 4q-115 -72 -223 -72q-182 0 -309 140q-127 139 -127 334zM344 911q0 -94 62 -153q66 -59 159 -60q96 0 162 60q61 59 61 153q0 96 -63 154 q-63 61 -160 61q-96 0 -157 -61q-63 -57 -64 -154z" />
<glyph unicode=":" horiz-adv-x="497" d="M84 0v330h328v-330h-328zM84 616v330h328v-330h-328z" />
<glyph unicode=";" horiz-adv-x="497" d="M84 0v330h328v-330l-187 -336h-131l117 336h-127zM86 616v330h328v-330h-328z" />
<glyph unicode="&#x3c;" horiz-adv-x="1228" d="M135 541v145l959 426v-156l-801 -344l801 -342v-155z" />
<glyph unicode="=" horiz-adv-x="1228" d="M96 330v135h1037v-135h-1037zM96 766v135h1037v-135h-1037z" />
<glyph unicode="&#x3e;" horiz-adv-x="1228" d="M135 115v155l801 342l-801 344v156l959 -426v-145z" />
<glyph unicode="?" horiz-adv-x="1005" d="M51 1024q0 205 115 319q121 121 344 121q205 0 319 -114q103 -107 103 -273q0 -154 -139 -305l-31 -29l-27 -30q-31 -31 -51 -62q-49 -70 -49 -153v-29h-305v59q0 119 57 213q14 29 57 78q12 14 27 29q16 18 35 37q117 115 117 172q0 115 -123 114q-70 0 -111 -43 q-39 -39 -39 -104h-299zM317 0v330h328v-330h-328z" />
<glyph unicode="@" horiz-adv-x="1912" d="M84 537q0 412 248 647q242 229 647 229q385 0 616 -211q234 -211 234 -567q0 -225 -92 -371q-109 -170 -301 -170q-190 0 -258 168h-4q-96 -158 -283 -158q-170 0 -277 113q-117 123 -116 332q0 211 118 336q106 113 277 112q172 0 260 -143h4v113h236v-570q0 -51 24 -80 q18 -23 51 -22q61 0 101 70q51 82 51 235q0 309 -188 473q-170 145 -447 146q-305 0 -493 -170q-201 -182 -201 -510q0 -317 213 -494q193 -158 481 -158q168 0 348 66l68 -184q-209 -76 -420 -76q-360 0 -610 203q-287 231 -287 641zM770 551q0 -88 55 -143q53 -53 136 -54 q82 0 135 54q55 55 55 143t-55 143q-53 53 -135 54q-82 0 -136 -54q-55 -55 -55 -143z" />
<glyph unicode="A" horiz-adv-x="1466" d="M0 0l565 1434h336l565 -1434h-354l-102 291h-553l-101 -291h-356zM557 573h354l-178 506z" />
<glyph unicode="B" horiz-adv-x="1280" d="M125 0v1434h594q201 0 315 -84q127 -96 127 -273q0 -244 -227 -317v-4q293 -49 293 -353q0 -207 -148 -311q-125 -92 -340 -92h-614zM442 289h250q205 0 205 155q0 156 -207 156h-248v-311zM442 864h238q76 0 117 39q45 37 45 105q0 63 -45 102q-45 35 -115 35h-240v-281 z" />
<glyph unicode="C" horiz-adv-x="1366" d="M43 717q0 340 223 545q218 202 560 202h3q287 0 514 -159l-172 -279q-166 111 -342 111q-193 0 -311 -113q-125 -113 -125 -307q0 -195 125 -307q119 -113 311 -113q176 0 342 111l172 -279q-227 -160 -514 -160q-344 0 -563 203q-223 205 -223 545z" />
<glyph unicode="D" horiz-adv-x="1398" d="M125 0v1434h457q346 0 557 -191q217 -197 217 -526q0 -330 -217 -527q-211 -190 -557 -190h-457zM442 289h166q182 0 289 110q117 117 117 318q0 205 -117 317q-106 111 -289 111h-166v-856z" />
<glyph unicode="E" horiz-adv-x="1085" d="M125 0v1434h887v-289h-570v-234h512v-288h-512v-334h580v-289h-897z" />
<glyph unicode="F" horiz-adv-x="1054" d="M125 0v1434h915v-289h-598v-301h519v-289h-519v-555h-317z" />
<glyph unicode="G" horiz-adv-x="1538" d="M43 721q0 336 209 539q210 204 569 204h4q322 0 566 -188l-207 -272q-176 133 -367 133q-201 0 -313 -119q-111 -113 -111 -299q0 -190 113 -303q117 -119 319 -119q160 0 252 80q78 68 92 168h-368v284h702q2 -16 2 -73q0 -354 -170 -561q-184 -225 -532 -226 q-338 0 -545 201q-215 207 -215 551z" />
<glyph unicode="H" horiz-adv-x="1480" d="M125 0v1434h317v-533h596v533h318v-1434h-318v602h-596v-602h-317z" />
<glyph unicode="I" horiz-adv-x="567" d="M125 0v1434h317v-1434h-317z" />
<glyph unicode="J" horiz-adv-x="616" d="M20 -6v297h70q84 0 84 100v1043h318v-1072q0 -368 -367 -368h-2h-103z" />
<glyph unicode="K" horiz-adv-x="1486" d="M125 0v1434h317v-635l510 635h432l-591 -672l694 -762h-453l-592 688v-688h-317z" />
<glyph unicode="L" horiz-adv-x="1015" d="M125 0v1434h317v-1135h572v-299h-889z" />
<glyph unicode="M" horiz-adv-x="1816" d="M0 0l367 1434h239l301 -732h4l301 732h240l365 -1434h-330l-195 817h-4l-266 -612h-227l-265 612h-4l-194 -817h-332z" />
<glyph unicode="N" horiz-adv-x="1523" d="M125 0v1434h268l686 -887h2v887h318v-1434h-271l-684 883h-2v-883h-317z" />
<glyph unicode="O" horiz-adv-x="1597" d="M43 717q0 330 219 543q210 204 534 204h3q326 0 538 -204q217 -211 217 -543t-217 -543q-213 -205 -538 -205q-326 0 -537 205q-219 213 -219 543zM393 717q0 -190 117 -307q113 -113 289 -113t288 113q117 117 117 307t-117 307q-113 113 -288 113q-176 0 -289 -113 q-117 -117 -117 -307z" />
<glyph unicode="P" horiz-adv-x="1177" d="M125 0v1434h512q260 0 399 -134q129 -119 129 -325q0 -219 -129 -346q-137 -137 -399 -137h-195v-492h-317zM442 778h168q217 0 217 191q0 176 -217 176h-168v-367z" />
<glyph unicode="Q" horiz-adv-x="1626" d="M43 717q0 330 219 543q210 204 534 204h3q326 0 538 -204q217 -211 217 -543q0 -274 -157 -475l243 -242h-364l-74 74q-180 -104 -403 -105q-326 0 -537 205q-219 213 -219 543zM393 717q0 -190 117 -307q113 -113 289 -113q84 0 151 25l-315 315h362l150 -150 q57 96 57 230q0 190 -117 307q-113 113 -288 113q-176 0 -289 -113q-117 -117 -117 -307z" />
<glyph unicode="R" horiz-adv-x="1263" d="M125 0v1434h573q233 0 365 -131q123 -119 123 -318q0 -160 -84 -272q-90 -117 -250 -154l410 -559h-398l-358 543h-64v-543h-317zM442 809h209q199 0 199 168t-199 168h-209v-336z" />
<glyph unicode="S" horiz-adv-x="1114" d="M12 113l144 284q213 -131 403 -131q176 0 176 115q0 72 -135 154l-219 137q-264 158 -264 409q0 176 114 279q121 104 342 104q223 0 465 -104l-133 -281q-197 90 -323 90q-131 0 -131 -84q0 -55 108 -120l238 -150q131 -80 200 -174q72 -102 72 -246q0 -207 -135 -317 q-137 -109 -387 -109q-291 0 -535 144z" />
<glyph unicode="T" horiz-adv-x="1093" d="M10 1145v289h1073v-289h-376v-1145h-318v1145h-379z" />
<glyph unicode="U" horiz-adv-x="1445" d="M113 580v854h338v-826q0 -139 69 -221q72 -86 203 -86t205 86q68 84 67 221v826h336v-854q0 -285 -153 -443q-158 -164 -455 -164q-299 0 -457 164q-154 158 -153 443z" />
<glyph unicode="V" horiz-adv-x="1425" d="M0 1434h379l332 -1024h4l332 1024h378l-542 -1434h-340z" />
<glyph unicode="W" horiz-adv-x="2183" d="M12 1434h371l256 -922h4l309 922h279l309 -922h4l256 922h371l-481 -1434h-281l-315 930h-4l-316 -930h-280z" />
<glyph unicode="X" horiz-adv-x="1478" d="M2 0l533 756l-484 678h404l284 -424l285 424h403l-483 -678l533 -756h-406l-332 500l-331 -500h-406z" />
<glyph unicode="Y" horiz-adv-x="1349" d="M0 1434h381l291 -600h4l293 600h381l-516 -918v-516h-318v516z" />
<glyph unicode="Z" horiz-adv-x="1163" d="M41 0v297l674 840h-621v297h1008v-297l-668 -840h688v-297h-1081z" />
<glyph unicode="[" horiz-adv-x="698" d="M152 -440v2005h526v-222h-266v-1562h266v-221h-526z" />
<glyph unicode="\" horiz-adv-x="1306" d="M61 1503l218 117l966 -1757l-217 -119z" />
<glyph unicode="]" horiz-adv-x="698" d="M20 -219h267v1562h-267v222h527v-2005h-527v221z" />
<glyph unicode="^" horiz-adv-x="1228" d="M172 805l295 659h295l295 -659h-215l-228 520l-227 -520h-215z" />
<glyph unicode="_" horiz-adv-x="1091" d="M20 -31h1051v-229h-1051v229z" />
<glyph unicode="`" horiz-adv-x="778" d="M102 1448h338l236 -315h-242z" />
<glyph unicode="a" horiz-adv-x="1200" d="M43 473q0 238 133 377q121 127 316 127q211 0 309 -160h4v129h309v-946h-309v129h-4q-98 -160 -309 -160q-195 0 -316 127q-133 139 -133 377zM360 473q0 -100 64 -162q59 -59 154 -59q96 0 155 59q64 62 64 162t-64 162q-59 59 -155 59q-94 0 -154 -59q-63 -61 -64 -162 z" />
<glyph unicode="b" horiz-adv-x="1210" d="M96 0v1434h310v-617h4q98 160 307 160q195 0 317 -127q133 -139 133 -377t-133 -377q-123 -127 -317 -127q-209 0 -307 160h-4v-129h-310zM414 473q0 -100 63 -162q59 -59 154 -59q96 0 155 59q64 62 64 162t-64 162q-59 59 -155 59q-94 0 -154 -59q-63 -61 -63 -162z " />
<glyph unicode="c" horiz-adv-x="923" d="M43 473q0 225 150 367q145 137 376 137q182 0 342 -92l-127 -248q-88 57 -200 57q-98 0 -162 -57q-70 -61 -70 -164q0 -102 70 -164q63 -57 162 -57q113 0 200 57l127 -248q-160 -92 -342 -92q-231 0 -376 137q-150 142 -150 367z" />
<glyph unicode="d" horiz-adv-x="1210" d="M43 473q0 238 133 377q121 127 316 127q211 0 309 -160h4v617h309v-1434h-309v129h-4q-98 -160 -309 -160q-195 0 -316 127q-133 139 -133 377zM360 473q0 -100 64 -162q59 -59 154 -59q96 0 155 59q64 62 64 162t-64 162q-59 59 -155 59q-94 0 -154 -59 q-63 -61 -64 -162z" />
<glyph unicode="e" horiz-adv-x="1046" d="M43 469q0 236 141 373q137 133 359 133q219 0 342 -125q127 -133 127 -381v-70h-678q29 -172 241 -172q76 0 158 29q57 18 117 57l113 -233q-180 -111 -392 -111q-240 0 -383 137q-145 139 -145 363zM336 582h377q-4 84 -54 129q-47 45 -127 45q-176 0 -196 -174z" />
<glyph unicode="f" horiz-adv-x="727" d="M23 688v258h165v55q0 453 455 453h64v-287h-27q-100 0 -141 -34q-41 -41 -41 -142v-45h200v-258h-200v-688h-310v688h-165z" />
<glyph unicode="g" horiz-adv-x="1200" d="M43 475q0 236 133 375q123 127 316 127q211 0 309 -160h4v129h309v-946q-4 -440 -510 -440q-170 0 -405 47l51 289q205 -47 332 -48q117 0 170 48q53 49 53 170v61h-4q-106 -143 -312 -143q-195 0 -315 122q-131 131 -131 369zM360 473q0 -100 64 -162q59 -59 154 -59 q96 0 155 59q64 62 64 162t-64 162q-59 59 -155 59q-94 0 -154 -59q-63 -61 -64 -162z" />
<glyph unicode="h" horiz-adv-x="1153" d="M96 0v1434h310v-613h4q100 156 303 156q164 0 256 -94q100 -100 100 -297v-586h-309v500q0 205 -172 205q-182 0 -182 -230v-475h-310z" />
<glyph unicode="i" horiz-adv-x="499" d="M84 1120v312h332v-312h-332zM96 0v946h310v-946h-310z" />
<glyph unicode="j" horiz-adv-x="499" d="M-80 -129h51q125 0 125 135v940h310v-938q0 -424 -383 -424h-103v287zM84 1120v312h332v-312h-332z" />
<glyph unicode="k" horiz-adv-x="1136" d="M96 0v1434h310v-861l276 373h383l-375 -430l436 -516h-399l-321 434v-434h-310z" />
<glyph unicode="l" horiz-adv-x="499" d="M96 0v1434h310v-1434h-310z" />
<glyph unicode="m" horiz-adv-x="1736" d="M94 0v946h303v-139h4q86 170 295 170q217 0 297 -184h4q104 184 318 184q152 0 244 -94q94 -96 94 -267v-616h-310v514q0 190 -153 191q-168 0 -168 -236v-469h-297v514q0 190 -154 191q-168 0 -168 -236v-469h-309z" />
<glyph unicode="n" horiz-adv-x="1153" d="M94 0v946h303v-143h4q100 174 310 174q164 0 256 -94q100 -100 100 -297v-586h-307v500q0 205 -174 205q-182 0 -183 -230v-475h-309z" />
<glyph unicode="o" d="M43 473q0 225 152 367q145 137 378 137q236 0 381 -137q152 -142 152 -367t-152 -364q-150 -139 -381 -140q-229 0 -378 140q-152 139 -152 364zM352 473q0 -96 66 -162q63 -59 155 -59q94 0 158 59q63 61 64 162q0 100 -64 162q-63 59 -158 59q-92 0 -155 -59 q-66 -66 -66 -162z" />
<glyph unicode="p" horiz-adv-x="1208" d="M94 -410v1356h309v-129h5q98 160 309 160q195 0 317 -127q131 -137 131 -377t-131 -377q-123 -127 -317 -127q-211 0 -309 160h-5v-539h-309zM412 473q0 -100 63 -162q59 -59 156 -59q92 0 155 59q62 62 62 162t-62 162q-63 59 -155 59q-96 0 -156 -59q-63 -61 -63 -162z " />
<glyph unicode="q" horiz-adv-x="1200" d="M43 473q0 238 133 377q121 127 316 127q211 0 309 -160h4v129h309v-1356h-309v539h-4q-98 -160 -309 -160q-195 0 -316 127q-133 139 -133 377zM360 473q0 -100 64 -162q59 -59 154 -59q96 0 155 59q64 62 64 162t-64 162q-59 59 -155 59q-94 0 -154 -59 q-63 -61 -64 -162z" />
<glyph unicode="r" horiz-adv-x="741" d="M94 0v946h303v-192h4q78 221 314 221h6v-309h-27q-158 0 -223 -68q-68 -70 -68 -250v-348h-309z" />
<glyph unicode="s" horiz-adv-x="888" d="M20 68l117 254q188 -109 336 -109q86 0 86 43q0 25 -22 37l-5 2l-4 2q-6 4 -12 6l-22 8l-166 66q-231 90 -232 293q0 307 406 307q168 0 342 -57l-86 -250q-164 69 -278 69h-3q-76 0 -76 -41q0 -31 72 -59l164 -61q229 -86 229 -289q0 -319 -417 -320q-231 0 -429 99z " />
<glyph unicode="t" horiz-adv-x="741" d="M20 688v258h185v379h309v-379h195v-258h-195v-285q0 -70 21 -92q22 -24 77 -24h4h35v-287h-129q-317 0 -317 319v369h-185z" />
<glyph unicode="u" horiz-adv-x="1140" d="M84 362v584h319v-516q0 -190 156 -190q178 0 178 249v457h310v-946h-304v147h-4q-111 -178 -297 -178q-158 0 -254 97q-104 101 -104 296z" />
<glyph unicode="v" horiz-adv-x="1116" d="M10 946h342l205 -600l207 600h342l-393 -946h-310z" />
<glyph unicode="w" horiz-adv-x="1654" d="M10 946h307l177 -555l192 555h285l192 -555l176 555h306l-345 -946h-264l-209 553l-206 -553h-265z" />
<glyph unicode="x" horiz-adv-x="1153" d="M10 0l379 496l-344 450h358l175 -250l172 250h358l-344 -450l379 -496h-357l-208 295l-211 -295h-357z" />
<glyph unicode="y" horiz-adv-x="1146" d="M10 946h357l221 -522l235 522h314l-629 -1356h-311l237 500z" />
<glyph unicode="z" horiz-adv-x="923" d="M33 0v233l444 453h-411v260h796v-227l-454 -459h485v-260h-860z" />
<glyph unicode="{" horiz-adv-x="851" d="M72 430v266q262 16 262 209v238q0 215 129 325q109 94 289 95h79v-254h-61q-184 0 -184 -179v-233q0 -272 -252 -332v-4q252 -57 252 -332v-237q0 -178 184 -178h61v-254h-79q-180 0 -289 94q-129 111 -129 326v241q0 193 -262 209z" />
<glyph unicode="|" horiz-adv-x="671" d="M225 -440v1929h221v-1929h-221z" />
<glyph unicode="}" horiz-adv-x="851" d="M20 -186h64q184 0 184 178v237q0 272 250 332v4q-250 59 -250 332v233q0 178 -186 179h-62v254h82q180 0 289 -95q127 -109 127 -325v-238q0 -193 262 -209v-266q-262 -16 -262 -209v-241q0 -217 -127 -326q-109 -94 -289 -94h-82v254z" />
<glyph unicode="~" horiz-adv-x="1228" d="M27 659q201 166 376 166q109 0 240 -61l47 -25l47 -18q49 -20 101 -21q90 0 233 109l131 -203q-195 -162 -373 -162q-63 0 -129 19q-37 12 -106 43q-131 61 -199 61q-94 0 -239 -108z" />
<glyph unicode="&#xa2;" horiz-adv-x="903" d="M39 473q0 219 139 358q137 137 352 146v113h58v-113q139 -10 254 -59v-295q-141 59 -254 63v-426q106 4 254 64v-293q-111 -53 -254 -62v-100h-58v100q-215 8 -352 146q-139 139 -139 358zM358 473q0 -80 50 -139q44 -54 122 -70v418q-78 -16 -122 -70q-49 -57 -50 -139z " />
<glyph unicode="&#xa3;" horiz-adv-x="1142" d="M82 707v61h139q-72 119 -71 236q0 195 124 301q131 109 365 108q215 0 338 -104q133 -117 133 -346h-317q-8 162 -166 161q-72 0 -115 -37q-41 -41 -41 -100q0 -51 33 -108q12 -25 31 -56l36 -55h318v-61h-277q61 -98 62 -175q0 -147 -228 -251l5 -11h585v-270h-913v227 q229 125 229 279q0 70 -90 201h-180z" />
<glyph unicode="&#xa5;" horiz-adv-x="1335" d="M41 1382h371l256 -581l256 581h370l-381 -729h240v-61h-272l-60 -115h332v-61h-336v-416h-299v416h-336v61h332l-59 115h-273v61h240z" />
<glyph unicode="&#xa8;" horiz-adv-x="843" d="M102 1137v276h254v-276h-254zM487 1137v276h254v-276h-254z" />
<glyph unicode="&#xa9;" horiz-adv-x="1695" d="M102 717q0 330 215 540q213 207 531 207q317 0 530 -207q215 -211 215 -540q0 -326 -215 -539q-211 -209 -530 -209q-317 0 -531 209q-215 213 -215 539zM262 717q0 -262 170 -432q164 -164 416 -164t416 164q170 170 170 432t-170 432q-164 164 -416 164t-416 -164 q-170 -170 -170 -432zM385 725q0 201 135 332q137 133 344 133q168 0 312 -98l-103 -170q-53 33 -92 47q-55 20 -121 20q-115 0 -186 -74q-72 -72 -72 -190q0 -119 72 -190q72 -74 186 -74q106 0 213 69l103 -172q-143 -98 -312 -98q-207 0 -344 133q-135 133 -135 332z" />
<glyph unicode="&#xab;" horiz-adv-x="1183" d="M31 487l336 359h331l-336 -359l336 -360h-331zM498 487l333 359h332l-334 -359l334 -360h-332z" />
<glyph unicode="&#xad;" horiz-adv-x="862" d="M102 406v276h660v-276h-660z" />
<glyph unicode="&#xae;" horiz-adv-x="1146" d="M84 971q0 215 139 354t350 139t351 -139q139 -139 139 -354t-139 -355q-139 -139 -351 -139q-211 0 -350 139t-139 355zM209 971q0 -168 100 -271q102 -104 264 -104q164 0 265 104q100 103 100 271t-100 270q-100 104 -265 105q-162 0 -264 -105q-100 -102 -100 -270z M406 721v532h200q84 0 135 -45q47 -47 47 -118q0 -127 -114 -162l127 -207h-127l-111 197h-49v-197h-108zM514 1020h84q74 0 74 65q0 66 -74 66h-84v-131z" />
<glyph unicode="&#xb4;" horiz-adv-x="778" d="M102 1133l236 315h338l-332 -315h-242z" />
<glyph unicode="&#xb8;" horiz-adv-x="581" d="M102 -358q166 72 166 108q0 39 -114 68l98 262h110l-65 -158q182 -31 182 -127q0 -74 -98 -129q-53 -31 -246 -100z" />
<glyph unicode="&#xbb;" horiz-adv-x="1183" d="M20 127l334 360l-334 359h332l334 -359l-334 -360h-332zM485 127l336 360l-336 359h332l336 -359l-336 -360h-332z" />
<glyph unicode="&#x2c6;" horiz-adv-x="993" d="M102 1133l250 315h289l250 -315h-256l-139 167l-138 -167h-256z" />
<glyph unicode="&#x2da;" horiz-adv-x="696" d="M102 1290q0 104 70 172q72 68 176 68q106 0 176 -68t70 -172t-70 -172t-176 -67q-104 0 -176 67q-70 68 -70 172zM233 1290q0 -49 31 -80q33 -33 84 -32q51 0 84 32q31 31 31 80t-31 80q-33 33 -84 33t-84 -33q-31 -31 -31 -80z" />
<glyph unicode="&#x2dc;" horiz-adv-x="1009" d="M102 1176q68 272 238 272q63 0 186 -47l43 -17l23 -8l10 -4l8 -4q43 -14 70 -14q66 0 111 94l116 -39q-70 -272 -237 -272q-63 0 -187 47q-123 47 -155 47q-61 0 -111 -94z" />
<glyph unicode="&#x401;" horiz-adv-x="1085" d="M125 0v1434h887v-289h-570v-234h512v-288h-512v-334h580v-289h-897zM240 1522v233h272v-233h-272zM684 1522v233h274v-233h-274z" />
<glyph unicode="&#x402;" horiz-adv-x="1519" d="M10 1137v297h1164v-297h-498v-271q186 16 407 17q406 0 406 -371v-117q0 -395 -426 -395h-152v297h97q86 0 125 29q39 27 38 100v39q0 70 -41 94q-37 25 -133 25q-158 0 -321 -19v-567l-318 2v1137h-348z" />
<glyph unicode="&#x403;" horiz-adv-x="1009" d="M125 0v1434h874v-297h-557v-1137h-317zM432 1522l236 245h338l-351 -245h-223z" />
<glyph unicode="&#x404;" horiz-adv-x="1347" d="M43 717q0 352 211 555q199 193 532 192q295 0 539 -155l-172 -283q-168 111 -358 111q-297 0 -379 -254h520v-291h-530q31 -145 137 -221q102 -74 252 -74q190 0 358 111l172 -283q-244 -156 -539 -156q-334 0 -532 193q-211 203 -211 555z" />
<glyph unicode="&#x405;" horiz-adv-x="1114" d="M12 113l144 284q213 -131 403 -131q176 0 176 115q0 72 -135 154l-219 137q-264 158 -264 409q0 176 114 279q121 104 342 104q223 0 465 -104l-133 -281q-197 90 -323 90q-131 0 -131 -84q0 -55 108 -120l238 -150q131 -80 200 -174q72 -102 72 -246q0 -207 -135 -317 q-137 -109 -387 -109q-291 0 -535 144z" />
<glyph unicode="&#x406;" horiz-adv-x="567" d="M125 0v1434h317v-1434h-317z" />
<glyph unicode="&#x407;" horiz-adv-x="567" d="M-76 1522v233h273v-233h-273zM125 0v1434h317v-1434h-317zM369 1522v233h274v-233h-274z" />
<glyph unicode="&#x408;" horiz-adv-x="616" d="M20 -6v297h70q84 0 84 100v1043h318v-1072q0 -369 -369 -368h-103z" />
<glyph unicode="&#x409;" horiz-adv-x="2138" d="M20 -6v297h111q84 0 84 100v1043h1159v-510h254q215 0 340 -105q147 -123 148 -358q0 -236 -148 -357q-125 -104 -340 -104h-571v1137h-525v-775q0 -369 -368 -368h-144zM1374 287h209q203 0 203 174q0 176 -203 176h-209v-350z" />
<glyph unicode="&#x40a;" horiz-adv-x="2097" d="M125 0v1434h317v-510h574v510h317v-510h254q213 0 342 -105q145 -121 146 -358q0 -236 -146 -357q-129 -104 -342 -104h-571v637h-574v-637h-317zM1333 287h209q203 0 203 174q0 176 -203 176h-209v-350z" />
<glyph unicode="&#x40b;" horiz-adv-x="1517" d="M10 1137v297h1164v-297h-500v-236h381q432 0 432 -428v-473h-318v444q0 158 -149 158h-346v-602h-318v1137h-346z" />
<glyph unicode="&#x40c;" horiz-adv-x="1486" d="M125 0v1434h317v-635l510 635h432l-591 -672l694 -762h-453l-592 688v-688h-317zM594 1522l235 245h338l-350 -245h-223z" />
<glyph unicode="&#x40e;" horiz-adv-x="1460" d="M0 1434h420l325 -713l349 713h366l-696 -1434h-367l170 352zM420 1769h211q4 -123 125 -122q123 0 125 122h211q-8 -135 -93 -208q-90 -78 -243 -78q-313 0 -336 286z" />
<glyph unicode="&#x40f;" horiz-adv-x="1478" d="M125 0v1434h317v-1137h596v1137h318v-1434h-467v-287h-297v287h-467z" />
<glyph unicode="&#x410;" horiz-adv-x="1466" d="M0 0l565 1434h336l565 -1434h-354l-102 291h-553l-101 -291h-356zM557 573h354l-178 506z" />
<glyph unicode="&#x411;" horiz-adv-x="1255" d="M125 0v1434h1010v-297h-693v-213h275q215 0 340 -105q147 -123 147 -358q0 -236 -147 -357q-125 -104 -340 -104h-592zM442 287h230q203 0 202 174q0 176 -202 176h-230v-350z" />
<glyph unicode="&#x412;" horiz-adv-x="1280" d="M125 0v1434h594q201 0 315 -84q127 -96 127 -273q0 -244 -227 -317v-4q293 -49 293 -353q0 -207 -148 -311q-125 -92 -340 -92h-614zM442 289h250q205 0 205 155q0 156 -207 156h-248v-311zM442 864h238q76 0 117 39q45 37 45 105q0 63 -45 102q-45 35 -115 35h-240v-281 z" />
<glyph unicode="&#x413;" horiz-adv-x="1009" d="M125 0v1434h874v-297h-557v-1137h-317z" />
<glyph unicode="&#x414;" horiz-adv-x="1458" d="M10 266h168q96 248 96 586v582h998v-1168h172v-553h-297v256h-840v-256h-297v553zM498 266h456v871h-362v-287q0 -346 -94 -584z" />
<glyph unicode="&#x415;" horiz-adv-x="1085" d="M125 0v1434h887v-289h-570v-234h512v-288h-512v-334h580v-289h-897z" />
<glyph unicode="&#x416;" horiz-adv-x="2308" d="M0 0l637 750l-545 684h418l494 -654v654h301v-654l487 654h424l-545 -684l637 -750h-448l-555 707v-707h-301v707l-558 -707h-446z" />
<glyph unicode="&#x417;" horiz-adv-x="1226" d="M23 100l141 277q213 -111 407 -111q283 0 283 164q0 168 -377 168h-131v281h133q315 0 316 157q0 131 -234 131q-178 0 -393 -90l-115 289q127 45 221 66q139 33 293 32q549 0 549 -364q0 -270 -317 -338v-4q375 -51 375 -367q0 -190 -134 -299q-150 -123 -458 -123 q-317 0 -559 131z" />
<glyph unicode="&#x418;" horiz-adv-x="1523" d="M125 0v1434h317v-906h2l686 906h269v-1434h-318v903h-2l-684 -903h-270z" />
<glyph unicode="&#x419;" horiz-adv-x="1523" d="M125 0v1434h317v-906h2l686 906h269v-1434h-318v903h-2l-684 -903h-270zM444 1769h211q4 -123 125 -122q123 0 125 122h211q-8 -135 -92 -208q-90 -78 -244 -78q-313 0 -336 286z" />
<glyph unicode="&#x41a;" horiz-adv-x="1486" d="M125 0v1434h317v-635l510 635h432l-591 -672l694 -762h-453l-592 688v-688h-317z" />
<glyph unicode="&#x41b;" horiz-adv-x="1468" d="M20 -6v297h91q84 0 84 100v1043h1148v-1434h-317v1137h-514v-775q0 -369 -369 -368h-123z" />
<glyph unicode="&#x41c;" horiz-adv-x="1816" d="M0 0l367 1434h239l301 -732h4l301 732h240l365 -1434h-330l-195 817h-4l-266 -612h-227l-265 612h-4l-194 -817h-332z" />
<glyph unicode="&#x41d;" horiz-adv-x="1480" d="M125 0v1434h317v-533h596v533h318v-1434h-318v602h-596v-602h-317z" />
<glyph unicode="&#x41e;" horiz-adv-x="1597" d="M43 717q0 330 219 543q211 205 537 204q326 0 538 -204q217 -211 217 -543t-217 -543q-213 -205 -538 -205q-326 0 -537 205q-219 213 -219 543zM393 717q0 -190 117 -307q113 -113 289 -113t288 113q117 117 117 307t-117 307q-113 113 -288 113q-176 0 -289 -113 q-117 -117 -117 -307z" />
<glyph unicode="&#x41f;" horiz-adv-x="1478" d="M125 0v1434h1229v-1434h-318v1137h-594v-1137h-317z" />
<glyph unicode="&#x420;" horiz-adv-x="1177" d="M125 0v1434h512q260 0 399 -134q129 -119 129 -325q0 -219 -129 -346q-137 -137 -399 -137h-195v-492h-317zM442 778h168q217 0 217 191q0 176 -217 176h-168v-367z" />
<glyph unicode="&#x421;" horiz-adv-x="1366" d="M43 717q0 340 223 545q219 203 563 202q287 0 514 -159l-172 -279q-166 111 -342 111q-193 0 -311 -113q-125 -113 -125 -307q0 -195 125 -307q119 -113 311 -113q176 0 342 111l172 -279q-227 -160 -514 -160q-344 0 -563 203q-223 205 -223 545z" />
<glyph unicode="&#x422;" horiz-adv-x="1093" d="M10 1145v289h1073v-289h-376v-1145h-318v1145h-379z" />
<glyph unicode="&#x423;" horiz-adv-x="1460" d="M0 1434h420l325 -713l349 713h366l-696 -1434h-367l170 352z" />
<glyph unicode="&#x424;" horiz-adv-x="1716" d="M43 717q0 289 176 465q180 176 490 182v131h299v-131q309 -6 489 -182q176 -176 176 -465t-176 -465q-180 -176 -489 -182v-131h-299v131q-309 6 -490 182q-176 176 -176 465zM375 719q0 -350 344 -354v704q-344 -2 -344 -350zM997 365q344 4 344 354q0 348 -344 350 v-704z" />
<glyph unicode="&#x425;" horiz-adv-x="1478" d="M2 0l533 756l-484 678h404l284 -424l285 424h403l-483 -678l533 -756h-406l-332 500l-331 -500h-406z" />
<glyph unicode="&#x426;" horiz-adv-x="1525" d="M125 0v1434h317v-1137h562v1137h317v-1137h190v-584h-299v287h-1087z" />
<glyph unicode="&#x427;" horiz-adv-x="1288" d="M31 961v473h317v-445q0 -158 152 -158h346v603h317v-1434h-317v532h-381q-434 0 -434 429z" />
<glyph unicode="&#x428;" horiz-adv-x="2244" d="M125 0v1434h317v-1137h521v1137h317v-1137h522v1137h318v-1434h-1995z" />
<glyph unicode="&#x429;" horiz-adv-x="2324" d="M125 0v1434h317v-1137h521v1137h317v-1137h522v1137h318v-1137h190v-584h-297v287h-1888z" />
<glyph unicode="&#x42a;" horiz-adv-x="1505" d="M10 1137v297h709v-510h274q213 0 342 -105q147 -119 148 -358q0 -236 -148 -357q-129 -104 -342 -104h-592v1137h-391zM719 287h231q201 0 201 174q0 176 -201 176h-231v-350z" />
<glyph unicode="&#x42b;" horiz-adv-x="1789" d="M125 0v1434h317v-510h275q215 0 340 -105q147 -123 147 -358q0 -236 -147 -357q-125 -104 -340 -104h-592zM442 287h230q203 0 202 174q0 176 -202 176h-230v-350zM1348 0v1434h317v-1434h-317z" />
<glyph unicode="&#x42c;" horiz-adv-x="1226" d="M125 0v1434h317v-510h275q215 0 340 -105q147 -123 147 -358q0 -236 -147 -357q-125 -104 -340 -104h-592zM442 287h230q203 0 202 174q0 176 -202 176h-230v-350z" />
<glyph unicode="&#x42d;" horiz-adv-x="1347" d="M23 125l172 283q170 -111 358 -111q326 0 389 295h-530v291h520q-80 254 -379 254q-188 0 -358 -111l-172 283q244 156 538 155q334 0 533 -192q211 -203 211 -555t-211 -555q-199 -193 -533 -193q-295 0 -538 156z" />
<glyph unicode="&#x42e;" horiz-adv-x="2154" d="M125 0v1434h317v-568h172q49 274 254 437q201 162 488 161q326 0 538 -204q217 -211 217 -543t-217 -543q-213 -205 -538 -205q-287 0 -488 162q-205 162 -254 436h-172v-567h-317zM950 717q0 -190 117 -307q113 -113 289 -113q178 0 291 113q116 117 116 307t-116 307 q-113 113 -291 113q-176 0 -289 -113q-117 -117 -117 -307z" />
<glyph unicode="&#x42f;" horiz-adv-x="1304" d="M23 0l380 563q-147 43 -229 158q-78 113 -78 264q0 199 125 318q131 131 365 131h594v-1434h-318v539h-106l-348 -539h-385zM434 977q0 -168 197 -168h231v336h-231q-197 0 -197 -168z" />
<glyph unicode="&#x430;" horiz-adv-x="1200" d="M43 473q0 238 133 377q121 127 316 127q211 0 309 -160h4v129h309v-946h-309v129h-4q-98 -160 -309 -160q-195 0 -316 127q-133 139 -133 377zM360 473q0 -100 64 -162q59 -59 154 -59q96 0 155 59q64 62 64 162t-64 162q-59 59 -155 59q-94 0 -154 -59q-63 -61 -64 -162 z" />
<glyph unicode="&#x431;" horiz-adv-x="1169" d="M43 618q0 469 260 613q72 37 201 78l53 14l27 8l22 6q23 6 47 15l17 4l12 4q80 29 82 84h313q0 -223 -174 -287l-16 -6l-21 -6q-27 -8 -55 -17q-8 -2 -27 -6l-16 -4l-18 -4l-64 -16q-158 -39 -221 -70q-133 -66 -158 -305h6q86 233 365 233q197 0 321 -131 q127 -133 127 -352q0 -229 -139 -364q-145 -139 -391 -140q-246 0 -387 142q-166 163 -166 507zM369 473q0 -100 63 -162q63 -59 156 -59q92 0 157 59q64 62 64 162t-64 162q-66 59 -157 59q-92 0 -156 -59q-63 -61 -63 -162z" />
<glyph unicode="&#x432;" horiz-adv-x="1077" d="M94 0v946h621q141 0 217 -63q74 -61 74 -166q0 -176 -177 -213v-2q205 -25 205 -228q0 -137 -90 -208q-84 -66 -213 -66h-637zM403 213h205q104 0 105 88q0 80 -103 80h-207v-168zM403 586h189q94 0 94 76q0 72 -94 71h-189v-147z" />
<glyph unicode="&#x433;" horiz-adv-x="784" d="M94 0v946h680v-278h-371v-668h-309z" />
<glyph unicode="&#x434;" horiz-adv-x="1187" d="M10 227h123q63 113 64 262v457h850v-719h120v-493h-258v246h-641v-246h-258v493zM444 227h297v451h-241v-197q0 -139 -56 -254z" />
<glyph unicode="&#x435;" horiz-adv-x="1046" d="M43 469q0 236 141 373q137 133 359 133q219 0 342 -125q127 -133 127 -381v-70h-678q29 -172 241 -172q76 0 158 29q57 18 117 57l113 -233q-180 -111 -392 -111q-240 0 -383 137q-145 139 -145 363zM336 582h377q-4 84 -54 129q-47 45 -127 45q-176 0 -196 -174z" />
<glyph unicode="&#x436;" horiz-adv-x="1753" d="M10 0l422 516l-360 430h381l278 -375v375h291v-375l278 375h381l-360 -430l422 -516h-397l-324 434v-434h-291v434l-321 -434h-400z" />
<glyph unicode="&#x437;" horiz-adv-x="919" d="M12 43l88 225q61 -23 152 -41q90 -20 170 -20q152 0 151 80q0 92 -143 92h-188v205h192q106 0 107 84q0 76 -138 75q-100 0 -288 -47l-68 224l39 10l41 8l47 10l45 10q111 18 219 19q207 0 305 -55q111 -63 111 -205q0 -176 -201 -213v-4q106 -16 166 -78q59 -66 60 -162 q0 -291 -447 -291q-248 0 -420 74z" />
<glyph unicode="&#x438;" horiz-adv-x="1177" d="M94 0v946h309v-512h5l401 512h272v-946h-309v512h-4l-401 -512h-273z" />
<glyph unicode="&#x439;" horiz-adv-x="1177" d="M94 0v946h309v-512h5l401 512h272v-946h-309v512h-4l-401 -512h-273zM270 1339h195q8 -143 141 -143t142 143h194q0 -147 -96 -239q-94 -92 -240 -92q-143 0 -239 92t-97 239z" />
<glyph unicode="&#x43a;" horiz-adv-x="1134" d="M94 0v946h309v-373l279 373h381l-375 -430l438 -516h-399l-324 434v-434h-309z" />
<glyph unicode="&#x43b;" horiz-adv-x="1157" d="M20 -2v287h64q84 0 84 114v547h895v-946h-309v668h-277v-326q0 -172 -94 -260q-90 -84 -250 -84h-113z" />
<glyph unicode="&#x43c;" horiz-adv-x="1427" d="M20 0l295 946h224l172 -414h4l174 414h223l293 -946h-299l-141 502h-4l-152 -381h-191l-151 381h-4l-141 -502h-302z" />
<glyph unicode="&#x43d;" d="M94 0v946h309v-315h342v315h310v-946h-310v352h-342v-352h-309z" />
<glyph unicode="&#x43e;" d="M43 473q0 225 152 367q145 137 378 137q236 0 381 -137q152 -142 152 -367t-152 -364q-150 -139 -381 -140q-229 0 -378 140q-152 139 -152 364zM352 473q0 -96 66 -162q63 -59 155 -59q94 0 158 59q63 61 64 162q0 100 -64 162q-63 59 -158 59q-92 0 -155 -59 q-66 -66 -66 -162z" />
<glyph unicode="&#x43f;" horiz-adv-x="1155" d="M94 0v946h965v-946h-307v668h-349v-668h-309z" />
<glyph unicode="&#x440;" horiz-adv-x="1208" d="M94 -410v1356h309v-129h5q98 160 309 160q195 0 317 -127q131 -137 131 -377t-131 -377q-123 -127 -317 -127q-211 0 -309 160h-5v-539h-309zM412 473q0 -100 63 -162q59 -59 156 -59q92 0 155 59q62 62 62 162t-62 162q-63 59 -155 59q-96 0 -156 -59q-63 -61 -63 -162z " />
<glyph unicode="&#x441;" horiz-adv-x="923" d="M43 473q0 225 150 367q145 137 376 137q182 0 342 -92l-127 -248q-88 57 -200 57q-98 0 -162 -57q-70 -61 -70 -164q0 -102 70 -164q63 -57 162 -57q113 0 200 57l127 -248q-160 -92 -342 -92q-231 0 -376 137q-150 142 -150 367z" />
<glyph unicode="&#x442;" horiz-adv-x="931" d="M10 668v278h912v-278h-301v-668h-310v668h-301z" />
<glyph unicode="&#x443;" horiz-adv-x="1146" d="M10 946h357l221 -522l235 522h314l-629 -1356h-311l237 500z" />
<glyph unicode="&#x444;" horiz-adv-x="1818" d="M53 473q0 244 119 377q111 127 297 127q197 0 289 -160h4v565h297v-565h4q92 160 287 160q186 0 297 -127q119 -133 118 -377q0 -244 -118 -377q-111 -127 -297 -127q-195 0 -287 160h-4v-539h-297v539h-4q-92 -160 -289 -160q-186 0 -297 127q-119 133 -119 377z M379 473q0 -233 196 -233q197 0 197 233q0 234 -197 234t-196 -234zM1049 473q0 -233 194 -233q197 0 197 233q0 234 -197 234q-195 0 -194 -234z" />
<glyph unicode="&#x445;" horiz-adv-x="1153" d="M10 0l379 496l-344 450h358l175 -250l172 250h358l-344 -450l379 -496h-357l-208 295l-211 -295h-357z" />
<glyph unicode="&#x446;" horiz-adv-x="1212" d="M94 0v946h309v-667h345v667h309v-667h133v-545h-295v266h-801z" />
<glyph unicode="&#x447;" horiz-adv-x="1042" d="M20 655v291h310v-266q0 -106 116 -107h193v373h309v-946h-309v305h-270q-348 0 -349 350z" />
<glyph unicode="&#x448;" horiz-adv-x="1759" d="M94 0v946h309v-667h322v667h309v-667h322v667h307v-946h-1569z" />
<glyph unicode="&#x449;" horiz-adv-x="1818" d="M94 0v946h309v-667h322v667h309v-667h322v667h307v-667h133v-545h-295v266h-1407z" />
<glyph unicode="&#x44a;" horiz-adv-x="1216" d="M10 668v278h600v-258h209q170 0 264 -82q102 -90 103 -262q0 -170 -103 -260q-96 -84 -264 -84h-518v668h-291zM610 238h144q123 0 123 106t-123 107h-144v-213z" />
<glyph unicode="&#x44b;" horiz-adv-x="1468" d="M94 0v946h309v-258h211q170 0 265 -82q102 -90 102 -262q0 -170 -102 -260q-96 -84 -265 -84h-520zM403 238h146q121 0 121 106t-121 107h-146v-213zM1065 0v946h309v-946h-309z" />
<glyph unicode="&#x44c;" horiz-adv-x="1011" d="M94 0v946h309v-258h211q170 0 265 -82q102 -90 102 -262q0 -170 -102 -260q-96 -84 -265 -84h-520zM403 238h146q121 0 121 106t-121 107h-146v-213z" />
<glyph unicode="&#x44d;" horiz-adv-x="927" d="M12 53l127 258q102 -57 213 -57q162 0 203 127h-281v184h281q-41 127 -203 127q-111 0 -213 -57l-127 258q158 84 361 84q229 0 364 -129q140 -135 140 -375t-140 -375q-135 -129 -364 -129q-205 0 -361 84z" />
<glyph unicode="&#x44e;" horiz-adv-x="1628" d="M94 0v946h309v-344h136q41 172 182 275q137 100 334 100q236 0 381 -137q149 -142 149 -367q0 -227 -149 -364q-150 -139 -381 -140q-195 0 -334 103q-143 102 -182 272h-136v-344h-309zM834 473q0 -100 63 -162q63 -59 158 -59q94 0 157 59q64 62 64 162t-64 162 q-63 59 -157 59t-158 -59q-63 -61 -63 -162z" />
<glyph unicode="&#x44f;" horiz-adv-x="1107" d="M31 0l272 322q-106 31 -164 116q-55 84 -55 189q0 150 92 235q94 84 246 84h592v-946h-309v305h-46l-243 -305h-385zM430 608q0 -100 129 -100h146v203h-146q-129 0 -129 -103z" />
<glyph unicode="&#x451;" horiz-adv-x="1046" d="M43 469q0 236 141 373q137 133 359 133q219 0 342 -125q127 -133 127 -381v-70h-678q29 -172 241 -172q76 0 158 29q57 18 117 57l113 -233q-180 -111 -392 -111q-240 0 -383 137q-145 139 -145 363zM244 1053v276h233v-276h-233zM336 582h377q-4 84 -54 129 q-47 45 -127 45q-176 0 -196 -174zM606 1053v276h234v-276h-234z" />
<glyph unicode="&#x452;" horiz-adv-x="1153" d="M-37 1118v178h133v138h310v-138h270v-178h-270v-297h4q100 156 303 156q164 0 256 -94q100 -100 100 -297v-633q0 -362 -348 -363h-139v277h82q47 0 69 16q27 20 27 86v531q0 205 -172 205q-182 0 -182 -230v-475h-310v1118h-133z" />
<glyph unicode="&#x453;" horiz-adv-x="784" d="M94 0v946h680v-278h-371v-668h-309zM301 1030l236 316h337l-331 -316h-242z" />
<glyph unicode="&#x454;" horiz-adv-x="929" d="M53 473q0 240 140 375q133 129 364 129q201 0 358 -84l-124 -258q-106 57 -216 57q-164 0 -200 -127h280v-184h-280q37 -127 200 -127q109 0 216 57l124 -258q-156 -84 -358 -84q-231 0 -364 129q-139 135 -140 375z" />
<glyph unicode="&#x455;" horiz-adv-x="888" d="M20 68l117 254q188 -109 336 -109q86 0 86 43q0 25 -22 37l-5 2l-4 2q-6 4 -12 6l-22 8l-166 66q-231 90 -232 293q0 307 406 307q168 0 342 -57l-86 -250q-166 70 -281 69q-76 0 -76 -41q0 -31 72 -59l164 -61q229 -86 229 -289q0 -319 -417 -320q-231 0 -429 99z" />
<glyph unicode="&#x456;" horiz-adv-x="499" d="M84 1120v312h332v-312h-332zM96 0v946h310v-946h-310z" />
<glyph unicode="&#x457;" horiz-adv-x="499" d="M-8 1053v276h233v-276h-233zM96 0v946h310v-946h-310zM274 1053v276h234v-276h-234z" />
<glyph unicode="&#x458;" horiz-adv-x="499" d="M-80 -129h51q125 0 125 135v940h310v-938q0 -424 -383 -424h-103v287zM84 1120v312h332v-312h-332z" />
<glyph unicode="&#x459;" horiz-adv-x="1626" d="M20 -2v287h43q84 0 84 114v547h875v-258h207q170 0 264 -82q102 -90 102 -262q0 -170 -102 -260q-96 -84 -264 -84h-516v668h-258v-328q0 -170 -95 -258q-90 -84 -247 -84h-93zM1022 236h143q121 0 121 108q0 106 -121 107h-143v-215z" />
<glyph unicode="&#x45a;" horiz-adv-x="1638" d="M94 0v946h309v-276h322v276h309v-276h207q170 0 264 -80q102 -90 103 -254q0 -168 -103 -254q-94 -82 -264 -82h-516v432h-322v-432h-309zM1034 238h144q121 0 120 96q0 98 -120 98h-144v-194z" />
<glyph unicode="&#x45b;" horiz-adv-x="1153" d="M-37 1118v178h133v138h310v-138h270v-178h-270v-297h4q100 156 303 156q164 0 256 -94q100 -100 100 -297v-586h-309v500q0 205 -172 205q-182 0 -182 -230v-475h-310v1118h-133z" />
<glyph unicode="&#x45c;" horiz-adv-x="1134" d="M94 0v946h309v-373l279 373h381l-375 -430l438 -516h-399l-324 434v-434h-309zM418 1030l235 316h338l-332 -316h-241z" />
<glyph unicode="&#x45e;" horiz-adv-x="1146" d="M10 946h357l221 -522l235 522h314l-629 -1356h-311l237 500zM254 1339h195q8 -143 141 -143t141 143h195q0 -147 -97 -239q-94 -92 -239 -92q-143 0 -240 92q-96 92 -96 239z" />
<glyph unicode="&#x45f;" horiz-adv-x="1144" d="M94 0v946h309v-678h338v678h310v-946h-340v-266h-277v266h-340z" />
<glyph unicode="&#x462;" horiz-adv-x="1314" d="M10 1059v241h203v134h317v-134h426v-241h-426v-135h275q213 0 342 -105q145 -121 145 -358q0 -236 -145 -357q-129 -104 -342 -104h-592v1059h-203zM530 287h230q203 0 203 174q0 176 -203 176h-230v-350z" />
<glyph unicode="&#x463;" horiz-adv-x="1067" d="M-37 791v155h176v488h310v-488h288v-155h-288v-103h208q178 0 275 -82q104 -88 104 -262q0 -170 -104 -260q-100 -84 -275 -84h-518v791h-176zM449 246h143q115 0 115 98t-115 98h-143v-196z" />
<glyph unicode="&#x472;" horiz-adv-x="1597" d="M43 717q0 330 219 543q211 205 537 204q326 0 538 -204q217 -211 217 -543t-217 -543q-213 -205 -538 -205q-326 0 -537 205q-219 213 -219 543zM379 637q27 -160 141 -256q113 -94 279 -94t278 94q115 96 142 256h-840zM379 797h840q-27 160 -142 256q-113 94 -278 94 q-166 0 -279 -94q-114 -96 -141 -256z" />
<glyph unicode="&#x473;" d="M43 473q0 225 152 367q145 137 378 137q236 0 381 -137q152 -142 152 -367t-152 -364q-150 -139 -381 -140q-229 0 -378 140q-152 139 -152 364zM340 412q18 -84 84 -133q63 -47 149 -48q86 0 152 48q61 47 84 133h-469zM340 535h469q-23 86 -84 133q-66 47 -152 47 t-149 -47q-66 -49 -84 -133z" />
<glyph unicode="&#x474;" horiz-adv-x="1503" d="M0 1434h379l330 -1031h4l264 773q51 143 133 206q94 72 258 72q76 0 135 -8v-295l-22 2l-25 2l-20 2h-17q-92 0 -133 -98l-405 -1059h-338z" />
<glyph unicode="&#x475;" horiz-adv-x="1091" d="M10 946h340l207 -600l141 404q72 215 355 215h28v-285h-20q-66 0 -94 -68l-254 -612h-310z" />
<glyph unicode="&#x48e;" horiz-adv-x="1177" d="M125 0v1434h512q260 0 399 -134q129 -119 129 -325q0 -274 -194 -402l96 -137l-102 -71l-111 155q-102 -29 -217 -28h-195v-492h-317zM442 778h168q31 0 58 6l-88 127l102 72l100 -143q45 47 45 129q0 176 -217 176h-168v-367z" />
<glyph unicode="&#x48f;" horiz-adv-x="1208" d="M94 -410v1356h309v-129h5q98 160 309 160q195 0 317 -127q131 -137 131 -377q0 -268 -161 -405l90 -109l-90 -78l-103 125q-86 -37 -184 -37q-211 0 -309 160h-5v-539h-309zM412 473q0 -100 63 -162q59 -59 156 -59q37 0 61 8l-92 111l90 78l105 -127q53 59 53 151 q0 100 -62 162q-63 59 -155 59q-96 0 -156 -59q-63 -61 -63 -162z" />
<glyph unicode="&#x490;" horiz-adv-x="1048" d="M125 0v1434h596v286h317v-585h-596v-1135h-317z" />
<glyph unicode="&#x491;" horiz-adv-x="854" d="M94 0v946h471v187h279v-455h-441v-678h-309z" />
<glyph unicode="&#x492;" horiz-adv-x="1054" d="M10 535v278h158v621h874v-297h-557v-324h387v-278h-387v-535h-317v535h-158z" />
<glyph unicode="&#x493;" horiz-adv-x="874" d="M20 295v223h164v428h680v-278h-370v-150h254v-223h-254v-295h-310v295h-164z" />
<glyph unicode="&#x494;" horiz-adv-x="1286" d="M125 0v1434h874v-297h-557v-330q186 16 406 16q406 0 405 -370v-445q0 -418 -442 -418h-149v297h114q84 0 121 37q39 39 39 135v347q0 66 -41 94q-39 25 -133 24q-156 0 -320 -18v-506h-317z" />
<glyph unicode="&#x495;" horiz-adv-x="1085" d="M94 0v946h762v-278h-453v-164q170 23 269 22q371 0 370 -354v-149q0 -213 -108 -328q-100 -104 -283 -105h-116v279h86q113 0 112 154v122q0 111 -121 111q-98 0 -209 -20v-236h-309z" />
<glyph unicode="&#x496;" horiz-adv-x="2291" d="M0 0l637 750l-545 684h418l494 -654v654h301v-654l487 654h424l-545 -684l443 -523h194v-514h-299v287h-149l-555 707v-707h-301v707l-558 -707h-446z" />
<glyph unicode="&#x497;" horiz-adv-x="1773" d="M10 0l422 516l-360 430h381l278 -375v375h291v-375l278 375h381l-360 -430l299 -364h133v-418h-258v266h-149l-324 434v-434h-291v434l-321 -434h-400z" />
<glyph unicode="&#x498;" horiz-adv-x="1226" d="M23 100l141 277q213 -111 407 -111q283 0 283 164q0 168 -377 168h-131v281h133q315 0 316 157q0 131 -234 131q-178 0 -393 -90l-115 289q127 45 221 66q139 33 293 32q549 0 549 -364q0 -270 -317 -338v-4q375 -51 375 -367q0 -389 -510 -420l-21 -49q182 -31 182 -127 q0 -74 -98 -129q-53 -31 -246 -100l-32 76q166 72 165 108q0 39 -114 68l57 151q-309 6 -534 131z" />
<glyph unicode="&#x499;" horiz-adv-x="919" d="M12 43l88 225q61 -23 152 -41q90 -20 170 -20q152 0 151 80q0 92 -143 92h-188v205h192q106 0 107 84q0 76 -138 75q-100 0 -288 -47l-68 224l39 10l41 8l47 10l45 10q111 18 219 19q207 0 305 -55q111 -63 111 -205q0 -176 -201 -213v-4q106 -16 166 -78q59 -66 60 -162 q0 -262 -365 -289l-20 -49q182 -31 182 -127q0 -74 -98 -129q-53 -31 -246 -100l-33 76q166 72 166 108q0 39 -115 68l58 151q-227 4 -396 74z" />
<glyph unicode="&#x49a;" horiz-adv-x="1474" d="M125 0v1434h317v-635l510 635h432l-591 -672l487 -535h211v-514h-299v287h-158l-592 688v-688h-317z" />
<glyph unicode="&#x49b;" horiz-adv-x="1155" d="M94 0v946h309v-373l279 373h381l-375 -430l309 -364h138v-418h-258v266h-150l-324 434v-434h-309z" />
<glyph unicode="&#x49c;" horiz-adv-x="1650" d="M125 0v1434h317v-521h115v248h107v-248h94l354 521h426l-518 -672l631 -762h-455l-463 616h-69v-260h-107v260h-115v-616h-317z" />
<glyph unicode="&#x49d;" horiz-adv-x="1198" d="M94 0v946h309v-330h56v197h57v-197h29l229 330h373l-344 -432l385 -514h-391l-248 391h-33v-190h-57v190h-56v-391h-309z" />
<glyph unicode="&#x49e;" horiz-adv-x="1554" d="M10 1120v217h180v97h318v-97h219v-217h-219v-323l510 637h432l-592 -672l694 -762h-450l-594 688v-688h-318v1120h-180z" />
<glyph unicode="&#x49f;" horiz-adv-x="1136" d="M-37 1118v178h133v138h310v-138h270v-178h-270v-545l276 373h383l-375 -430l436 -516h-399l-321 434v-434h-310v1118h-133z" />
<glyph unicode="&#x4a0;" horiz-adv-x="1763" d="M10 1137v297h707v-637l510 637h434l-594 -672l694 -762h-450l-594 688v-688h-318v1137h-389z" />
<glyph unicode="&#x4a1;" horiz-adv-x="1341" d="M10 668v278h600v-371l277 371h383l-375 -430l436 -516h-399l-322 432v-432h-309v668h-291z" />
<glyph unicode="&#x4a2;" horiz-adv-x="1484" d="M125 0v1434h317v-533h596v533h318v-1207h145v-514h-297v287h-166v602h-596v-602h-317z" />
<glyph unicode="&#x4a3;" horiz-adv-x="1206" d="M94 0v946h309v-315h342v315h310v-794h131v-418h-258v266h-183v352h-342v-352h-309z" />
<glyph unicode="&#x4a4;" horiz-adv-x="1847" d="M125 0v1434h317v-533h555v533h840v-297h-522v-1137h-318v602h-555v-602h-317z" />
<glyph unicode="&#x4a5;" horiz-adv-x="1419" d="M94 0v946h309v-315h320v315h688v-278h-379v-668h-309v352h-320v-352h-309z" />
<glyph unicode="&#x4a6;" horiz-adv-x="2197" d="M125 0v1434h1229v-537q197 18 407 18q406 0 406 -372v-148q0 -213 -115 -309q-100 -86 -311 -86h-150v297h115q143 0 143 129v70q0 68 -41 96q-39 25 -133 24q-121 0 -321 -18v-598h-318v1137h-594v-1137h-317z" />
<glyph unicode="&#x4a7;" horiz-adv-x="1751" d="M94 0v946h965v-346q158 25 280 25q369 0 369 -355v-245q0 -215 -109 -330q-100 -104 -278 -105h-117v279h86q111 0 111 156v221q0 109 -123 108q-96 0 -219 -22v-332h-307v668h-349v-668h-309z" />
<glyph unicode="&#x4a8;" horiz-adv-x="1693" d="M63 723q0 352 220 549q211 193 585 192q86 0 209 -22l-71 -279q-72 10 -129 11q-217 0 -338 -115q-125 -119 -125 -348q0 -203 98 -332q94 -123 254 -143q-123 160 -123 380q0 207 125 330q121 117 315 117q197 0 310 -117q115 -119 114 -311q0 -240 -151 -410h14l14 -2 q121 0 226 45l73 -235q-147 -63 -323 -64q-180 1 -303 58q-115 -57 -273 -58q-324 0 -524 209q-197 207 -197 545zM954 588q0 -177 121 -273q131 106 131 287q0 172 -123 172q-129 0 -129 -186z" />
<glyph unicode="&#x4a9;" horiz-adv-x="1228" d="M43 483q0 252 166 377q152 117 412 117q113 0 229 -21l-53 -233q-63 12 -131 12q-317 0 -318 -268q0 -225 197 -281q-53 84 -53 193q0 145 98 227q90 74 239 74q139 0 222 -70q88 -74 88 -211q0 -143 -101 -243q66 6 125 32l56 -180q-102 -39 -195 -39q-125 0 -207 58 q-82 -57 -231 -58q-254 0 -398 137q-145 139 -145 377zM735 354q0 -98 66 -147q106 51 106 162q0 104 -82 104q-90 0 -90 -119z" />
<glyph unicode="&#x4aa;" horiz-adv-x="1366" d="M43 717q0 340 223 545q219 203 563 202q287 0 514 -159l-172 -279q-166 111 -342 111q-193 0 -311 -113q-125 -113 -125 -307q0 -195 125 -307q119 -113 311 -113q176 0 342 111l172 -279q-211 -150 -487 -160l-20 -47q182 -31 182 -127q0 -74 -98 -129 q-53 -31 -246 -100l-33 76q166 72 166 108q0 39 -115 68l58 153q-313 25 -506 224q-201 207 -201 522z" />
<glyph unicode="&#x4ab;" horiz-adv-x="923" d="M43 473q0 225 150 367q145 137 376 137q182 0 342 -92l-127 -248q-88 57 -200 57q-98 0 -162 -57q-70 -61 -70 -164q0 -102 70 -164q63 -57 162 -57q113 0 200 57l127 -248q-137 -80 -299 -90l-20 -49q182 -31 182 -127q0 -74 -98 -129q-53 -31 -246 -100l-33 76 q166 72 166 108q0 39 -114 68l57 153q-207 23 -332 156q-131 137 -131 346z" />
<glyph unicode="&#x4ac;" horiz-adv-x="1093" d="M10 1145v289h1073v-289h-376v-918h188v-514h-297v287h-209v1145h-379z" />
<glyph unicode="&#x4ad;" horiz-adv-x="931" d="M10 668v278h912v-278h-301v-516h131v-418h-258v266h-183v668h-301z" />
<glyph unicode="&#x4ae;" horiz-adv-x="1349" d="M0 1434h381l291 -600h4l293 600h381l-516 -918v-516h-318v516z" />
<glyph unicode="&#x4af;" horiz-adv-x="1116" d="M10 946h340l207 -598l207 598h342l-393 -946v-410h-310v410z" />
<glyph unicode="&#x4b0;" horiz-adv-x="1349" d="M0 1434h381l291 -600h4l293 600h381l-492 -873h244v-239h-268v-322h-318v322h-270v239h243z" />
<glyph unicode="&#x4b1;" horiz-adv-x="1116" d="M10 946h340l207 -598l207 598h342l-389 -936h229v-211h-233v-209h-310v209h-233v211h229z" />
<glyph unicode="&#x4b2;" horiz-adv-x="1540" d="M2 0l533 756l-484 678h404l284 -424l285 424h403l-483 -678l373 -529h237v-514h-297v287h-186l-332 500l-331 -500h-406z" />
<glyph unicode="&#x4b3;" horiz-adv-x="1210" d="M10 0l379 496l-344 450h358l175 -250l172 250h358l-344 -450l264 -344h166v-418h-258v266h-150l-208 295l-211 -295h-357z" />
<glyph unicode="&#x4b4;" horiz-adv-x="1820" d="M10 1137v297h1075v-297h-348v-840h561v1137h318v-1137h190v-584h-297v287h-1089v1137h-410z" />
<glyph unicode="&#x4b5;" horiz-adv-x="1454" d="M10 668v278h846v-278h-211v-389h344v667h309v-667h134v-545h-295v266h-801v668h-326z" />
<glyph unicode="&#x4b6;" horiz-adv-x="1335" d="M31 961v473h317v-445q0 -158 152 -158h346v603h317v-1207h189v-514h-297v287h-209v532h-381q-434 0 -434 429z" />
<glyph unicode="&#x4b7;" horiz-adv-x="1118" d="M20 655v291h310v-266q0 -106 116 -107h193v373h309v-794h150v-418h-258v266h-201v305h-270q-348 0 -349 350z" />
<glyph unicode="&#x4b8;" horiz-adv-x="1288" d="M31 961v473h317v-445q0 -158 152 -158h57v263h121v-263h168v603h317v-1434h-317v532h-168v-243h-121v243h-92q-434 0 -434 429z" />
<glyph unicode="&#x4b9;" horiz-adv-x="1032" d="M20 655v291h310v-266q0 -106 116 -107h54v179h61v-179h78v373h309v-946h-309v305h-78v-160h-61v160h-131q-348 0 -349 350z" />
<glyph unicode="&#x4ba;" horiz-adv-x="1288" d="M125 0v1434h317v-533h381q434 0 434 -428v-473h-317v444q0 158 -152 158h-346v-602h-317z" />
<glyph unicode="&#x4bb;" horiz-adv-x="1153" d="M96 0v1434h310v-613h4q100 156 303 156q164 0 256 -94q100 -100 100 -297v-586h-309v500q0 205 -172 205q-182 0 -182 -230v-475h-310z" />
<glyph unicode="&#x4bc;" horiz-adv-x="1976" d="M31 954q0 74 18 144h273q-12 -49 -15 -76q-4 -37 -4 -53q0 -115 115 -115h39q39 279 239 444q201 166 512 166q346 0 539 -209q186 -199 186 -538v-133h-1122q70 -297 434 -297q217 0 457 141l149 -291q-250 -168 -594 -168q-342 0 -552 168q-205 162 -248 445h-39 q-387 0 -387 372zM805 854h770q-45 307 -365 307q-344 0 -405 -307z" />
<glyph unicode="&#x4bd;" horiz-adv-x="1294" d="M10 657q0 43 13 105h192q-14 -55 -14 -96q0 -84 90 -84h10q33 182 166 290q133 102 326 103q219 0 342 -125q127 -133 127 -381v-70h-680q35 -172 241 -172q74 0 160 29q53 18 115 57l114 -233q-184 -111 -391 -111q-219 0 -360 117q-143 117 -166 313h-25 q-125 0 -192 70q-68 68 -68 188zM586 582h377q-4 84 -54 129q-47 45 -127 45q-178 0 -196 -174z" />
<glyph unicode="&#x4be;" horiz-adv-x="1976" d="M31 954q0 74 18 144h273q-12 -49 -15 -76q-4 -37 -4 -53q0 -115 115 -115h39q39 279 239 444q201 166 512 166q346 0 539 -209q186 -199 186 -538v-133h-1122q70 -297 434 -297q217 0 457 141l149 -291q-129 -86 -297 -131q-152 -141 -151 -199q0 -45 53 -45q23 0 80 13 l25 -193q-102 -16 -144 -16q-227 0 -227 174q0 100 137 231q-14 -2 -70 -2q-342 0 -552 168q-205 162 -248 445h-39q-387 0 -387 372zM805 854h770q-45 307 -365 307q-344 0 -405 -307z" />
<glyph unicode="&#x4bf;" horiz-adv-x="1294" d="M10 657q0 43 13 105h192q-14 -55 -14 -96q0 -84 90 -84h10q33 182 166 290q133 102 326 103q219 0 342 -125q127 -133 127 -381v-70h-680q35 -172 241 -172q74 0 160 29q53 18 115 57l114 -233q-33 -20 -116 -60h4q-168 -156 -168 -213q0 -45 53 -45q18 0 80 13l25 -193 q-102 -16 -146 -16q-225 0 -225 174q0 98 135 229h-33q-219 0 -360 117q-143 117 -166 313h-25q-125 0 -192 70q-68 68 -68 188zM586 582h377q-4 84 -54 129q-47 45 -127 45q-178 0 -196 -174z" />
<glyph unicode="&#x4c0;" horiz-adv-x="567" d="M125 0v1434h317v-1434h-317z" />
<glyph unicode="&#x4c1;" horiz-adv-x="2308" d="M0 0l637 750l-545 684h418l494 -654v654h301v-654l487 654h424l-545 -684l637 -750h-448l-555 707v-707h-301v707l-558 -707h-446zM817 1769h211q4 -123 125 -122q123 0 125 122h211q-8 -135 -92 -208q-90 -78 -244 -78q-313 0 -336 286z" />
<glyph unicode="&#x4c2;" horiz-adv-x="1753" d="M10 0l422 516l-360 430h381l278 -375v375h291v-375l278 375h381l-360 -430l422 -516h-397l-324 434v-434h-291v434l-321 -434h-400zM541 1339h194q8 -143 142 -143q133 0 141 143h194q0 -147 -96 -239q-94 -92 -239 -92q-143 0 -240 92q-96 92 -96 239z" />
<glyph unicode="&#x4c3;" horiz-adv-x="1419" d="M125 0v1434h317v-600l514 600h433l-617 -633h90q219 0 320 -86q102 -92 102 -303v-404q0 -418 -442 -418h-150v297h115q84 0 121 37q39 39 39 135v303q0 92 -45 132q-45 37 -148 36q-150 0 -332 -20v-510h-317z" />
<glyph unicode="&#x4c4;" horiz-adv-x="1095" d="M94 0v946h309v-336l279 336h381l-412 -424l35 2h33q342 0 342 -350v-151q0 -213 -109 -328q-100 -104 -282 -105h-117v279h86q113 0 113 154v157q0 119 -121 119q-117 0 -228 -12v-287h-309z" />
<glyph unicode="&#x4c5;" horiz-adv-x="1574" d="M20 -6v297h91q84 0 84 100v1043h1148v-1241h222l-199 -459h-221l104 266h-223v1137h-514v-775q0 -369 -369 -368h-123z" />
<glyph unicode="&#x4c6;" horiz-adv-x="1249" d="M20 -2v287h64q84 0 84 114v547h895v-753h207l-197 -459h-223l104 266h-200v668h-277v-326q0 -172 -94 -260q-90 -84 -250 -84h-113z" />
<glyph unicode="&#x4c7;" horiz-adv-x="1480" d="M125 0v1434h317v-533h596v533h318v-1477q0 -367 -383 -367h-166v297h108q121 0 123 113v602h-596v-602h-317z" />
<glyph unicode="&#x4c8;" d="M94 0v946h309v-315h342v315h310v-946h-2v-47q0 -362 -348 -363h-140v277h82q47 0 70 16q27 20 26 86v33h2v350h-342v-352h-309z" />
<glyph unicode="&#x4c9;" horiz-adv-x="1570" d="M125 0v1434h317v-533h596v533h318v-1241h205l-199 -459h-221l102 266h-205v602h-596v-602h-317z" />
<glyph unicode="&#x4ca;" horiz-adv-x="1241" d="M94 0v946h309v-315h342v315h310v-753h207l-199 -459h-223l104 266h-199v352h-342v-352h-309z" />
<glyph unicode="&#x4cb;" horiz-adv-x="1288" d="M31 961v473h317v-445q0 -158 152 -158h346v603h317v-1434h-270v-287h-297v514h250v305h-381q-434 0 -434 429z" />
<glyph unicode="&#x4cc;" horiz-adv-x="1032" d="M20 655v291h310v-266q0 -106 116 -107h193v373h309v-946h-190v-266h-258v418h139v153h-270q-348 0 -349 350z" />
<glyph unicode="&#x4cd;" horiz-adv-x="1974" d="M0 0l367 1434h239l301 -732h4l301 732h240l315 -1241h197l-199 -459h-223l105 266h-160l-195 817h-4l-266 -612h-227l-265 612h-4l-194 -817h-332z" />
<glyph unicode="&#x4ce;" horiz-adv-x="1552" d="M20 0l295 946h224l172 -414h4l174 414h223l234 -753h227l-199 -459h-223l104 266h-149l-141 502h-4l-152 -381h-191l-151 381h-4l-141 -502h-302z" />
<glyph unicode="&#x4cf;" horiz-adv-x="499" d="M96 0v946h310v-946h-310z" />
<glyph unicode="&#x4d0;" horiz-adv-x="1466" d="M0 0l565 1434h336l565 -1434h-354l-102 291h-553l-101 -291h-356zM397 1769h211q4 -123 125 -122q123 0 125 122h211q-8 -135 -92 -208q-90 -78 -244 -78q-313 0 -336 286zM557 573h354l-178 506z" />
<glyph unicode="&#x4d1;" horiz-adv-x="1200" d="M43 473q0 238 133 377q121 127 316 127q211 0 309 -160h4v129h309v-946h-309v129h-4q-98 -160 -309 -160q-195 0 -316 127q-133 139 -133 377zM236 1339h194q8 -143 141 -143t142 143h194q0 -147 -96 -239q-94 -92 -240 -92q-143 0 -239 92t-96 239zM360 473 q0 -100 64 -162q59 -59 154 -59q96 0 155 59q64 62 64 162t-64 162q-59 59 -155 59q-94 0 -154 -59q-63 -61 -64 -162z" />
<glyph unicode="&#x4d2;" horiz-adv-x="1466" d="M0 0l565 1434h336l565 -1434h-354l-102 291h-553l-101 -291h-356zM375 1522v233h272v-233h-272zM557 573h354l-178 506zM819 1522v233h275v-233h-275z" />
<glyph unicode="&#x4d3;" horiz-adv-x="1200" d="M43 473q0 238 133 377q121 127 316 127q211 0 309 -160h4v129h309v-946h-309v129h-4q-98 -160 -309 -160q-195 0 -316 127q-133 139 -133 377zM274 1053v276h234v-276h-234zM360 473q0 -100 64 -162q59 -59 154 -59q96 0 155 59q64 62 64 162t-64 162q-59 59 -155 59 q-94 0 -154 -59q-63 -61 -64 -162zM637 1053v276h233v-276h-233z" />
<glyph unicode="&#x4d4;" horiz-adv-x="2045" d="M0 0l948 1434h1024v-289h-528v-234h473v-288h-473v-334h536v-289h-843v291h-547l-176 -291h-414zM762 573h375v619z" />
<glyph unicode="&#x4d5;" horiz-adv-x="1695" d="M49 307q0 154 101 242q102 90 274 90q178 0 278 -86h5v41q0 59 -45 98q-55 49 -166 49q-94 0 -271 -41l-61 236q199 41 334 41q264 0 346 -174h4q117 172 358 172q209 0 328 -123q127 -133 127 -383v-70h-672q41 -172 238 -172q76 0 157 29q63 20 115 57l113 -233 q-180 -111 -385 -111q-272 0 -393 191h-5q-143 -190 -397 -191q-178 0 -280 92q-103 90 -103 246zM389 319q0 -119 156 -118q74 0 119 30q49 35 49 88q0 55 -49 89q-45 33 -117 32q-158 0 -158 -121zM991 582h371q-4 84 -53 129q-47 45 -125 45q-72 0 -125 -41 q-57 -45 -68 -133z" />
<glyph unicode="&#x4d6;" horiz-adv-x="1085" d="M125 0v1434h887v-289h-570v-234h512v-288h-512v-334h580v-289h-897zM262 1769h211q4 -123 125 -122q123 0 125 122h211q-8 -135 -92 -208q-90 -78 -244 -78q-313 0 -336 286z" />
<glyph unicode="&#x4d7;" horiz-adv-x="1046" d="M43 469q0 236 141 373q137 133 359 133q219 0 342 -125q127 -133 127 -381v-70h-678q29 -172 241 -172q76 0 158 29q57 18 117 57l113 -233q-180 -111 -392 -111q-240 0 -383 137q-145 139 -145 363zM205 1339h194q8 -143 142 -143q133 0 141 143h195q0 -147 -97 -239 q-94 -92 -239 -92q-143 0 -240 92q-96 92 -96 239zM336 582h377q-4 84 -54 129q-47 45 -127 45q-176 0 -196 -174z" />
<glyph unicode="&#x4d8;" horiz-adv-x="1574" d="M43 705v145h1124q-70 297 -428 297q-215 0 -467 -129l-145 305q293 141 608 141q373 0 586 -200q209 -199 209 -545q0 -342 -203 -545q-203 -205 -551 -205t-545 207q-188 201 -188 529zM401 580q53 -307 377 -308q336 0 393 308h-770z" />
<glyph unicode="&#x4d9;" horiz-adv-x="1046" d="M35 477v70h678q-27 172 -242 172q-76 0 -158 -29q-57 -18 -116 -57l-113 233q184 111 391 111q240 0 383 -137q145 -139 146 -363q0 -233 -142 -373q-137 -133 -358 -133q-219 0 -342 125q-127 133 -127 381zM334 365q4 -84 53 -129q47 -45 127 -46q176 0 197 175h-377z " />
<glyph unicode="&#x4da;" horiz-adv-x="1574" d="M43 705v145h1124q-70 297 -428 297q-215 0 -467 -129l-145 305q293 141 608 141q373 0 586 -200q209 -199 209 -545q0 -342 -203 -545q-203 -205 -551 -205t-545 207q-188 201 -188 529zM401 580q53 -307 377 -308q336 0 393 308h-770zM410 1522v233h272v-233h-272z M854 1522v233h274v-233h-274z" />
<glyph unicode="&#x4db;" horiz-adv-x="1046" d="M35 477v70h678q-27 172 -242 172q-76 0 -158 -29q-57 -18 -116 -57l-113 233q184 111 391 111q240 0 383 -137q145 -139 146 -363q0 -233 -142 -373q-137 -133 -358 -133q-219 0 -342 125q-127 133 -127 381zM223 1053v276h234v-276h-234zM334 365q4 -84 53 -129 q47 -45 127 -46q176 0 197 175h-377zM586 1053v276h233v-276h-233z" />
<glyph unicode="&#x4dc;" horiz-adv-x="2308" d="M0 0l637 750l-545 684h418l494 -654v654h301v-654l487 654h424l-545 -684l637 -750h-448l-555 707v-707h-301v707l-558 -707h-446zM795 1522v233h272v-233h-272zM1239 1522v233h274v-233h-274z" />
<glyph unicode="&#x4dd;" horiz-adv-x="1753" d="M10 0l422 516l-360 430h381l278 -375v375h291v-375l278 375h381l-360 -430l422 -516h-397l-324 434v-434h-291v434l-321 -434h-400zM580 1053v276h233v-276h-233zM942 1053v276h234v-276h-234z" />
<glyph unicode="&#x4de;" horiz-adv-x="1226" d="M23 100l141 277q213 -111 407 -111q283 0 283 164q0 168 -377 168h-131v281h133q315 0 316 157q0 131 -234 131q-178 0 -393 -90l-115 289q127 45 221 66q139 33 293 32q549 0 549 -364q0 -270 -317 -338v-4q375 -51 375 -367q0 -190 -134 -299q-150 -123 -458 -123 q-317 0 -559 131zM250 1522v233h272v-233h-272zM694 1522v233h275v-233h-275z" />
<glyph unicode="&#x4df;" horiz-adv-x="919" d="M12 43l88 225q61 -23 152 -41q90 -20 170 -20q152 0 151 80q0 92 -143 92h-188v205h192q106 0 107 84q0 76 -138 75q-100 0 -288 -47l-68 224l39 10l41 8l47 10l45 10q111 18 219 19q207 0 305 -55q111 -63 111 -205q0 -176 -201 -213v-4q106 -16 166 -78q59 -66 60 -162 q0 -291 -447 -291q-248 0 -420 74zM139 1053v276h234v-276h-234zM502 1053v276h233v-276h-233z" />
<glyph unicode="&#x4e0;" horiz-adv-x="1155" d="M10 106l144 271q213 -109 389 -109q236 0 235 166q0 176 -321 176h-158v250l317 291h-485v283h924v-258l-451 -363q66 18 121 18q168 0 274 -106q113 -113 113 -307q0 -201 -125 -314q-143 -135 -440 -135q-326 0 -537 137z" />
<glyph unicode="&#x4e1;" horiz-adv-x="1036" d="M-31 -336l109 260q190 -90 364 -90q244 0 244 176t-291 176h-188v205l332 277h-490v278h871v-258l-418 -319q55 10 100 10q166 0 272 -96q111 -100 111 -277q0 -209 -125 -321q-133 -125 -409 -125q-268 0 -482 104z" />
<glyph unicode="&#x4e2;" horiz-adv-x="1523" d="M125 0v1434h317v-906h2l686 906h269v-1434h-318v903h-2l-684 -903h-270zM446 1534v195h664v-195h-664z" />
<glyph unicode="&#x4e3;" horiz-adv-x="1177" d="M94 0v946h309v-512h5l401 512h272v-946h-309v512h-4l-401 -512h-273zM274 1071v203h666v-203h-666z" />
<glyph unicode="&#x4e4;" horiz-adv-x="1523" d="M125 0v1434h317v-906h2l686 906h269v-1434h-318v903h-2l-684 -903h-270zM422 1522v233h272v-233h-272zM866 1522v233h275v-233h-275z" />
<glyph unicode="&#x4e5;" horiz-adv-x="1177" d="M94 0v946h309v-512h5l401 512h272v-946h-309v512h-4l-401 -512h-273zM309 1053v276h234v-276h-234zM672 1053v276h233v-276h-233z" />
<glyph unicode="&#x4e6;" horiz-adv-x="1597" d="M43 717q0 330 219 543q211 205 537 204q326 0 538 -204q217 -211 217 -543t-217 -543q-213 -205 -538 -205q-326 0 -537 205q-219 213 -219 543zM393 717q0 -190 117 -307q113 -113 289 -113t288 113q117 117 117 307t-117 307q-113 113 -288 113q-176 0 -289 -113 q-117 -117 -117 -307zM440 1522v233h273v-233h-273zM885 1522v233h274v-233h-274z" />
<glyph unicode="&#x4e7;" d="M43 473q0 225 152 367q145 137 378 137q236 0 381 -137q152 -142 152 -367t-152 -364q-150 -139 -381 -140q-229 0 -378 140q-152 139 -152 364zM276 1053v276h234v-276h-234zM352 473q0 -96 66 -162q63 -59 155 -59q94 0 158 59q63 61 64 162q0 100 -64 162 q-63 59 -158 59q-92 0 -155 -59q-66 -66 -66 -162zM639 1053v276h233v-276h-233z" />
<glyph unicode="&#x4e8;" horiz-adv-x="1597" d="M43 717q0 330 219 543q211 205 537 204q326 0 538 -204q217 -211 217 -543t-217 -543q-213 -205 -538 -205q-326 0 -537 205q-219 213 -219 543zM379 637q27 -160 141 -256q113 -94 279 -94t278 94q115 96 142 256h-840zM379 797h840q-27 160 -142 256q-113 94 -278 94 q-166 0 -279 -94q-114 -96 -141 -256z" />
<glyph unicode="&#x4e9;" d="M43 473q0 225 152 367q145 137 378 137q236 0 381 -137q152 -142 152 -367t-152 -364q-150 -139 -381 -140q-229 0 -378 140q-152 139 -152 364zM340 412q18 -84 84 -133q63 -47 149 -48q86 0 152 48q61 47 84 133h-469zM340 535h469q-23 86 -84 133q-66 47 -152 47 t-149 -47q-66 -49 -84 -133z" />
<glyph unicode="&#x4ea;" horiz-adv-x="1597" d="M43 717q0 330 219 543q211 205 537 204q326 0 538 -204q217 -211 217 -543t-217 -543q-213 -205 -538 -205q-326 0 -537 205q-219 213 -219 543zM379 637q27 -160 141 -256q113 -94 279 -94t278 94q115 96 142 256h-840zM379 797h840q-27 160 -142 256q-113 94 -278 94 q-166 0 -279 -94q-114 -96 -141 -256zM440 1522v233h273v-233h-273zM885 1522v233h274v-233h-274z" />
<glyph unicode="&#x4eb;" d="M43 473q0 225 152 367q145 137 378 137q236 0 381 -137q152 -142 152 -367t-152 -364q-150 -139 -381 -140q-229 0 -378 140q-152 139 -152 364zM262 1053v276h234v-276h-234zM340 412q18 -84 84 -133q63 -47 149 -48q86 0 152 48q61 47 84 133h-469zM340 535h469 q-23 86 -84 133q-66 47 -152 47t-149 -47q-66 -49 -84 -133zM625 1053v276h233v-276h-233z" />
<glyph unicode="&#x4ec;" horiz-adv-x="1347" d="M23 125l172 283q170 -111 358 -111q326 0 389 295h-530v291h520q-80 254 -379 254q-188 0 -358 -111l-172 283q244 156 538 155q334 0 533 -192q211 -203 211 -555t-211 -555q-199 -193 -533 -193q-295 0 -538 156zM211 1522v233h272v-233h-272zM655 1522v233h275v-233 h-275z" />
<glyph unicode="&#x4ed;" horiz-adv-x="927" d="M12 53l127 258q102 -57 213 -57q162 0 203 127h-281v184h281q-41 127 -203 127q-111 0 -213 -57l-127 258q158 84 361 84q229 0 364 -129q140 -135 140 -375t-140 -375q-135 -129 -364 -129q-205 0 -361 84zM109 1053v276h233v-276h-233zM471 1053v276h234v-276h-234z " />
<glyph unicode="&#x4ee;" horiz-adv-x="1460" d="M0 1434h420l325 -713l349 713h366l-696 -1434h-367l170 352zM424 1534v195h663v-195h-663z" />
<glyph unicode="&#x4ef;" horiz-adv-x="1146" d="M10 946h357l221 -522l235 522h314l-629 -1356h-311l237 500zM258 1071v203h666v-203h-666z" />
<glyph unicode="&#x4f0;" horiz-adv-x="1460" d="M0 1434h420l325 -713l349 713h366l-696 -1434h-367l170 352zM397 1522v233h273v-233h-273zM842 1522v233h274v-233h-274z" />
<glyph unicode="&#x4f1;" horiz-adv-x="1146" d="M10 946h357l221 -522l235 522h314l-629 -1356h-311l237 500zM293 1053v276h233v-276h-233zM655 1053v276h234v-276h-234z" />
<glyph unicode="&#x4f2;" horiz-adv-x="1460" d="M0 1434h420l325 -713l349 713h366l-696 -1434h-367l170 352zM528 1522l201 245h240l-232 -245h-209zM852 1522l201 245h239l-231 -245h-209z" />
<glyph unicode="&#x4f3;" horiz-adv-x="1146" d="M10 946h357l221 -522l235 522h314l-629 -1356h-311l237 500zM322 1030l249 316h250l-291 -316h-208zM647 1030l250 316h250l-291 -316h-209z" />
<glyph unicode="&#x4f4;" horiz-adv-x="1288" d="M31 961v473h317v-445q0 -158 152 -158h346v603h317v-1434h-317v532h-381q-434 0 -434 429zM238 1522v233h272v-233h-272zM682 1522v233h274v-233h-274z" />
<glyph unicode="&#x4f5;" horiz-adv-x="1042" d="M20 655v291h310v-266q0 -106 116 -107h193v373h309v-946h-309v305h-270q-348 0 -349 350zM186 1053v276h234v-276h-234zM549 1053v276h233v-276h-233z" />
<glyph unicode="&#x4f8;" horiz-adv-x="1789" d="M125 0v1434h317v-510h275q215 0 340 -105q147 -123 147 -358q0 -236 -147 -357q-125 -104 -340 -104h-592zM442 287h230q203 0 202 174q0 176 -202 176h-230v-350zM541 1522v233h272v-233h-272zM985 1522v233h275v-233h-275zM1348 0v1434h317v-1434h-317z" />
<glyph unicode="&#x4f9;" horiz-adv-x="1468" d="M94 0v946h309v-258h211q170 0 265 -82q102 -90 102 -262q0 -170 -102 -260q-96 -84 -265 -84h-520zM403 238h146q121 0 121 106t-121 107h-146v-213zM446 1053v276h234v-276h-234zM809 1053v276h233v-276h-233zM1065 0v946h309v-946h-309z" />
<glyph unicode="&#x4fc;" horiz-adv-x="1425" d="M2 0l537 760l-482 674h398l284 -424l285 424h397l-481 -672l301 -418q168 -242 168 -407q0 -176 -92 -256q-106 -90 -348 -91h-86l2 297h65q121 0 121 74q0 61 -102 213l-230 338l-340 -512h-397z" />
<glyph unicode="&#x4fd;" horiz-adv-x="1103" d="M10 0l383 496l-348 450h356l174 -250l175 250h356l-348 -450l225 -291q131 -168 131 -318q0 -147 -94 -223q-88 -74 -254 -74h-139v277h82q96 0 96 76q0 45 -60 129l-170 223l-210 -295h-355z" />
<glyph unicode="&#x2000;" horiz-adv-x="884" />
<glyph unicode="&#x2001;" horiz-adv-x="1769" />
<glyph unicode="&#x2002;" horiz-adv-x="884" />
<glyph unicode="&#x2003;" horiz-adv-x="1769" />
<glyph unicode="&#x2004;" horiz-adv-x="589" />
<glyph unicode="&#x2005;" horiz-adv-x="442" />
<glyph unicode="&#x2006;" horiz-adv-x="294" />
<glyph unicode="&#x2007;" horiz-adv-x="294" />
<glyph unicode="&#x2008;" horiz-adv-x="221" />
<glyph unicode="&#x2009;" horiz-adv-x="353" />
<glyph unicode="&#x200a;" horiz-adv-x="98" />
<glyph unicode="&#x2010;" horiz-adv-x="862" d="M102 406v276h660v-276h-660z" />
<glyph unicode="&#x2011;" horiz-adv-x="862" d="M102 406v276h660v-276h-660z" />
<glyph unicode="&#x2012;" horiz-adv-x="862" d="M102 406v276h660v-276h-660z" />
<glyph unicode="&#x2013;" horiz-adv-x="1503" d="M84 432v240h1335v-240h-1335z" />
<glyph unicode="&#x2014;" horiz-adv-x="2363" d="M102 440v232h2159v-232h-2159z" />
<glyph unicode="&#x2018;" horiz-adv-x="382" d="M51 967v284l170 320h111l-109 -320h115v-284h-287z" />
<glyph unicode="&#x2019;" horiz-adv-x="382" d="M45 1178v286h287v-286l-170 -320h-111l109 320h-115z" />
<glyph unicode="&#x201a;" horiz-adv-x="382" d="M45 0v287h287v-287l-170 -319h-111l109 319h-115z" />
<glyph unicode="&#x201c;" horiz-adv-x="755" d="M51 967v284l170 320h111l-109 -320h115v-284h-287zM424 967v284l168 320h113l-109 -320h113v-284h-285z" />
<glyph unicode="&#x201d;" horiz-adv-x="755" d="M45 1178v286h287v-286l-170 -320h-111l109 320h-115zM416 1178v286h286v-286l-167 -320h-113l108 320h-114z" />
<glyph unicode="&#x201e;" horiz-adv-x="755" d="M45 0v287h287v-287l-170 -319h-111l109 319h-115zM416 0v287h286v-287l-167 -319h-113l108 319h-114z" />
<glyph unicode="&#x2026;" horiz-adv-x="1550" d="M84 0v330h328v-330h-328zM610 0v330h328v-330h-328zM1137 0v330h327v-330h-327z" />
<glyph unicode="&#x202f;" horiz-adv-x="353" />
<glyph unicode="&#x2039;" horiz-adv-x="718" d="M31 487l336 359h331l-336 -359l336 -360h-331z" />
<glyph unicode="&#x203a;" horiz-adv-x="718" d="M20 127l334 360l-334 359h332l334 -359l-334 -360h-332z" />
<glyph unicode="&#x205f;" horiz-adv-x="442" />
<glyph unicode="&#x20ac;" horiz-adv-x="1384" d="M10 580l31 61h152q-2 12 -3 53q0 53 3 68h-173l31 61h148q35 268 202 422q186 168 504 168q231 0 418 -94l-133 -266q-74 33 -131 47q-80 20 -158 20q-313 0 -377 -297h574l-31 -61h-553q-2 -14 -2 -70q0 -41 2 -51h500l-31 -61h-463q27 -147 123 -232q102 -86 258 -86 q168 0 336 92v-309q-139 -76 -340 -76q-317 0 -500 174q-170 162 -200 437h-187z" />
<glyph unicode="&#x2122;" horiz-adv-x="1898" d="M61 1204v230h684v-230h-225v-633h-233v633h-226zM686 571l215 863h193l168 -459l168 459h190l217 -863h-238l-108 455l-141 -342h-179l-141 342l-106 -455h-238z" />
<glyph unicode="&#x25fc;" horiz-adv-x="942" d="M0 0v942h942v-942h-942z" />
</font>
</defs>
</svg>
