<svg width="10" height="11" viewBox="0 0 10 11" fill="none" xmlns="http://www.w3.org/2000/svg">
<path d="M8.17138 10.0087C8.12885 10.0087 8.08631 10.0087 8.04378 10.0087C6.68278 9.83855 5.32177 9.3707 4.17342 8.64766C3.11014 7.96716 2.17444 7.03147 1.49394 5.96819C0.728374 4.81984 0.260529 3.45882 0.132935 2.09781C0.132935 1.75756 0.217996 1.4173 0.430653 1.16211C0.643311 0.906923 0.941031 0.736808 1.28128 0.694276C1.32381 0.694276 1.36635 0.694276 1.40888 0.694276H2.68482C3.32279 0.694276 3.8757 1.16211 3.96077 1.80008C4.0033 2.18287 4.08836 2.56567 4.21595 2.90592C4.38608 3.37376 4.25848 3.88415 3.91823 4.26693L3.62051 4.56463C4.13089 5.33019 4.76887 6.01071 5.57696 6.52109L5.87468 6.22337C6.21493 5.88311 6.76784 5.75551 7.23569 5.92564C7.57594 6.05323 7.95872 6.13831 8.34151 6.18084C8.97948 6.26591 9.44732 6.81882 9.44732 7.45679V8.73273C9.44732 9.07298 9.31973 9.41323 9.06454 9.62588C8.80935 9.83854 8.51163 10.0087 8.17138 10.0087ZM2.68482 1.54491H1.40888C1.28128 1.54491 1.15369 1.62998 1.06863 1.71504C1.02609 1.8001 0.983564 1.88515 0.983564 2.01274C1.11116 3.24615 1.53647 4.43704 2.21697 5.50033C2.85495 6.47855 3.66304 7.32918 4.64127 7.92462C5.70455 8.60513 6.89544 9.03045 8.12885 9.15805C8.29898 9.15805 8.38403 9.11549 8.4691 9.03043C8.55416 8.94537 8.59669 8.86033 8.59669 8.73273V7.45679C8.59669 7.24413 8.42657 7.07401 8.21391 7.03147C7.7886 6.98894 7.36328 6.86133 6.93797 6.6912C6.76784 6.64867 6.59771 6.64867 6.47012 6.77627L5.91721 7.32917C5.78961 7.45677 5.57696 7.4993 5.40683 7.41424C4.25848 6.77627 3.32279 5.84059 2.68482 4.69224C2.64229 4.52212 2.68482 4.30946 2.81242 4.18186L3.36532 3.62896C3.45038 3.54389 3.49292 3.33124 3.45039 3.20364C3.28026 2.77833 3.1952 2.35301 3.11014 1.9277C3.11014 1.71504 2.89748 1.54491 2.68482 1.54491ZM7.74606 4.52211C7.53341 4.52211 7.36328 4.39452 7.32075 4.18186C7.19315 3.50136 6.64025 2.99097 5.95974 2.82085C5.74709 2.77832 5.57696 2.56565 5.61949 2.31047C5.66202 2.09781 5.87468 1.92769 6.12987 1.97022C7.15062 2.18288 7.95872 2.94845 8.12885 3.9692C8.17138 4.18186 8.04379 4.43705 7.7886 4.47959C7.7886 4.47959 7.78859 4.52211 7.74606 4.52211ZM9.44732 4.47959C9.23466 4.47959 9.06454 4.30945 9.02201 4.09679C8.85188 2.52313 7.61847 1.28973 6.00228 1.07707C5.78962 1.03454 5.61949 0.821865 5.61949 0.609208C5.61949 0.396551 5.87468 0.22644 6.08734 0.22644C8.08632 0.439098 9.61745 1.97023 9.83011 3.9692C9.87264 4.18186 9.70251 4.39451 9.44732 4.43704C9.48985 4.47957 9.44732 4.47959 9.44732 4.47959Z" fill="#342B2B"/>
</svg>
