<svg xmlns="http://www.w3.org/2000/svg">
    <symbol id="s-015" width="88" height="89" viewBox="0 0 88 89" fill="none">
<path fill-rule="evenodd" clip-rule="evenodd" d="M76.0105 27.0246V2.24247C76.0105 1.85591 75.8576 1.48517 75.5855 1.21183C75.3133 0.938481 74.9443 0.784916 74.5594 0.784912H7.80921C7.42436 0.784916 7.05527 0.938481 6.78314 1.21183C6.51101 1.48517 6.35813 1.85591 6.35812 2.24247V39.4366H7.94045L9.26031 37.9749V3.70003H12.1625V37.3065H14.6104L15.0647 35.1626V13.903H17.9669V32.3741H20.4282L20.869 30.0572V13.0492L24.3723 9.53028H52.1919L56.1202 13.476C56.3923 13.7494 56.7614 13.903 57.1463 13.903H61.4996V22.6483V66.3752V85.3235H58.5974V88.2386H84.717V85.3235H81.2606L76.0105 74.7765V66.2514V27.0246ZM18.8169 10.9878L22.3201 7.46902V3.70003H15.0647V10.9878H18.8169ZM51.3419 6.61516H25.2223V3.70003H51.3419V6.61516ZM61.4996 3.70003H54.2441V7.46902L57.7473 10.9878H61.4996V3.70003ZM64.4018 3.70003H67.3039V85.3235H64.4018V3.70003ZM70.2061 74.7765L73.1083 80.6068V3.70003H70.2061V74.7765ZM70.2061 85.3235V81.2949L72.2115 85.3235H70.2061ZM76.0105 85.3235H78.0158L76.0105 81.2949V85.3235Z" fill="#342B2B"/>
<path fill-rule="evenodd" clip-rule="evenodd" d="M6.35812 60.5449V74.7765L0.706982 86.1292C0.59633 86.3514 0.544072 86.5984 0.555173 86.8466C0.566274 87.0948 0.640364 87.336 0.770406 87.5474C0.900448 87.7587 1.08212 87.9332 1.29818 88.0542C1.51423 88.1751 1.75749 88.2386 2.00485 88.2386H26.6734V85.3235H20.869V66.3752H17.9669V85.3235H15.0647V65.871L13.5358 63.8914L12.1625 64.1397V85.3235H9.26031V60.5449H6.35812ZM6.35812 85.3235V81.2949L4.35278 85.3235H6.35812Z" fill="#342B2B"/>
<path fill-rule="evenodd" clip-rule="evenodd" d="M6.35808 39.4366C4.97438 40.3648 3.77982 41.5499 2.83858 42.9282C1.92559 44.2585 1.26901 45.749 0.902845 47.3224C0.670399 48.3119 0.553235 49.3253 0.553712 50.342V59.0874C0.553716 59.4739 0.7066 59.8447 0.978732 60.118C1.25086 60.3914 1.61995 60.5449 2.0048 60.5449H9.75745C10.2458 61.9271 11.073 63.1634 12.1625 64.1397C13.5382 65.1382 14.6705 65.7099 15.0646 65.871C15.9962 66.2045 16.9778 66.3751 17.9668 66.3752H29.5756C29.8008 66.3752 30.023 66.3225 30.2245 66.2213C30.426 66.1201 30.6013 65.9732 30.7365 65.7921L34.6544 60.5449H37.3302C37.9321 62.2487 39.0439 63.7236 40.5134 64.7675C41.9828 65.8113 43.7378 66.3729 45.5376 66.3752H61.4996V63.4601H52.0201C52.7788 62.6106 53.3647 61.6203 53.7449 60.5449H57.1463C57.4509 60.5449 57.7477 60.4487 57.9948 60.2698C58.2419 60.0909 58.4267 59.8385 58.523 59.5483L59.6432 56.1723H61.4996V53.2571H58.5974C58.2929 53.2571 57.996 53.3534 57.7489 53.5323C57.5018 53.7111 57.3171 53.9636 57.2207 54.2538L56.1005 57.6298H54.2441C54.2441 55.3104 53.3268 53.086 51.694 51.4459C50.0613 49.8058 47.8467 48.8845 45.5376 48.8845C43.2285 48.8845 41.0139 49.8058 39.3811 51.4459C37.7483 53.086 36.831 55.3104 36.831 57.6298H31.5358L24.6778 52.119C24.4204 51.9122 24.1007 51.7996 23.7712 51.7996H15.0646C14.7351 51.7996 14.4154 51.9122 14.1581 52.119L7.30004 57.6298H3.4559V50.3837C4.04461 50.686 4.67186 50.9056 5.32007 51.0365L5.95262 51.1647C8.18129 51.6108 10.4872 51.4666 12.6436 50.7462L14.0729 50.267C14.324 50.1829 14.5475 50.0313 14.719 49.8287C14.8906 49.6261 15.0037 49.3802 15.046 49.1177C15.0884 48.8551 15.0584 48.5859 14.9594 48.3393C14.8604 48.0926 14.696 47.8779 14.4842 47.7183L11.7798 45.6815C10.2128 44.5048 8.47111 43.5831 6.61869 42.9505C8.5051 41.147 11.0093 40.1405 13.6135 40.1391H61.4996V37.224H54.2441V34.3089C54.2441 33.9838 54.136 33.6681 53.9368 33.4119C53.7377 33.1556 53.459 32.9736 53.145 32.8948L49.7768 32.049L50.8028 30.7609C52.0839 29.1447 53.7105 27.8385 55.562 26.9389C57.4136 26.0392 59.4428 25.5692 61.4996 25.5636V22.6484H43.7528C35.5404 22.6485 27.5356 25.2402 20.869 30.0573L17.9668 32.3741C17.3103 32.9515 16.6708 33.5516 16.0483 34.1746L15.0646 35.1626L12.1625 37.3065C11.1728 37.4173 10.1991 37.6416 9.26027 37.975C8.31423 38.2611 6.93129 39.0686 6.35808 39.4366ZM29.8698 28.3368C25.4684 30.168 21.4692 32.8521 18.1006 36.2359L17.1168 37.224H41.9379L48.5365 28.9399C49.569 27.6413 50.7873 26.5034 52.1518 25.5635H43.7528C38.9887 25.5632 34.2713 26.5056 29.8698 28.3368ZM51.342 35.4469L47.7823 34.553L45.6548 37.224H51.342V35.4469ZM10.4428 48.3181L10.0384 48.0136C8.44439 46.8167 6.63877 45.9343 4.71733 45.4134C4.39822 45.9924 4.13716 46.6018 3.93802 47.2326C4.4995 47.7078 5.17119 48.033 5.89097 48.1784L6.52352 48.3066C7.81689 48.5652 9.14795 48.5691 10.4428 48.3181ZM15.0667 62.6758C15.9486 63.1873 16.9485 63.4577 17.9668 63.4601C18.9851 63.4577 19.9851 63.1873 20.8669 62.6758C21.7488 62.1643 22.4818 61.4296 22.9929 60.5449H12.9407C13.4518 61.4296 14.1848 62.1643 15.0667 62.6758ZM15.5737 54.7147L11.946 57.6298H26.8898L23.2621 54.7147H15.5737ZM24.4482 63.4601H28.85L31.0267 60.5449H26.1762C25.7962 61.6211 25.209 62.6116 24.4482 63.4601ZM40.7114 54.3907C40.0736 55.3495 39.7332 56.4767 39.7332 57.6298C39.735 59.1756 40.347 60.6575 41.4352 61.7505C42.5233 62.8435 43.9987 63.4583 45.5376 63.4601C46.6856 63.4601 47.8078 63.1181 48.7623 62.4775C49.7168 61.8369 50.4608 60.9263 50.9001 59.861C51.3394 58.7956 51.4544 57.6234 51.2304 56.4924C51.0065 55.3614 50.4536 54.3226 49.6419 53.5072C48.8301 52.6918 47.7959 52.1366 46.67 51.9116C45.544 51.6866 44.377 51.8021 43.3163 52.2434C42.2557 52.6847 41.3492 53.4319 40.7114 54.3907Z" fill="#5E6398"/>
<path d="M36.3113 41.9637L34.5419 42.3191C31.8292 42.868 29.272 44.0165 27.056 45.6812L24.3517 47.7184C24.1398 47.878 23.9755 48.0928 23.8765 48.3395C23.7775 48.5862 23.7476 48.8553 23.79 49.1179C23.8324 49.3804 23.9455 49.6263 24.1171 49.8289C24.2886 50.0315 24.5121 50.1831 24.7633 50.2672L26.1921 50.7456C28.3484 51.4666 30.6545 51.6108 32.8832 51.164L33.5138 51.0373C34.8592 50.7631 36.1001 50.1128 37.0937 49.1612C38.0872 48.2096 38.7929 46.9954 39.1295 45.6586L39.2727 45.0836C39.3766 44.6663 39.3737 44.2293 39.2643 43.8134C39.155 43.3975 38.9426 43.0161 38.6471 42.7048C38.3516 42.3934 37.9824 42.1622 37.574 42.0326C37.1657 41.9031 36.7313 41.8794 36.3113 41.9637ZM36.3141 44.9516C36.1121 45.7537 35.6886 46.4822 35.0925 47.0531C34.4963 47.6241 33.7518 48.0143 32.9445 48.1788L32.3139 48.3055C31.0201 48.5648 29.6885 48.569 28.3932 48.3177L28.7972 48.0133C30.6663 46.6092 32.8231 45.6406 35.111 45.1777L36.3182 44.9352L36.3141 44.9516Z" fill="#5E6398"/>
<path d="M45.5376 59.0874C46.339 59.0874 46.9887 58.4348 46.9887 57.6298C46.9887 56.8248 46.339 56.1723 45.5376 56.1723C44.7362 56.1723 44.0865 56.8248 44.0865 57.6298C44.0865 58.4348 44.7362 59.0874 45.5376 59.0874Z" fill="#5E6398"/>
<path d="M60.0485 43.0542H54.2441V45.9693H60.0485V43.0542Z" fill="#5E6398"/>
<path fill-rule="evenodd" clip-rule="evenodd" d="M87.4551 39.8717C87.2176 38.593 86.7276 37.3749 86.014 36.2895C85.3003 35.204 84.3775 34.2731 83.3 33.5516C82.9277 33.3022 82.5808 33.0166 82.2643 32.6988L79.5561 29.9786C78.4675 28.8862 77.2805 27.8974 76.0105 27.0247V30.6745C76.5286 31.1071 77.028 31.5619 77.504 32.04L78.198 32.7371C77.5009 33.2833 76.7703 33.785 76.0105 34.239V37.5601C77.5213 36.7977 78.9475 35.877 80.2655 34.8133C80.7027 35.2456 81.1797 35.6353 81.6902 35.9772C82.6211 36.6011 83.3846 37.4459 83.9131 38.4368C83.9823 38.5667 84.0449 38.6996 84.1054 38.8334C81.7523 39.2202 79.5781 40.3356 77.8866 42.0236C77.7423 42.1686 77.6301 42.3425 77.5573 42.534C77.4844 42.7254 77.4526 42.9302 77.4639 43.1349C77.4752 43.3395 77.5294 43.5395 77.6228 43.7217C77.7163 43.904 77.847 44.0643 78.0063 44.1924L84.7171 49.5849V57.6298H83.266C83.2632 55.564 82.5334 53.5658 81.2058 51.9881C79.8781 50.4105 78.038 49.355 76.0105 49.0082V51.9841C77.2565 52.3074 78.3602 53.0373 79.1482 54.0593C79.9362 55.0812 80.3638 56.3372 80.3638 57.6298C80.3638 58.9224 79.9362 60.1784 79.1482 61.2004C78.3602 62.2223 77.2565 62.9523 76.0105 63.2756V66.2514C77.5398 65.9888 78.9719 65.3218 80.1594 64.3188C81.3468 63.3158 82.2468 62.0132 82.7668 60.5449H86.1682C86.553 60.5449 86.9221 60.3914 87.1942 60.118C87.4664 59.8447 87.6193 59.4739 87.6193 59.0874V41.6586C87.6193 41.0591 87.5643 40.461 87.4551 39.8717ZM84.7171 45.8519V41.6853C83.464 41.8697 82.2674 42.3312 81.2133 43.0363L84.7171 45.8519Z" fill="#5E6398"/>
</symbol>
</svg>
