<svg xmlns="http://www.w3.org/2000/svg">
    <symbol id="s-010" width="90" height="89" viewBox="0 0 90 89" fill="none">
<path fill-rule="evenodd" clip-rule="evenodd" d="M74.0788 43.8505C70.684 46.1189 66.6927 47.3296 62.6098 47.3296C57.1367 47.3234 51.8895 45.1465 48.0193 41.2764C44.1493 37.4063 41.9723 32.1591 41.9661 26.6859C41.9661 22.603 43.1768 18.6118 45.4452 15.2169C47.7136 11.8221 50.9377 9.17612 54.7098 7.61365C58.4819 6.05118 62.6327 5.64236 66.6372 6.4389C70.6417 7.23544 74.32 9.20157 77.2071 12.0886C80.0942 14.9757 82.0603 18.6541 82.8568 22.6586C83.6534 26.663 83.2446 30.8138 81.6821 34.5859C80.1196 38.3581 77.4737 41.5822 74.0788 43.8505ZM62.6098 44.3805C63.1064 44.3805 63.598 44.3589 64.0844 44.3186L67.0334 43.8207C68.0458 43.5588 69.0328 43.207 69.9826 42.7694L72.9316 41.0492C76.0432 38.8164 78.3456 35.6337 79.4927 31.9798C80.6398 28.3259 80.5694 24.3983 79.2923 20.7877L77.929 17.8386C76.3756 15.1501 74.1425 12.9174 71.4536 11.3645C68.7648 9.81163 65.7148 8.9932 62.6098 8.99134C58.8652 8.9901 55.2169 10.1772 52.1901 12.3817C49.1632 14.5863 46.9141 17.6945 45.7664 21.2588C44.6188 24.8232 44.6319 28.6598 45.8039 32.2162C46.9758 35.7727 49.2461 38.8654 52.288 41.0492L55.2371 42.7694C57.5491 43.8336 60.0646 44.3832 62.6098 44.3805Z" fill="#5E6398"/>
<path fill-rule="evenodd" clip-rule="evenodd" d="M2.15326 37.0078H22.797C23.0642 37.0078 23.3265 36.9352 23.5557 36.7976L30.5782 32.5841H36.7294C37.8895 37.6507 40.5116 42.2652 44.2705 45.8551C45.245 46.6791 47.6135 48.5891 49.2917 49.637C50.2577 50.2003 51.2585 50.7018 52.288 51.1386L55.2371 52.185C57.6332 52.8783 60.1154 53.2294 62.6098 53.2278C63.1046 53.2278 63.5961 53.2131 64.0844 53.1862L67.0334 52.8572C68.0286 52.6898 69.0132 52.4654 69.9826 52.185L72.9316 51.1386C76.2655 49.7232 79.2759 47.6431 81.7789 45.0253L84.7281 41.3402C87.6182 36.9999 89.1575 31.9005 89.1517 26.6859C89.1517 12.0507 77.2451 0.144043 62.6098 0.144043C50.0011 0.144043 39.4187 8.9818 36.7294 20.7877H30.5782L23.5557 16.5742C23.3265 16.4367 23.0642 16.3641 22.797 16.3641H2.15326C1.76219 16.3641 1.38713 16.5194 1.1106 16.796C0.83407 17.0725 0.678715 17.4476 0.678711 17.8386V35.5332C0.678715 35.9243 0.83407 36.2994 1.1106 36.5759C1.38713 36.8524 1.76219 37.0078 2.15326 37.0078ZM24.2715 32.9289L28.6952 30.2747V23.0972L24.2715 20.443V32.9289ZM75.7173 7.06925C71.8374 4.47684 67.276 3.09314 62.6098 3.09314C56.3548 3.10022 50.358 5.58816 45.935 10.0111C41.512 14.4341 39.0241 20.4309 39.017 26.6859C39.017 31.3522 40.4007 35.9136 42.9931 39.7934C45.5855 43.6732 49.2702 46.6972 53.5812 48.4828C57.8922 50.2685 62.636 50.7357 67.2125 49.8254C71.7891 48.9151 75.9929 46.6681 79.2924 43.3686C82.5919 40.0691 84.8389 35.8652 85.7493 31.2887C86.6596 26.7121 86.1924 21.9684 84.4067 17.6574C82.621 13.3463 79.5971 9.66166 75.7173 7.06925ZM36.2326 23.7368H31.6443V29.635H36.2326C36.013 27.6751 36.013 25.6968 36.2326 23.7368ZM21.3224 19.3132H3.62781V34.0587H21.3224V19.3132Z" fill="#5E6398"/>
<path d="M74.4062 85.6679H80.3044V88.617H74.4062V85.6679Z" fill="#5E6398"/>
<path d="M56.7116 85.6679H62.6098V88.617H56.7116V85.6679Z" fill="#5E6398"/>
<path d="M39.017 85.6679H44.9152V88.617H39.017V85.6679Z" fill="#5E6398"/>
<path d="M21.3224 85.6679H27.2206V88.617H21.3224V85.6679Z" fill="#5E6398"/>
    </symbol>
</svg>
