<svg xmlns="http://www.w3.org/2000/svg">
    <symbol id="s-014" width="88" height="88" viewBox="0 0 88 88" fill="none">
<path d="M18.0617 23.9557C18.858 23.9557 19.5035 23.3073 19.5035 22.5075C19.5035 21.7077 18.858 21.0593 18.0617 21.0593C17.2655 21.0593 16.62 21.7077 16.62 22.5075C16.62 23.3073 17.2655 23.9557 18.0617 23.9557Z" fill="#342B2B"/>
<path d="M26.7122 23.9557C27.5085 23.9557 28.154 23.3073 28.154 22.5075C28.154 21.7077 27.5085 21.0593 26.7122 21.0593C25.916 21.0593 25.2705 21.7077 25.2705 22.5075C25.2705 23.3073 25.916 23.9557 26.7122 23.9557Z" fill="#342B2B"/>
<path d="M19.5035 31.1966H20.9452C22.0919 31.1952 23.1913 30.7371 24.0022 29.9226C24.813 29.1082 25.2691 28.0039 25.2705 26.852V25.4039H22.387V26.852C22.3865 27.236 22.2345 27.6041 21.9642 27.8756C21.6939 28.1471 21.3275 28.2998 20.9452 28.3002H19.5035V31.1966Z" fill="#342B2B"/>
<path d="M3.64424 68.0007V86.2272C3.64423 86.4174 3.68152 86.6057 3.75397 86.7814C3.82643 86.9571 3.93262 87.1167 4.0665 87.2512C4.20038 87.3857 4.35932 87.4923 4.53425 87.5651C4.70917 87.6379 4.89665 87.6754 5.08599 87.6754H39.6879C39.8773 87.6754 40.0648 87.6379 40.2397 87.5651C40.4146 87.4923 40.5735 87.3857 40.7074 87.2512C40.8413 87.1167 40.9475 86.9571 41.02 86.7814C41.0924 86.6057 41.1297 86.4174 41.1297 86.2272V67.5965L43.4944 65.6171C43.6568 65.4812 43.7874 65.3111 43.8771 65.1188C43.9667 64.9266 44.0132 64.7169 44.0132 64.5046V50.535C44.0128 49.2437 43.6688 47.9761 43.0169 46.8632C42.365 45.7504 41.4288 44.8327 40.3053 44.2053L30.6014 38.7902L28.9811 36.349C30.5054 35.2829 31.7505 33.8626 32.6106 32.209C33.4707 30.5555 33.9202 28.7177 33.9209 26.852V17.0532C34.3746 16.6465 34.7376 16.1481 34.986 15.5906C35.2345 15.0332 35.3629 14.4293 35.3627 13.8185C35.3627 13.5937 35.3106 13.3719 35.2105 13.1708L33.9118 10.5621C33.8164 7.93884 32.7127 5.45483 30.8326 3.63171C28.9524 1.8086 26.442 0.788228 23.8287 0.784912H20.9452C18.3319 0.788228 15.8215 1.8086 13.9414 3.63171C12.0612 5.45483 10.9575 7.93884 10.8621 10.5621L9.56347 13.1708C9.46334 13.3719 9.41121 13.5937 9.41123 13.8185C9.41107 14.4293 9.53943 15.0332 9.78789 15.5906C10.0364 16.1481 10.3993 16.6465 10.853 17.0532V26.852C10.8537 28.7177 11.3032 30.5555 12.1633 32.209C13.0234 33.8626 14.2686 35.2829 15.7928 36.349L14.1725 38.7902L4.4686 44.2053C3.34507 44.8327 2.40891 45.7504 1.75701 46.8632C1.1051 47.9761 0.761145 49.2437 0.760742 50.535V64.5046C0.760736 64.6947 0.798026 64.8831 0.870485 65.0588C0.942944 65.2345 1.04915 65.3941 1.18304 65.5286L3.64424 68.0007ZM38.2462 84.779H6.52773V70.8971L8.39178 72.7694C8.52565 72.9039 8.68458 73.0106 8.8595 73.0834C9.03442 73.1562 9.2219 73.1936 9.41123 73.1936H16.62C16.8902 73.1936 17.155 73.1173 17.3841 72.9735L21.1839 70.5881L26.0674 73.0407C26.2676 73.1413 26.4884 73.1936 26.7122 73.1936H33.9209C34.2582 73.1936 34.5848 73.0748 34.844 72.858L38.2462 70.0102V84.779ZM27.9085 39.9542L23.8287 47.3305V38.3437C24.7131 38.2332 25.5816 38.0193 26.4166 37.7063L27.9085 39.9542ZM12.3228 14.1039L13.1858 12.3703H31.5881L32.4511 14.1039C32.385 14.4317 32.2082 14.7265 31.9506 14.9383C31.693 15.1502 31.3704 15.2662 31.0375 15.2667H13.7365C13.4035 15.2662 13.0809 15.1502 12.8233 14.9383C12.5657 14.7265 12.3889 14.4317 12.3228 14.1039ZM30.8926 9.47396H26.7122V4.28774C27.7708 4.75393 28.7027 5.46808 29.4301 6.3704C30.1574 7.27272 30.6589 8.33694 30.8926 9.47396ZM18.0617 4.28774V8.02578H20.9452V3.68126H23.8287V9.47396H13.8813C14.115 8.33694 14.6165 7.27272 15.3439 6.3704C16.0712 5.46808 17.0031 4.75393 18.0617 4.28774ZM13.7365 26.852V18.163H31.0375V26.852C31.0375 29.1565 30.1261 31.3666 28.5038 32.9961C26.8815 34.6256 24.6812 35.5411 22.387 35.5411C20.0927 35.5411 17.8924 34.6256 16.2701 32.9961C14.6479 31.3666 13.7365 29.1565 13.7365 26.852ZM20.9452 38.3437V47.3305L16.8654 39.9542L18.3573 37.7063C19.1923 38.0193 20.0608 38.2332 20.9452 38.3437ZM3.64424 50.535C3.64447 49.7602 3.85084 48.9996 4.24199 48.3319C4.63315 47.6642 5.19486 47.1136 5.86899 46.7371L14.6181 41.8548L21.1267 53.6225C21.2515 53.8482 21.4342 54.0364 21.6558 54.1673C21.8774 54.2983 22.1299 54.3673 22.387 54.3673C22.6441 54.3673 22.8965 54.2983 23.1181 54.1673C23.3397 54.0364 23.5224 53.8482 23.6473 53.6225L30.1558 41.8548L38.9049 46.7371C39.5791 47.1136 40.1408 47.6642 40.5319 48.3319C40.9231 48.9996 41.1295 49.7602 41.1297 50.535V63.8263L33.3989 70.2973H27.0526L24.0495 68.7891L28.909 65.7384L36.1045 61.4018C36.318 61.2732 36.4946 61.0911 36.6173 60.8735C36.74 60.6559 36.8044 60.4101 36.8044 60.16V54.3674C36.8044 54.1772 36.7672 53.9889 36.6947 53.8132C36.6223 53.6375 36.5161 53.4778 36.3822 53.3433C36.2483 53.2088 36.0894 53.1022 35.9144 53.0294C35.7395 52.9566 35.552 52.9192 35.3627 52.9192H28.154C27.9166 52.9192 27.6829 52.978 27.4737 53.0905C27.2644 53.203 27.086 53.3657 26.9544 53.5641L24.3193 57.5343L22.1322 58.413L14.3812 54.5203C14.1811 54.4197 13.9603 54.3673 13.7365 54.3674H9.41123C9.2219 54.3673 9.03441 54.4048 8.85949 54.4776C8.68457 54.5504 8.52563 54.657 8.39175 54.7915C8.25787 54.926 8.15167 55.0856 8.07922 55.2613C8.00676 55.437 7.96948 55.6253 7.96948 55.8155V61.6082C7.96948 61.7984 8.00676 61.9867 8.07922 62.1624C8.15167 62.3381 8.25787 62.4978 8.39175 62.6322C8.52563 62.7667 8.68457 62.8734 8.85949 62.9462C9.03441 63.0189 9.2219 63.0564 9.41123 63.0564H18.0617C18.2451 63.0564 18.4269 63.0212 18.5972 62.9528L24.5742 60.5513L26.2781 63.9744L16.2065 70.2973H10.0085L3.64424 63.9047V50.535ZM28.7472 62.4582L26.9341 58.8159L28.9255 55.8155H33.9209V59.3401L28.7472 62.4582ZM18.5502 59.8522L17.7841 60.16H10.853V57.2637H13.3961L18.5502 59.8522Z" fill="#342B2B"/>
<path d="M56.9889 63.0564H54.1054V65.9528H56.9889V63.0564Z" fill="#5E6398"/>
<path d="M77.1734 71.7455H74.2899V74.6418H77.1734V71.7455Z" fill="#5E6398"/>
<path d="M71.4064 71.7455H68.5229V74.6418H71.4064V71.7455Z" fill="#5E6398"/>
<path d="M71.4064 65.9528H68.5229V68.8491H71.4064V65.9528Z" fill="#5E6398"/>
<path d="M82.9404 32.6448H80.0569V36.9893H51.2219V32.6448H48.3384V36.9893H44.0132V39.8857H48.3384V77.5381H44.0132V80.4345H48.3384V84.779H51.2219V80.4345H80.0569V84.779H82.9404V80.4345H87.2656V77.5381H82.9404V61.6083H80.0569V77.5381H65.6394V60.1601H69.9646V57.2637H59.8724V60.1601H62.7559V70.2973H51.2219V60.1601H55.5472V57.2637H51.2219V52.9192H61.3142C61.5035 52.9192 61.691 52.8818 61.8659 52.809C62.0408 52.7362 62.1998 52.6296 62.3336 52.4951C62.4675 52.3606 62.5737 52.201 62.6462 52.0253C62.7186 51.8496 62.7559 51.6612 62.7559 51.4711V47.1265H67.0812V52.9192H69.9646V45.6784C69.9647 45.4882 69.9274 45.2999 69.8549 45.1242C69.7825 44.9485 69.6763 44.7888 69.5424 44.6544C69.4085 44.5199 69.2496 44.4132 69.0746 44.3404C68.8997 44.2677 68.7122 44.2302 68.5229 44.2302H61.3142C61.1248 44.2302 60.9373 44.2677 60.7624 44.3404C60.5875 44.4132 60.4286 44.5199 60.2947 44.6544C60.1608 44.7888 60.0546 44.9485 59.9822 45.1242C59.9097 45.2999 59.8724 45.4882 59.8724 45.6784V50.0229H51.2219V39.8857H80.0569V46.3066L73.5481 50.2293C73.3808 50.3301 73.2356 50.464 73.1213 50.6228C73.007 50.7817 72.9261 50.9622 72.8832 51.1533C72.8404 51.3445 72.8367 51.5425 72.8723 51.7352C72.9079 51.9279 72.982 52.1113 73.0902 52.2743L73.5746 53.004C74.443 54.3155 75.6211 55.3909 77.0037 56.1341C78.3863 56.8773 79.9305 57.2654 81.4986 57.2637C81.688 57.2638 81.8754 57.2263 82.0504 57.1535C82.2253 57.0807 82.3842 56.9741 82.5181 56.8396C82.652 56.7051 82.7582 56.5455 82.8306 56.3698C82.9031 56.1941 82.9404 56.0058 82.9404 55.8156V39.8857H87.2656V36.9893H82.9404V32.6448ZM62.7559 73.1936V77.5381H51.2219V73.1936H62.7559ZM80.0569 54.2093C78.6008 53.8854 77.2962 53.0772 76.3546 51.9156L80.0569 49.6843V54.2093Z" fill="#5E6398"/>
</symbol>
</svg>
