<svg xmlns="http://www.w3.org/2000/svg">
    <symbol id="s-03" width="87" height="87" viewBox="0 0 87 87" fill="none">
<path d="M85.0893 60.5742H75.0268V56.2617C75.0268 55.8805 74.8754 55.5148 74.6058 55.2452C74.3362 54.9757 73.9706 54.8242 73.5893 54.8242H62.0893C61.7081 54.8242 61.3425 54.9757 61.0729 55.2452C60.8033 55.5148 60.6518 55.8805 60.6518 56.2617V72.0742H50.5893C50.2081 72.0742 49.8425 72.2257 49.5729 72.4952C49.3033 72.7648 49.1518 73.1305 49.1518 73.5117V77.8242H43.4018V80.6992H49.1518V83.5742H43.4018V86.4492H85.0893C85.4706 86.4492 85.8362 86.2977 86.1058 86.0282C86.3754 85.7586 86.5268 85.3929 86.5268 85.0117V62.0117C86.5268 61.6305 86.3754 61.2648 86.1058 60.9952C85.8362 60.7257 85.4706 60.5742 85.0893 60.5742ZM83.6518 63.4492V66.3242H75.0268V63.4492H83.6518ZM63.5268 77.8242V74.9492H72.1518V77.8242H63.5268ZM72.1518 80.6992V83.5742H63.5268V80.6992H72.1518ZM72.1518 66.3242H63.5268V63.4492H72.1518V66.3242ZM72.1518 69.1992V72.0742H63.5268V69.1992H72.1518ZM75.0268 74.9492H83.6518V77.8242H75.0268V74.9492ZM75.0268 72.0742V69.1992H83.6518V72.0742H75.0268ZM72.1518 57.6992V60.5742H63.5268V57.6992H72.1518ZM60.6518 74.9492V77.8242H52.0268V74.9492H60.6518ZM52.0268 80.6992H60.6518V83.5742H52.0268V80.6992ZM75.0268 83.5742V80.6992H83.6518V83.5742H75.0268Z" fill="#342B2B"/>
<path d="M26.1519 3.07422H80.7768V57.6992H83.6518V1.63672C83.6518 1.25547 83.5004 0.889839 83.2308 0.620257C82.9612 0.350674 82.5956 0.199223 82.2143 0.199219H24.7144C24.3331 0.199223 23.9675 0.350674 23.6979 0.620257C23.4283 0.889839 23.2769 1.25547 23.2769 1.63672V33.2617H26.1519V3.07422Z" fill="#342B2B"/>
<path d="M41.9643 5.94922H64.9643V8.82422H41.9643V5.94922Z" fill="#342B2B"/>
<path d="M29.0269 11.6992H49.1518V14.5742H29.0269V11.6992Z" fill="#342B2B"/>
<path d="M60.6518 11.6992H77.9018V14.5742H60.6518V11.6992Z" fill="#342B2B"/>
<path d="M29.0269 17.4492H77.9018V20.3242H29.0269V17.4492Z" fill="#342B2B"/>
<path d="M29.0269 23.1992H57.7768V26.0742H29.0269V23.1992Z" fill="#342B2B"/>
<path d="M66.4018 23.1992H72.1518V26.0742H66.4018V23.1992Z" fill="#342B2B"/>
<path d="M75.0268 23.1992H77.9018V26.0742H75.0268V23.1992Z" fill="#342B2B"/>
<path d="M66.4018 28.9492H72.1518V31.8242H66.4018V28.9492Z" fill="#342B2B"/>
<path d="M75.0268 28.9492H77.9018V31.8242H75.0268V28.9492Z" fill="#342B2B"/>
<path d="M66.4018 34.6992H72.1518V37.5742H66.4018V34.6992Z" fill="#342B2B"/>
<path d="M75.0268 34.6992H77.9018V37.5742H75.0268V34.6992Z" fill="#342B2B"/>
<path d="M29.0269 28.9492H49.1518V31.8242H29.0269V28.9492Z" fill="#342B2B"/>
<path d="M43.4018 34.6992H52.0268V37.5742H43.4018V34.6992Z" fill="#342B2B"/>
<path d="M43.4018 40.4492H77.9018V43.3242H43.4018V40.4492Z" fill="#342B2B"/>
<path d="M66.4018 46.1992H77.9018V49.0742H66.4018V46.1992Z" fill="#342B2B"/>
<path d="M43.4018 46.1992H52.0268V49.0742H43.4018V46.1992Z" fill="#342B2B"/>
<path d="M43.4018 51.9492H47.7143V54.8242H43.4018V51.9492Z" fill="#342B2B"/>
<path d="M39.0894 36.1367H1.71442C1.33317 36.1367 0.967537 36.2882 0.697954 36.5578C0.428372 36.8273 0.27692 37.193 0.276917 37.5742V85.0117C0.27692 85.393 0.428372 85.7586 0.697954 86.0282C0.967537 86.2978 1.33317 86.4492 1.71442 86.4492H39.0894C39.4707 86.4492 39.8363 86.2978 40.1059 86.0282C40.3755 85.7586 40.5269 85.393 40.5269 85.0117V37.5742C40.5269 37.193 40.3755 36.8273 40.1059 36.5578C39.8363 36.2882 39.4707 36.1367 39.0894 36.1367ZM37.6519 83.5742H3.15192V39.0117H37.6519V83.5742Z" fill="#5E6398"/>
<path d="M10.3394 62.0117C11.1923 62.0117 12.0261 61.7588 12.7353 61.2849C13.4445 60.8111 13.9972 60.1375 14.3236 59.3495C14.65 58.5615 14.7354 57.6944 14.5691 56.8579C14.4027 56.0213 13.9919 55.2529 13.3888 54.6498C12.7857 54.0467 12.0173 53.636 11.1807 53.4696C10.3442 53.3032 9.4771 53.3886 8.68909 53.715C7.90109 54.0414 7.22757 54.5941 6.7537 55.3033C6.27984 56.0125 6.02692 56.8463 6.02692 57.6992C6.02821 58.8426 6.48298 59.9387 7.29145 60.7472C8.09992 61.5557 9.19607 62.0104 10.3394 62.0117ZM10.3394 56.2617C10.6237 56.2617 10.9017 56.346 11.138 56.504C11.3744 56.6619 11.5587 56.8864 11.6675 57.1491C11.7763 57.4118 11.8048 57.7008 11.7493 57.9797C11.6938 58.2585 11.5569 58.5146 11.3559 58.7157C11.1548 58.9167 10.8987 59.0536 10.6199 59.1091C10.341 59.1646 10.052 59.1361 9.78931 59.0273C9.52664 58.9185 9.30213 58.7342 9.14418 58.4978C8.98622 58.2614 8.90191 57.9835 8.90191 57.6992C8.90235 57.3181 9.05394 56.9527 9.32343 56.6832C9.59292 56.4137 9.9583 56.2622 10.3394 56.2617Z" fill="#5E6398"/>
<path d="M20.4019 53.3867C19.549 53.3867 18.7152 53.6396 18.006 54.1135C17.2968 54.5874 16.7441 55.2609 16.4177 56.0489C16.0913 56.8369 16.0059 57.704 16.1723 58.5405C16.3387 59.3771 16.7494 60.1455 17.3525 60.7486C17.9556 61.3517 18.724 61.7625 19.5606 61.9289C20.3971 62.0952 21.2642 62.0098 22.0522 61.6834C22.8402 61.357 23.5138 60.8043 23.9876 60.0951C24.4615 59.3859 24.7144 58.5521 24.7144 57.6992C24.7131 56.5559 24.2584 55.4597 23.4499 54.6512C22.6414 53.8428 21.5453 53.388 20.4019 53.3867ZM20.4019 59.1367C20.1176 59.1367 19.8397 59.0524 19.6033 58.8945C19.3669 58.7365 19.1826 58.512 19.0738 58.2493C18.965 57.9867 18.9366 57.6976 18.992 57.4188C19.0475 57.1399 19.1844 56.8838 19.3854 56.6827C19.5865 56.4817 19.8426 56.3448 20.1215 56.2893C20.4003 56.2339 20.6894 56.2623 20.952 56.3711C21.2147 56.4799 21.4392 56.6642 21.5972 56.9006C21.7551 57.137 21.8394 57.4149 21.8394 57.6992C21.839 58.0803 21.6874 58.4457 21.4179 58.7152C21.1484 58.9847 20.783 59.1363 20.4019 59.1367Z" fill="#5E6398"/>
<path d="M26.1519 57.6992C26.1519 58.5521 26.4048 59.3859 26.8787 60.0951C27.3526 60.8043 28.0261 61.357 28.8141 61.6834C29.6021 62.0098 30.4692 62.0952 31.3057 61.9289C32.1423 61.7625 32.9107 61.3517 33.5138 60.7486C34.1169 60.1455 34.5276 59.3771 34.694 58.5405C34.8604 57.704 34.775 56.8369 34.4486 56.0489C34.1222 55.2609 33.5695 54.5874 32.8603 54.1135C32.1511 53.6396 31.3173 53.3867 30.4644 53.3867C29.3211 53.388 28.2249 53.8428 27.4164 54.6512C26.608 55.4597 26.1532 56.5559 26.1519 57.6992ZM31.9019 57.6992C31.9019 57.9835 31.8176 58.2614 31.6597 58.4978C31.5017 58.7342 31.2772 58.9185 31.0145 59.0273C30.7519 59.1361 30.4628 59.1646 30.184 59.1091C29.9051 59.0536 29.649 58.9167 29.4479 58.7157C29.2469 58.5146 29.11 58.2585 29.0545 57.9797C28.9991 57.7008 29.0275 57.4118 29.1363 57.1491C29.2451 56.8864 29.4294 56.6619 29.6658 56.504C29.9022 56.346 30.1801 56.2617 30.4644 56.2617C30.8455 56.2621 31.2109 56.4137 31.4804 56.6832C31.7499 56.9527 31.9015 57.3181 31.9019 57.6992Z" fill="#5E6398"/>
<path d="M10.3394 72.0742C11.1923 72.0742 12.0261 71.8213 12.7353 71.3474C13.4445 70.8736 13.9972 70.2 14.3236 69.412C14.65 68.624 14.7354 67.7569 14.5691 66.9204C14.4027 66.0838 13.9919 65.3154 13.3888 64.7123C12.7857 64.1092 12.0173 63.6985 11.1807 63.5321C10.3442 63.3657 9.4771 63.4511 8.68909 63.7775C7.90109 64.1039 7.22757 64.6566 6.7537 65.3658C6.27984 66.075 6.02692 66.9088 6.02692 67.7617C6.02821 68.9051 6.48298 70.0012 7.29145 70.8097C8.09992 71.6181 9.19607 72.0729 10.3394 72.0742ZM10.3394 66.3242C10.6237 66.3242 10.9017 66.4085 11.138 66.5665C11.3744 66.7244 11.5587 66.9489 11.6675 67.2116C11.7763 67.4743 11.8048 67.7633 11.7493 68.0422C11.6938 68.321 11.5569 68.5771 11.3559 68.7782C11.1548 68.9792 10.8987 69.1161 10.6199 69.1716C10.341 69.2271 10.052 69.1986 9.78931 69.0898C9.52664 68.981 9.30213 68.7967 9.14418 68.5603C8.98622 68.3239 8.90191 68.046 8.90191 67.7617C8.90235 67.3806 9.05394 67.0152 9.32343 66.7457C9.59292 66.4762 9.9583 66.3246 10.3394 66.3242Z" fill="#5E6398"/>
<path d="M20.4019 63.4492C19.549 63.4492 18.7152 63.7021 18.006 64.176C17.2968 64.6499 16.7441 65.3234 16.4177 66.1114C16.0913 66.8994 16.0059 67.7665 16.1723 68.603C16.3387 69.4396 16.7494 70.208 17.3525 70.8111C17.9556 71.4142 18.724 71.8249 19.5606 71.9913C20.3971 72.1577 21.2642 72.0723 22.0522 71.7459C22.8402 71.4195 23.5138 70.8668 23.9876 70.1576C24.4615 69.4484 24.7144 68.6146 24.7144 67.7617C24.7131 66.6184 24.2584 65.5222 23.4499 64.7137C22.6414 63.9053 21.5453 63.4505 20.4019 63.4492ZM20.4019 69.1992C20.1176 69.1992 19.8397 69.1149 19.6033 68.957C19.3669 68.799 19.1826 68.5745 19.0738 68.3118C18.965 68.0491 18.9366 67.7601 18.992 67.4813C19.0475 67.2024 19.1844 66.9463 19.3854 66.7452C19.5865 66.5442 19.8426 66.4073 20.1215 66.3518C20.4003 66.2964 20.6894 66.3248 20.952 66.4336C21.2147 66.5424 21.4392 66.7267 21.5972 66.9631C21.7551 67.1995 21.8394 67.4774 21.8394 67.7617C21.839 68.1428 21.6874 68.5082 21.4179 68.7777C21.1484 69.0472 20.783 69.1988 20.4019 69.1992Z" fill="#5E6398"/>
<path d="M30.4644 63.4492C29.6115 63.4492 28.7777 63.7021 28.0685 64.176C27.3593 64.6499 26.8066 65.3234 26.4802 66.1114C26.1538 66.8994 26.0684 67.7665 26.2348 68.603C26.4012 69.4396 26.8119 70.208 27.415 70.8111C28.0181 71.4142 28.7865 71.8249 29.6231 71.9913C30.4596 72.1577 31.3267 72.0723 32.1147 71.7459C32.9027 71.4195 33.5763 70.8668 34.0501 70.1576C34.524 69.4484 34.7769 68.6146 34.7769 67.7617C34.7756 66.6184 34.3209 65.5222 33.5124 64.7137C32.7039 63.9053 31.6078 63.4505 30.4644 63.4492ZM30.4644 69.1992C30.1801 69.1992 29.9022 69.1149 29.6658 68.957C29.4294 68.799 29.2451 68.5745 29.1363 68.3118C29.0275 68.0491 28.9991 67.7601 29.0545 67.4813C29.11 67.2024 29.2469 66.9463 29.4479 66.7452C29.649 66.5442 29.9051 66.4073 30.184 66.3518C30.4628 66.2964 30.7519 66.3248 31.0145 66.4336C31.2772 66.5424 31.5017 66.7267 31.6597 66.9631C31.8176 67.1995 31.9019 67.4774 31.9019 67.7617C31.9015 68.1428 31.7499 68.5082 31.4804 68.7777C31.2109 69.0472 30.8455 69.1988 30.4644 69.1992Z" fill="#5E6398"/>
<path d="M10.3394 82.1367C11.1923 82.1367 12.0261 81.8838 12.7353 81.4099C13.4445 80.9361 13.9972 80.2625 14.3236 79.4745C14.65 78.6865 14.7354 77.8194 14.5691 76.9829C14.4027 76.1463 13.9919 75.3779 13.3888 74.7748C12.7857 74.1717 12.0173 73.761 11.1807 73.5946C10.3442 73.4282 9.4771 73.5136 8.68909 73.84C7.90109 74.1664 7.22757 74.7191 6.7537 75.4283C6.27984 76.1375 6.02692 76.9713 6.02692 77.8242C6.02821 78.9676 6.48298 80.0637 7.29145 80.8722C8.09992 81.6806 9.19607 82.1354 10.3394 82.1367ZM10.3394 76.3867C10.6237 76.3867 10.9017 76.471 11.138 76.629C11.3744 76.7869 11.5587 77.0114 11.6675 77.2741C11.7763 77.5368 11.8048 77.8258 11.7493 78.1047C11.6938 78.3835 11.5569 78.6396 11.3559 78.8407C11.1548 79.0417 10.8987 79.1786 10.6199 79.2341C10.341 79.2896 10.052 79.2611 9.78931 79.1523C9.52664 79.0435 9.30213 78.8592 9.14418 78.6228C8.98622 78.3864 8.90191 78.1085 8.90191 77.8242C8.90235 77.4431 9.05394 77.0777 9.32343 76.8082C9.59292 76.5387 9.9583 76.3871 10.3394 76.3867Z" fill="#5E6398"/>
<path d="M20.4019 73.5117C19.549 73.5117 18.7152 73.7646 18.006 74.2385C17.2968 74.7124 16.7441 75.3859 16.4177 76.1739C16.0913 76.9619 16.0059 77.829 16.1723 78.6655C16.3387 79.5021 16.7494 80.2705 17.3525 80.8736C17.9556 81.4767 18.724 81.8874 19.5606 82.0538C20.3971 82.2202 21.2642 82.1348 22.0522 81.8084C22.8402 81.482 23.5138 80.9293 23.9876 80.2201C24.4615 79.5109 24.7144 78.6771 24.7144 77.8242C24.7131 76.6809 24.2584 75.5847 23.4499 74.7762C22.6414 73.9678 21.5453 73.513 20.4019 73.5117ZM20.4019 79.2617C20.1176 79.2617 19.8397 79.1774 19.6033 79.0194C19.3669 78.8615 19.1826 78.637 19.0738 78.3743C18.965 78.1116 18.9366 77.8226 18.992 77.5438C19.0475 77.2649 19.1844 77.0088 19.3854 76.8077C19.5865 76.6067 19.8426 76.4698 20.1215 76.4143C20.4003 76.3589 20.6894 76.3873 20.952 76.4961C21.2147 76.6049 21.4392 76.7892 21.5972 77.0256C21.7551 77.262 21.8394 77.5399 21.8394 77.8242C21.839 78.2053 21.6874 78.5707 21.4179 78.8402C21.1484 79.1097 20.783 79.2613 20.4019 79.2617Z" fill="#5E6398"/>
<path d="M30.4644 73.5117C29.6115 73.5117 28.7777 73.7646 28.0685 74.2385C27.3593 74.7124 26.8066 75.3859 26.4802 76.1739C26.1538 76.9619 26.0684 77.829 26.2348 78.6655C26.4012 79.5021 26.8119 80.2705 27.415 80.8736C28.0181 81.4767 28.7865 81.8874 29.6231 82.0538C30.4596 82.2202 31.3267 82.1348 32.1147 81.8084C32.9027 81.482 33.5763 80.9293 34.0501 80.2201C34.524 79.5109 34.7769 78.6771 34.7769 77.8242C34.7756 76.6809 34.3209 75.5847 33.5124 74.7762C32.7039 73.9678 31.6078 73.513 30.4644 73.5117ZM30.4644 79.2617C30.1801 79.2617 29.9022 79.1774 29.6658 79.0194C29.4294 78.8615 29.2451 78.637 29.1363 78.3743C29.0275 78.1116 28.9991 77.8226 29.0545 77.5438C29.11 77.2649 29.2469 77.0088 29.4479 76.8077C29.649 76.6067 29.9051 76.4698 30.184 76.4143C30.4628 76.3589 30.7519 76.3873 31.0145 76.4961C31.2772 76.6049 31.5017 76.7892 31.6597 77.0256C31.8176 77.262 31.9019 77.5399 31.9019 77.8242C31.9015 78.2053 31.7499 78.5707 31.4804 78.8402C31.2109 79.1097 30.8455 79.2613 30.4644 79.2617Z" fill="#5E6398"/>
<path d="M8.90191 51.9492H31.9019C32.2832 51.9492 32.6488 51.7978 32.9184 51.5282C33.188 51.2586 33.3394 50.893 33.3394 50.5117V41.8867C33.3394 41.5055 33.188 41.1398 32.9184 40.8703C32.6488 40.6007 32.2832 40.4492 31.9019 40.4492H8.90191C8.52067 40.4492 8.15504 40.6007 7.88545 40.8703C7.61587 41.1398 7.46442 41.5055 7.46442 41.8867V50.5117C7.46442 50.893 7.61587 51.2586 7.88545 51.5282C8.15504 51.7978 8.52067 51.9492 8.90191 51.9492ZM10.3394 43.3242H30.4644V49.0742H10.3394V43.3242Z" fill="#5E6398"/>
<path d="M16.0894 44.7617H21.8394V47.6367H16.0894V44.7617Z" fill="#5E6398"/>
<path d="M24.7144 44.7617H27.5894V47.6367H24.7144V44.7617Z" fill="#5E6398"/>
    </symbol>
</svg>
