<svg xmlns="http://www.w3.org/2000/svg">
    <symbol id="st-03" width="135" height="97" viewBox="0 0 135 97" fill="none">
<path fill-rule="evenodd" clip-rule="evenodd" d="M133.297 25.9021H122.031V21.0593C122.031 20.8473 121.99 20.6374 121.909 20.4416C121.828 20.2457 121.71 20.0678 121.56 19.9179C121.411 19.768 121.233 19.6491 121.038 19.5679C120.843 19.4868 120.633 19.4451 120.422 19.4451H114.651L113.513 18.3036C113.364 18.1537 113.186 18.0348 112.991 17.9537C112.796 17.8726 112.587 17.8308 112.375 17.8308H109.961L107.143 14.062L108.685 12.5152C108.835 12.3653 108.953 12.1874 109.034 11.9915C109.115 11.7957 109.157 11.5858 109.157 11.3738C109.157 11.1618 109.115 10.9519 109.034 10.756C108.953 10.5602 108.835 10.3822 108.685 10.2324L106.995 8.53701C104.32 5.8539 101.144 3.72554 97.6492 2.27345C94.1542 0.821356 90.4082 0.0739746 86.6252 0.0739746C82.8422 0.0739746 79.0963 0.821356 75.6012 2.27345C72.1062 3.72554 68.9305 5.8539 66.2556 8.53701L64.5653 10.2324C64.4159 10.3822 64.2973 10.5602 64.2164 10.756C64.1356 10.9519 64.0939 11.1618 64.0939 11.3738C64.0939 11.5858 64.1356 11.7957 64.2164 11.9915C64.2973 12.1874 64.4159 12.3653 64.5653 12.5152L66.1074 14.062L63.2893 17.8308H60.8752C60.6639 17.8308 60.4546 17.8726 60.2593 17.9537C60.0641 18.0348 59.8867 18.1537 59.7372 18.3036L58.5992 19.4451H52.8283C52.617 19.4451 52.4077 19.4868 52.2124 19.5679C52.0172 19.6491 51.8397 19.768 51.6903 19.9179C51.5409 20.0678 51.4223 20.2457 51.3414 20.4416C51.2606 20.6374 51.2189 20.8473 51.2189 21.0593V25.9021H39.9533C39.742 25.9021 39.5327 25.9438 39.3374 26.025C39.1422 26.1061 38.9647 26.225 38.8153 26.3749C38.6658 26.5248 38.5473 26.7027 38.4664 26.8986C38.3856 27.0945 38.3439 27.3044 38.3439 27.5164V84.0154C38.3478 87.4392 39.7055 90.7217 42.1192 93.1427C44.5329 95.5637 47.8055 96.9256 51.2189 96.9294H122.031C125.445 96.9256 128.718 95.5637 131.131 93.1427C133.545 90.7217 134.903 87.4392 134.906 84.0154V27.5164C134.907 27.3044 134.865 27.0945 134.784 26.8986C134.703 26.7027 134.585 26.5248 134.435 26.3749C134.286 26.225 134.108 26.1061 133.913 26.025C133.718 25.9438 133.508 25.9021 133.297 25.9021ZM112.847 22.2008C112.996 22.3507 113.173 22.4696 113.369 22.5507C113.564 22.6318 113.773 22.6736 113.985 22.6736H118.813V25.9021H109.823L107.547 23.6192V21.0593H111.709L112.847 22.2008ZM68.5315 10.8199C73.3303 6.00657 79.8388 3.30249 86.6252 3.30249C93.4117 3.30249 99.9202 6.00657 104.719 10.8199L105.271 11.3738L102.719 13.9336L101.5 12.7111C99.5467 10.7517 97.2277 9.19753 94.6754 8.13715C92.1232 7.07677 89.3877 6.531 86.6252 6.531C83.8627 6.531 81.1272 7.07677 78.575 8.13715C76.0228 9.19753 73.7038 10.7517 71.7504 12.7111L70.5315 13.9336L67.9794 11.3738L68.5315 10.8199ZM68.4065 16.368L69.3935 17.358C69.6953 17.6607 70.1046 17.8308 70.5315 17.8308C70.9583 17.8308 71.3676 17.6607 71.6694 17.358L74.0263 14.9939C77.3678 11.6424 81.8997 9.75952 86.6252 9.75952C91.3507 9.75952 95.8827 11.6424 99.2241 14.9939L101.581 17.358C101.73 17.5079 101.908 17.6268 102.103 17.7079C102.298 17.7891 102.508 17.8308 102.719 17.8308C102.93 17.8308 103.14 17.7891 103.335 17.7079C103.53 17.6268 103.708 17.5079 103.857 17.358L104.844 16.368L105.938 17.8308C105.726 17.8308 105.517 17.8726 105.322 17.9537C105.127 18.0348 104.949 18.1537 104.8 18.3036C104.65 18.4535 104.532 18.6315 104.451 18.8273C104.37 19.0232 104.328 19.2331 104.328 19.4451V24.2878C104.328 24.4998 104.37 24.7097 104.451 24.9056C104.532 25.1014 104.65 25.2794 104.8 25.4293L105.271 25.9021H67.9793L68.4507 25.4293C68.6001 25.2794 68.7187 25.1014 68.7996 24.9056C68.8805 24.7097 68.9221 24.4998 68.9221 24.2878V19.4451C68.9221 19.2331 68.8805 19.0232 68.7996 18.8273C68.7187 18.6315 68.6002 18.4535 68.4507 18.3036C68.3013 18.1537 68.1239 18.0348 67.9286 17.9537C67.7333 17.8726 67.524 17.8308 67.3127 17.8308L68.4065 16.368ZM54.4377 22.6736H59.2658C59.4772 22.6736 59.6864 22.6318 59.8817 22.5507C60.077 22.4696 60.2544 22.3507 60.4038 22.2008L61.5418 21.0593H65.7033V23.6192L63.4274 25.9021H54.4377V22.6736ZM131.688 84.0154C131.685 86.5833 130.667 89.0451 128.856 90.8609C127.046 92.6767 124.592 93.698 122.031 93.7009H51.2189C48.6588 93.698 46.2044 92.6767 44.3941 90.8609C42.5839 89.0451 41.5656 86.5833 41.5627 84.0154V55.4156C43.264 57.3569 45.5063 58.7423 48.0002 59.3928V82.4011C48.0021 84.113 48.681 85.7543 49.8878 86.9648C51.0947 88.1753 52.7309 88.8562 54.4377 88.8582H118.813C120.519 88.8562 122.156 88.1753 123.363 86.9648C124.569 85.7543 125.248 84.113 125.25 82.4011V59.3928C127.744 58.7423 129.986 57.3569 131.688 55.4156V84.0154ZM122.031 59.8015V82.4011C122.031 83.2571 121.691 84.0777 121.088 84.683C120.484 85.2882 119.666 85.6287 118.813 85.6296H54.4377C53.5843 85.6287 52.7662 85.2882 52.1628 84.683C51.5593 84.0777 51.2199 83.2571 51.2189 82.4011V59.8015H122.031ZM128.856 53.733C130.667 51.9172 131.685 49.4553 131.688 46.8875V29.1306H41.5627V46.8875C41.5656 49.4553 42.5839 51.9172 44.3941 53.733C46.2044 55.5487 48.6588 56.5701 51.2189 56.573H122.031C124.592 56.5701 127.046 55.5487 128.856 53.733Z" fill="#342B2B"/>
<path fill-rule="evenodd" clip-rule="evenodd" d="M94.6721 63.03V59.8015V56.573V53.3445C94.2452 53.3445 93.8359 53.1744 93.5341 52.8717C93.2322 52.5689 93.0627 52.1584 93.0627 51.7302C93.0627 51.3021 93.2322 50.8915 93.5341 50.5888C93.8359 50.286 94.2452 50.116 94.6721 50.116V42.0447C94.6721 41.8327 94.7137 41.6228 94.7946 41.4269C94.8754 41.2311 94.994 41.0531 95.1434 40.9032C95.2929 40.7533 95.4703 40.6344 95.6656 40.5533C95.8608 40.4722 96.0701 40.4304 96.2814 40.4304H109.156C109.368 40.4304 109.577 40.4722 109.772 40.5533C109.968 40.6344 110.145 40.7533 110.294 40.9032C110.444 41.0531 110.562 41.2311 110.643 41.4269C110.724 41.6228 110.766 41.8327 110.766 42.0447V50.116C111.193 50.116 111.602 50.286 111.904 50.5888C112.206 50.8915 112.375 51.3021 112.375 51.7302C112.375 52.1584 112.206 52.5689 111.904 52.8717C111.602 53.1744 111.193 53.3445 110.766 53.3445V56.573V59.8015V63.03C110.977 63.03 111.186 63.0718 111.382 63.1529C111.577 63.234 111.754 63.3529 111.904 63.5028C112.053 63.6527 112.172 63.8307 112.253 64.0265C112.334 64.2224 112.375 64.4323 112.375 64.6443V71.1013C112.375 71.3133 112.334 71.5232 112.253 71.7191C112.172 71.9149 112.053 72.0929 111.904 72.2428C111.754 72.3927 111.577 72.5116 111.382 72.5927C111.186 72.6738 110.977 72.7156 110.766 72.7156V74.3298C110.766 76.4705 109.918 78.5234 108.409 80.0371C106.9 81.5508 104.853 82.4011 102.719 82.4011C100.585 82.4011 98.538 81.5508 97.0289 80.0371C95.5199 78.5234 94.6721 76.4705 94.6721 74.3298V72.7156C94.4607 72.7156 94.2514 72.6738 94.0562 72.5927C93.8609 72.5116 93.6835 72.3927 93.534 72.2428C93.3846 72.0929 93.2661 71.9149 93.1852 71.7191C93.1043 71.5232 93.0627 71.3133 93.0627 71.1013V64.6443C93.0627 64.4323 93.1043 64.2224 93.1852 64.0265C93.2661 63.8307 93.3846 63.6527 93.534 63.5028C93.6835 63.3529 93.8609 63.234 94.0562 63.1529C94.2514 63.0718 94.4607 63.03 94.6721 63.03ZM107.547 50.116H97.8908V43.6589H107.547V50.116ZM101.11 56.573V53.3445H97.8908V63.03H107.547V53.3445H104.328V56.573C104.328 57.0011 104.159 57.4117 103.857 57.7145C103.555 58.0172 103.146 58.1873 102.719 58.1873C102.292 58.1873 101.883 58.0172 101.581 57.7145C101.279 57.4117 101.11 57.0011 101.11 56.573ZM109.156 66.2585V69.4871H96.2814V66.2585H109.156ZM107.547 74.3298V72.7156H97.8908V74.3298C97.8908 75.6142 98.3995 76.846 99.3049 77.7542C100.21 78.6624 101.438 79.1726 102.719 79.1726C103.999 79.1726 105.227 78.6624 106.133 77.7542C107.038 76.846 107.547 75.6142 107.547 74.3298Z" fill="#5E6398"/>
<path fill-rule="evenodd" clip-rule="evenodd" d="M61.8687 63.1529C62.0639 63.0718 62.2732 63.03 62.4846 63.03V59.8015V56.573V53.3445C62.0577 53.3445 61.6484 53.1744 61.3466 52.8717C61.0447 52.5689 60.8752 52.1584 60.8752 51.7302C60.8752 51.3021 61.0447 50.8915 61.3466 50.5888C61.6484 50.286 62.0577 50.116 62.4846 50.116V42.0447C62.4846 41.8327 62.5262 41.6228 62.6071 41.4269C62.6879 41.2311 62.8065 41.0531 62.9559 40.9032C63.1054 40.7533 63.2828 40.6344 63.478 40.5533C63.6733 40.4722 63.8826 40.4304 64.0939 40.4304H76.9689C77.1803 40.4304 77.3896 40.4722 77.5848 40.5533C77.7801 40.6344 77.9575 40.7533 78.1069 40.9032C78.2564 41.0531 78.3749 41.2311 78.4558 41.4269C78.5367 41.6228 78.5783 41.8327 78.5783 42.0447V50.116C79.0051 50.116 79.4145 50.286 79.7163 50.5888C80.0181 50.8915 80.1877 51.3021 80.1877 51.7302C80.1877 52.1584 80.0181 52.5689 79.7163 52.8717C79.4145 53.1744 79.0051 53.3445 78.5783 53.3445V56.573V59.8015V63.03C78.7897 63.03 78.9989 63.0718 79.1942 63.1529C79.3895 63.234 79.5669 63.3529 79.7163 63.5028C79.8658 63.6527 79.9843 63.8307 80.0652 64.0265C80.1461 64.2224 80.1877 64.4323 80.1877 64.6443V71.1013C80.1877 71.3133 80.1461 71.5232 80.0652 71.7191C79.9843 71.9149 79.8658 72.0929 79.7163 72.2428C79.5669 72.3927 79.3895 72.5116 79.1942 72.5927C78.9989 72.6738 78.7897 72.7156 78.5783 72.7156V74.3298C78.5783 76.4705 77.7305 78.5234 76.2214 80.0371C74.7124 81.5508 72.6656 82.4011 70.5314 82.4011C68.3973 82.4011 66.3505 81.5508 64.8414 80.0371C63.3324 78.5234 62.4846 76.4705 62.4846 74.3298V72.7156C62.2732 72.7156 62.0639 72.6738 61.8687 72.5927C61.6734 72.5116 61.496 72.3927 61.3465 72.2428C61.1971 72.0929 61.0786 71.9149 60.9977 71.7191C60.9168 71.5232 60.8752 71.3133 60.8752 71.1013V64.6443C60.8752 64.4323 60.9168 64.2224 60.9977 64.0265C61.0786 63.8307 61.1971 63.6527 61.3465 63.5028C61.496 63.3529 61.6734 63.234 61.8687 63.1529ZM75.3596 50.116H65.7033V43.6589H75.3596V50.116ZM68.9221 56.573V53.3445H65.7033V63.03H75.3596V53.3445H72.1408V56.573C72.1408 57.0011 71.9713 57.4117 71.6694 57.7145C71.3676 58.0172 70.9583 58.1873 70.5314 58.1873C70.1046 58.1873 69.6952 58.0172 69.3934 57.7145C69.0916 57.4117 68.9221 57.0011 68.9221 56.573ZM76.9689 66.2585V69.4871H64.0939V66.2585H76.9689ZM75.3596 74.3298V72.7156H65.7033V74.3298C65.7033 75.6142 66.212 76.846 67.1174 77.7542C68.0229 78.6624 69.2509 79.1726 70.5314 79.1726C71.8119 79.1726 73.04 78.6624 73.9454 77.7542C74.8509 76.846 75.3596 75.6142 75.3596 74.3298Z" fill="#5E6398"/>
<path d="M28.3439 69.8176H0.859375" stroke="#342B2B" stroke-width="3"/>
<path d="M28.3439 57.1335H10.8594" stroke="#342B2B" stroke-width="3"/>
<path d="M28.3439 43.9541H20.8594" stroke="#342B2B" stroke-width="3"/>
    </symbol>
</svg>
