<svg width="56" height="56" viewBox="0 0 56 56" fill="none" xmlns="http://www.w3.org/2000/svg">
<path d="M19.132 38.8641C18.0707 38.0223 16.6905 37.7163 15.3481 38.0313C13.7713 38.398 12.5047 39.6504 12.1204 41.2225C11.6904 42.981 12.3399 44.7688 13.7493 45.8254V49.3677C13.7493 50.8254 14.9359 52.0119 16.3935 52.0119C17.8512 52.0119 19.0377 50.8254 19.0377 49.3677V45.8236C20.136 44.996 20.8005 43.6942 20.8005 42.3165C20.8005 40.9643 20.1924 39.7059 19.132 38.8641ZM17.713 44.5915L17.2749 44.8463V49.3677C17.2749 49.8541 16.879 50.2491 16.3935 50.2491C15.9081 50.2491 15.5121 49.8541 15.5121 49.3677V44.8463L15.074 44.5915C14.0295 43.9842 13.5432 42.8261 13.8324 41.6404C14.057 40.722 14.8265 39.9616 15.7475 39.7472C15.967 39.696 16.1848 39.6715 16.3987 39.6715C16.9956 39.6715 17.5607 39.8673 18.0354 40.2434C18.6728 40.7504 19.0377 41.5049 19.0377 42.3165C19.0377 43.2578 18.5424 44.1086 17.713 44.5915Z" fill="white"/>
<path d="M27.8517 0.890747C12.7861 0.890747 0.52832 13.1486 0.52832 28.2141C0.52832 32.9779 1.78242 37.6573 4.14473 41.7773C4.09007 42.2468 4.05392 42.7194 4.05392 43.1979C4.05392 50.0025 9.58892 55.5375 16.3935 55.5375C18.0109 55.5375 19.5524 55.2169 20.9688 54.6484C23.2192 55.2333 25.5329 55.5375 27.8517 55.5375C42.9173 55.5375 55.1751 43.281 55.1751 28.2141C55.1751 13.1486 42.9173 0.890747 27.8517 0.890747ZM46.3611 10.6133V38.7909C46.3611 40.2486 45.1746 41.4351 43.7169 41.4351C42.2593 41.4351 41.0727 40.2486 41.0727 38.7909V34.3839H23.4447V25.5699C23.4447 23.7886 22.7759 22.1644 21.6819 20.9215V5.29775C21.6819 4.43916 22.1024 3.65502 22.7953 3.15751C24.4303 2.82828 26.1208 2.65355 27.8517 2.65355C35.1293 2.65355 41.7011 5.7165 46.3611 10.6133ZM26.4969 36.1467H39.3099V38.7909C39.3099 39.7868 39.6546 40.6966 40.2141 41.4351H28.5928C28.3187 39.5286 27.6051 37.7262 26.4969 36.1467ZM18.1563 34.3839H14.6307V25.5699C14.6307 24.5977 15.4213 23.8071 16.3935 23.8071C17.3657 23.8071 18.1563 24.5977 18.1563 25.5699V34.3839ZM16.3935 22.0443C14.4491 22.0443 12.8679 23.6255 12.8679 25.5699V34.3839H11.1051V25.5699C11.1051 22.6533 13.4769 20.2815 16.3935 20.2815C19.3101 20.2815 21.6819 22.6533 21.6819 25.5699V34.3839H19.9191V25.5699C19.9191 23.6255 18.3379 22.0443 16.3935 22.0443ZM2.29112 28.2141C2.29112 16.7938 9.82003 7.10014 20.1748 3.83276C20.0116 4.29756 19.9191 4.78905 19.9191 5.29775V19.4724C18.8806 18.8695 17.6786 18.5187 16.3935 18.5187C12.5055 18.5187 9.34232 21.682 9.34232 25.5699V34.3839H7.762L7.50205 34.6546C6.25484 35.9518 5.3347 37.4813 4.75542 39.1339C3.14627 35.7323 2.29112 32.0023 2.29112 28.2141ZM5.81672 43.1979C5.81672 40.5821 6.77387 38.0929 8.52074 36.1467H24.2663C26.0132 38.0929 26.9703 40.5821 26.9703 43.1979C26.9703 49.0303 22.2259 53.7747 16.3935 53.7747C10.5611 53.7747 5.81672 49.0303 5.81672 43.1979ZM27.8517 53.7747C26.3489 53.7747 24.8499 53.6293 23.3698 53.3659C26.6054 51.1391 28.7331 47.4139 28.7331 43.1979H43.7169C46.1468 43.1979 48.1239 41.2208 48.1239 38.7909V12.6717C51.4361 16.9815 53.4123 22.3706 53.4123 28.2141C53.4123 42.3079 41.9464 53.7747 27.8517 53.7747Z" fill="white"/>
<path d="M23.4447 4.41635H25.2075V6.17915H23.4447V4.41635Z" fill="white"/>
<path d="M26.9703 4.41635H34.0215V6.17915H26.9703V4.41635Z" fill="white"/>
<path d="M23.4447 7.94195H41.0727V9.70475H23.4447V7.94195Z" fill="white"/>
<path d="M23.4447 11.4675H44.5983V13.2303H23.4447V11.4675Z" fill="white"/>
<path d="M37.5471 18.5187C33.6591 18.5187 30.4959 21.682 30.4959 25.5699C30.4959 29.4579 33.6591 32.6211 37.5471 32.6211C41.4351 32.6211 44.5983 29.4579 44.5983 25.5699C44.5983 21.682 41.4351 18.5187 37.5471 18.5187ZM37.5471 30.8583C34.6305 30.8583 32.2587 28.4866 32.2587 25.5699C32.2587 22.6533 34.6305 20.2815 37.5471 20.2815C40.4637 20.2815 42.8355 22.6533 42.8355 25.5699C42.8355 28.4866 40.4637 30.8583 37.5471 30.8583Z" fill="white"/>
<path d="M42.8355 14.9931H44.5983V16.7559H42.8355V14.9931Z" fill="white"/>
<path d="M23.4447 14.9931H41.0727V16.7559H23.4447V14.9931Z" fill="white"/>
<path d="M23.4447 18.5187H28.7331V20.2815H23.4447V18.5187Z" fill="white"/>
<path d="M25.2075 22.0443H28.7331V23.8071H25.2075V22.0443Z" fill="white"/>
<path d="M25.2075 25.5699H28.7331V27.3327H25.2075V25.5699Z" fill="white"/>
<path d="M25.2075 29.0955H28.7331V30.8583H25.2075V29.0955Z" fill="white"/>
</svg>
