<svg xmlns="http://www.w3.org/2000/svg">
    <symbol id="abt-01" width="56" height="56" viewBox="0 0 56 56" fill="none">
<path d="M39.6988 0.556231V0.530393H16.6288C16.0309 0.528736 15.4385 0.646235 14.8861 0.876086C14.3336 1.10594 13.8321 1.44358 13.4104 1.86946L1.88875 13.4424C1.4648 13.866 1.12869 14.3698 0.899869 14.9247C0.67105 15.4796 0.554063 16.0746 0.555681 16.6752V50.8204C0.557052 52.0325 1.03703 53.1945 1.89031 54.0516C2.74359 54.9087 3.90049 55.3908 5.10721 55.3922H32.8715C33.113 55.3922 33.3445 55.2958 33.5152 55.1244C33.6859 54.9529 33.7818 54.7203 33.7818 54.4778V53.5634H5.10721C4.38318 53.5626 3.68904 53.2734 3.17707 52.7591C2.66511 52.2449 2.37712 51.5476 2.37629 50.8204V16.6752C2.37532 16.3148 2.44552 15.9578 2.58281 15.6249C2.72011 15.2919 2.92177 14.9896 3.17614 14.7355L14.2103 3.65226V11.5027C14.2094 12.23 13.9215 12.9272 13.4095 13.4415C12.8975 13.9557 12.2034 14.245 11.4793 14.2458H6.01751V16.0746H11.4793C12.6861 16.0732 13.843 15.5911 14.6962 14.734C15.5495 13.8769 16.0295 12.7148 16.0309 11.5027V2.4255C16.2272 2.38151 16.4277 2.35925 16.6288 2.35912H35.4013L39.8342 1.11749L39.6988 0.556231Z" fill="white"/>
<path fill-rule="evenodd" clip-rule="evenodd" d="M22.4287 16.0746H17.8515C17.6101 16.0746 17.3785 16.1709 17.2078 16.3424C17.0371 16.5139 16.9412 16.7464 16.9412 16.9889V25.2182H12.3897C12.1482 25.2182 11.9167 25.3145 11.746 25.486C11.5753 25.6575 11.4794 25.8901 11.4793 26.1326V32.5331H6.92782C6.68639 32.5331 6.45485 32.6294 6.28414 32.8009C6.11342 32.9724 6.01752 33.205 6.01751 33.4475V40.7624H4.1969V42.5911H31.5061V40.7624H29.6855V30.6671L29.2809 29.0731L27.8648 29.2451V40.7624H24.2236V24.5236L23.7397 19.2317C23.7473 18.1793 23.4956 16.0746 22.4287 16.0746ZM7.83812 40.7624H11.4793V34.3618H7.83812V40.7624ZM13.3 40.7624H16.9412V27.0469H13.3V40.7624ZM18.7618 40.7624H22.403V17.9033H18.7618V40.7624Z" fill="white"/>
<path d="M11.4793 44.4198H7.83812V46.2485H11.4793V44.4198Z" fill="white"/>
<path d="M16.9412 44.4198H13.3V46.2485H16.9412V44.4198Z" fill="white"/>
<path d="M22.403 44.4198H18.7618V46.2485H22.403V44.4198Z" fill="white"/>
<path d="M27.8648 44.4198H24.2236V46.2485H27.8648V44.4198Z" fill="white"/>
<path d="M38.7896 4.18732C36.2691 4.18732 33.8051 4.93809 31.7093 6.34469C29.6135 7.75129 27.98 9.75054 27.0155 12.0896C26.0509 14.4287 25.7985 17.0026 26.2902 19.4858C26.782 21.9689 27.9957 24.2499 29.7781 26.0401C31.5604 27.8304 33.8312 29.0496 36.3033 29.5435C38.7755 30.0374 41.3379 29.7839 43.6667 28.815C45.9954 27.8462 47.9858 26.2054 49.3861 24.1003C50.7865 21.9952 51.5339 19.5202 51.5339 16.9884C51.5301 13.5945 50.1862 10.3407 47.797 7.94091C45.4078 5.54108 42.1685 4.19116 38.7896 4.18732ZM38.7896 6.01604C41.0479 6.01877 43.2501 6.72328 45.094 8.03293C46.9379 9.34258 48.3332 11.1932 49.0885 13.3309H42.4309V12.4166C42.4309 12.1741 42.3349 11.9415 42.1642 11.77C41.9935 11.5986 41.762 11.5022 41.5206 11.5022H37.8793C37.6379 11.5022 37.4064 11.5986 37.2356 11.77C37.0649 11.9415 36.969 12.1741 36.969 12.4166V15.6953L35.6816 16.9884H32.4175C32.1761 16.9884 31.9445 17.0847 31.7738 17.2562C31.6031 17.4277 31.5072 17.6603 31.5072 17.9028V21.1814L29.6722 23.0246C28.5856 21.3711 27.9652 19.4528 27.8769 17.4736C27.7886 15.4944 28.2358 13.5281 29.1709 11.7836C30.106 10.0392 31.4941 8.58181 33.1877 7.56628C34.8813 6.55075 36.8172 6.01503 38.7896 6.01604ZM40.6102 13.3309V15.1597H38.7896V13.3309H40.6102ZM35.1484 18.8171V20.6458H33.3278V18.8171H35.1484ZM38.7896 27.9607C37.2918 27.9614 35.8098 27.6517 34.4364 27.0512C33.0631 26.4507 31.8277 25.5721 30.8075 24.4705L32.7946 22.4746H36.0587C36.3001 22.4746 36.5317 22.3782 36.7024 22.2068C36.8731 22.0353 36.969 21.8027 36.969 21.5602V18.2815L38.2564 16.9884H41.5206C41.762 16.9884 41.9935 16.8921 42.1642 16.7206C42.3349 16.5491 42.4309 16.3165 42.4309 16.074V15.1597H49.5607C49.8253 16.733 49.7451 18.3454 49.3257 19.8844C48.9063 21.4234 48.1578 22.852 47.1324 24.0707C46.1069 25.2893 44.8293 26.2687 43.3884 26.9406C41.9476 27.6124 40.3782 27.9606 38.7896 27.9607Z" fill="white"/>
<path fill-rule="evenodd" clip-rule="evenodd" d="M45.0656 45.839C45.1289 45.966 45.1618 46.106 45.1618 46.248V55.3916H43.3411V47.1624H34.2381V55.3916H32.4175V46.248C32.4175 46.106 32.4504 45.966 32.5136 45.839L35.1484 40.546V33.0367C33.1985 32.5899 31.3459 31.787 29.6855 30.6671L27.8648 29.2451C26.3762 27.9059 25.1424 26.3061 24.2236 24.5236C24.19 24.4466 24.1556 24.3657 24.1185 24.2818C23.4957 22.8729 22.4287 20.4622 22.4287 16.0746C22.5902 13.212 23.4933 10.4407 25.0469 8.03536C26.6005 5.63005 28.7518 3.67338 31.2884 2.35859C32.5378 1.65496 35.9681 0.309827 39.6988 0.556231C48.312 1.03233 55.1751 8.21994 55.1751 16.9884C55.1751 24.807 49.7192 31.3691 42.4308 33.0367V40.546L45.0656 45.839ZM38.7896 31.6182C35.909 31.6182 33.093 30.7602 30.6978 29.1526C28.3026 27.5451 26.4358 25.2602 25.3334 22.587C24.231 19.9137 23.9426 16.9722 24.5046 14.1343C25.0666 11.2964 26.4537 8.68958 28.4907 6.64356C30.5276 4.59755 33.1228 3.2042 35.9481 2.6397C38.7735 2.07521 41.702 2.36493 44.3634 3.47222C47.0247 4.57952 49.2995 6.45465 50.8999 8.86051C52.5003 11.2664 53.3545 14.0949 53.3545 16.9884C53.3501 20.8671 51.8142 24.5857 49.0837 27.3284C46.3532 30.071 42.6511 31.6138 38.7896 31.6182ZM36.969 33.3448V39.8475H40.6102V33.3448C39.4003 33.481 38.179 33.481 36.969 33.3448ZM40.9579 41.6762L42.7785 45.3336H34.8007L36.6213 41.6762H40.9579Z" fill="white"/>
    </symbol>
</svg>
