<svg width="1420" height="595" viewBox="0 0 1420 595" fill="none" xmlns="http://www.w3.org/2000/svg">
<path opacity="0.5" d="M168.026 614.414C153.813 621.838 1.1001 704.2 1.1001 815.885C1.1001 933.02 129.187 989.955 421.058 815.885C622.606 695.693 850.954 493.808 1054.47 245.777C1161.84 294.737 1282.45 307.234 1349.29 310.194C1330.9 367.363 1310.84 424 1288.97 479.19C1081.32 1003.15 1258.65 816.592 1316.97 714.876C1375.29 613.161 1568.94 445.521 1568.94 445.521C1568.94 445.521 1447.63 454.645 1400.96 512.86C1491.3 307.114 1569.68 -60.4937 1589.61 -338.676C1671.85 -326.162 1742.88 -321.266 1792.92 -328.876C1727.32 -344.962 1660.07 -361.967 1592.13 -379.383C1599.13 -513.581 1590.97 -622.362 1561.86 -674.419C1561.61 -674.856 1561.37 -675.289 1561.12 -675.718C1555.25 -685.906 1548.54 -693.83 1540.95 -699.239C1516.51 -645.171 1475.11 -488.861 1434.82 -420.009C1425.95 -422.311 1417.07 -424.614 1408.2 -426.915C1010.18 -530.177 618.1 -631.901 421.058 -631.901C159.76 -631.901 141.086 -462.846 141.086 -396.215C141.086 -276.251 255.399 -182.986 421.058 -126.859C421.058 -126.859 225.078 -196.286 225.078 -396.215C225.078 -618.433 554.045 -580.689 785.021 -530.892C847.182 -517.491 933.844 -494.384 1031.37 -468.382C1148.83 -437.062 1282.05 -401.541 1407.19 -373.72C1310.11 -214.198 1178.03 -27.4354 1025.2 156.531C972.161 135.114 919.051 108.422 869.013 75.1572C895.34 130.873 936.058 173.471 983.51 206.03C837.165 377.425 673.786 544.013 505.05 681.207C58.2448 1044.54 31.5555 685.853 168.026 614.414ZM168.026 614.414C168.377 614.23 168.73 614.048 169.083 613.868C169.083 613.868 168.719 614.052 168.026 614.414ZM1444.26 -365.659C1463.22 -361.634 1481.94 -357.818 1500.33 -354.256C1474.5 -184.839 1433.82 27.812 1371.43 238.472C1305.26 232.078 1207.59 217.557 1103.43 184.588C1234.52 16.5413 1353.04 -170.254 1444.26 -365.659ZM1465.35 -412.095C1479.33 -408.472 1493.31 -404.852 1507.28 -401.24C1516.77 -467.464 1523.86 -525.629 1529.02 -572.576C1510.05 -518.648 1488.73 -465.088 1465.35 -412.095Z" stroke="white" stroke-width="2"/>
</svg>
