<svg width="510" height="595" viewBox="0 0 510 595" fill="none" xmlns="http://www.w3.org/2000/svg">
<path opacity="0.5" d="M-1115.25 -387.542C-1129.46 -394.965 -1282.18 -477.327 -1282.18 -589.012C-1282.18 -706.148 -1154.09 -763.083 -862.22 -589.012C-660.672 -468.82 -432.324 -266.936 -228.812 -18.9042C-121.435 -67.8644 -0.823968 -80.3615 66.0139 -83.3218C47.6265 -140.49 27.566 -197.128 5.6934 -252.318C-201.962 -776.281 -24.6276 -589.719 33.6906 -488.004C92.0087 -386.289 285.665 -218.648 285.665 -218.648C285.665 -218.648 164.353 -227.773 117.682 -285.987C208.018 -80.2417 286.404 287.366 306.329 565.548C388.569 553.034 459.604 548.138 509.643 555.748C444.04 571.834 376.792 588.839 308.857 606.255C315.855 740.453 307.694 849.234 278.58 901.291C278.336 901.728 278.09 902.161 277.842 902.591C271.968 912.779 265.258 920.702 257.668 926.112C233.236 872.044 191.836 715.734 151.544 646.882C142.669 649.184 133.795 651.486 124.924 653.788C-273.093 757.05 -665.178 858.773 -862.22 858.773C-1123.52 858.773 -1142.19 689.719 -1142.19 623.087C-1142.19 503.123 -1027.88 409.859 -862.22 353.732C-862.22 353.732 -1058.2 423.158 -1058.2 623.087C-1058.2 845.305 -729.233 807.562 -498.256 757.765C-436.095 744.363 -349.433 721.256 -251.912 695.254C-134.447 663.934 -1.22667 628.413 123.908 600.593C26.8331 441.07 -105.25 254.308 -258.08 70.3412C-311.116 91.7589 -364.226 118.451 -414.265 151.715C-387.938 95.9999 -347.22 53.4013 -299.767 20.8429C-446.113 -150.553 -609.491 -317.141 -778.228 -454.334C-1225.03 -817.668 -1251.72 -458.981 -1115.25 -387.542ZM-1115.25 -387.542C-1114.9 -387.358 -1114.55 -387.176 -1114.19 -386.996C-1114.19 -386.996 -1114.56 -387.179 -1115.25 -387.542ZM160.982 592.532C179.947 588.506 198.665 584.691 217.048 581.129C191.227 411.712 150.547 199.061 88.1521 -11.5999C21.9815 -5.20495 -75.6896 9.31574 -179.852 42.285C-48.7554 210.331 69.7659 397.127 160.982 592.532ZM182.068 638.968C196.051 635.344 210.031 631.724 223.998 628.113C233.497 694.337 240.586 752.501 245.745 799.448C226.777 745.52 205.455 691.961 182.068 638.968Z" stroke="white" stroke-width="2"/>
</svg>
