<svg width="14" height="15" viewBox="0 0 14 15" fill="none" xmlns="http://www.w3.org/2000/svg">
<path fill-rule="evenodd" clip-rule="evenodd" d="M2.0893 2.32454C1.90459 2.32454 1.72745 2.39792 1.59685 2.52853C1.46624 2.65913 1.39287 2.83626 1.39287 3.02097V12.4826L2.98971 10.8857C3.12032 10.7551 3.29746 10.6817 3.48216 10.6817H11.8394C12.0241 10.6817 12.2012 10.6083 12.3318 10.4777C12.4624 10.3471 12.5358 10.17 12.5358 9.98529V3.02097C12.5358 2.83626 12.4624 2.65913 12.3318 2.52853C12.2012 2.39792 12.0241 2.32454 11.8394 2.32454H2.0893ZM0.611941 1.5436C1.00376 1.15178 1.53518 0.931671 2.0893 0.931671H11.8394C12.3935 0.931671 12.9249 1.15178 13.3167 1.5436C13.7085 1.93542 13.9287 2.46685 13.9287 3.02097V9.98529C13.9287 10.5394 13.7085 11.0708 13.3167 11.4627C12.9249 11.8545 12.3935 12.0746 11.8394 12.0746H3.77063L1.18888 14.6563C0.989706 14.8555 0.690158 14.9151 0.429919 14.8073C0.16968 14.6995 0 14.4456 0 14.1639V3.02097C0 2.46685 0.220122 1.93542 0.611941 1.5436Z" fill="white"/>
</svg>
