<svg width="10" height="9" viewBox="0 0 10 9" fill="none" xmlns="http://www.w3.org/2000/svg">
<path fill-rule="evenodd" clip-rule="evenodd" d="M1.84974 1.43345C1.62093 1.43345 1.43198 1.62239 1.43198 1.8512V6.86429C1.43198 7.0931 1.62093 7.28205 1.84974 7.28205H8.53386C8.76267 7.28205 8.95161 7.0931 8.95161 6.86429V1.8512C8.95161 1.62239 8.76267 1.43345 8.53386 1.43345H1.84974ZM0.59647 1.8512C0.59647 1.16095 1.15949 0.597931 1.84974 0.597931H8.53386C9.22411 0.597931 9.78713 1.16095 9.78713 1.8512V6.86429C9.78713 7.55454 9.22411 8.11756 8.53386 8.11756H1.84974C1.15949 8.11756 0.59647 7.55454 0.59647 6.86429V1.8512Z" fill="#342B2B"/>
<path fill-rule="evenodd" clip-rule="evenodd" d="M0.671988 1.61162C0.804298 1.42261 1.06478 1.37666 1.2538 1.50897L5.1918 4.26557L9.12981 1.50897C9.31882 1.37666 9.5793 1.42261 9.71161 1.61162C9.84392 1.80064 9.79796 2.06113 9.60894 2.19344L5.43137 5.11774C5.28753 5.21843 5.09608 5.21843 4.95223 5.11774L0.774662 2.19344C0.585648 2.06113 0.539678 1.80064 0.671988 1.61162Z" fill="#342B2B"/>
</svg>
