<svg width="15" height="18" viewBox="0 0 15 18" fill="none" xmlns="http://www.w3.org/2000/svg">
<path fill-rule="evenodd" clip-rule="evenodd" d="M7.91123 1.78215C6.43864 1.78215 5.02636 2.36713 3.98508 3.40841C2.9438 4.44969 2.35881 5.86198 2.35881 7.33457C2.35881 9.48478 3.75784 11.5712 5.29184 13.1905C6.04465 13.9851 6.79982 14.6356 7.36756 15.0877C7.57886 15.256 7.76341 15.3961 7.91123 15.5054C8.05905 15.3961 8.2436 15.256 8.4549 15.0877C9.02264 14.6356 9.77781 13.9851 10.5306 13.1905C12.0646 11.5712 13.4636 9.48478 13.4636 7.33457C13.4636 5.86198 12.8787 4.44969 11.8374 3.40841C10.7961 2.36713 9.38382 1.78215 7.91123 1.78215ZM7.91123 16.3573C7.52624 16.9347 7.52587 16.9345 7.52587 16.9345L7.52388 16.9332L7.51926 16.9301L7.50335 16.9193C7.48984 16.9101 7.47056 16.8969 7.44591 16.8799C7.39661 16.8457 7.32578 16.796 7.23647 16.7315C7.05793 16.6025 6.80516 16.4143 6.50287 16.1736C5.8994 15.6931 5.09295 14.9989 4.28414 14.1451C2.69491 12.4676 0.970703 10.0427 0.970703 7.33457C0.970703 5.49383 1.70194 3.72849 3.00354 2.42689C4.30514 1.12529 6.07049 0.394043 7.91123 0.394043C9.75197 0.394043 11.5173 1.12529 12.8189 2.42689C14.1205 3.72849 14.8518 5.49383 14.8518 7.33457C14.8518 10.0427 13.1275 12.4676 11.5383 14.1451C10.7295 14.9989 9.92305 15.6931 9.31958 16.1736C9.0173 16.4143 8.76454 16.6025 8.586 16.7315C8.49669 16.796 8.42585 16.8457 8.37655 16.8799C8.3519 16.8969 8.33263 16.9101 8.31912 16.9193L8.30321 16.9301L8.29858 16.9332L8.29711 16.9341C8.29711 16.9341 8.29622 16.9347 7.91123 16.3573ZM7.91123 16.3573L8.29622 16.9347C8.06309 17.0901 7.759 17.0899 7.52587 16.9345L7.91123 16.3573Z" fill="white"/>
<path fill-rule="evenodd" clip-rule="evenodd" d="M7.91123 5.94646C7.1446 5.94646 6.52312 6.56794 6.52312 7.33457C6.52312 8.1012 7.1446 8.72267 7.91123 8.72267C8.67786 8.72267 9.29933 8.1012 9.29933 7.33457C9.29933 6.56794 8.67786 5.94646 7.91123 5.94646ZM5.13502 7.33457C5.13502 5.80131 6.37797 4.55836 7.91123 4.55836C9.44449 4.55836 10.6874 5.80131 10.6874 7.33457C10.6874 8.86783 9.44449 10.1108 7.91123 10.1108C6.37797 10.1108 5.13502 8.86783 5.13502 7.33457Z" fill="white"/>
</svg>
