<svg width="15" height="15" viewBox="0 0 15 15" fill="none" xmlns="http://www.w3.org/2000/svg">
<path d="M12.5091 14.9901C12.448 14.9901 12.387 14.9901 12.3259 14.9901C10.3723 14.7459 8.41875 14.0744 6.77041 13.0365C5.24417 12.0597 3.90108 10.7167 2.92429 9.19042C1.8254 7.54208 1.15385 5.58848 0.970703 3.63489C0.970703 3.14649 1.0928 2.65809 1.39805 2.29179C1.7033 1.92549 2.13064 1.68131 2.61904 1.62026C2.68009 1.62026 2.74114 1.62026 2.80219 1.62026H4.63368C5.54942 1.62026 6.34306 2.29179 6.46516 3.20753C6.52621 3.75698 6.64831 4.30645 6.83146 4.79485C7.07565 5.46639 6.89251 6.19899 6.40411 6.74844L5.97677 7.17576C6.70936 8.27465 7.62511 9.25146 8.78505 9.98406L9.21239 9.5567C9.70079 9.06831 10.4944 8.88515 11.166 9.12935C11.6544 9.3125 12.2038 9.43462 12.7533 9.49567C13.669 9.61777 14.3406 10.4114 14.3406 11.3272V13.1586C14.3406 13.647 14.1574 14.1354 13.7911 14.4407C13.4248 14.7459 12.9975 14.9901 12.5091 14.9901ZM4.63368 2.84125H2.80219C2.61904 2.84125 2.43589 2.96337 2.31379 3.08547C2.25274 3.20756 2.19169 3.32963 2.19169 3.51278C2.37484 5.28322 2.98534 6.99261 3.96213 8.51885C4.87787 9.92299 6.03781 11.144 7.44195 11.9987C8.96819 12.9755 10.6776 13.586 12.448 13.7691C12.6922 13.7691 12.8143 13.7081 12.9364 13.586C13.0585 13.4639 13.1196 13.3418 13.1196 13.1586V11.3272C13.1196 11.0219 12.8754 10.7777 12.5701 10.7167C11.9596 10.6556 11.3491 10.4724 10.7386 10.2282C10.4944 10.1672 10.2502 10.1672 10.0671 10.3503L9.27344 11.144C9.09029 11.3271 8.78504 11.3882 8.54085 11.2661C6.89251 10.3503 5.54942 9.00727 4.63368 7.35893C4.57263 7.11474 4.63368 6.80948 4.81683 6.62633L5.61046 5.8327C5.73256 5.7106 5.79362 5.40535 5.73257 5.2222C5.48837 4.6117 5.36627 4.00121 5.24417 3.39071C5.24417 3.08547 4.93892 2.84125 4.63368 2.84125ZM11.8986 7.11472C11.5933 7.11472 11.3491 6.93158 11.2881 6.62633C11.1049 5.64954 10.3113 4.91694 9.33449 4.67274C9.02924 4.61169 8.78504 4.30643 8.84609 3.94014C8.90714 3.63489 9.21239 3.3907 9.57869 3.45175C11.0439 3.757 12.2038 4.8559 12.448 6.32108C12.5091 6.62633 12.3259 6.99264 11.9596 7.05369C11.9596 7.05369 11.9596 7.11472 11.8986 7.11472ZM14.3406 7.05369C14.0353 7.05369 13.7911 6.80947 13.7301 6.50423C13.4859 4.24539 11.7154 2.47497 9.39555 2.16972C9.0903 2.10867 8.84609 1.8034 8.84609 1.49815C8.84609 1.19291 9.21239 0.94873 9.51764 0.94873C12.387 1.25398 14.5848 3.45176 14.89 6.32108C14.9511 6.62633 14.7069 6.93156 14.3406 6.99261C14.4016 7.05366 14.3406 7.05369 14.3406 7.05369Z" fill="white"/>
</svg>