<svg width="14" height="15" viewBox="0 0 14 15" fill="none" xmlns="http://www.w3.org/2000/svg">
<path d="M11.5384 14.5641C11.4773 14.5641 11.4163 14.5641 11.3552 14.5641C9.40163 14.3199 7.44805 13.6483 5.79971 12.6105C4.27347 11.6337 2.93038 10.2906 1.95358 8.76437C0.854692 7.11603 0.183149 5.16242 0 3.20883C0 2.72044 0.122097 2.23203 0.427345 1.86574C0.732593 1.49944 1.15994 1.25525 1.64834 1.1942C1.70939 1.1942 1.77044 1.1942 1.83149 1.1942H3.66297C4.57872 1.1942 5.37236 1.86574 5.49446 2.78148C5.55551 3.33092 5.6776 3.88039 5.86075 4.36879C6.10495 5.04033 5.9218 5.77294 5.43341 6.32238L5.00606 6.7497C5.73866 7.84859 6.6544 8.82541 7.81435 9.558L8.24169 9.13065C8.73009 8.64225 9.52373 8.4591 10.1953 8.70329C10.6837 8.88644 11.2331 9.00856 11.7826 9.06961C12.6983 9.19171 13.3699 9.98536 13.3699 10.9011V12.7326C13.3699 13.221 13.1867 13.7094 12.8204 14.0146C12.4541 14.3199 12.0268 14.5641 11.5384 14.5641ZM3.66297 2.4152H1.83149C1.64834 2.4152 1.46519 2.53731 1.34309 2.65941C1.28204 2.78151 1.22099 2.90358 1.22099 3.08673C1.40414 4.85716 2.01463 6.56656 2.99142 8.0928C3.90717 9.49694 5.06711 10.7179 6.47125 11.5726C7.99749 12.5494 9.70688 13.1599 11.4773 13.3431C11.7215 13.3431 11.8436 13.282 11.9657 13.1599C12.0878 13.0378 12.1489 12.9157 12.1489 12.7326V10.9011C12.1489 10.5959 11.9047 10.3517 11.5994 10.2906C10.9889 10.2296 10.3784 10.0464 9.76793 9.80218C9.52373 9.74113 9.27953 9.74114 9.09638 9.92428L8.30274 10.7179C8.11959 10.9011 7.81434 10.9621 7.57014 10.84C5.9218 9.92428 4.57872 8.58122 3.66297 6.93288C3.60192 6.68868 3.66298 6.38343 3.84612 6.20028L4.63976 5.40664C4.76186 5.28454 4.82292 4.97929 4.76187 4.79614C4.51767 4.18565 4.39557 3.57515 4.27347 2.96466C4.27347 2.65941 3.96822 2.4152 3.66297 2.4152ZM10.9279 6.68867C10.6226 6.68867 10.3784 6.50552 10.3174 6.20028C10.1342 5.22348 9.34058 4.49088 8.36379 4.24668C8.05854 4.18563 7.81434 3.88038 7.87539 3.51408C7.93644 3.20883 8.24168 2.96464 8.60798 3.02569C10.0732 3.33094 11.2331 4.42984 11.4773 5.89503C11.5384 6.20028 11.3552 6.56658 10.9889 6.62763C10.9889 6.62763 10.9889 6.68867 10.9279 6.68867ZM13.3699 6.62763C13.0646 6.62763 12.8204 6.38342 12.7594 6.07817C12.5152 3.81934 10.7447 2.04891 8.42484 1.74367C8.11959 1.68262 7.87539 1.37735 7.87539 1.0721C7.87539 0.76685 8.24169 0.522675 8.54694 0.522675C11.4163 0.827922 13.6141 3.0257 13.9193 5.89503C13.9804 6.20028 13.7361 6.50551 13.3699 6.56656C13.4309 6.62761 13.3699 6.62763 13.3699 6.62763Z" fill="white"/>
</svg>
