<svg xmlns="http://www.w3.org/2000/svg">
    <symbol id="s-016" width="92" height="92" viewBox="0 0 92 92" fill="none">
<path d="M65.5455 0.60624V0.563505H27.3902C26.4012 0.560765 25.4215 0.755096 24.5079 1.13525C23.5942 1.5154 22.7646 2.07382 22.0673 2.77818L3.01166 21.9186C2.3105 22.6192 1.75461 23.4524 1.37616 24.3701C0.99772 25.2879 0.804237 26.2719 0.806912 27.2653V83.7378C0.809179 85.7425 1.60301 87.6644 3.01424 89.0819C4.42548 90.4994 6.33887 91.2968 8.33466 91.2991H54.2539C54.6532 91.2991 55.0361 91.1397 55.3185 90.8561C55.6008 90.5725 55.7594 90.1879 55.7594 89.7868V88.2746H8.33466C7.13719 88.2732 5.98916 87.7948 5.14242 86.9442C4.29568 86.0937 3.81938 84.9406 3.81801 83.7378V27.2653C3.81641 26.6692 3.9325 26.0788 4.15957 25.5282C4.38664 24.9775 4.72018 24.4776 5.14088 24.0572L23.3901 5.72674V18.7106C23.3888 19.9134 22.9125 21.0666 22.0658 21.9171C21.219 22.7676 20.071 23.246 18.8735 23.2474H9.8402V26.2719H18.8735C20.8693 26.2696 22.7827 25.4723 24.1939 24.0547C25.6051 22.6372 26.399 20.7153 26.4012 18.7106V3.69782C26.7259 3.62506 27.0575 3.58824 27.3902 3.58802H58.4379L65.7694 1.5345L65.5455 0.60624Z" fill="#342B2B"/>
<path fill-rule="evenodd" clip-rule="evenodd" d="M36.9826 26.2719H29.4123C29.013 26.2719 28.6301 26.4312 28.3478 26.7149C28.0654 26.9985 27.9068 27.3831 27.9068 27.7842V41.3945H20.379C19.9797 41.3945 19.5968 41.5538 19.3145 41.8374C19.0321 42.121 18.8735 42.5057 18.8735 42.9068V53.4926H11.3458C10.9465 53.4926 10.5635 53.6519 10.2812 53.9355C9.99883 54.2191 9.84021 54.6038 9.8402 55.0048V67.1029H6.82911V70.1274H51.9956V67.1029H48.9845V50.4065L48.3153 47.7702L45.9734 48.0545V67.1029H39.9512V40.2456L39.1509 31.4936C39.1634 29.753 38.7472 26.2719 36.9826 26.2719ZM12.8513 67.1029H18.8735V56.5171H12.8513V67.1029ZM21.8846 67.1029H27.9068V44.419H21.8846V67.1029ZM30.9179 67.1029H36.9401V29.2964H30.9179V67.1029Z" fill="#342B2B"/>
<path d="M18.8735 73.152H12.8513V76.1765H18.8735V73.152Z" fill="#342B2B"/>
<path d="M27.9068 73.152H21.8846V76.1765H27.9068V73.152Z" fill="#342B2B"/>
<path d="M36.9401 73.152H30.9179V76.1765H36.9401V73.152Z" fill="#342B2B"/>
<path d="M45.9734 73.152H39.9512V76.1765H45.9734V73.152Z" fill="#342B2B"/>
<path d="M64.04 6.6126C59.8713 6.6126 55.7961 7.8543 52.3299 10.1807C48.8637 12.507 46.1621 15.8136 44.5668 19.6822C42.9715 23.5508 42.5541 27.8077 43.3674 31.9146C44.1807 36.0215 46.1881 39.7939 49.1359 42.7548C52.0836 45.7157 55.8393 47.7321 59.928 48.549C64.0167 49.3659 68.2547 48.9467 72.1061 47.3442C75.9576 45.7418 79.2495 43.0282 81.5655 39.5465C83.8815 36.0649 85.1177 31.9716 85.1177 27.7842C85.1114 22.1711 82.8887 16.7897 78.9372 12.8206C74.9858 8.85157 69.6283 6.61896 64.04 6.6126ZM64.04 9.63712C67.775 9.64163 71.4172 10.8068 74.4668 12.9728C77.5164 15.1389 79.8241 18.1996 81.0733 21.7352H70.0622V20.2229C70.0622 19.8219 69.9036 19.4372 69.6213 19.1536C69.3389 18.87 68.956 18.7107 68.5567 18.7107H62.5345C62.1352 18.7107 61.7523 18.87 61.4699 19.1536C61.1876 19.4372 61.029 19.8219 61.0289 20.2229V25.6455L58.8997 27.7842H53.5012C53.1019 27.7842 52.719 27.9436 52.4366 28.2272C52.1543 28.5108 51.9957 28.8954 51.9957 29.2965V34.7191L48.9608 37.7674C47.1636 35.0328 46.1375 31.8602 45.9915 28.5867C45.8455 25.3133 46.5851 22.0612 48.1317 19.1761C49.6782 16.291 51.974 13.8806 54.7751 12.201C57.5761 10.5215 60.7778 9.63545 64.04 9.63712ZM67.0511 21.7352V24.7597H64.04V21.7352H67.0511ZM58.0179 30.8087V33.8333H55.0068V30.8087H58.0179ZM64.04 45.9313C61.5627 45.9324 59.1118 45.4203 56.8403 44.4271C54.5689 43.4338 52.5257 41.9808 50.8385 40.1588L54.1249 36.8578H59.5234C59.9227 36.8578 60.3056 36.6984 60.588 36.4148C60.8703 36.1312 61.0289 35.7466 61.0289 35.3455V29.9229L63.1582 27.7842H68.5567C68.956 27.7842 69.3389 27.6249 69.6213 27.3413C69.9036 27.0577 70.0622 26.673 70.0622 26.272V24.7597H81.8543C82.2919 27.3618 82.1592 30.0285 81.4655 32.5739C80.7719 35.1192 79.5339 37.482 77.838 39.4975C76.1421 41.5131 74.029 43.1329 71.646 44.244C69.2629 45.3552 66.6673 45.931 64.04 45.9313Z" fill="#5E6398"/>
<path fill-rule="evenodd" clip-rule="evenodd" d="M74.4199 75.5001C74.5244 75.7101 74.5789 75.9417 74.5789 76.1765V91.2991H71.5678V77.6887H56.5123V91.2991H53.5012V76.1765C53.5012 75.9417 53.5556 75.7101 53.6601 75.5001L58.0178 66.7459V54.3265C54.7928 53.5874 51.7308 52.2586 48.9845 50.4065L45.9734 48.0546C43.5114 45.8397 41.4709 43.1937 39.9512 40.2457C39.8956 40.1183 39.8369 39.9854 39.7755 39.8467C38.7455 37.5165 36.9827 33.5286 36.9827 26.272C37.2497 21.5376 38.7416 16.955 41.311 12.9769C43.8805 8.99872 47.4385 5.7626 51.6339 3.58809C53.7002 2.42436 59.3753 0.198776 65.5456 0.606303C79.7908 1.39372 91.1399 13.2821 91.1399 27.7842C91.1399 40.7154 82.1163 51.5684 70.0622 54.3265V66.7459L74.4199 75.5001ZM64.04 51.9804C59.2757 51.9804 54.6184 50.5613 50.657 47.9026C46.6956 45.2439 43.6081 41.4649 41.7849 37.0437C39.9617 32.6224 39.4846 27.7574 40.4141 23.0638C41.3436 18.3702 43.6378 14.0589 47.0067 10.675C50.3755 7.29108 54.6678 4.98662 59.3405 4.05301C64.0133 3.11939 68.8567 3.59856 73.2584 5.42991C77.66 7.26125 81.4222 10.3625 84.0691 14.3416C86.716 18.3206 88.1288 22.9987 88.1288 27.7842C88.1216 34.1992 85.5813 40.3494 81.0654 44.8855C76.5494 49.4215 70.4265 51.9731 64.04 51.9804ZM61.0289 54.836V65.5907H67.0511V54.836C65.05 55.0612 63.0301 55.0612 61.0289 54.836ZM67.6262 68.6152L70.6373 74.6642H57.4428L60.4539 68.6152H67.6262Z" fill="#5E6398"/>
    </symbol>
</svg>
