<svg xmlns="http://www.w3.org/2000/svg">
    <symbol id="s-019" width="92" height="92" viewBox="0 0 92 92" fill="none">
<path d="M59.0069 32.4001H83.8477C87.9382 32.4001 91.2657 35.7425 91.2657 39.8513V74.2686C91.2657 78.3767 87.9382 81.7197 83.8477 81.7197H80.4919V89.525C80.4919 90.2111 80.0986 90.8348 79.4818 91.1286C79.241 91.2429 78.983 91.2991 78.7257 91.2991C78.3255 91.2991 77.9288 91.1632 77.6073 90.8985L66.4381 81.7197H41.4579C37.368 81.7197 34.0405 78.3767 34.0405 74.2686V58.7335L37.5729 58.0093V74.2686C37.5729 76.4203 39.3157 78.1715 41.4579 78.1715H66.3884C67.3343 78.1715 67.7551 78.1715 68.236 78.6123L76.9594 85.7814V79.9456C76.9594 78.9657 77.7501 78.1715 78.7257 78.1715H83.8477C85.9906 78.1715 87.7333 76.4203 87.7333 74.2686V39.8513C87.7333 37.6988 85.9906 35.9483 83.8477 35.9483H58.4667L59.0069 32.4001Z" fill="#5E6398"/>
<path d="M71.4421 62.3122C72.041 62.0287 72.4563 61.4182 72.4563 60.7086C72.4563 59.7294 71.6656 58.9345 70.6901 58.9345H69.967L64.271 45.895C63.9888 45.2498 63.3541 44.8333 62.6531 44.8333C61.9522 44.8333 61.3174 45.2498 61.036 45.895L55.3399 58.9345H54.6169C53.6413 58.9345 52.8507 59.7294 52.8507 60.7086C52.8507 61.4182 53.266 62.0287 53.8649 62.3122L51.7433 67.1687C51.3515 68.0662 51.7578 69.1126 52.6506 69.5062C53.544 69.8999 54.5858 69.4917 54.9777 68.5942L57.6477 62.4827H67.6592L70.3293 68.5942C70.6197 69.2595 71.2676 69.6559 71.9478 69.6559C72.1845 69.6559 72.4252 69.6081 72.6564 69.5062C73.5491 69.1126 73.9562 68.0662 73.5636 67.1687L71.4421 62.3122ZM59.1973 58.9345L62.6531 51.0232L66.109 58.9345H59.1973Z" fill="#5E6398"/>
<path d="M59.0066 32.4001C59.0853 31.5249 59.1281 30.6385 59.1281 29.7425C59.1281 13.5996 46.0526 0.466553 29.9814 0.466553C24.8622 0.466553 19.8264 1.81929 15.4184 4.37786C14.574 4.86781 14.2849 5.95306 14.7727 6.80129C15.2611 7.65022 16.3416 7.93989 17.186 7.44994C21.0572 5.20253 25.4817 4.01473 29.9814 4.01473C44.1049 4.01473 55.5956 15.556 55.5956 29.7425C55.5956 43.9289 44.1049 55.4709 29.9814 55.4709C24.0694 55.4709 18.5155 53.5034 13.9199 49.782C13.459 49.4092 12.8485 49.2976 12.2924 49.4688L7.60432 50.7002L9.44091 46.6462C9.70515 46.0641 9.63616 45.3849 9.26153 44.8672C6.06026 40.4507 4.36787 35.2206 4.36787 29.7425C4.36787 25.2109 5.55662 20.7556 7.80578 16.8588C8.29494 16.0106 8.00724 14.9254 7.16346 14.434C6.31968 13.9427 5.23925 14.231 4.7494 15.0792C2.18909 19.5158 0.835449 24.5865 0.835449 29.7425C0.835449 35.6254 2.5513 41.2588 5.80775 46.0994L2.85073 52.6254C2.56786 53.2484 2.66789 53.9788 3.10669 54.5027C3.54548 55.0267 4.24507 55.2498 4.90464 55.0766L12.4159 53.1043C17.451 56.9248 23.6527 59.019 29.9814 59.019C31.3592 59.019 32.7135 58.9199 34.0402 58.7335L37.5727 58.0093C48.0202 55.1757 56.16 46.642 58.4664 35.9483L59.0066 32.4001Z" fill="#342B2B"/>
<path d="M10.6207 12.0688C11.085 12.0688 11.5404 11.8789 11.8694 11.5491C12.1979 11.2192 12.3869 10.7618 12.3869 10.2947C12.3869 9.82833 12.1979 9.37094 11.8694 9.04038C11.5404 8.71051 11.085 8.52063 10.6207 8.52063C10.1543 8.52063 9.70032 8.71051 9.37191 9.04038C9.04351 9.37094 8.85447 9.82833 8.85447 10.2947C8.85447 10.7618 9.04351 11.2192 9.37191 11.5491C9.70032 11.8796 10.1557 12.0688 10.6207 12.0688Z" fill="#342B2B"/>
<path d="M19.4386 40.5394C18.5831 41.0107 18.2699 42.089 18.739 42.9483C19.0606 43.5367 19.6656 43.87 20.2893 43.87C20.5763 43.87 20.8675 43.7993 21.1372 43.651C25.076 41.4812 28.1062 38.1063 29.8786 34.1264C31.6517 38.1063 34.6812 41.4812 38.62 43.651C38.8897 43.7993 39.1809 43.87 39.4679 43.87C40.0916 43.87 40.6967 43.5367 41.0182 42.9483C41.4873 42.089 41.1741 41.0107 40.3186 40.5394C35.7078 37.9996 32.6045 33.4604 31.8339 28.3315H39.6756C40.6511 28.3315 41.4418 27.5373 41.4418 26.5574C41.4418 25.5775 40.6511 24.7833 39.6756 24.7833H31.6448V17.3904C31.6448 16.4105 30.8542 15.6163 29.8786 15.6163C28.9031 15.6163 28.1124 16.4105 28.1124 17.3904V24.7833H21.732C20.7564 24.7833 19.9657 25.5775 19.9657 26.5574C19.9657 27.5373 20.7564 28.3315 21.732 28.3315H27.9234C27.1527 33.4604 24.0494 38.0003 19.4386 40.5394Z" fill="#342B2B"/>
    </symbol>
</svg>
