<svg  xmlns="http://www.w3.org/2000/svg">
    <symbol id="s-013" width="88" height="89" viewBox="0 0 88 89" fill="none">
<path d="M86.6413 12.4979L44.5596 0.837356C44.307 0.767431 44.0402 0.767431 43.7876 0.837356L1.70598 12.4979C1.39983 12.5827 1.12985 12.7661 0.937452 13.0199C0.745053 13.2737 0.640865 13.5839 0.640869 13.9029V25.5634C0.640873 25.95 0.793756 26.3207 1.06589 26.5941C1.33802 26.8674 1.70711 27.021 2.09196 27.021H4.99414V34.3088C4.99529 35.2127 5.27483 36.0941 5.79444 36.8321C6.31404 37.5701 7.04824 38.1285 7.89633 38.4307V73.9137C7.04824 74.216 6.31404 74.7744 5.79444 75.5124C5.27483 76.2504 4.99529 77.1318 4.99414 78.0357V79.4932C3.83998 79.4945 2.73347 79.9556 1.91735 80.7754C1.10124 81.5951 0.642174 82.7066 0.640869 83.8659V86.781C0.640873 87.1676 0.793756 87.5383 1.06589 87.8117C1.33802 88.085 1.70711 88.2386 2.09196 88.2386H60.1356V85.3235H3.54305V83.8659C3.54349 83.4795 3.69652 83.109 3.96855 82.8357C4.24059 82.5625 4.60943 82.4088 4.99414 82.4083H60.1356V79.4932H31.1138V78.0357C31.1126 77.1318 30.8331 76.2504 30.3135 75.5124C29.7939 74.7744 29.0597 74.216 28.2116 73.9137V38.4307C29.0597 38.1285 29.7939 37.57 30.3135 36.8321C30.8331 36.0941 31.1126 35.2127 31.1138 34.3088V32.8512H48.5269V29.9361H7.89633V27.021H48.5269V24.1059H3.54305V15.0128L44.1736 3.75443L84.8042 15.0128V24.1059H81.902C81.5171 24.1059 81.1481 24.2594 80.8759 24.5328C80.6038 24.8061 80.4509 25.1769 80.4509 25.5634V34.3088C80.4503 34.5648 80.3829 34.8162 80.2554 35.0379C80.1279 35.2596 79.9448 35.4438 79.7243 35.5722L81.1775 38.0956C81.838 37.7105 82.3865 37.1582 82.7682 36.4937C83.15 35.8293 83.3516 35.0759 83.3531 34.3088V27.021H86.2553C86.6401 27.021 87.0092 26.8674 87.2813 26.5941C87.5535 26.3207 87.7064 25.95 87.7064 25.5634V13.9029C87.7064 13.5839 87.6022 13.2737 87.4098 13.0199C87.2174 12.7661 86.9474 12.5827 86.6413 12.4979ZM7.89633 78.0357C7.89677 77.6492 8.04979 77.2787 8.32183 77.0055C8.59386 76.7322 8.9627 76.5785 9.34742 76.5781H11.0481C10.8827 77.0461 10.7983 77.539 10.7985 78.0357V79.4932H7.89633V78.0357ZM13.7007 34.3088V32.8512H16.6029V34.3088C16.6027 34.8054 16.6871 35.2984 16.8525 35.7664H15.1518C14.7671 35.7659 14.3982 35.6122 14.1262 35.339C13.8542 35.0657 13.7011 34.6952 13.7007 34.3088ZM16.6029 79.4932H13.7007V78.0357C13.7011 77.6492 13.8542 77.2787 14.1262 77.0055C14.3982 76.7322 14.7671 76.5785 15.1518 76.5781H16.8525C16.6871 77.0461 16.6027 77.539 16.6029 78.0357V79.4932ZM19.5051 38.6815V73.663H16.6029V38.6815H19.5051ZM22.4072 38.6815H25.3094V73.663H22.4072V38.6815ZM13.7007 38.6815V73.663H10.7985V38.6815H13.7007ZM19.5051 79.4932V78.0357C19.5055 77.6492 19.6585 77.2787 19.9306 77.0055C20.2026 76.7322 20.5714 76.5785 20.9562 76.5781H26.7605C27.1452 76.5785 27.5141 76.7322 27.7861 77.0055C28.0581 77.2787 28.2112 77.6492 28.2116 78.0357V79.4932H19.5051ZM28.2116 34.3088C28.2112 34.6952 28.0581 35.0657 27.7861 35.339C27.5141 35.6122 27.1452 35.7659 26.7605 35.7664H20.9562C20.5714 35.7659 20.2026 35.6122 19.9306 35.339C19.6585 35.0657 19.5055 34.6952 19.5051 34.3088V32.8512H28.2116V34.3088ZM10.7985 32.8512V34.3088C10.7983 34.8054 10.8827 35.2984 11.0481 35.7664H9.34742C8.9627 35.7659 8.59386 35.6122 8.32183 35.339C8.04979 35.0657 7.89677 34.6952 7.89633 34.3088V32.8512H10.7985Z" fill="#342B2B"/>
<path d="M44.1736 6.61511C42.7386 6.61511 41.3359 7.04254 40.1427 7.84333C38.9495 8.64413 38.0196 9.78233 37.4704 11.114C36.9213 12.4457 36.7776 13.911 37.0576 15.3247C37.3375 16.7384 38.0285 18.037 39.0432 19.0562C40.0579 20.0754 41.3507 20.7695 42.7581 21.0507C44.1656 21.3319 45.6244 21.1876 46.9502 20.636C48.2759 20.0844 49.4091 19.1503 50.2063 17.9518C51.0035 16.7533 51.4291 15.3443 51.4291 13.9029C51.4269 11.9708 50.6618 10.1183 49.3016 8.75209C47.9414 7.38584 46.0972 6.61731 44.1736 6.61511ZM44.1736 18.2756C43.3126 18.2756 42.471 18.0192 41.7551 17.5387C41.0392 17.0582 40.4812 16.3753 40.1517 15.5763C39.8222 14.7773 39.736 13.8981 39.904 13.0499C40.072 12.2016 40.4866 11.4225 41.0954 10.811C41.7042 10.1994 42.4799 9.78298 43.3243 9.61426C44.1688 9.44554 45.0441 9.53213 45.8395 9.86309C46.635 10.194 47.3149 10.7545 47.7932 11.4736C48.2716 12.1927 48.5269 13.0381 48.5269 13.9029C48.5256 15.0622 48.0665 16.1737 47.2504 16.9934C46.4343 17.8132 45.3278 18.2743 44.1736 18.2756Z" fill="#342B2B"/>
<path d="M60.1356 12.4454H54.3313V15.3605H60.1356V12.4454Z" fill="#342B2B"/>
<path d="M34.016 12.4454H28.2116V15.3605H34.016V12.4454Z" fill="#342B2B"/>
<path d="M34.016 18.2756H6.44524V21.1907H34.016V18.2756Z" fill="#342B2B"/>
<path d="M81.902 18.2756H54.3313V21.1907H81.902V18.2756Z" fill="#342B2B"/>
<path d="M71.7445 47.4269C71.7445 45.9855 71.3189 44.5765 70.5217 43.378C69.7245 42.1795 68.5913 41.2454 67.2656 40.6938C65.9398 40.1422 64.481 39.9979 63.0735 40.2791C61.6661 40.5603 60.3733 41.2544 59.3586 42.2736C58.3439 43.2928 57.6529 44.5914 57.373 46.0051C57.093 47.4188 57.2367 48.8841 57.7858 50.2158C58.335 51.5475 59.2649 52.6857 60.4581 53.4865C61.6512 54.2873 63.054 54.7147 64.489 54.7147C66.4126 54.7125 68.2568 53.944 69.617 52.5777C70.9772 51.2115 71.7423 49.359 71.7445 47.4269ZM60.1357 47.4269C60.1357 46.562 60.3911 45.7166 60.8694 44.9975C61.3477 44.2785 62.0276 43.718 62.8231 43.387C63.6185 43.0561 64.4938 42.9695 65.3383 43.1382C66.1827 43.3069 66.9584 43.7234 67.5672 44.3349C68.176 44.9465 68.5907 45.7256 68.7586 46.5738C68.9266 47.422 68.8404 48.3012 68.5109 49.1002C68.1814 49.8992 67.6234 50.5821 66.9076 51.0626C66.1917 51.5431 65.35 51.7996 64.489 51.7996C63.3349 51.7982 62.2283 51.3371 61.4122 50.5174C60.5961 49.6976 60.1371 48.5862 60.1357 47.4269Z" fill="#5E6398"/>
<path d="M64.4167 72.4042L67.9455 79.4932H64.489C64.1042 79.4932 63.7351 79.6468 63.4629 79.9201C63.1908 80.1935 63.0379 80.5642 63.0379 80.9508V88.2386H65.9401V82.4083H83.3532V88.2386H86.2554V80.9508C86.2554 80.5642 86.1025 80.1935 85.8303 79.9201C85.5582 79.6468 85.1891 79.4932 84.8043 79.4932H83.6722L87.2606 61.4708C87.5941 59.8105 87.4038 58.0872 86.7164 56.5406L83.545 49.3733C83.0046 48.154 82.1759 47.0857 81.1309 46.2613C80.0859 45.4369 78.8562 44.8814 77.5488 44.6431V25.5635C77.5488 25.1769 77.3959 24.8062 77.1238 24.5328C76.8517 24.2595 76.4826 24.1059 76.0977 24.1059H52.8803C52.4954 24.1059 52.1263 24.2595 51.8542 24.5328C51.5821 24.8062 51.4292 25.1769 51.4292 25.5635V69.2903C51.4292 69.6769 51.5821 70.0476 51.8542 70.3209C52.1263 70.5943 52.4954 70.7478 52.8803 70.7479H63.7314C63.9218 71.3151 64.1507 71.8685 64.4167 72.4042ZM77.5488 69.2903V47.6326C78.2848 47.8457 78.9655 48.2178 79.5432 48.723C80.1209 49.2282 80.5816 49.8542 80.893 50.5571L84.0644 57.7245C84.507 58.7204 84.6295 59.83 84.4148 60.8991L80.7125 79.4932H71.1902L67.0125 71.1005C66.309 69.6831 65.942 68.1213 65.9401 66.5376V62.0025C65.9401 61.6159 66.093 61.2452 66.3651 60.9718C66.6372 60.6985 67.0063 60.5449 67.3912 60.5449C67.776 60.5449 68.1451 60.6985 68.4173 60.9718C68.6894 61.2452 68.8423 61.6159 68.8423 62.0025V66.3752C68.8436 67.5345 69.3027 68.6459 70.1188 69.4657C70.9349 70.2854 72.0414 70.7465 73.1956 70.7479H76.0977C76.4826 70.7478 76.8517 70.5943 77.1238 70.3209C77.3959 70.0476 77.5488 69.6769 77.5488 69.2903ZM71.7445 66.3752V63.4606C72.6031 62.8131 73.5945 62.3658 74.6466 62.151V67.8327H73.1956C72.8108 67.8323 72.442 67.6786 72.17 67.4053C71.8979 67.1321 71.7449 66.7616 71.7445 66.3752ZM74.6466 27.021V32.7046C73.2538 32.4162 71.9755 31.7242 70.9699 30.7141C69.9643 29.704 69.2754 28.4201 68.9883 27.021H74.6466ZM54.3314 27.021H59.9897C59.7026 28.4201 59.0137 29.704 58.0081 30.7141C57.0025 31.7242 55.7243 32.4162 54.3314 32.7046V27.021ZM54.3314 67.8327V62.1491C55.7243 62.4375 57.0025 63.1295 58.0081 64.1396C59.0137 65.1497 59.7026 66.4336 59.9897 67.8327H54.3314ZM62.9326 67.8327C62.616 65.6544 61.6079 63.637 60.0582 62.0803C58.5085 60.5237 56.5 59.5111 54.3314 59.1931V35.6606C56.5 35.3426 58.5085 34.33 60.0582 32.7734C61.6079 31.2168 62.616 29.1993 62.9326 27.021H66.0454C66.362 29.1993 67.3701 31.2168 68.9198 32.7734C70.4695 34.33 72.478 35.3426 74.6466 35.6606V59.1927C73.5058 59.3578 72.4013 59.7173 71.3809 60.2557C70.9814 59.3345 70.2782 58.5797 69.3897 58.1183C68.5012 57.6568 67.4815 57.5168 66.5023 57.7218C65.5231 57.9268 64.6441 58.4644 64.0131 59.244C63.3821 60.0236 63.0378 60.9978 63.0379 62.0025V66.5376C63.0379 66.97 63.061 67.4023 63.1039 67.8327H62.9326Z" fill="#5E6398"/>
    </symbol>
</svg>
