<svg xmlns="http://www.w3.org/2000/svg">
    <symbol id="s-018" width="90" height="89" viewBox="0 0 90 89" fill="none">
<path d="M42.2242 40.2246V31.3773H49.597V28.4282H24.5297V22.53H49.597V19.5809H11.2587C11.0651 19.5809 10.8733 19.619 10.6944 19.6931C10.5155 19.7672 10.353 19.8758 10.2161 20.0127C10.0791 20.1497 9.97051 20.3122 9.89641 20.4911C9.82231 20.67 9.78417 20.8618 9.78418 21.0554V72.6646C9.78417 72.8583 9.82231 73.05 9.89641 73.2289C9.97051 73.4078 10.0791 73.5704 10.2161 73.7073C10.353 73.8442 10.5155 73.9528 10.6944 74.0269C10.8733 74.101 11.0651 74.1392 11.2587 74.1392H36.326V71.1901H24.5297V65.2919H36.326V62.3428H24.5297V40.2246H42.2242ZM39.2751 31.3773V37.2755H24.5297V31.3773H39.2751ZM21.5806 22.53V37.2755H12.7333V22.53H21.5806ZM21.5806 71.1901H12.7333V65.2919H21.5806V71.1901ZM21.5806 62.3428H12.7333V40.2246H21.5806V62.3428Z" fill="#5E6398"/>
<path d="M15.6824 12.2081H11.2587V15.1572H15.6824V12.2081Z" fill="#5E6398"/>
<path d="M28.9533 12.2081H18.6315V15.1572H28.9533V12.2081Z" fill="#5E6398"/>
<path d="M17.1569 78.5628H11.2587V81.5119H17.1569V78.5628Z" fill="#5E6398"/>
<path d="M26.0042 78.5628H20.106V81.5119H26.0042V78.5628Z" fill="#5E6398"/>
<path d="M86.4608 77.9521V56.4446C86.4552 52.1311 84.9974 47.9452 82.3224 44.5613C79.6474 41.1774 75.911 38.7928 71.7153 37.7916V35.3112C72.6928 32.6333 73.1919 29.8044 73.1899 26.9536C73.1899 26.76 73.1517 26.5683 73.0776 26.3893C73.0035 26.2104 72.8949 26.0479 72.758 25.911C72.6211 25.774 72.4585 25.6654 72.2796 25.5913C72.1007 25.5172 71.909 25.4791 71.7153 25.4791V22.024C71.718 21.0554 71.5285 20.0959 71.1578 19.2011C70.7872 18.3062 70.2427 17.4937 69.5559 16.8107L55.3164 2.57121C54.6334 1.88443 53.8209 1.33994 52.926 0.969273C52.0312 0.598603 51.0717 0.409113 50.1031 0.411771H8.30975C6.35506 0.413976 4.48105 1.19145 3.09887 2.57363C1.71669 3.95581 0.939217 5.82982 0.937012 7.78451V81.5119C0.939217 83.4666 1.71669 85.3406 3.09887 86.7228C4.48105 88.105 6.35506 88.8825 8.30975 88.8847H87.9354C88.129 88.8847 88.3207 88.8465 88.4997 88.7724C88.6786 88.6983 88.8411 88.5897 88.978 88.4528C89.115 88.3159 89.2236 88.1533 89.2977 87.9744C89.3718 87.7955 89.4099 87.6038 89.4099 87.4101V83.5972C89.4123 82.7421 89.245 81.895 88.9177 81.105C88.5905 80.315 88.1098 79.5977 87.5035 78.9947L86.4608 77.9521ZM57.9706 37.2815L57.0328 34.9368C56.1993 32.8585 55.6973 30.6622 55.5453 28.4282H70.1907C70.0387 30.6622 69.5368 32.8585 68.7033 34.9368L67.7655 37.2815C67.608 37.2777 67.4501 37.2757 67.2917 37.2755H58.4444C58.286 37.2755 58.1281 37.2775 57.9706 37.2815ZM36.3262 83.5972V85.9356H8.30975C7.13694 85.9342 6.01255 85.4677 5.18325 84.6384C4.35394 83.8091 3.88745 82.6847 3.88611 81.5119V7.78451C3.88745 6.6117 4.35394 5.48731 5.18325 4.658C6.01255 3.8287 7.13694 3.36221 8.30975 3.36087H50.1031C50.4289 3.36107 50.7537 3.39698 51.0717 3.46796V13.6827C51.0739 15.6374 51.8513 17.5114 53.2335 18.8936C54.6157 20.2758 56.4897 21.0532 58.4444 21.0554H62.868V18.1064H58.4444C57.2716 18.105 56.1472 17.6386 55.3179 16.8092C54.4885 15.9799 54.0221 14.8555 54.0208 13.6827V5.44615L67.4706 18.896C67.8827 19.3058 68.2093 19.7933 68.4317 20.3302C68.6541 20.8672 68.7678 21.4429 68.7662 22.024V25.4791H54.0208C53.8271 25.4791 53.6354 25.5172 53.4565 25.5913C53.2776 25.6654 53.115 25.774 52.9781 25.911C52.8412 26.0479 52.7325 26.2104 52.6584 26.3893C52.5843 26.5683 52.5462 26.76 52.5462 26.9536C52.5436 30.0637 53.1371 33.1455 54.2946 36.0321L54.9222 37.6011C50.528 38.4286 46.5604 40.7638 43.7039 44.2039C40.8474 47.644 39.2811 51.9732 39.2753 56.4446V77.9521L38.2326 78.9947C37.6263 79.5976 37.1456 80.3149 36.8184 81.105C36.4911 81.895 36.3238 82.7421 36.3262 83.5972ZM86.4608 85.9356H39.2753V83.5972C39.274 83.1295 39.3655 82.6663 39.5444 82.2342C39.7234 81.8021 39.9863 81.4098 40.3179 81.08L41.7925 79.6055C41.9294 79.4686 42.038 79.306 42.1121 79.1271C42.1862 78.9482 42.2244 78.7565 42.2244 78.5628V56.4446C42.2292 52.1443 43.9397 48.0215 46.9805 44.9807C50.0213 41.9399 54.1441 40.2294 58.4444 40.2246H67.2917C71.592 40.2294 75.7148 41.9399 78.7556 44.9807C81.7964 48.0215 83.5069 52.1443 83.5117 56.4446V77.0883H77.6135V80.0374H84.3755L85.4182 81.0801C85.7498 81.4099 86.0127 81.8021 86.1917 82.2342C86.3706 82.6663 86.4621 83.1296 86.4608 83.5972V85.9356Z" fill="#342B2B"/>
<path d="M57.4939 62.2513H60.4594V65.3768H57.4939V62.2513Z" fill="#342B2B"/>
<path d="M65.6189 51.6791C67.3581 51.6791 68.7136 52.3265 69.6855 53.6214C70.6745 54.8947 71.1689 56.5349 71.1689 58.542C71.1689 60.549 70.6745 62.2 69.6855 63.4949C68.6966 64.7682 67.341 65.4049 65.6189 65.4049H62.1661V74.1392H59.5062V51.6791H65.6189ZM65.2608 62.2324C66.1986 62.2324 66.9403 61.9195 67.486 61.2936C68.0316 60.6462 68.3044 59.729 68.3044 58.542C68.3044 57.355 68.0316 56.4486 67.486 55.8227C66.9403 55.1753 66.1986 54.8515 65.2608 54.8515H62.1661V62.2324H65.2608Z" fill="#342B2B"/>
<path d="M57.4939 66.6234H67.0648V69.7489H57.4939V66.6234Z" fill="#342B2B"/>
<path d="M75.0692 17.2707V2.03278M75.0692 2.03278L68.0986 9.0033M75.0692 2.03278L82.0397 9.0033" stroke="#5E6398" stroke-width="3" stroke-linejoin="round"/>
<path d="M82.5695 32.2603V24.2062M82.5695 24.2062L77.9702 28.8054M82.5695 24.2062L87.1687 28.8054" stroke="#5E6398" stroke-width="3" stroke-linejoin="round"/>
</symbol>
</svg>
