<svg  xmlns="http://www.w3.org/2000/svg">
    <symbol id="s-011" width="88" height="88" viewBox="0 0 88 88" fill="none">
<path d="M46.9582 50.6771L49.691 46.0541L42.2527 38.5826L37.6502 41.3276C36.4418 40.6871 35.1679 40.1586 33.8496 39.7502L32.5256 34.5371H22.0078L20.6852 39.7516C19.3668 40.16 18.093 40.6885 16.8846 41.329L12.2821 38.584L4.84371 46.0555L7.57654 50.6785C6.93892 51.8923 6.41268 53.1718 6.00617 54.4961L0.816162 55.8246V66.3893L6.00756 67.7177C6.41407 69.042 6.94031 70.3215 7.57793 71.5353L4.8451 76.1583L12.2835 83.6299L16.886 80.8848C18.0944 81.5253 19.3682 82.0539 20.6866 82.4622L22.0092 87.6754H32.527L33.8496 82.4608C35.1679 82.0525 36.4418 81.5239 37.6502 80.8835L42.2527 83.6285L49.691 76.1569L46.9582 71.5339C47.5958 70.3201 48.1221 69.0406 48.5286 67.7163L53.7186 66.3879V55.8232L48.5272 54.4947C48.1207 53.1704 47.5958 51.8909 46.9582 50.6771ZM50.9342 64.2148L46.2788 65.4076L46.0672 66.1963C45.6273 67.8422 44.9813 69.4126 44.1474 70.8627L43.7409 71.5717L46.1911 75.7192L41.8141 80.1157L37.685 77.6546L36.9791 78.0629C35.5355 78.9006 33.9721 79.548 32.3335 79.9913L31.5483 80.2038L30.3622 84.8786H24.174L22.9865 80.2024L22.2013 79.9899C20.5627 79.548 18.9993 78.8992 17.5556 78.0615L16.8498 77.6532L12.7206 80.1143L8.34362 75.7178L10.7938 71.5703L10.3873 70.8613C9.55342 69.4112 8.90884 67.8408 8.46752 66.1949L8.25591 65.4062L3.6005 64.2148V57.999L8.25591 56.8062L8.46752 56.0175C8.90745 54.3717 9.55342 52.8013 10.3873 51.3512L10.7938 50.6422L8.34362 46.4946L12.7206 42.0981L16.8498 44.5592L17.5556 44.1509C18.9993 43.3133 20.5627 42.6658 22.2013 42.2226L22.9865 42.01L24.1726 37.3338H30.3608L31.5483 42.01L32.3335 42.2226C33.9721 42.6644 35.5355 43.3133 36.9791 44.1509L37.685 44.5592L41.8141 42.0981L46.1911 46.4946L43.7409 50.6422L44.1474 51.3512C44.9813 52.8013 45.6259 54.3717 46.0672 56.0175L46.2788 56.8062L50.9342 57.9976V64.2148Z" fill="#342B2B"/>
<path d="M27.2674 44.3257C18.0554 44.3257 10.5613 51.8532 10.5613 61.1062C10.5613 70.3593 18.0554 77.8867 27.2674 77.8867C36.4794 77.8867 43.9734 70.3593 43.9734 61.1062C43.9734 51.8532 36.4794 44.3257 27.2674 44.3257ZM27.2674 75.09C19.591 75.09 13.3457 68.8169 13.3457 61.1062C13.3457 53.3956 19.591 47.1225 27.2674 47.1225C34.9438 47.1225 41.1891 53.3956 41.1891 61.1062C41.1891 68.8169 34.9438 75.09 27.2674 75.09Z" fill="#342B2B"/>
<path d="M27.2674 52.716C22.6607 52.716 18.9144 56.479 18.9144 61.1062C18.9144 65.7334 22.6607 69.4965 27.2674 69.4965C31.8741 69.4965 35.6204 65.7334 35.6204 61.1062C35.6204 56.479 31.8741 52.716 27.2674 52.716ZM27.2674 66.6997C24.1963 66.6997 21.6987 64.191 21.6987 61.1062C21.6987 58.0214 24.1963 55.5127 27.2674 55.5127C30.3385 55.5127 32.8361 58.0214 32.8361 61.1062C32.8361 64.191 30.3385 66.6997 27.2674 66.6997Z" fill="#342B2B"/>
<path d="M82.9541 12.1631H49.5421C47.2394 12.1631 45.3656 14.0453 45.3656 16.3582V35.9355C45.3656 38.2484 47.2394 40.1306 49.5421 40.1306H52.3264V46.5883L65.1845 40.1306H82.9541C85.2568 40.1306 87.1306 38.2484 87.1306 35.9355V16.3582C87.1306 14.0453 85.2568 12.1631 82.9541 12.1631ZM84.3463 35.9355C84.3463 36.7074 83.7226 37.3338 82.9541 37.3338H64.5274L55.1108 42.0631V37.3338H49.5421C48.7736 37.3338 48.1499 36.7074 48.1499 35.9355V16.3582C48.1499 15.5863 48.7736 14.9598 49.5421 14.9598H82.9541C83.7226 14.9598 84.3463 15.5863 84.3463 16.3582V35.9355Z" fill="#342B2B"/>
<path d="M78.7776 31.7403H75.9933V20.5533H73.209V31.7403H70.4246V17.7566H67.6403V31.7403H64.8559V23.3501H62.0716V31.7403H59.2873V26.1468H56.5029V31.7403H53.7186V34.5371H81.562V17.7566H78.7776V31.7403Z" fill="#342B2B"/>
<path d="M4.99267 26.1468H18.5287L27.2674 31.4145V26.1468H38.4047C40.7074 26.1468 42.5812 24.2646 42.5812 21.9517V5.1712C42.5812 2.85829 40.7074 0.976074 38.4047 0.976074H4.99267C2.69002 0.976074 0.816162 2.85829 0.816162 5.1712V21.9517C0.816162 24.2646 2.69002 26.1468 4.99267 26.1468ZM3.6005 5.1712C3.6005 4.39929 4.22419 3.77282 4.99267 3.77282H38.4047C39.1732 3.77282 39.7969 4.39929 39.7969 5.1712V21.9517C39.7969 22.7236 39.1732 23.3501 38.4047 23.3501H24.483V26.4726L19.3 23.3501H4.99267C4.22419 23.3501 3.6005 22.7236 3.6005 21.9517V5.1712Z" fill="#5E6398"/>
<path d="M10.5613 17.7566C12.864 17.7566 14.7379 15.8744 14.7379 13.5614C14.7379 11.2485 12.864 9.36632 10.5613 9.36632C8.2587 9.36632 6.38484 11.2485 6.38484 13.5614C6.38484 15.8744 8.2587 17.7566 10.5613 17.7566ZM10.5613 12.1631C11.3298 12.1631 11.9535 12.7895 11.9535 13.5614C11.9535 14.3333 11.3298 14.9598 10.5613 14.9598C9.79287 14.9598 9.16918 14.3333 9.16918 13.5614C9.16918 12.7895 9.79287 12.1631 10.5613 12.1631Z" fill="#5E6398"/>
<path d="M21.6987 17.7566C24.0013 17.7566 25.8752 15.8744 25.8752 13.5614C25.8752 11.2485 24.0013 9.36632 21.6987 9.36632C19.3961 9.36632 17.5222 11.2485 17.5222 13.5614C17.5222 15.8744 19.3961 17.7566 21.6987 17.7566ZM21.6987 12.1631C22.4672 12.1631 23.0909 12.7895 23.0909 13.5614C23.0909 14.3333 22.4672 14.9598 21.6987 14.9598C20.9302 14.9598 20.3065 14.3333 20.3065 13.5614C20.3065 12.7895 20.9302 12.1631 21.6987 12.1631Z" fill="#5E6398"/>
<path d="M32.8361 17.7566C35.1387 17.7566 37.0126 15.8744 37.0126 13.5614C37.0126 11.2485 35.1387 9.36632 32.8361 9.36632C30.5334 9.36632 28.6595 11.2485 28.6595 13.5614C28.6595 15.8744 30.5334 17.7566 32.8361 17.7566ZM32.8361 12.1631C33.6045 12.1631 34.2282 12.7895 34.2282 13.5614C34.2282 14.3333 33.6045 14.9598 32.8361 14.9598C32.0676 14.9598 31.4439 14.3333 31.4439 13.5614C31.4439 12.7895 32.0676 12.1631 32.8361 12.1631Z" fill="#5E6398"/>
<path d="M71.8168 56.9111C69.0937 56.9111 66.4277 57.6438 64.0722 59.0366L55.6774 58.0353L58.5007 64.7196C57.1907 67.0353 56.5029 69.6377 56.5029 72.2932C56.5029 80.7743 63.3733 87.6753 71.8168 87.6753C80.2603 87.6753 87.1306 80.7743 87.1306 72.2932C87.1306 63.812 80.2603 56.9111 71.8168 56.9111ZM63.958 82.0818H79.6742C77.5233 83.827 74.7905 84.8785 71.8154 84.8785C68.8403 84.8785 66.1103 83.827 63.958 82.0818ZM69.9652 72.963C69.3638 72.419 69.0324 71.6835 69.0324 70.8948V68.3358C69.0324 66.7402 70.2144 65.3824 71.665 65.3055C72.4279 65.2607 73.1741 65.5348 73.7338 66.0704C74.2921 66.6046 74.6011 67.3233 74.6011 68.098V70.8948C74.6011 71.6835 74.2698 72.419 73.6684 72.963L73.209 73.3797V75.9541L77.0569 77.8867C77.6764 78.1971 78.1581 78.6907 78.4533 79.285H65.1817C65.4769 78.6907 65.9599 78.1971 66.5781 77.8867L70.4246 75.9541V73.3797L69.9652 72.963ZM81.53 80.2289C81.374 78.1566 80.1754 76.3261 78.3015 75.385L76.1952 74.3278C76.9595 73.3489 77.3855 72.1394 77.3855 70.8948V68.098C77.3855 66.571 76.7534 65.0929 75.6508 64.0414C74.5315 62.9758 73.0837 62.4556 71.5189 62.5115C68.5633 62.6668 66.2481 65.2258 66.2481 68.3358V70.8948C66.2481 72.1394 66.6741 73.3489 67.437 74.3278L65.3307 75.385C63.4568 76.3261 62.2582 78.1566 62.1022 80.2289C60.3453 78.0615 59.2873 75.2997 59.2873 72.2932C59.2873 69.9215 59.9597 67.5988 61.2335 65.5768L61.6233 64.9573L60.1128 61.3803L64.7112 61.9298L65.1302 61.6641C67.1433 60.3832 69.4557 59.7078 71.8168 59.7078C78.7261 59.7078 84.3463 65.353 84.3463 72.2932C84.3463 75.2997 83.2883 78.0615 81.53 80.2289Z" fill="#5E6398"/>
</symbol>
</svg>
