<svg width="93" height="93" viewBox="0 0 93 93" fill="none" xmlns="http://www.w3.org/2000/svg">
    <symbol id="s-02" width="93" height="93" viewBox="0 0 93 93" fill="none">
<path fill-rule="evenodd" clip-rule="evenodd" d="M74.2919 5.55091L70.4003 9.44244H65.2459C64.8647 9.44246 64.4991 9.59392 64.2295 9.8635C63.9599 10.1331 63.8084 10.4987 63.8084 10.8799V16.0344L58.9003 20.9424H53.7459C53.3647 20.9425 52.999 21.0939 52.7295 21.3635C52.4599 21.6331 52.3084 21.9987 52.3084 22.3799V27.5344L47.4003 32.4424H42.2459C41.8647 32.4425 41.499 32.5939 41.2295 32.8635C40.9599 33.1331 40.8084 33.4987 40.8084 33.8799V39.0344L34.463 45.3799H29.5482V48.2549H35.0584C35.4397 48.2549 35.8053 48.1035 36.0749 47.834L42.8415 41.0674H47.9959C48.3772 41.0674 48.7428 40.916 49.0124 40.6464C49.2819 40.3768 49.4334 40.0112 49.4334 39.6299V34.4755L54.3415 29.5674H59.4959C59.8772 29.5674 60.2428 29.416 60.5124 29.1464C60.7819 28.8768 60.9334 28.5112 60.9334 28.1299V22.9755L65.8415 18.0674H70.9959C71.3772 18.0674 71.7428 17.916 72.0124 17.6464C72.2819 17.3768 72.4334 17.0112 72.4334 16.6299V11.4755L75.9038 8.00494H89.6834V5.12994H75.3084C74.9272 5.12995 74.5615 5.28137 74.2919 5.55091ZM66.6834 15.1924H69.5584V12.3174H66.6834V15.1924ZM58.0584 26.6924H55.1834V23.8174H58.0584V26.6924ZM43.6834 38.1924H46.5584V35.3174H43.6834V38.1924Z" fill="#5E6398"/>
<path fill-rule="evenodd" clip-rule="evenodd" d="M29.9763 43.704C30.3738 41.327 31.2668 39.0601 32.5973 37.0506C33.9278 35.0412 35.666 33.334 37.6992 32.0399L36.149 29.6187C32.4814 31.9629 29.6726 35.4328 28.1438 39.5083C26.615 43.5837 26.4486 48.0449 27.6696 52.2229C28.8905 56.4008 31.433 60.0704 34.9158 62.6813C38.3985 65.2922 42.6338 66.7036 46.9866 66.704H65.45C60.411 71.3245 53.8233 73.889 46.9866 73.8915C31.9263 73.8915 19.6741 61.6392 19.6741 46.579H16.7991C16.7983 49.0009 17.0894 51.4142 17.666 53.7665H6.73657V39.3915H18.2366C18.5209 39.3915 18.7988 39.3072 19.0352 39.1492C19.2715 38.9912 19.4558 38.7668 19.5646 38.5041L21.8865 32.8985C21.9953 32.6358 22.0238 32.3468 21.9684 32.0679C21.9129 31.7891 21.776 31.5329 21.575 31.3319L13.4431 23.2003L23.6079 13.0355L31.7395 21.1674C31.9405 21.3685 32.1966 21.5054 32.4755 21.5609C32.7544 21.6163 33.0435 21.5878 33.3061 21.4789L38.9117 19.157C39.1743 19.0482 39.3988 18.8639 39.5568 18.6276C39.7147 18.3912 39.7991 18.1133 39.7991 17.829V6.32898H54.1741V14.954H57.0491V4.89148C57.0491 4.51024 56.8976 4.14461 56.628 3.87503C56.3584 3.60545 55.9928 3.454 55.6116 3.45398H38.3616C37.9803 3.454 37.6147 3.60545 37.3451 3.87503C37.0755 4.14461 36.9241 4.51024 36.9241 4.89148V16.8684L33.0933 18.4552L24.6244 9.98608C24.3548 9.71653 23.9891 9.56511 23.6079 9.56511C23.2266 9.56511 22.861 9.71653 22.5914 9.98608L10.3937 22.1838C10.1241 22.4534 9.9727 22.819 9.9727 23.2003C9.9727 23.5816 10.1241 23.9472 10.3937 24.2168L18.8628 32.6857L17.276 36.5165H5.29907C4.91783 36.5165 4.55221 36.668 4.28263 36.9375C4.01305 37.2071 3.86159 37.5727 3.86157 37.954V55.204C3.86159 55.5852 4.01305 55.9508 4.28263 56.2204C4.55221 56.49 4.91783 56.6415 5.29907 56.6415H17.276L18.8628 60.4723L10.3937 68.9411C10.1241 69.2108 9.9727 69.5764 9.9727 69.9577C9.9727 70.3389 10.1241 70.7046 10.3937 70.9742L22.5914 83.1719C22.861 83.4414 23.2266 83.5928 23.6079 83.5928C23.9891 83.5928 24.3548 83.4414 24.6244 83.1719L33.0933 74.7027L36.9241 76.2895V88.2665C36.9241 88.6477 37.0755 89.0134 37.3451 89.2829C37.6147 89.5525 37.9803 89.704 38.3616 89.704H55.6116C55.9928 89.704 56.3584 89.5525 56.628 89.2829C56.8976 89.0134 57.0491 88.6477 57.0491 88.2665V76.2895L60.8799 74.7027L69.3487 83.1719C69.6183 83.4414 69.984 83.5928 70.3652 83.5928C70.7465 83.5928 71.1122 83.4414 71.3818 83.1719L83.5795 70.9742C83.849 70.7046 84.0005 70.3389 84.0004 69.9576C84.0004 69.5763 83.8489 69.2107 83.5793 68.9411L81.3422 66.704H88.6741C89.0553 66.704 89.4209 66.5525 89.6905 66.2829C89.9601 66.0133 90.1116 65.6477 90.1116 65.2665V16.3915C90.1116 16.0102 89.9601 15.6446 89.6905 15.375C89.4209 15.1055 89.0553 14.954 88.6741 14.954H77.1741C76.7928 14.954 76.4272 15.1055 76.1576 15.375C75.888 15.6446 75.7366 16.0102 75.7366 16.3915V26.454H65.6741C65.2928 26.454 64.9272 26.6055 64.6576 26.875C64.388 27.1446 64.2366 27.5102 64.2366 27.8915V35.079H54.1741C53.7928 35.079 53.4272 35.2305 53.1576 35.5C52.888 35.7696 52.7366 36.1352 52.7366 36.5165V45.1415H42.6741C42.2928 45.1415 41.9272 45.293 41.6576 45.5625C41.388 45.8321 41.2366 46.1977 41.2366 46.579V52.329H30.7232C30.0688 50.4826 29.7351 48.5379 29.7366 46.579L29.9763 43.704ZM13.4431 69.9577L23.6079 80.1225L31.342 72.388C27.1905 69.8605 23.7051 66.375 21.1776 62.2235L13.4431 69.9577ZM39.7991 75.8996V86.829H54.1741V75.8969C49.4525 77.0554 44.521 77.0564 39.7991 75.8996ZM70.3652 80.1225L80.5301 69.9577L77.2762 66.704H69.4846C67.4942 68.9274 65.1852 70.8435 62.6329 72.3898L70.3652 80.1225ZM87.2366 17.829H78.6116V63.829H87.2366V17.829ZM75.7366 29.329H67.1116V63.829H75.7366V29.329ZM64.2366 37.954H55.6116V63.829H64.2366V37.954ZM52.7366 48.0165H44.1116V63.5881C45.0615 63.7483 46.0232 63.8289 46.9866 63.829H52.7366V48.0165ZM41.2366 62.8423V55.204H32.0522C34.1126 58.7573 37.3672 61.4641 41.2366 62.8423Z" fill="#342B2B"/>
</symbol>
</svg>
