<svg xmlns="http://www.w3.org/2000/svg">
    <symbol id="s-05" width="88" height="87" viewBox="0 0 88 87" fill="none">
<path d="M68.4642 23.1992V20.3242C68.4604 16.8942 67.0961 13.6057 64.6706 11.1803C62.2452 8.75488 58.9568 7.39058 55.5267 7.38672H36.8392C35.0294 7.38911 33.287 8.0734 31.9592 9.30319C30.6315 10.533 29.8159 12.218 29.675 14.0223C29.4998 14.1531 29.3342 14.2963 29.1796 14.4509L26.0069 17.6236C25.3374 18.2895 24.8066 19.0815 24.4452 19.9539C24.0839 20.8263 23.8991 21.7617 23.9017 22.7059V28.9492C23.9017 29.9861 24.1265 31.0107 24.5606 31.9523C24.9947 32.894 25.6278 33.7303 26.4164 34.4036L29.0567 41.8845C29.3545 42.7253 29.9053 43.4533 30.6334 43.9685C31.3616 44.4836 32.2314 44.7607 33.1233 44.7617H35.6484C36.2149 44.7632 36.7762 44.6524 37.2996 44.4356C37.823 44.2187 38.2983 43.9003 38.6978 43.4985L46.0596 36.1367H54.0892C55.7454 36.1346 57.3502 35.5615 58.6331 34.5141C59.916 33.4667 60.7986 32.009 61.1321 30.3867H61.2767C63.1823 30.3846 65.0092 29.6266 66.3567 28.2792C67.7041 26.9317 68.4621 25.1048 68.4642 23.1992ZM36.8392 10.2617H44.0267V11.6992C44.0267 11.888 44.0639 12.0749 44.1361 12.2493C44.2084 12.4237 44.3143 12.5822 44.4478 12.7157L46.9017 15.1696V17.4492H44.0267C41.8503 17.4537 39.7332 18.1594 37.9893 19.4617C37.5803 19.7702 37.1958 20.1098 36.8392 20.4775V17.6236C36.8394 17.0724 36.7375 16.5258 36.5386 16.0117H38.2767C38.4655 16.0117 38.6524 15.9745 38.8268 15.9023C39.0012 15.83 39.1597 15.7242 39.2932 15.5907L42.1682 12.7157L40.1353 10.6828L37.6813 13.1367H32.774C33.0721 12.2966 33.6229 11.5693 34.3507 11.0545C35.0785 10.5398 35.9478 10.2629 36.8392 10.2617ZM28.0398 19.6565L31.2125 16.4838C31.4379 16.2584 31.7251 16.1049 32.0378 16.0427C32.3505 15.9805 32.6746 16.0124 32.9692 16.1344C33.2637 16.2564 33.5154 16.463 33.6926 16.7281C33.8697 16.9932 33.9642 17.3048 33.9642 17.6236V33.2617H31.0892C30.0634 33.2603 29.0716 32.8939 28.2913 32.2281C27.511 31.5622 26.9932 30.6404 26.8305 29.6276L31.9517 25.7867L30.2268 23.4867L26.7767 26.0743V22.7059C26.7752 22.1394 26.886 21.5782 27.1028 21.0547C27.3196 20.5313 27.6381 20.0561 28.0398 19.6565ZM36.6649 41.4656C36.5317 41.5996 36.3733 41.7057 36.1988 41.778C36.0243 41.8503 35.8372 41.8872 35.6484 41.8867H33.1233C32.826 41.8864 32.5361 41.794 32.2934 41.6223C32.0507 41.4506 31.8671 41.2079 31.7678 40.9276L30.05 36.0606C30.3941 36.111 30.7414 36.1364 31.0892 36.1367H41.9938L36.6649 41.4656ZM54.0892 33.2617H36.8392V30.3867H42.5892V27.5117H36.8392C36.8392 25.6055 37.5965 23.7773 38.9444 22.4294C40.2923 21.0815 42.1205 20.3242 44.0267 20.3242H51.2142C52.8706 20.3234 54.4762 20.8956 55.7589 21.9436C57.0415 22.9916 57.9222 24.4509 58.2516 26.0742H48.9346L45.0432 22.1828L43.0103 24.2157L47.3228 28.5282C47.4563 28.6616 47.6147 28.7675 47.7891 28.8398C47.9635 28.912 48.1504 28.9492 48.3392 28.9492H58.4017C58.4004 30.0926 57.9457 31.1887 57.1372 31.9972C56.3287 32.8057 55.2326 33.2604 54.0892 33.2617ZM61.2767 27.5117C61.2767 24.843 60.2165 22.2836 58.3294 20.3965C56.4424 18.5094 53.8829 17.4493 51.2142 17.4492H49.7767V14.5742C49.7767 14.3854 49.7395 14.1985 49.6673 14.0241C49.5951 13.8497 49.4892 13.6912 49.3557 13.5578L46.9017 11.1038V10.2617H55.5267C57.3456 10.2598 59.1305 10.754 60.6894 11.6911L59.2438 13.1367H54.0892V16.0117H59.8392C60.028 16.0117 60.2149 15.9745 60.3893 15.9023C60.5637 15.83 60.7222 15.7242 60.8557 15.5907L62.9293 13.5171C64.3042 15.0075 65.1953 16.8797 65.4849 18.8867H61.2767V21.7617H65.5892V23.1992C65.5879 24.3426 65.1331 25.4387 64.3247 26.2472C63.5162 27.0556 62.4201 27.5104 61.2767 27.5117Z" fill="#5E6398"/>
<path d="M24.4356 10.1589C24.7024 10.0522 24.931 9.86801 25.0921 9.63011C25.2531 9.39221 25.3392 9.11151 25.3392 8.82422C25.3392 8.53692 25.2531 8.25622 25.0921 8.01832C24.931 7.78042 24.7024 7.59624 24.4356 7.48955L19.8737 5.66477L18.0489 1.10283C17.9422 0.836089 17.758 0.607434 17.5201 0.446369C17.2822 0.285304 17.0015 0.199219 16.7142 0.199219C16.4269 0.199219 16.1462 0.285304 15.9083 0.446369C15.6704 0.607434 15.4863 0.836089 15.3796 1.10283L13.5548 5.66477L8.99285 7.48955C8.7261 7.59624 8.49745 7.78042 8.33638 8.01832C8.17532 8.25622 8.08923 8.53692 8.08923 8.82422C8.08923 9.11151 8.17532 9.39221 8.33638 9.63011C8.49745 9.86801 8.7261 10.0522 8.99285 10.1589L13.5548 11.9837L15.3796 16.5456C15.4863 16.8123 15.6704 17.041 15.9083 17.2021C16.1462 17.3631 16.4269 17.4492 16.7142 17.4492C17.0015 17.4492 17.2822 17.3631 17.5201 17.2021C17.758 17.041 17.9422 16.8123 18.0489 16.5456L19.8737 11.9837L24.4356 10.1589ZM17.4332 10.3439L16.7142 12.1412L15.9953 10.3439C15.923 10.1632 15.8148 9.999 15.6771 9.86135C15.5395 9.72369 15.3753 9.61544 15.1945 9.54315L13.3973 8.82422L15.1945 8.10529C15.3753 8.03299 15.5395 7.92474 15.6771 7.78709C15.8148 7.64943 15.923 7.48525 15.9953 7.30451L16.7142 5.50728L17.4332 7.30452C17.5055 7.48526 17.6137 7.64944 17.7514 7.7871C17.889 7.92475 18.0532 8.03301 18.2339 8.1053L20.0312 8.82422L18.2339 9.54315C18.0532 9.61544 17.889 9.72369 17.7514 9.86135C17.6137 9.999 17.5055 10.1632 17.4332 10.3439Z" fill="#5E6398"/>
<path d="M86.2481 33.3645L81.6862 31.5398L79.8614 26.9778C79.7547 26.7111 79.5705 26.4824 79.3326 26.3214C79.0947 26.1603 78.814 26.0742 78.5267 26.0742C78.2394 26.0742 77.9587 26.1603 77.7208 26.3214C77.4829 26.4824 77.2987 26.7111 77.192 26.9778L75.3673 31.5398L70.8053 33.3645C70.5386 33.4712 70.3099 33.6554 70.1489 33.8933C69.9878 34.1312 69.9017 34.4119 69.9017 34.6992C69.9017 34.9865 69.9878 35.2672 70.1489 35.5051C70.3099 35.743 70.5386 35.9272 70.8053 36.0339L75.3673 37.8586L77.192 42.4206C77.2987 42.6873 77.4829 42.916 77.7208 43.077C77.9587 43.2381 78.2394 43.3242 78.5267 43.3242C78.814 43.3242 79.0947 43.2381 79.3326 43.077C79.5705 42.916 79.7547 42.6873 79.8614 42.4206L81.6862 37.8586L86.2481 36.0339C86.5148 35.9272 86.7435 35.743 86.9046 35.5051C87.0656 35.2672 87.1517 34.9865 87.1517 34.6992C87.1517 34.4119 87.0656 34.1312 86.9046 33.8933C86.7435 33.6554 86.5148 33.4712 86.2481 33.3645ZM80.0464 35.4181C79.8657 35.4904 79.7015 35.5987 79.5638 35.7363C79.4262 35.874 79.3179 36.0382 79.2456 36.2189L78.5267 38.0161L77.8078 36.2189C77.7355 36.0382 77.6272 35.874 77.4896 35.7363C77.3519 35.5987 77.1878 35.4904 77.007 35.4181L75.2098 34.6992L77.007 33.9803C77.1878 33.908 77.3519 33.7997 77.4896 33.6621C77.6273 33.5244 77.7355 33.3602 77.8078 33.1795L78.5267 31.3823L79.2457 33.1795C79.3179 33.3602 79.4262 33.5244 79.5639 33.6621C79.7015 33.7997 79.8657 33.908 80.0464 33.9803L81.8437 34.6992L80.0464 35.4181Z" fill="#5E6398"/>
<path d="M32.5267 86.4492H48.3392C48.528 86.4492 48.7149 86.412 48.8893 86.3398C49.0637 86.2675 49.2222 86.1617 49.3557 86.0282C49.4892 85.8947 49.5951 85.7362 49.6673 85.5618C49.7395 85.3874 49.7767 85.2005 49.7767 85.0117V79.935L57.6114 73.4061C58.3471 73.5687 59.1118 73.5432 59.835 73.3319C60.5582 73.1207 61.2164 72.7305 61.7488 72.1975L62.8375 71.1088C63.3527 70.5937 63.7347 69.9609 63.9505 69.265C64.1663 68.5691 64.2093 67.8312 64.0758 67.1149C63.9423 66.3987 63.6364 65.7258 63.1845 65.1543C62.7326 64.5829 62.1483 64.1301 61.4821 63.8352C61.9768 63.3141 62.339 62.6818 62.5383 61.9915C62.7376 61.3012 62.7681 60.5732 62.6271 59.8686C62.4862 59.1641 62.1781 58.5038 61.7286 57.9432C61.2792 57.3827 60.7016 56.9383 60.0446 56.6477C60.5393 56.1266 60.9015 55.4943 61.1008 54.804C61.3001 54.1137 61.3306 53.3857 61.1896 52.6811C61.0487 51.9766 60.7406 51.3163 60.2911 50.7557C59.8417 50.1952 59.2641 49.7508 58.6071 49.4602C59.4188 48.6043 59.8608 47.4632 59.8374 46.2839C59.814 45.1045 59.327 43.9819 58.482 43.1589C57.6369 42.336 56.5017 41.8789 55.3222 41.8868C54.1426 41.8947 53.0136 42.3668 52.1796 43.2009L39.2932 56.0873L38.64 51.5147C38.4784 50.3837 37.8942 49.3559 37.0051 48.6384C36.116 47.9209 34.988 47.567 33.8483 47.648C32.7087 47.729 31.6421 48.2389 30.8634 49.0749C30.0847 49.911 29.6517 51.011 29.6517 52.1535V60.5742C29.6517 60.6338 29.6554 60.6933 29.6629 60.7525L31.0892 72.1637V85.0117C31.0892 85.2005 31.1264 85.3874 31.1986 85.5618C31.2709 85.7362 31.3768 85.8947 31.5102 86.0282C31.6437 86.1617 31.8022 86.2675 31.9766 86.3398C32.151 86.412 32.3379 86.4492 32.5267 86.4492ZM54.2636 66.3242C53.9448 66.3242 53.6332 66.2297 53.3681 66.0525C53.103 65.8754 52.8964 65.6237 52.7744 65.3291C52.6524 65.0346 52.6205 64.7105 52.6827 64.3978C52.7449 64.0851 52.8984 63.7979 53.1238 63.5725L57.0875 59.6088C57.3898 59.3065 57.7998 59.1367 58.2273 59.1367C58.6548 59.1367 59.0648 59.3065 59.3671 59.6088C59.6694 59.9111 59.8392 60.3211 59.8392 60.7486C59.8392 61.1761 59.6694 61.5861 59.3671 61.8884L55.4034 65.8521C55.2541 66.0022 55.0765 66.1213 54.8808 66.2023C54.6852 66.2833 54.4754 66.3248 54.2636 66.3242ZM60.8046 69.0759L59.7159 70.1646C59.4136 70.4669 59.0036 70.6367 58.5761 70.6367C58.1486 70.6367 57.7386 70.4669 57.4363 70.1646C57.134 69.8623 56.9642 69.4523 56.9642 69.0248C56.9642 68.5973 57.134 68.1873 57.4363 67.885L58.525 66.7963C58.8273 66.494 59.2373 66.3242 59.6648 66.3242C60.0923 66.3242 60.5023 66.494 60.8046 66.7963C61.1069 67.0986 61.2767 67.5086 61.2767 67.9361C61.2767 68.3636 61.1069 68.7736 60.8046 69.0759ZM32.5267 52.1535C32.5267 51.7383 32.6841 51.3384 32.9672 51.0345C33.2502 50.7306 33.6379 50.5453 34.0522 50.5158C34.4664 50.4864 34.8764 50.615 35.1996 50.8758C35.5228 51.1366 35.7352 51.5102 35.7939 51.9213L36.8537 59.34C36.8804 59.5269 36.9436 59.7067 37.0398 59.8691C37.136 60.0315 37.2632 60.1734 37.4143 60.2867C39.0175 61.4951 40.319 63.0584 41.2169 64.8541C42.1147 66.6498 42.5844 68.6291 42.5892 70.6367H45.4642C45.4586 68.4609 45.0064 66.3094 44.1356 64.3154C43.2649 62.3214 41.9941 60.5273 40.402 59.0443L54.2125 45.2338C54.5148 44.9315 54.9248 44.7617 55.3523 44.7617C55.7798 44.7617 56.1898 44.9315 56.4921 45.2338C56.7944 45.5361 56.9642 45.9461 56.9642 46.3736C56.9642 46.8011 56.7944 47.2111 56.4921 47.5134L47.3228 56.6828L49.3557 58.7156L55.65 52.4213C55.9523 52.119 56.3623 51.9492 56.7898 51.9492C57.2173 51.9492 57.6273 52.119 57.9296 52.4213C58.2319 52.7236 58.4017 53.1336 58.4017 53.5611C58.4017 53.9886 58.2319 54.3986 57.9296 54.7009L51.0909 61.5396C50.4737 62.1567 50.0499 62.9406 49.8714 63.7951C49.693 64.6495 49.7677 65.5374 50.0865 66.3501C50.4052 67.1627 50.9541 67.8646 51.6658 68.37C52.3776 68.8753 53.2213 69.162 54.0935 69.1949C54.1286 70.1419 54.4642 71.0532 55.0518 71.7967L47.4189 78.1573C47.2571 78.2923 47.1268 78.4611 47.0374 78.652C46.9481 78.8428 46.9017 79.051 46.9017 79.2617V83.5742H33.9642V72.0742C33.9642 72.0146 33.9605 71.955 33.9531 71.8959L32.5267 60.4847V52.1535Z" fill="#342B2B"/>
<path d="M16.7142 50.5117V47.6367H19.5892V44.7617H16.7142V41.8867H13.8392V44.7617H10.9642V47.6367H13.8392V50.5117H16.7142Z" fill="#342B2B"/>
<path d="M12.4017 30.3867H8.08923V33.2617H12.4017V30.3867Z" fill="#342B2B"/>
<path d="M87.1517 16.0117H82.8392V18.8867H87.1517V16.0117Z" fill="#342B2B"/>
<path d="M5.21423 21.7617H0.901733V24.6367H5.21423V21.7617Z" fill="#342B2B"/>
<path d="M72.7767 8.82422V5.94922H75.6517V3.07422H72.7767V0.199219H69.9017V3.07422H67.0267V5.94922H69.9017V8.82422H72.7767Z" fill="#342B2B"/>
    </symbol>
</svg>
