<svg xmlns="http://www.w3.org/2000/svg">
    <symbol id="s-07" width="90" height="89" viewBox="0 0 90 89" fill="none">
<path d="M89.0563 61.8045C88.815 60.5109 88.3171 59.2787 87.5919 58.1806C86.8668 57.0825 85.929 56.1407 84.8341 55.4108C84.4557 55.1585 84.1032 54.8696 83.7816 54.5481L81.0298 51.7963C77.3042 48.0572 72.4971 45.5844 67.2887 44.7279L67.2864 44.7274L67.2834 44.7269L67.282 44.7266C65.9086 44.4958 64.5182 44.3801 63.1255 44.3805H44.6476C39.4192 44.3803 34.2421 45.41 29.4117 47.4107C24.5813 49.4115 20.1923 52.3441 16.4953 56.0411L13.394 59.1423C11.346 59.2392 9.34822 59.8091 7.55738 60.8075C5.76654 61.8059 4.2313 63.2055 3.07205 64.8966C2.14428 66.2425 1.47708 67.7504 1.10502 69.3422C0.868813 70.3432 0.749755 71.3684 0.750246 72.3969V81.2442C0.75025 81.6353 0.905604 82.0103 1.18214 82.2869C1.45867 82.5634 1.83372 82.7188 2.22479 82.7188H10.1028C10.7128 84.4437 11.8426 85.9372 13.3365 86.9935C14.8305 88.0498 16.6152 88.6169 18.4448 88.6169C20.2745 88.6169 22.0592 88.0498 23.5531 86.9935C25.0471 85.9372 26.1769 84.4437 26.7869 82.7188H38.1212C38.7308 84.4436 39.8602 85.9371 41.3538 86.9934C42.8474 88.0497 44.6319 88.6169 46.4613 88.6169C48.2907 88.6169 50.0751 88.0497 51.5687 86.9934C53.0624 85.9371 54.1917 84.4436 54.8013 82.7188H67.6122C68.2217 84.4436 69.3511 85.9371 70.8447 86.9934C72.3384 88.0497 74.1228 88.6169 75.9522 88.6169C77.7816 88.6169 79.5661 88.0497 81.0597 86.9934C82.5533 85.9371 83.6827 84.4436 84.2923 82.7188H87.7486C88.1397 82.7188 88.5147 82.5634 88.7913 82.2869C89.0678 82.0103 89.2231 81.6353 89.2232 81.2442V63.6123C89.2232 63.0058 89.1673 62.4007 89.0563 61.8045ZM86.2741 63.6393V67.8544L82.7137 65.0061C83.7847 64.2927 85.0008 63.8259 86.2741 63.6393ZM79.6507 54.5878C75.8812 57.5316 71.2351 59.1291 66.4524 59.126H65.9547L68.197 47.9173C72.2692 48.8547 75.9943 50.922 78.9443 53.8815L79.6507 54.5878ZM63.1255 47.3296C63.8482 47.3296 64.5707 47.3648 65.286 47.4346L62.947 59.126H55.3085V56.1769C55.3085 55.848 55.1986 55.5286 54.9963 55.2694C54.7939 55.0102 54.5107 54.8261 54.1916 54.7463L50.769 53.8907L51.8115 52.5876C53.1133 50.9524 54.766 49.6308 56.6476 48.7206C58.5291 47.8105 60.5912 47.3351 62.6813 47.3296H63.1255ZM48.7423 56.4239L52.3594 57.3282V59.126H46.5804L48.7423 56.4239ZM44.6476 47.3296H53.1852C51.7976 48.2802 50.5586 49.4313 49.5086 50.7453L42.8034 59.126H17.5811L18.5807 58.1264C21.9959 54.6925 26.0583 51.9702 30.5327 50.1169C35.0071 48.2637 39.8046 47.3163 44.6476 47.3296ZM10.3883 70.0414L10.7992 70.3494C9.4834 70.6033 8.13083 70.5993 6.81655 70.3377L6.17377 70.208C5.44236 70.061 4.75982 69.732 4.18926 69.2513C4.39163 68.6131 4.6569 67.9966 4.98117 67.4109C6.93367 67.9379 8.76847 68.8305 10.3883 70.0414ZM18.4448 85.6679C17.41 85.6655 16.394 85.3919 15.4978 84.8745C14.6017 84.357 13.8568 83.6138 13.3375 82.7188H23.5522C23.0328 83.6138 22.288 84.357 21.3918 84.8745C20.4957 85.3919 19.4796 85.6655 18.4448 85.6679ZM12.3267 79.7697L16.013 76.8206H23.8257L27.5121 79.7697H12.3267ZM46.4613 85.6679C45.2947 85.6679 44.1543 85.3219 43.1844 84.6738C42.2144 84.0257 41.4584 83.1046 41.012 82.0268C40.5656 80.949 40.4488 79.7631 40.6764 78.619C40.904 77.4748 41.4657 76.4239 42.2906 75.599C43.1155 74.7741 44.1664 74.2124 45.3106 73.9848C46.4547 73.7572 47.6406 73.874 48.7184 74.3204C49.7961 74.7669 50.7173 75.5228 51.3654 76.4928C52.0135 77.4627 52.3594 78.6031 52.3594 79.7697C52.3577 81.3334 51.7357 82.8326 50.6299 83.9384C49.5242 85.0441 48.025 85.6661 46.4613 85.6679ZM75.9522 85.6679C74.7857 85.6679 73.6453 85.3219 72.6754 84.6738C71.7054 84.0257 70.9494 83.1046 70.503 82.0268C70.0566 80.949 69.9398 79.7631 70.1674 78.619C70.3949 77.4748 70.9567 76.4239 71.7816 75.599C72.6064 74.7741 73.6574 74.2124 74.8015 73.9848C75.9457 73.7572 77.1316 73.874 78.2094 74.3204C79.2871 74.7669 80.2083 75.5228 80.8564 76.4928C81.5045 77.4627 81.8504 78.6031 81.8504 79.7697C81.8486 81.3334 81.2267 82.8326 80.1209 83.9384C79.0152 85.0441 77.516 85.6661 75.9522 85.6679ZM84.7995 79.7697C84.7995 77.4232 83.8674 75.1729 82.2082 73.5137C80.549 71.8545 78.2987 70.9224 75.9522 70.9224C73.6058 70.9224 71.3554 71.8545 69.6962 73.5137C68.037 75.1729 67.1049 77.4232 67.1049 79.7697H55.3085C55.3085 77.4232 54.3764 75.1729 52.7172 73.5137C51.058 71.8545 48.8077 70.9224 46.4613 70.9224C44.1148 70.9224 41.8645 71.8545 40.2053 73.5137C38.5461 75.1729 37.614 77.4232 37.614 79.7697H32.2331L25.2643 74.1946C25.0028 73.9854 24.6779 73.8715 24.343 73.8715H15.4957C15.1609 73.8715 14.836 73.9854 14.5745 74.1946L7.60563 79.7697H3.69934V72.4391C4.29757 72.7449 4.93496 72.9671 5.59365 73.0994L6.23642 73.2291C8.50112 73.6805 10.8443 73.5346 13.0355 72.8058L14.4879 72.321C14.7432 72.2359 14.9702 72.0826 15.1446 71.8776C15.3189 71.6726 15.4338 71.4239 15.4768 71.1583C15.5199 70.8927 15.4894 70.6204 15.3888 70.3708C15.2882 70.1213 15.1211 69.9041 14.9059 69.7427L12.1578 67.6821C10.5655 66.4916 8.79562 65.5592 6.91326 64.9192C8.83016 63.0947 11.3748 62.0765 14.0212 62.0751H66.4524C72.0175 62.079 77.4161 60.1777 81.7505 56.6874C82.1948 57.1246 82.6796 57.5188 83.1982 57.8646C84.1442 58.4959 84.92 59.3505 85.457 60.3529C85.5274 60.4843 85.591 60.6188 85.6525 60.7541C83.2613 61.1455 81.0521 62.2738 79.3331 63.9815C79.1865 64.1282 79.0725 64.3041 78.9985 64.4978C78.9245 64.6916 78.8922 64.8987 78.9037 65.1058C78.9151 65.3128 78.9702 65.5151 79.0651 65.6995C79.1601 65.8838 79.2929 66.0461 79.4548 66.1756L86.2741 71.631V79.7697H84.7995Z" fill="#342B2B"/>
<path d="M37.0858 63.921L35.2878 64.2806C32.5312 64.8359 29.9328 65.9977 27.6809 67.6818L24.9329 69.7428C24.7176 69.9043 24.5506 70.1215 24.45 70.3711C24.3494 70.6206 24.319 70.893 24.3621 71.1586C24.4052 71.4242 24.5201 71.6729 24.6945 71.8779C24.8688 72.0828 25.0959 72.2362 25.3512 72.3213L26.8031 72.8052C28.9942 73.5346 31.3376 73.6805 33.6023 73.2286L34.2431 73.1004C35.6103 72.823 36.8713 72.165 37.8808 71.2024C38.8904 70.2397 39.6076 69.0114 39.9496 67.659L40.0951 67.0773C40.2007 66.6551 40.1977 66.2131 40.0866 65.7923C39.9755 65.3715 39.7597 64.9857 39.4594 64.6707C39.1591 64.3557 38.784 64.1218 38.369 63.9907C37.954 63.8597 37.5126 63.8357 37.0858 63.921ZM37.0887 66.9437C36.8834 67.7552 36.4531 68.4922 35.8473 69.0698C35.2415 69.6474 34.4849 70.0421 33.6646 70.2086L33.0238 70.3367C31.7091 70.5991 30.356 70.6033 29.0397 70.3491L29.4503 70.0411C31.3496 68.6207 33.5412 67.6408 35.8662 67.1724L37.0929 66.9271L37.0887 66.9437Z" fill="#342B2B"/>
<path d="M46.4613 81.2442C47.2757 81.2442 47.9358 80.584 47.9358 79.7696C47.9358 78.9552 47.2757 78.2951 46.4613 78.2951C45.6469 78.2951 44.9867 78.9552 44.9867 79.7696C44.9867 80.584 45.6469 81.2442 46.4613 81.2442Z" fill="#342B2B"/>
<path d="M75.9522 81.2442C76.7666 81.2442 77.4268 80.584 77.4268 79.7696C77.4268 78.9552 76.7666 78.2951 75.9522 78.2951C75.1378 78.2951 74.4777 78.9552 74.4777 79.7696C74.4777 80.584 75.1378 81.2442 75.9522 81.2442Z" fill="#342B2B"/>
<path d="M72.3924 65.0242H71.5286V67.9733H72.3924C73.2475 67.9757 74.0946 67.8084 74.8846 67.4812C75.6747 67.1539 76.392 66.6732 76.9949 66.0669L74.9095 63.9816C74.5797 64.3132 74.1874 64.5761 73.7554 64.7551C73.3233 64.934 72.86 65.0255 72.3924 65.0242Z" fill="#342B2B"/>
<path d="M61.2068 65.0242H55.3086V67.9733H61.2068V65.0242Z" fill="#342B2B"/>
<path d="M28.7062 20.8717H31.2906V23.7461H28.7062V20.8717Z" fill="#5E6398"/>
<path d="M35.7868 11.149C37.3025 11.149 38.4838 11.7445 39.3307 12.9353C40.1926 14.1063 40.6235 15.6147 40.6235 17.4605C40.6235 19.3063 40.1926 20.8246 39.3307 22.0154C38.4689 23.1864 37.2876 23.7719 35.7868 23.7719H32.7779V31.8044H30.4598V11.149H35.7868ZM35.4748 20.8543C36.2921 20.8543 36.9384 20.5666 37.4139 19.991C37.8894 19.3956 38.1272 18.5521 38.1272 17.4605C38.1272 16.3689 37.8894 15.5353 37.4139 14.9597C36.9384 14.3643 36.2921 14.0666 35.4748 14.0666H32.7779V20.8543H35.4748Z" fill="#5E6398"/>
<path d="M28.7062 24.8925H37.0469V27.7668H28.7062V24.8925Z" fill="#5E6398"/>
<path d="M2.22479 41.4058H7.51099L15.9261 49.8453C16.1322 50.052 16.3949 50.1928 16.6811 50.25C16.9672 50.3072 17.2639 50.2783 17.5336 50.1668C17.8032 50.0553 18.0338 49.8663 18.196 49.6237C18.3582 49.3812 18.4448 49.0959 18.4448 48.8041V41.4058H67.1049C67.496 41.4058 67.871 41.2505 68.1476 40.9739C68.4241 40.6974 68.5795 40.3224 68.5795 39.9313V1.61859C68.5795 1.22752 68.4241 0.852463 68.1476 0.575932C67.871 0.299402 67.496 0.144047 67.1049 0.144043H2.22479C1.83372 0.144047 1.45866 0.299402 1.18213 0.575932C0.905603 0.852463 0.750248 1.22752 0.750244 1.61859V39.9313C0.750248 40.3224 0.905603 40.6974 1.18213 40.9739C1.45866 41.2505 1.83372 41.4058 2.22479 41.4058ZM3.69934 3.09314H65.6304V38.4567H16.9703C16.5792 38.4567 16.2041 38.6121 15.9276 38.8886C15.6511 39.1652 15.4957 39.5402 15.4957 39.9313V45.237L9.16715 38.8901C9.03016 38.7527 8.86742 38.6437 8.68824 38.5694C8.50907 38.495 8.31698 38.4567 8.12299 38.4567H3.69934V3.09314Z" fill="#5E6398"/>
<path d="M30.2412 35.5077V32.5586H18.3345C18.0079 30.3601 16.9817 28.3252 15.408 26.7556C13.8343 25.1859 11.7969 24.1649 9.59751 23.8439V17.7317C11.8012 17.41 13.8422 16.3856 15.4169 14.8108C16.9917 13.2361 18.0161 11.1951 18.3378 8.99142H30.2412V6.04232H8.12296C7.73188 6.04233 7.35683 6.19768 7.0803 6.47421C6.80377 6.75074 6.64841 7.1258 6.64841 7.51687V34.0332C6.64841 34.4243 6.80377 34.7993 7.0803 35.0758C7.35683 35.3524 7.73188 35.5077 8.12296 35.5077H30.2412ZM15.3419 32.5586H9.59751V26.8344C11.0085 27.1252 12.3038 27.8219 13.3244 28.8388C14.3449 29.8558 15.0461 31.1486 15.3419 32.5586ZM15.3473 8.99142C15.0556 10.4068 14.3555 11.7057 13.3337 12.7276C12.3118 13.7494 11.0129 14.4495 9.59751 14.7412V8.99142H15.3473Z" fill="#5E6398"/>
<path d="M59.7322 17.7317V23.8439C57.5328 24.165 55.4953 25.1859 53.9217 26.7556C52.348 28.3253 51.3218 30.3601 50.9951 32.5586H39.0885V35.5077H61.2067C61.5978 35.5077 61.9728 35.3524 62.2494 35.0758C62.5259 34.7993 62.6813 34.4243 62.6813 34.0332V7.51687C62.6813 7.1258 62.5259 6.75074 62.2494 6.47421C61.9728 6.19768 61.5978 6.04233 61.2067 6.04232H39.0885V8.99142H50.9919C51.3136 11.1951 52.338 13.2361 53.9127 14.8109C55.4875 16.3856 57.5285 17.41 59.7322 17.7317ZM53.9878 32.5586C54.2836 31.1486 54.9848 29.8558 56.0053 28.8388C57.0258 27.8219 58.3211 27.1252 59.7322 26.8344V32.5586H53.9878ZM59.7322 14.7412C58.3168 14.4495 57.0179 13.7495 55.996 12.7276C54.9741 11.7057 54.2741 10.4068 53.9824 8.99142H59.7322V14.7412Z" fill="#5E6398"/>
</symbol>
</svg>
