<svg xmlns="http://www.w3.org/2000/svg">
    <symbol id="s-08" width="90" height="89" viewBox="0 0 90 89" fill="none">
<path d="M42.2245 39.9569V31.1096H49.5972V28.1605H24.5299V22.2623H49.5972V19.3132H11.259C11.0653 19.3132 10.8736 19.3513 10.6947 19.4254C10.5158 19.4995 10.3532 19.6081 10.2163 19.745C10.0794 19.882 9.97076 20.0445 9.89666 20.2234C9.82255 20.4023 9.78442 20.5941 9.78442 20.7877V72.3969C9.78442 72.5906 9.82255 72.7823 9.89666 72.9612C9.97076 73.1401 10.0794 73.3027 10.2163 73.4396C10.3532 73.5765 10.5158 73.6851 10.6947 73.7592C10.8736 73.8333 11.0653 73.8715 11.259 73.8715H36.3263V70.9224H24.5299V65.0242H36.3263V62.0751H24.5299V39.9569H42.2245ZM39.2754 31.1096V37.0078H24.5299V31.1096H39.2754ZM21.5808 22.2623V37.0078H12.7335V22.2623H21.5808ZM21.5808 70.9224H12.7335V65.0242H21.5808V70.9224ZM21.5808 62.0751H12.7335V39.9569H21.5808V62.0751Z" fill="#5E6398"/>
<path d="M15.6826 11.9404H11.259V14.8895H15.6826V11.9404Z" fill="#5E6398"/>
<path d="M28.9536 11.9404H18.6317V14.8895H28.9536V11.9404Z" fill="#5E6398"/>
<path d="M17.1572 78.2951H11.259V81.2442H17.1572V78.2951Z" fill="#5E6398"/>
<path d="M26.0045 78.2951H20.1063V81.2442H26.0045V78.2951Z" fill="#5E6398"/>
<path d="M86.4609 77.6844V56.1769C86.4553 51.8634 84.9975 47.6775 82.3225 44.2936C79.6476 40.9097 75.9111 38.5251 71.7155 37.5239V35.0435C72.6929 32.3656 73.192 29.5367 73.19 26.6859C73.19 26.4923 73.1519 26.3006 73.0778 26.1216C73.0037 25.9427 72.8951 25.7802 72.7581 25.6433C72.6212 25.5063 72.4586 25.3977 72.2797 25.3236C72.1008 25.2495 71.9091 25.2114 71.7155 25.2114V21.7563C71.7181 20.7877 71.5286 19.8282 71.158 18.9334C70.7873 18.0385 70.2428 17.226 69.556 16.543L55.3165 2.30351C54.6335 1.61673 53.821 1.07224 52.9262 0.701573C52.0313 0.330903 51.0718 0.141412 50.1032 0.144071H8.30988C6.35518 0.146276 4.48118 0.923753 3.099 2.30593C1.71682 3.68811 0.939339 5.56212 0.937134 7.51681V81.2442C0.939339 83.1989 1.71682 85.0729 3.099 86.4551C4.48118 87.8373 6.35518 88.6148 8.30988 88.617H87.9355C88.1291 88.617 88.3209 88.5788 88.4998 88.5047C88.6787 88.4306 88.8412 88.322 88.9782 88.1851C89.1151 88.0482 89.2237 87.8856 89.2978 87.7067C89.3719 87.5278 89.41 87.3361 89.41 87.1424V83.3295C89.4124 82.4744 89.2451 81.6273 88.9179 80.8373C88.5906 80.0473 88.1099 79.33 87.5036 78.727L86.4609 77.6844ZM57.9707 37.0138L57.0329 34.6691C56.1994 32.5908 55.6975 30.3945 55.5455 28.1605H70.1909C70.0389 30.3945 69.5369 32.5908 68.7034 34.6691L67.7656 37.0138C67.6081 37.01 67.4502 37.008 67.2918 37.0078H58.4445C58.2861 37.0078 58.1282 37.0098 57.9707 37.0138ZM36.3263 83.3295V85.6679H8.30988C7.13706 85.6665 6.01267 85.2 5.18337 84.3707C4.35406 83.5414 3.88757 82.417 3.88623 81.2442V7.51681C3.88757 6.344 4.35406 5.21961 5.18337 4.3903C6.01267 3.561 7.13706 3.09451 8.30988 3.09317H50.1032C50.429 3.09337 50.7538 3.12928 51.0718 3.20026V13.415C51.074 15.3697 51.8515 17.2437 53.2336 18.6259C54.6158 20.0081 56.4898 20.7855 58.4445 20.7877H62.8682V17.8387H58.4445C57.2717 17.8373 56.1473 17.3709 55.318 16.5415C54.4887 15.7122 54.0222 14.5878 54.0209 13.415V5.17845L67.4707 18.6283C67.8828 19.0381 68.2094 19.5256 68.4318 20.0625C68.6542 20.5995 68.7679 21.1752 68.7664 21.7563V25.2114H54.0209C53.8272 25.2114 53.6355 25.2495 53.4566 25.3236C53.2777 25.3977 53.1151 25.5063 52.9782 25.6433C52.8413 25.7802 52.7327 25.9427 52.6586 26.1216C52.5845 26.3006 52.5463 26.4923 52.5463 26.6859C52.5437 29.796 53.1372 32.8778 54.2947 35.7644L54.9223 37.3334C50.5281 38.1609 46.5605 40.4961 43.704 43.9362C40.8475 47.3763 39.2812 51.7055 39.2754 56.1769V77.6844L38.2327 78.727C37.6264 79.3299 37.1457 80.0472 36.8185 80.8373C36.4912 81.6273 36.3239 82.4744 36.3263 83.3295ZM86.4609 85.6679H39.2754V83.3295C39.2741 82.8618 39.3656 82.3986 39.5446 81.9665C39.7235 81.5344 39.9864 81.1421 40.318 80.8123L41.7926 79.3378C41.9295 79.2009 42.0381 79.0383 42.1122 78.8594C42.1864 78.6805 42.2245 78.4888 42.2245 78.2951V56.1769C42.2293 51.8766 43.9398 47.7538 46.9806 44.713C50.0214 41.6722 54.1442 39.9617 58.4445 39.9569H67.2918C71.5921 39.9617 75.7149 41.6722 78.7557 44.713C81.7965 47.7538 83.507 51.8766 83.5118 56.1769V76.8206H77.6136V79.7697H84.3756L85.4183 80.8124C85.7499 81.1422 86.0128 81.5344 86.1918 81.9665C86.3708 82.3986 86.4622 82.8619 86.4609 83.3295V85.6679Z" fill="#342B2B"/>
<path d="M57.4939 61.9836H60.4594V65.1091H57.4939V61.9836Z" fill="#342B2B"/>
<path d="M65.6189 51.4114C67.3581 51.4114 68.7136 52.0588 69.6855 53.3537C70.6745 54.627 71.1689 56.2672 71.1689 58.2743C71.1689 60.2813 70.6745 61.9323 69.6855 63.2272C68.6966 64.5005 67.341 65.1372 65.6189 65.1372H62.1661V73.8715H59.5062V51.4114H65.6189ZM65.2608 61.9647C66.1986 61.9647 66.9403 61.6518 67.486 61.0259C68.0316 60.3785 68.3044 59.4613 68.3044 58.2743C68.3044 57.0873 68.0316 56.1809 67.486 55.555C66.9403 54.9076 66.1986 54.5838 65.2608 54.5838H62.1661V61.9647H65.2608Z" fill="#342B2B"/>
<path d="M57.4939 66.3557H67.0648V69.4812H57.4939V66.3557Z" fill="#342B2B"/>
<path d="M75.0692 17.003V1.76508M75.0692 1.76508L68.0986 8.7356M75.0692 1.76508L82.0397 8.7356" stroke="#5E6398" stroke-width="3" stroke-linejoin="round"/>
<path d="M82.5695 31.9926V23.9385M82.5695 23.9385L77.9703 28.5377M82.5695 23.9385L87.1688 28.5377" stroke="#5E6398" stroke-width="3" stroke-linejoin="round"/>
</symbol>
</svg>
