<svg  xmlns="http://www.w3.org/2000/svg">
    <symbol id="st-05" width="96" height="97" viewBox="0 0 96 97" fill="none">
<path d="M57.485 32.565L60.6166 31.9273C60.1703 29.7575 58.9927 27.808 57.2817 26.4068C55.5708 25.0055 53.4309 24.2381 51.2221 24.2335H9.68201C7.14047 24.2363 4.70385 25.2503 2.90671 27.0529C1.10957 28.8555 0.0986796 31.2995 0.0958252 33.8487V94.7454C0.0958294 95.1704 0.264159 95.578 0.563784 95.8785C0.86341 96.1791 1.26979 96.3479 1.69352 96.3479H43.2336C43.6574 96.3479 44.0638 96.1791 44.3634 95.8785C44.663 95.578 44.8313 95.1704 44.8313 94.7454V33.8487C44.8315 32.2602 45.4197 30.7284 46.4817 29.5501C47.5438 28.3718 49.0042 27.6309 50.5798 27.4711C52.1554 27.3112 53.7341 27.7438 55.0099 28.685C56.2857 29.6261 57.1677 31.0088 57.485 32.565ZM41.6359 33.8487V93.1428H3.29122V33.8487C3.29314 32.1492 3.96707 30.5199 5.16516 29.3182C6.36325 28.1164 7.98765 27.4405 9.68201 27.4385H44.0828C42.5056 29.1986 41.6339 31.4821 41.6359 33.8487Z" fill="#5E6398"/>
<path d="M38.4406 3.4004H73.5899V32.2462H76.7853V1.79786C76.7853 1.37284 76.6169 0.965225 76.3173 0.664691C76.0177 0.364157 75.6113 0.195317 75.1876 0.195312H36.8429C36.4191 0.195317 36.0127 0.364157 35.7131 0.664691C35.4135 0.965225 35.2452 1.37284 35.2452 1.79786V21.0284H38.4406V3.4004Z" fill="#5E6398"/>
<path d="M48.0267 6.60548H64.0037V9.81057H48.0267V6.60548Z" fill="#5E6398"/>
<path d="M41.6359 13.0157H54.4175V16.2207H41.6359V13.0157Z" fill="#5E6398"/>
<path d="M57.6129 13.0157H70.3945V16.2207H57.6129V13.0157Z" fill="#5E6398"/>
<path d="M64.0037 19.4258H70.3945V22.6309H64.0037V19.4258Z" fill="#5E6398"/>
<path d="M64.0037 25.836H70.3945V29.0411H64.0037V25.836Z" fill="#5E6398"/>
<path d="M30.4521 37.0538H36.8429V40.2589H30.4521V37.0538Z" fill="#5E6398"/>
<path d="M30.4521 43.464H36.8429V46.6691H30.4521V43.464Z" fill="#5E6398"/>
<path d="M30.4521 49.8741H36.8429V53.0792H30.4521V49.8741Z" fill="#5E6398"/>
<path d="M6.48661 56.2843H36.8429V59.4894H6.48661V56.2843Z" fill="#5E6398"/>
<path d="M30.4521 62.6945H36.8429V65.8996H30.4521V62.6945Z" fill="#5E6398"/>
<path d="M6.48661 37.0538H20.8659V40.2589H6.48661V37.0538Z" fill="#5E6398"/>
<path d="M9.68201 30.6436H35.2452V33.8487H9.68201V30.6436Z" fill="#5E6398"/>
<path d="M30.4521 69.1047H36.8429V72.3098H30.4521V69.1047Z" fill="#5E6398"/>
<path d="M6.48661 43.464H17.6705V46.6691H6.48661V43.464Z" fill="#5E6398"/>
<path d="M6.48661 49.8741H20.8659V53.0792H6.48661V49.8741Z" fill="#5E6398"/>
<path d="M6.48661 62.6945H20.8659V65.8996H6.48661V62.6945Z" fill="#5E6398"/>
<path d="M6.48661 77.1174H38.4406V80.3225H6.48661V77.1174Z" fill="#5E6398"/>
<path d="M94.3599 35.4512H48.0267V38.6563H92.7622V41.8614H48.0267V45.0664H92.7622V67.5021H90.9925C88.9062 65.4479 86.0995 64.297 83.1761 64.297C80.2526 64.297 77.4459 65.4479 75.3596 67.5021H48.0267V70.7072H57.785C56.8412 71.6326 56.0673 72.7175 55.4988 73.9123H48.0267V77.1174H54.5335C54.274 78.9246 54.4581 80.768 55.0699 82.4877C55.6816 84.2073 56.7025 85.7513 58.0439 86.9856C59.3854 88.2198 61.0068 89.1071 62.7676 89.5704C64.5283 90.0338 66.3752 90.0591 68.1479 89.6443C69.1805 92.0012 70.9901 93.9301 73.2728 95.1071C75.5555 96.2841 78.1725 96.6376 80.6843 96.1082C83.1961 95.5788 85.4499 94.1988 87.0673 92.1998C88.6848 90.2008 89.5673 87.7045 89.5669 85.1301C89.5669 84.9951 89.5614 84.8613 89.5567 84.7274C90.815 83.8477 91.8802 82.7184 92.6863 81.4095C93.4924 80.1006 94.0224 78.6398 94.2435 77.1174H94.3599C94.7837 77.1173 95.1901 76.9485 95.4897 76.648C95.7893 76.3474 95.9576 75.9398 95.9576 75.5148V37.0537C95.9576 36.6287 95.7893 36.2211 95.4897 35.9206C95.1901 35.62 94.7837 35.4512 94.3599 35.4512ZM65.6014 86.7326C64.2326 86.7326 62.8868 86.3799 61.6931 85.7082C60.4993 85.0365 59.4977 84.0684 58.7842 82.8968C58.0707 81.7251 57.6693 80.3893 57.6185 79.0173C57.5677 77.6453 57.8691 76.2833 58.494 75.0618C59.1189 73.8403 60.0462 72.8004 61.187 72.0417C62.3278 71.283 63.6438 70.8311 65.0088 70.7293C66.3738 70.6274 67.742 70.879 68.9821 71.4601C70.2223 72.0411 71.2928 72.9319 72.091 74.0472C72.0262 74.5337 71.9932 75.024 71.9922 75.5148C71.9922 75.6518 71.9954 75.7891 72.0003 75.9263C71.8345 76.0424 71.672 76.1629 71.513 76.2878C71.0488 75.1454 70.2662 74.1614 69.2588 73.4535C68.2515 72.7457 67.0622 72.3439 65.8331 72.2964C64.6041 72.2489 63.3875 72.5576 62.3288 73.1856C61.2702 73.8137 60.4144 74.7344 59.8638 75.8375C59.3133 76.9407 59.0913 78.1797 59.2245 79.4061C59.3577 80.6325 59.8404 81.7944 60.6149 82.7528C61.3893 83.7112 62.4227 84.4255 63.5914 84.8101C64.76 85.1948 66.0144 85.2335 67.2044 84.9216C67.2031 84.9912 67.1991 85.0601 67.1991 85.1301C67.2001 85.6053 67.2312 86.0799 67.292 86.5512C66.7365 86.6716 66.1697 86.7324 65.6014 86.7326ZM65.6014 81.925C64.9323 81.926 64.2797 81.7166 63.7353 81.3263C63.191 80.9359 62.7824 80.3843 62.5669 79.7489C62.3514 79.1135 62.3398 78.4263 62.5339 77.784C62.728 77.1417 63.1179 76.5766 63.6489 76.1681C64.1798 75.7596 64.825 75.5283 65.4938 75.5068C66.1626 75.4852 66.8213 75.6745 67.3773 76.0479C67.9333 76.4214 68.3585 76.9603 68.5933 77.5887C68.8281 78.2172 68.8606 78.9037 68.6862 79.5517C68.4706 79.9259 68.2769 80.3123 68.1059 80.709C67.8063 81.0873 67.4256 81.3931 66.992 81.6036C66.5584 81.8142 66.0831 81.924 65.6014 81.925ZM78.383 93.1428C76.803 93.1428 75.2585 92.6729 73.9448 91.7924C72.6311 90.912 71.6072 89.6606 71.0026 88.1964C70.3979 86.7323 70.2397 85.1212 70.548 83.5669C70.8562 82.0126 71.6171 80.5848 72.7343 79.4642C73.8515 78.3436 75.2749 77.5805 76.8245 77.2713C78.3741 76.9621 79.9803 77.1208 81.44 77.7273C82.8997 78.3338 84.1474 79.3608 85.0252 80.6784C85.9029 81.9961 86.3715 83.5453 86.3715 85.1301C86.3691 87.2544 85.5266 89.2911 84.029 90.7933C82.5314 92.2954 80.5009 93.1404 78.383 93.1428ZM86.0295 76.9548C84.4461 75.4605 82.4619 74.4628 80.3208 74.0843C80.5081 73.7073 80.7677 73.3712 81.0847 73.095C81.4018 72.8188 81.77 72.608 82.1684 72.4748C82.5667 72.3416 82.9874 72.2885 83.4062 72.3185C83.8251 72.3486 84.2339 72.4612 84.6093 72.6499C84.9847 72.8387 85.3193 73.0999 85.5939 73.4185C85.8685 73.7372 86.0778 74.107 86.2097 74.5069C86.3416 74.9067 86.3936 75.3288 86.3627 75.7488C86.3317 76.1689 86.2185 76.5787 86.0295 76.9548ZM88.8411 81.1601C88.6361 80.6195 88.3896 80.0957 88.1037 79.5934C88.7154 78.85 89.1521 77.9779 89.3812 77.0419C89.6104 76.1059 89.6261 75.1301 89.4272 74.1871C89.2283 73.2442 88.82 72.3583 88.2326 71.5956C87.6451 70.8329 86.8937 70.2128 86.0343 69.7817C85.1749 69.3505 84.2297 69.1193 83.2689 69.1053C82.3081 69.0913 81.3565 69.2948 80.4849 69.7008C79.6134 70.1067 78.8444 70.7046 78.2351 71.4499C77.6258 72.1952 77.192 73.0687 76.9659 74.0055C76.393 74.0783 75.8267 74.1959 75.2721 74.3571C75.4541 73.1026 75.9302 71.9094 76.6614 70.8754C77.3927 69.8414 78.358 68.9963 79.4783 68.4093C80.5985 67.8224 81.8416 67.5104 83.1054 67.4991C84.3692 67.4878 85.6176 67.7774 86.7481 68.3442C87.8786 68.911 88.8589 69.7387 89.6084 70.7594C90.3579 71.7802 90.8552 72.9647 91.0595 74.2157C91.2638 75.4667 91.1693 76.7485 90.7836 77.9557C90.398 79.1629 89.7322 80.2612 88.8411 81.1601V81.1601Z" fill="#342B2B"/>
<path d="M81.5784 51.4766C80.6304 51.4766 79.7037 51.7585 78.9155 52.2868C78.1273 52.8151 77.5129 53.5659 77.1501 54.4444C76.7874 55.3229 76.6924 56.2895 76.8774 57.2221C77.0623 58.1547 77.5188 59.0113 78.1891 59.6837C78.8595 60.356 79.7135 60.8139 80.6433 60.9994C81.5731 61.1849 82.5368 61.0897 83.4126 60.7258C84.2884 60.362 85.037 59.7458 85.5637 58.9551C86.0903 58.1645 86.3715 57.235 86.3715 56.2842C86.37 55.0096 85.8646 53.7876 84.966 52.8863C84.0674 51.985 82.8491 51.478 81.5784 51.4766ZM81.5784 57.8867C81.2624 57.8867 80.9535 57.7927 80.6907 57.6166C80.428 57.4406 80.2232 57.1903 80.1023 56.8974C79.9814 56.6046 79.9497 56.2824 80.0114 55.9715C80.073 55.6607 80.2252 55.3751 80.4486 55.151C80.6721 54.9269 80.9568 54.7743 81.2667 54.7124C81.5766 54.6506 81.8978 54.6823 82.1898 54.8036C82.4817 54.9249 82.7313 55.1303 82.9068 55.3939C83.0824 55.6574 83.1761 55.9672 83.1761 56.2842C83.1756 56.709 83.0071 57.1164 82.7076 57.4168C82.4081 57.7172 82.002 57.8862 81.5784 57.8867Z" fill="#342B2B"/>
<path d="M84.7738 61.0918H91.1646V64.2971H84.7738V61.0918Z" fill="#342B2B"/>
<path d="M71.9922 56.2843C71.9922 54.3826 71.43 52.5236 70.3766 50.9424C69.3233 49.3612 67.8261 48.1288 66.0745 47.4011C64.3228 46.6734 62.3954 46.4829 60.5358 46.8539C58.6763 47.2249 56.9682 48.1407 55.6276 49.4854C54.2869 50.8301 53.3739 52.5433 53.004 54.4085C52.6341 56.2736 52.824 58.2069 53.5495 59.9638C54.2751 61.7208 55.5038 63.2225 57.0802 64.279C58.6567 65.3355 60.51 65.8994 62.406 65.8994C64.9475 65.8965 67.3842 64.8826 69.1813 63.08C70.9784 61.2775 71.9893 58.8335 71.9922 56.2843ZM56.0152 56.2843C56.0152 55.0165 56.39 53.7772 57.0923 52.7231C57.7945 51.6689 58.7926 50.8473 59.9604 50.3622C61.1281 49.877 62.4131 49.7501 63.6528 49.9974C64.8925 50.2447 66.0312 50.8552 66.925 51.7517C67.8187 52.6482 68.4274 53.7903 68.674 55.0338C68.9206 56.2772 68.794 57.566 68.3103 58.7373C67.8266 59.9086 67.0075 60.9097 65.9565 61.6141C64.9056 62.3184 63.67 62.6944 62.406 62.6944C60.7117 62.6924 59.0873 62.0165 57.8892 60.8148C56.6911 59.6131 56.0171 57.9838 56.0152 56.2843Z" fill="#342B2B"/>
<path d="M78.383 78.72C77.119 78.72 75.8834 79.0959 74.8325 79.8003C73.7815 80.5046 72.9624 81.5058 72.4787 82.6771C71.995 83.8484 71.8684 85.1372 72.115 86.3807C72.3616 87.6241 72.9702 88.7663 73.864 89.6628C74.7578 90.5593 75.8965 91.1698 77.1362 91.4171C78.3759 91.6644 79.6609 91.5375 80.8287 91.0523C81.9964 90.5672 82.9945 89.7456 83.6968 88.6914C84.399 87.6373 84.7738 86.3979 84.7738 85.1301C84.7719 83.4306 84.098 81.8013 82.8999 80.5996C81.7018 79.3979 80.0774 78.7219 78.383 78.72ZM78.383 88.3352C77.751 88.3352 77.1332 88.1472 76.6077 87.7951C76.0822 87.4429 75.6727 86.9423 75.4308 86.3567C75.189 85.771 75.1257 85.1266 75.249 84.5048C75.3723 83.8831 75.6766 83.312 76.1235 82.8638C76.5704 82.4156 77.1398 82.1103 77.7596 81.9866C78.3794 81.863 79.0219 81.9264 79.6058 82.169C80.1897 82.4116 80.6888 82.8224 81.0399 83.3495C81.391 83.8766 81.5784 84.4962 81.5784 85.1301C81.5774 85.9799 81.2405 86.7945 80.6414 87.3954C80.0424 87.9962 79.2302 88.3342 78.383 88.3352Z" fill="#342B2B"/>
    </symbol>
</svg>
