<svg xmlns="http://www.w3.org/2000/svg">
<symbol id="st-02" width="88" height="97" viewBox="0 0 88 97" fill="none">
    <path d="M64.8114 44.0666V2.41709C64.8114 1.99225 64.6426 1.58481 64.3422 1.2844C64.0418 0.983985 63.6344 0.815206 63.2095 0.815186H2.33713C1.91229 0.815206 1.50485 0.983985 1.20444 1.2844C0.904029 1.58481 0.73525 1.99225 0.735229 2.41709V87.3181C0.73525 87.7429 0.904029 88.1504 1.20444 88.4508C1.50485 88.7512 1.91229 88.92 2.33713 88.92H50.3943V85.7162H3.93904V4.019H61.6076V44.0666H64.8114Z" fill="#342B2B"/>
<path d="M39.181 10.4266H45.5886V13.6304H39.181V10.4266Z" fill="#342B2B"/>
<path d="M19.9581 10.4266H35.9771V13.6304H19.9581V10.4266Z" fill="#342B2B"/>
<path d="M13.5505 24.8438H27.9676V28.0476H13.5505V24.8438Z" fill="#342B2B"/>
<path d="M31.1714 24.8438H58.4038V28.0476H31.1714V24.8438Z" fill="#342B2B"/>
<path d="M51.9962 31.2514H58.4038V34.4552H51.9962V31.2514Z" fill="#342B2B"/>
<path d="M23.1619 31.2514H48.7924V34.4552H23.1619V31.2514Z" fill="#342B2B"/>
<path d="M7.14285 31.2514H19.9581V34.4552H7.14285V31.2514Z" fill="#342B2B"/>
<path d="M35.9771 37.659H48.7924V40.8628H35.9771V37.659Z" fill="#342B2B"/>
<path d="M7.14285 37.659H32.7733V40.8628H7.14285V37.659Z" fill="#342B2B"/>
<path d="M13.5505 50.4742H27.9676V53.6781H13.5505V50.4742Z" fill="#342B2B"/>
<path d="M31.1714 50.4742H48.7924V53.6781H31.1714V50.4742Z" fill="#342B2B"/>
<path d="M23.1619 56.8819H42.3848V60.0857H23.1619V56.8819Z" fill="#342B2B"/>
<path d="M7.14285 56.8819H19.9581V60.0857H7.14285V56.8819Z" fill="#342B2B"/>
<path d="M29.5695 63.2895H37.579V66.4933H29.5695V63.2895Z" fill="#342B2B"/>
<path d="M7.14285 63.2895H26.3657V66.4933H7.14285V63.2895Z" fill="#342B2B"/>
<path d="M16.7543 44.0666H34.3752V47.2704H16.7543V44.0666Z" fill="#342B2B"/>
<path d="M10.3467 44.0666H13.5505V47.2704H10.3467V44.0666Z" fill="#342B2B"/>
<path d="M16.7543 18.4361H34.3752V21.64H16.7543V18.4361Z" fill="#342B2B"/>
<path d="M10.3467 18.4361H13.5505V21.64H10.3467V18.4361Z" fill="#342B2B"/>
<path d="M37.579 71.299H47.1905V74.5028H37.579V71.299Z" fill="#342B2B"/>
<path d="M34.3752 77.7066H50.3943V80.9104H34.3752V77.7066Z" fill="#342B2B"/>
<path d="M87.1902 55.4817L85.5883 49.0741C85.5357 48.8638 85.441 48.6663 85.3099 48.4937C85.1788 48.321 85.0139 48.1768 84.8254 48.0698C84.6369 47.9627 84.4286 47.895 84.2132 47.8708C83.9977 47.8466 83.7796 47.8664 83.572 47.929L75.2521 50.437C73.8048 48.6012 71.8112 47.2732 69.5595 46.6451C67.3079 46.0169 64.9147 46.121 62.7262 46.9425L56.0019 49.464C55.2968 49.7264 54.6624 50.1495 54.1491 50.6997C53.6358 51.2499 53.2577 51.912 53.0448 52.6337C52.8319 53.3554 52.79 54.1168 52.9224 54.8575C53.0549 55.5982 53.358 56.2978 53.8078 56.901L48.3301 58.5522C48.0769 58.6284 47.8466 58.7661 47.6596 58.9531L41.252 65.3607C41.028 65.5847 40.8754 65.8702 40.8137 66.1809C40.7519 66.4916 40.7836 66.8137 40.9049 67.1064C41.0261 67.3991 41.2314 67.6493 41.4948 67.8253C41.7583 68.0014 42.068 68.0953 42.3848 68.0954H51.9962C52.1599 68.0954 52.3226 68.0703 52.4786 68.0211L55.5729 67.0439C55.4028 68.0124 55.4682 69.0076 55.7638 69.9454C56.0594 70.8832 56.5763 71.7361 57.271 72.432L59.3421 74.503H58.4038C57.979 74.503 57.5715 74.6718 57.2711 74.9722C56.9707 75.2726 56.8019 75.68 56.8019 76.1049V80.9106H55.2C54.7752 80.9106 54.3677 81.0794 54.0673 81.3798C53.7669 81.6802 53.5981 82.0877 53.5981 82.5125V96.9297H56.8019V84.1144H74.4229V96.9297H77.6267V82.5125C77.6267 82.0877 77.4579 81.6802 77.1575 81.3798C76.8571 81.0794 76.4496 80.9106 76.0248 80.9106V76.1049C76.0248 75.68 75.856 75.2726 75.5556 74.9722C75.2552 74.6718 74.8477 74.503 74.4229 74.503H73.811L77.4575 67.2099C77.5688 66.9875 77.6267 66.7422 77.6267 66.4935V60.0796L86.1186 57.3979C86.5077 57.275 86.8352 57.0084 87.0344 56.6523C87.2335 56.2962 87.2892 55.8775 87.1902 55.4817ZM57.1269 52.4637L63.8509 49.9421C65.1943 49.4377 66.6507 49.3129 68.0603 49.5815C69.4699 49.8501 70.7783 50.5017 71.842 51.4648L59.7578 55.1075C58.6837 54.593 57.4495 54.5251 56.3254 54.9186C56.1888 54.7114 56.1007 54.476 56.0677 54.2301C56.0346 53.9841 56.0574 53.7339 56.1345 53.4979C56.2115 53.262 56.3407 53.0465 56.5125 52.8674C56.6844 52.6884 56.8944 52.5504 57.1269 52.4637H57.1269ZM51.7492 64.8916H46.2521L49.6403 61.5033L53.4238 60.3628C53.572 60.9277 53.8279 61.4587 54.1775 61.9265L55.5105 63.7038L51.7492 64.8916ZM60.0057 80.9106V77.7068H72.821V80.9106H60.0057ZM74.4229 66.1153L70.229 74.503H63.8732L59.5366 70.1664C58.9882 69.6167 58.6801 68.8719 58.6801 68.0954C58.6801 67.3189 58.9882 66.574 59.5366 66.0244C59.8092 65.7517 59.9744 65.3898 60.0017 65.0052C60.0291 64.6205 59.9168 64.239 59.6854 63.9305L56.7407 60.0043C56.5312 59.7251 56.4397 59.3748 56.4858 59.0288C56.5319 58.6827 56.712 58.3686 56.9873 58.154C57.2626 57.9394 57.6111 57.8414 57.958 57.8811C58.3048 57.9207 58.6222 58.095 58.8419 58.3662L63.086 63.6066L66.2407 67.5017L68.7304 65.4852L67.0559 63.4178L74.4229 61.0913V66.1153ZM64.8889 60.7422L62.3922 57.6594L82.8878 51.4813L83.7166 54.7965L64.8889 60.7422Z" fill="#5E6398"/>
</symbol>
</svg>
