<svg xmlns="http://www.w3.org/2000/svg">
    <symbol id="st-04" width="104" height="107" viewBox="0 0 104 107" fill="none">
<path d="M33.076 17.9631L40.5936 17.9631" stroke="#342B2B" stroke-width="3"/>
<path d="M58.5463 33.03L66.0638 33.03" stroke="#342B2B" stroke-width="3"/>
<path d="M60.3097 0.918701V8.43628M56.5509 4.67749L64.0685 4.67749" stroke="#5E6398" stroke-width="3"/>
<path d="M52.7921 18.4187V25.9363M49.0333 22.1775L56.5509 22.1775" stroke="#5E6398" stroke-width="3"/>
<path d="M40.5936 31.8286V39.3462M36.8348 35.5874L44.3524 35.5874" stroke="#5E6398" stroke-width="3"/>
<path d="M6.15008 89.3621C5.02985 87.8722 4.42478 86.0565 4.42669 84.1904H7.86401C7.86557 85.5616 8.40929 86.8761 9.37588 87.8456C10.3425 88.8151 11.653 89.3605 13.02 89.3621H6.15008Z" fill="#5E6398"/>
<path d="M52.0133 70.3832L49.2505 73.8472H44.8485L50.8942 66.267L52.0133 70.3832Z" fill="#5E6398"/>
<path fill-rule="evenodd" clip-rule="evenodd" d="M37.0812 58.3323H48.7366L49.6741 61.78H37.9072L33.0284 67.8972L35.8564 68.7481C36.2104 68.8547 36.5208 69.0729 36.7414 69.3703C36.962 69.6678 37.0812 70.0287 37.0812 70.3994V73.8472H33.6439V71.682L30.2066 70.6477V73.8472H26.7692V69.6134L22.6207 68.3651C20.8347 67.8367 19.2682 66.7408 18.1566 65.2423C17.0451 63.7438 16.4488 61.9239 16.4573 60.0562H19.8946C19.8895 61.1816 20.2488 62.2782 20.9186 63.1811C21.5883 64.084 22.5323 64.7444 23.6084 65.0628L29.4783 66.829L30.2066 65.9159V58.9962C30.2111 57.6171 29.8012 56.2686 29.0303 55.1265C28.2595 53.9845 27.1635 53.102 25.8852 52.594L23.9596 51.8214C22.7824 52.6926 21.3576 53.162 19.8946 53.1606C18.0859 53.1621 16.3234 52.5879 14.8608 51.5206L12.1856 52.5939C10.9073 53.1019 9.8112 53.9844 9.04032 55.1265C8.26943 56.2685 7.85951 57.617 7.86401 58.9962C7.86638 62.6189 9.13252 66.1267 11.4429 68.9112C12.7247 70.4581 14.3308 71.7024 16.1467 72.5555C17.2365 72.9861 19.9951 73.8472 22.311 73.8472H11.6593C10.6057 73.0507 9.64704 72.1351 8.80243 71.1185C8.47242 70.719 8.15962 70.3083 7.86401 69.8863V73.8472H4.42669V58.9962C4.41996 56.9275 5.03484 54.9047 6.19115 53.1917C7.34746 51.4786 8.99154 50.1548 10.909 49.3928L12.4204 48.7863C11.6859 47.4929 11.3002 46.0298 11.3013 44.5413V37.6458C11.3034 35.8176 12.0284 34.0649 13.3172 32.7722C14.606 31.4795 16.3533 30.7523 18.176 30.7502H23.3319C24.2432 30.7513 25.1169 31.1149 25.7613 31.7612C26.4057 32.4076 26.7682 33.2839 26.7692 34.198V46.2651C26.7699 47.2087 26.5764 48.1422 26.2008 49.0073L27.1618 49.3928C29.0792 50.1548 30.7233 51.4787 31.8795 53.1917C33.0358 54.9047 33.6506 56.9275 33.6439 58.9962V61.6062L35.7391 58.9792C35.9002 58.7773 36.1044 58.6143 36.3367 58.5024C36.569 58.3904 36.8235 58.3323 37.0812 58.3323ZM14.7386 44.5413V42.8174H16.4573C16.9131 42.8174 17.3503 42.6358 17.6727 42.3126L18.8878 41.0935H23.3319V46.2651C23.3309 47.1792 22.9684 48.0556 22.324 48.7019C21.6796 49.3483 20.8059 49.7118 19.8946 49.7129C18.5276 49.7113 17.2171 49.166 16.2505 48.1964C15.2839 47.2269 14.7402 45.9124 14.7386 44.5413ZM15.7466 35.209C15.1022 35.8553 14.7397 36.7317 14.7386 37.6458V39.3696H15.7455L16.9606 38.1506C17.283 37.8274 17.7201 37.6458 18.176 37.6458H23.3319V34.198H18.176C17.2646 34.199 16.391 34.5626 15.7466 35.209Z" fill="#5E6398"/>
<path fill-rule="evenodd" clip-rule="evenodd" d="M101.854 73.8475H100.136V58.9966C100.142 56.9279 99.5275 54.9052 98.3713 53.1921C97.215 51.4791 95.571 50.1553 93.6536 49.3932L92.142 48.7868C92.8765 47.4934 93.2622 46.0302 93.261 44.5417V37.6462C93.259 35.8181 92.534 34.0654 91.2452 32.7727C89.9564 31.48 88.209 30.7528 86.3864 30.7507H81.2304C80.3191 30.7518 79.4454 31.1154 78.801 31.7617C78.1566 32.4081 77.7942 33.2844 77.7931 34.1985V46.2656C77.7924 47.2091 77.986 48.1427 78.3616 49.0077L77.4008 49.3932C74.9464 50.3701 72.9616 52.2578 71.8586 54.6643L70.8579 50.9837C70.7932 50.7459 70.6785 50.5247 70.5214 50.3352C70.3643 50.1456 70.1684 49.992 69.9471 49.8848C69.7258 49.7776 69.4842 49.7193 69.2384 49.7137C68.9927 49.7082 68.7487 49.7555 68.5228 49.8526L57.1464 54.743L49.2141 51.5605C48.9174 51.4415 48.5934 51.4078 48.2786 51.4632C47.9638 51.5187 47.6706 51.6611 47.4321 51.8745C47.1935 52.0879 47.019 52.3638 46.9282 52.6712C46.8374 52.9786 46.8338 53.3053 46.9179 53.6146L48.2008 58.3327L49.1382 61.7804L50.3583 66.2674L51.4774 70.3835L52.0739 72.5771C52.1438 72.8344 52.2723 73.072 52.4493 73.271C52.6262 73.47 52.8468 73.6252 53.0937 73.7242L53.4011 73.8475H48.7146H44.3126H36.5453H33.108H29.6707H26.2334H21.4133H11.1234H7.32812H3.89081H2.17215C1.71634 73.8475 1.27921 74.0292 0.956899 74.3525C0.634593 74.6757 0.453513 75.1142 0.453491 75.5714V82.4669C0.453513 82.9241 0.634593 83.3625 0.956899 83.6858C1.27921 84.0091 1.71634 84.1907 2.17215 84.1907H3.89081H7.32812H15.9214V89.3624H12.4841H5.61419H2.17215C1.71634 89.3624 1.27921 89.544 0.956899 89.8673C0.634593 90.1906 0.453513 90.629 0.453491 91.0862V106.601H3.89081V92.8101H15.9214V106.601H19.3587V84.1907H84.6678V106.601H88.1051V92.8101H100.136V106.601H103.573V91.0862C103.573 90.629 103.392 90.1906 103.07 89.8673C102.747 89.544 102.31 89.3624 101.854 89.3624H98.4123C99.5325 87.8725 100.138 86.0568 100.136 84.1907H101.854C102.31 84.1907 102.747 84.0091 103.07 83.6858C103.392 83.3625 103.573 82.9241 103.573 82.4669V75.5714C103.573 75.1142 103.392 74.6757 103.07 74.3525C102.747 74.0292 102.31 73.8475 101.854 73.8475ZM92.9032 73.8475H96.6984V69.8868C96.4037 70.3099 96.0909 70.7207 95.7599 71.119C94.9153 72.1356 93.9568 73.0511 92.9032 73.8475ZM81.2304 41.094V46.2656C81.2315 47.1797 81.594 48.056 82.2384 48.7023C82.8828 49.3487 83.7564 49.7123 84.6678 49.7133C86.0347 49.7117 87.3453 49.1664 88.3119 48.1969C89.2785 47.2273 89.8222 45.9128 89.8237 44.5417V42.8178H88.1051C87.6493 42.8178 87.2121 42.6362 86.8897 42.313L85.6746 41.094H81.2304ZM86.3864 34.1985H81.2304V37.6462H86.3864C86.8422 37.6462 87.2794 37.8278 87.6018 38.151L88.8169 39.3701H89.8237V37.6462C89.8227 36.7321 89.4602 35.8558 88.8158 35.2095C88.1714 34.5631 87.2977 34.1995 86.3864 34.1985ZM75.5321 55.1269C74.7612 56.2689 74.3513 57.6174 74.3558 58.9966V63.8484L75.1601 66.8064L80.9539 65.063C82.0301 64.7446 82.9741 64.0843 83.6438 63.1814C84.3136 62.2786 84.6729 61.1819 84.6678 60.0565H88.1051C88.1136 61.9242 87.5173 63.7442 86.4058 65.2426C85.2942 66.7411 83.7276 67.8369 81.9417 68.3653L77.7931 69.6137V73.8475H82.6132C84.6185 73.8501 86.5996 73.4091 88.4156 72.5559C90.2315 71.7028 91.8376 70.4586 93.1194 68.9118C95.4298 66.1271 96.696 62.6194 96.6984 58.9966C96.7029 57.6175 96.293 56.269 95.5221 55.1269C94.7513 53.9849 93.6553 53.1024 92.377 52.5944L89.7015 51.521C88.2389 52.5883 86.4764 53.1625 84.6678 53.1611C83.2048 53.1624 81.78 52.693 80.6027 51.8219L78.6774 52.5944C77.3991 53.1023 76.303 53.9849 75.5321 55.1269ZM74.3558 73.8475V70.648L70.9185 71.6824V73.8475H74.3558ZM71.8669 67.7973L68.0615 53.802L59.2208 57.6025L63.6378 73.8475H67.4812V70.3998C67.4812 70.029 67.6003 69.6682 67.821 69.3707C68.0416 69.0733 68.3519 68.8551 68.706 68.7485L71.8669 67.7973ZM59.7591 72.6852L55.7364 57.8906L51.1422 56.0474L55.1648 70.8419L59.7591 72.6852ZM88.1051 89.3624H91.5424C92.9094 89.3608 94.2199 88.8154 95.1865 87.8459C96.1531 86.8764 96.6968 85.5619 96.6984 84.1907H88.1051V89.3624ZM3.89081 80.743H100.136V77.2953H3.89081V80.743Z" fill="#342B2B"/>
</symbol>
</svg>
