<svg width="14" height="17" viewBox="0 0 14 17" fill="none" xmlns="http://www.w3.org/2000/svg">
<path fill-rule="evenodd" clip-rule="evenodd" d="M1.13323 11.3523C1.85882 10.6267 2.84293 10.219 3.86907 10.219H10.0596C11.0857 10.219 12.0698 10.6267 12.7954 11.3523C13.521 12.0778 13.9287 13.062 13.9287 14.0881V15.6357C13.9287 16.0631 13.5822 16.4095 13.1548 16.4095C12.7275 16.4095 12.381 16.0631 12.381 15.6357V14.0881C12.381 13.4724 12.1365 12.8819 11.7011 12.4466C11.2657 12.0112 10.6753 11.7667 10.0596 11.7667H3.86907C3.25339 11.7667 2.66293 12.0112 2.22757 12.4466C1.79222 12.8819 1.54763 13.4724 1.54763 14.0881V15.6357C1.54763 16.0631 1.20118 16.4095 0.773814 16.4095C0.346448 16.4095 0 16.0631 0 15.6357V14.0881C0 13.062 0.407642 12.0778 1.13323 11.3523Z" fill="white"/>
<path fill-rule="evenodd" clip-rule="evenodd" d="M6.96433 2.48089C5.68223 2.48089 4.64288 3.52023 4.64288 4.80233C4.64288 6.08442 5.68223 7.12377 6.96433 7.12377C8.24642 7.12377 9.28577 6.08442 9.28577 4.80233C9.28577 3.52023 8.24642 2.48089 6.96433 2.48089ZM3.09526 4.80233C3.09526 2.6655 4.8275 0.933258 6.96433 0.933258C9.10115 0.933258 10.8334 2.6655 10.8334 4.80233C10.8334 6.93916 9.10115 8.6714 6.96433 8.6714C4.8275 8.6714 3.09526 6.93916 3.09526 4.80233Z" fill="white"/>
</svg>
